G04 #@! TF.GenerationSoftware,KiCad,Pcbnew,(5.1.2)-1*
G04 #@! TF.CreationDate,2021-01-11T20:38:22+09:00*
G04 #@! TF.ProjectId,es_back,65735f62-6163-46b2-9e6b-696361645f70,v1.2*
G04 #@! TF.SameCoordinates,Original*
G04 #@! TF.FileFunction,Copper,L2,Bot*
G04 #@! TF.FilePolarity,Positive*
%FSLAX46Y46*%
G04 Gerber Fmt 4.6, Leading zero omitted, Abs format (unit mm)*
G04 Created by KiCad (PCBNEW (5.1.2)-1) date 2021-01-11 20:38:22*
%MOMM*%
%LPD*%
G04 APERTURE LIST*
%ADD10C,0.254000*%
G04 APERTURE END LIST*
D10*
G36*
X209065424Y-76669580D02*
G01*
X209128356Y-76688580D01*
X209186405Y-76719445D01*
X209237343Y-76760989D01*
X209279248Y-76811644D01*
X209310515Y-76869471D01*
X209329956Y-76932272D01*
X209340000Y-77027835D01*
X209340001Y-95967711D01*
X209330420Y-96065424D01*
X209311420Y-96128357D01*
X209280554Y-96186406D01*
X209239011Y-96237343D01*
X209188356Y-96279248D01*
X209130529Y-96310515D01*
X209067728Y-96329956D01*
X208972165Y-96340000D01*
X136032279Y-96340000D01*
X135934576Y-96330420D01*
X135871643Y-96311420D01*
X135813594Y-96280554D01*
X135762657Y-96239011D01*
X135720752Y-96188356D01*
X135689485Y-96130529D01*
X135670044Y-96067728D01*
X135660000Y-95972165D01*
X135660000Y-90779872D01*
X144765000Y-90779872D01*
X144765000Y-91220128D01*
X144850890Y-91651925D01*
X145019369Y-92058669D01*
X145263962Y-92424729D01*
X145575271Y-92736038D01*
X145941331Y-92980631D01*
X146348075Y-93149110D01*
X146779872Y-93235000D01*
X147220128Y-93235000D01*
X147651925Y-93149110D01*
X148058669Y-92980631D01*
X148424729Y-92736038D01*
X148736038Y-92424729D01*
X148980631Y-92058669D01*
X149149110Y-91651925D01*
X149235000Y-91220128D01*
X149235000Y-90779872D01*
X204765000Y-90779872D01*
X204765000Y-91220128D01*
X204850890Y-91651925D01*
X205019369Y-92058669D01*
X205263962Y-92424729D01*
X205575271Y-92736038D01*
X205941331Y-92980631D01*
X206348075Y-93149110D01*
X206779872Y-93235000D01*
X207220128Y-93235000D01*
X207651925Y-93149110D01*
X208058669Y-92980631D01*
X208424729Y-92736038D01*
X208736038Y-92424729D01*
X208980631Y-92058669D01*
X209149110Y-91651925D01*
X209235000Y-91220128D01*
X209235000Y-90779872D01*
X209149110Y-90348075D01*
X208980631Y-89941331D01*
X208736038Y-89575271D01*
X208424729Y-89263962D01*
X208058669Y-89019369D01*
X207651925Y-88850890D01*
X207220128Y-88765000D01*
X206779872Y-88765000D01*
X206348075Y-88850890D01*
X205941331Y-89019369D01*
X205575271Y-89263962D01*
X205263962Y-89575271D01*
X205019369Y-89941331D01*
X204850890Y-90348075D01*
X204765000Y-90779872D01*
X149235000Y-90779872D01*
X149149110Y-90348075D01*
X148980631Y-89941331D01*
X148736038Y-89575271D01*
X148424729Y-89263962D01*
X148058669Y-89019369D01*
X147651925Y-88850890D01*
X147220128Y-88765000D01*
X146779872Y-88765000D01*
X146348075Y-88850890D01*
X145941331Y-89019369D01*
X145575271Y-89263962D01*
X145263962Y-89575271D01*
X145019369Y-89941331D01*
X144850890Y-90348075D01*
X144765000Y-90779872D01*
X135660000Y-90779872D01*
X135660000Y-86454147D01*
X177342765Y-86454147D01*
X177343183Y-86513964D01*
X177342765Y-86573781D01*
X177343665Y-86582952D01*
X177384466Y-86971145D01*
X177396487Y-87029708D01*
X177407702Y-87088501D01*
X177410366Y-87097323D01*
X177525790Y-87470198D01*
X177548975Y-87525353D01*
X177571379Y-87580806D01*
X177575706Y-87588943D01*
X177761357Y-87932298D01*
X177794780Y-87981849D01*
X177827562Y-88031946D01*
X177833387Y-88039087D01*
X178082194Y-88339841D01*
X178124629Y-88381981D01*
X178166492Y-88424730D01*
X178173592Y-88430604D01*
X178476077Y-88677305D01*
X178525904Y-88710409D01*
X178575259Y-88744204D01*
X178583365Y-88748587D01*
X178928007Y-88931837D01*
X178983311Y-88954631D01*
X179038295Y-88978198D01*
X179047098Y-88980923D01*
X179420770Y-89093741D01*
X179479458Y-89105361D01*
X179537961Y-89117797D01*
X179547126Y-89118760D01*
X179935595Y-89156850D01*
X179935598Y-89156850D01*
X179967581Y-89160000D01*
X186032419Y-89160000D01*
X186066382Y-89156655D01*
X186092329Y-89156655D01*
X186101494Y-89155692D01*
X186489393Y-89112182D01*
X186547873Y-89099751D01*
X186606583Y-89088127D01*
X186615386Y-89085401D01*
X186987447Y-88967377D01*
X187042430Y-88943811D01*
X187097736Y-88921016D01*
X187105842Y-88916633D01*
X187447892Y-88728589D01*
X187497221Y-88694812D01*
X187547074Y-88661691D01*
X187554174Y-88655816D01*
X187853185Y-88404916D01*
X187895029Y-88362186D01*
X187937484Y-88320027D01*
X187943308Y-88312886D01*
X188187892Y-88008684D01*
X188220640Y-87958639D01*
X188254097Y-87909038D01*
X188258423Y-87900901D01*
X188439262Y-87554989D01*
X188461665Y-87499540D01*
X188484852Y-87444381D01*
X188487515Y-87435559D01*
X188597722Y-87061109D01*
X188608925Y-87002379D01*
X188620960Y-86943750D01*
X188621859Y-86934579D01*
X188657235Y-86545853D01*
X188656817Y-86486036D01*
X188657235Y-86426219D01*
X188656335Y-86417047D01*
X188615534Y-86028855D01*
X188603514Y-85970299D01*
X188592298Y-85911498D01*
X188589634Y-85902677D01*
X188474210Y-85529802D01*
X188451025Y-85474647D01*
X188428621Y-85419194D01*
X188424294Y-85411058D01*
X188424294Y-85411057D01*
X188424291Y-85411053D01*
X188238643Y-85067702D01*
X188205187Y-85018101D01*
X188172437Y-84968054D01*
X188166613Y-84960913D01*
X187917806Y-84660158D01*
X187875371Y-84618019D01*
X187833508Y-84575269D01*
X187826407Y-84569396D01*
X187523923Y-84322695D01*
X187474107Y-84289598D01*
X187424741Y-84255795D01*
X187416635Y-84251413D01*
X187071993Y-84068163D01*
X187016687Y-84045368D01*
X186961704Y-84021802D01*
X186952901Y-84019077D01*
X186579230Y-83906259D01*
X186520542Y-83894639D01*
X186462039Y-83882203D01*
X186452874Y-83881240D01*
X186064405Y-83843150D01*
X186064402Y-83843150D01*
X186032419Y-83840000D01*
X179967581Y-83840000D01*
X179933618Y-83843345D01*
X179907671Y-83843345D01*
X179898507Y-83844308D01*
X179510607Y-83887818D01*
X179452127Y-83900249D01*
X179393417Y-83911873D01*
X179384614Y-83914599D01*
X179012553Y-84032623D01*
X178957631Y-84056163D01*
X178902264Y-84078983D01*
X178894158Y-84083367D01*
X178552108Y-84271411D01*
X178502795Y-84305177D01*
X178452926Y-84338309D01*
X178445826Y-84344184D01*
X178146815Y-84595084D01*
X178104987Y-84637797D01*
X178062516Y-84679973D01*
X178056692Y-84687114D01*
X177812108Y-84991315D01*
X177779348Y-85041378D01*
X177745903Y-85090962D01*
X177741577Y-85099099D01*
X177560738Y-85445012D01*
X177538341Y-85500447D01*
X177515148Y-85555619D01*
X177512485Y-85564441D01*
X177402278Y-85938891D01*
X177391075Y-85997621D01*
X177379040Y-86056250D01*
X177378141Y-86065421D01*
X177342765Y-86454147D01*
X135660000Y-86454147D01*
X135660000Y-81679872D01*
X144765000Y-81679872D01*
X144765000Y-82120128D01*
X144850890Y-82551925D01*
X145019369Y-82958669D01*
X145263962Y-83324729D01*
X145575271Y-83636038D01*
X145941331Y-83880631D01*
X146348075Y-84049110D01*
X146779872Y-84135000D01*
X147220128Y-84135000D01*
X147651925Y-84049110D01*
X148058669Y-83880631D01*
X148424729Y-83636038D01*
X148736038Y-83324729D01*
X148980631Y-82958669D01*
X149149110Y-82551925D01*
X149235000Y-82120128D01*
X149235000Y-81679872D01*
X204765000Y-81679872D01*
X204765000Y-82120128D01*
X204850890Y-82551925D01*
X205019369Y-82958669D01*
X205263962Y-83324729D01*
X205575271Y-83636038D01*
X205941331Y-83880631D01*
X206348075Y-84049110D01*
X206779872Y-84135000D01*
X207220128Y-84135000D01*
X207651925Y-84049110D01*
X208058669Y-83880631D01*
X208424729Y-83636038D01*
X208736038Y-83324729D01*
X208980631Y-82958669D01*
X209149110Y-82551925D01*
X209235000Y-82120128D01*
X209235000Y-81679872D01*
X209149110Y-81248075D01*
X208980631Y-80841331D01*
X208736038Y-80475271D01*
X208424729Y-80163962D01*
X208058669Y-79919369D01*
X207651925Y-79750890D01*
X207220128Y-79665000D01*
X206779872Y-79665000D01*
X206348075Y-79750890D01*
X205941331Y-79919369D01*
X205575271Y-80163962D01*
X205263962Y-80475271D01*
X205019369Y-80841331D01*
X204850890Y-81248075D01*
X204765000Y-81679872D01*
X149235000Y-81679872D01*
X149149110Y-81248075D01*
X148980631Y-80841331D01*
X148736038Y-80475271D01*
X148424729Y-80163962D01*
X148058669Y-79919369D01*
X147651925Y-79750890D01*
X147220128Y-79665000D01*
X146779872Y-79665000D01*
X146348075Y-79750890D01*
X145941331Y-79919369D01*
X145575271Y-80163962D01*
X145263962Y-80475271D01*
X145019369Y-80841331D01*
X144850890Y-81248075D01*
X144765000Y-81679872D01*
X135660000Y-81679872D01*
X135660000Y-77032279D01*
X135669580Y-76934576D01*
X135688580Y-76871644D01*
X135719445Y-76813595D01*
X135760989Y-76762657D01*
X135811644Y-76720752D01*
X135869471Y-76689485D01*
X135932272Y-76670044D01*
X136027835Y-76660000D01*
X208967721Y-76660000D01*
X209065424Y-76669580D01*
X209065424Y-76669580D01*
G37*
X209065424Y-76669580D02*
X209128356Y-76688580D01*
X209186405Y-76719445D01*
X209237343Y-76760989D01*
X209279248Y-76811644D01*
X209310515Y-76869471D01*
X209329956Y-76932272D01*
X209340000Y-77027835D01*
X209340001Y-95967711D01*
X209330420Y-96065424D01*
X209311420Y-96128357D01*
X209280554Y-96186406D01*
X209239011Y-96237343D01*
X209188356Y-96279248D01*
X209130529Y-96310515D01*
X209067728Y-96329956D01*
X208972165Y-96340000D01*
X136032279Y-96340000D01*
X135934576Y-96330420D01*
X135871643Y-96311420D01*
X135813594Y-96280554D01*
X135762657Y-96239011D01*
X135720752Y-96188356D01*
X135689485Y-96130529D01*
X135670044Y-96067728D01*
X135660000Y-95972165D01*
X135660000Y-90779872D01*
X144765000Y-90779872D01*
X144765000Y-91220128D01*
X144850890Y-91651925D01*
X145019369Y-92058669D01*
X145263962Y-92424729D01*
X145575271Y-92736038D01*
X145941331Y-92980631D01*
X146348075Y-93149110D01*
X146779872Y-93235000D01*
X147220128Y-93235000D01*
X147651925Y-93149110D01*
X148058669Y-92980631D01*
X148424729Y-92736038D01*
X148736038Y-92424729D01*
X148980631Y-92058669D01*
X149149110Y-91651925D01*
X149235000Y-91220128D01*
X149235000Y-90779872D01*
X204765000Y-90779872D01*
X204765000Y-91220128D01*
X204850890Y-91651925D01*
X205019369Y-92058669D01*
X205263962Y-92424729D01*
X205575271Y-92736038D01*
X205941331Y-92980631D01*
X206348075Y-93149110D01*
X206779872Y-93235000D01*
X207220128Y-93235000D01*
X207651925Y-93149110D01*
X208058669Y-92980631D01*
X208424729Y-92736038D01*
X208736038Y-92424729D01*
X208980631Y-92058669D01*
X209149110Y-91651925D01*
X209235000Y-91220128D01*
X209235000Y-90779872D01*
X209149110Y-90348075D01*
X208980631Y-89941331D01*
X208736038Y-89575271D01*
X208424729Y-89263962D01*
X208058669Y-89019369D01*
X207651925Y-88850890D01*
X207220128Y-88765000D01*
X206779872Y-88765000D01*
X206348075Y-88850890D01*
X205941331Y-89019369D01*
X205575271Y-89263962D01*
X205263962Y-89575271D01*
X205019369Y-89941331D01*
X204850890Y-90348075D01*
X204765000Y-90779872D01*
X149235000Y-90779872D01*
X149149110Y-90348075D01*
X148980631Y-89941331D01*
X148736038Y-89575271D01*
X148424729Y-89263962D01*
X148058669Y-89019369D01*
X147651925Y-88850890D01*
X147220128Y-88765000D01*
X146779872Y-88765000D01*
X146348075Y-88850890D01*
X145941331Y-89019369D01*
X145575271Y-89263962D01*
X145263962Y-89575271D01*
X145019369Y-89941331D01*
X144850890Y-90348075D01*
X144765000Y-90779872D01*
X135660000Y-90779872D01*
X135660000Y-86454147D01*
X177342765Y-86454147D01*
X177343183Y-86513964D01*
X177342765Y-86573781D01*
X177343665Y-86582952D01*
X177384466Y-86971145D01*
X177396487Y-87029708D01*
X177407702Y-87088501D01*
X177410366Y-87097323D01*
X177525790Y-87470198D01*
X177548975Y-87525353D01*
X177571379Y-87580806D01*
X177575706Y-87588943D01*
X177761357Y-87932298D01*
X177794780Y-87981849D01*
X177827562Y-88031946D01*
X177833387Y-88039087D01*
X178082194Y-88339841D01*
X178124629Y-88381981D01*
X178166492Y-88424730D01*
X178173592Y-88430604D01*
X178476077Y-88677305D01*
X178525904Y-88710409D01*
X178575259Y-88744204D01*
X178583365Y-88748587D01*
X178928007Y-88931837D01*
X178983311Y-88954631D01*
X179038295Y-88978198D01*
X179047098Y-88980923D01*
X179420770Y-89093741D01*
X179479458Y-89105361D01*
X179537961Y-89117797D01*
X179547126Y-89118760D01*
X179935595Y-89156850D01*
X179935598Y-89156850D01*
X179967581Y-89160000D01*
X186032419Y-89160000D01*
X186066382Y-89156655D01*
X186092329Y-89156655D01*
X186101494Y-89155692D01*
X186489393Y-89112182D01*
X186547873Y-89099751D01*
X186606583Y-89088127D01*
X186615386Y-89085401D01*
X186987447Y-88967377D01*
X187042430Y-88943811D01*
X187097736Y-88921016D01*
X187105842Y-88916633D01*
X187447892Y-88728589D01*
X187497221Y-88694812D01*
X187547074Y-88661691D01*
X187554174Y-88655816D01*
X187853185Y-88404916D01*
X187895029Y-88362186D01*
X187937484Y-88320027D01*
X187943308Y-88312886D01*
X188187892Y-88008684D01*
X188220640Y-87958639D01*
X188254097Y-87909038D01*
X188258423Y-87900901D01*
X188439262Y-87554989D01*
X188461665Y-87499540D01*
X188484852Y-87444381D01*
X188487515Y-87435559D01*
X188597722Y-87061109D01*
X188608925Y-87002379D01*
X188620960Y-86943750D01*
X188621859Y-86934579D01*
X188657235Y-86545853D01*
X188656817Y-86486036D01*
X188657235Y-86426219D01*
X188656335Y-86417047D01*
X188615534Y-86028855D01*
X188603514Y-85970299D01*
X188592298Y-85911498D01*
X188589634Y-85902677D01*
X188474210Y-85529802D01*
X188451025Y-85474647D01*
X188428621Y-85419194D01*
X188424294Y-85411058D01*
X188424294Y-85411057D01*
X188424291Y-85411053D01*
X188238643Y-85067702D01*
X188205187Y-85018101D01*
X188172437Y-84968054D01*
X188166613Y-84960913D01*
X187917806Y-84660158D01*
X187875371Y-84618019D01*
X187833508Y-84575269D01*
X187826407Y-84569396D01*
X187523923Y-84322695D01*
X187474107Y-84289598D01*
X187424741Y-84255795D01*
X187416635Y-84251413D01*
X187071993Y-84068163D01*
X187016687Y-84045368D01*
X186961704Y-84021802D01*
X186952901Y-84019077D01*
X186579230Y-83906259D01*
X186520542Y-83894639D01*
X186462039Y-83882203D01*
X186452874Y-83881240D01*
X186064405Y-83843150D01*
X186064402Y-83843150D01*
X186032419Y-83840000D01*
X179967581Y-83840000D01*
X179933618Y-83843345D01*
X179907671Y-83843345D01*
X179898507Y-83844308D01*
X179510607Y-83887818D01*
X179452127Y-83900249D01*
X179393417Y-83911873D01*
X179384614Y-83914599D01*
X179012553Y-84032623D01*
X178957631Y-84056163D01*
X178902264Y-84078983D01*
X178894158Y-84083367D01*
X178552108Y-84271411D01*
X178502795Y-84305177D01*
X178452926Y-84338309D01*
X178445826Y-84344184D01*
X178146815Y-84595084D01*
X178104987Y-84637797D01*
X178062516Y-84679973D01*
X178056692Y-84687114D01*
X177812108Y-84991315D01*
X177779348Y-85041378D01*
X177745903Y-85090962D01*
X177741577Y-85099099D01*
X177560738Y-85445012D01*
X177538341Y-85500447D01*
X177515148Y-85555619D01*
X177512485Y-85564441D01*
X177402278Y-85938891D01*
X177391075Y-85997621D01*
X177379040Y-86056250D01*
X177378141Y-86065421D01*
X177342765Y-86454147D01*
X135660000Y-86454147D01*
X135660000Y-81679872D01*
X144765000Y-81679872D01*
X144765000Y-82120128D01*
X144850890Y-82551925D01*
X145019369Y-82958669D01*
X145263962Y-83324729D01*
X145575271Y-83636038D01*
X145941331Y-83880631D01*
X146348075Y-84049110D01*
X146779872Y-84135000D01*
X147220128Y-84135000D01*
X147651925Y-84049110D01*
X148058669Y-83880631D01*
X148424729Y-83636038D01*
X148736038Y-83324729D01*
X148980631Y-82958669D01*
X149149110Y-82551925D01*
X149235000Y-82120128D01*
X149235000Y-81679872D01*
X204765000Y-81679872D01*
X204765000Y-82120128D01*
X204850890Y-82551925D01*
X205019369Y-82958669D01*
X205263962Y-83324729D01*
X205575271Y-83636038D01*
X205941331Y-83880631D01*
X206348075Y-84049110D01*
X206779872Y-84135000D01*
X207220128Y-84135000D01*
X207651925Y-84049110D01*
X208058669Y-83880631D01*
X208424729Y-83636038D01*
X208736038Y-83324729D01*
X208980631Y-82958669D01*
X209149110Y-82551925D01*
X209235000Y-82120128D01*
X209235000Y-81679872D01*
X209149110Y-81248075D01*
X208980631Y-80841331D01*
X208736038Y-80475271D01*
X208424729Y-80163962D01*
X208058669Y-79919369D01*
X207651925Y-79750890D01*
X207220128Y-79665000D01*
X206779872Y-79665000D01*
X206348075Y-79750890D01*
X205941331Y-79919369D01*
X205575271Y-80163962D01*
X205263962Y-80475271D01*
X205019369Y-80841331D01*
X204850890Y-81248075D01*
X204765000Y-81679872D01*
X149235000Y-81679872D01*
X149149110Y-81248075D01*
X148980631Y-80841331D01*
X148736038Y-80475271D01*
X148424729Y-80163962D01*
X148058669Y-79919369D01*
X147651925Y-79750890D01*
X147220128Y-79665000D01*
X146779872Y-79665000D01*
X146348075Y-79750890D01*
X145941331Y-79919369D01*
X145575271Y-80163962D01*
X145263962Y-80475271D01*
X145019369Y-80841331D01*
X144850890Y-81248075D01*
X144765000Y-81679872D01*
X135660000Y-81679872D01*
X135660000Y-77032279D01*
X135669580Y-76934576D01*
X135688580Y-76871644D01*
X135719445Y-76813595D01*
X135760989Y-76762657D01*
X135811644Y-76720752D01*
X135869471Y-76689485D01*
X135932272Y-76670044D01*
X136027835Y-76660000D01*
X208967721Y-76660000D01*
X209065424Y-76669580D01*
M02*
