G04 #@! TF.GenerationSoftware,KiCad,Pcbnew,(5.1.2)-1*
G04 #@! TF.CreationDate,2021-06-02T21:36:33+09:00*
G04 #@! TF.ProjectId,es,65732e6b-6963-4616-945f-706362585858,v1.3*
G04 #@! TF.SameCoordinates,Original*
G04 #@! TF.FileFunction,Soldermask,Bot*
G04 #@! TF.FilePolarity,Negative*
%FSLAX46Y46*%
G04 Gerber Fmt 4.6, Leading zero omitted, Abs format (unit mm)*
G04 Created by KiCad (PCBNEW (5.1.2)-1) date 2021-06-02 21:36:33*
%MOMM*%
%LPD*%
G04 APERTURE LIST*
%ADD10C,0.100000*%
G04 APERTURE END LIST*
D10*
G36*
X192861000Y-93401000D02*
G01*
X191059000Y-93401000D01*
X191059000Y-91599000D01*
X192861000Y-91599000D01*
X192861000Y-93401000D01*
X192861000Y-93401000D01*
G37*
G36*
X197150442Y-91605518D02*
G01*
X197216627Y-91612037D01*
X197386466Y-91663557D01*
X197542991Y-91747222D01*
X197578729Y-91776552D01*
X197680186Y-91859814D01*
X197763448Y-91961271D01*
X197792778Y-91997009D01*
X197876443Y-92153534D01*
X197927963Y-92323373D01*
X197945359Y-92500000D01*
X197927963Y-92676627D01*
X197876443Y-92846466D01*
X197792778Y-93002991D01*
X197763448Y-93038729D01*
X197680186Y-93140186D01*
X197578729Y-93223448D01*
X197542991Y-93252778D01*
X197386466Y-93336443D01*
X197216627Y-93387963D01*
X197150443Y-93394481D01*
X197084260Y-93401000D01*
X196995740Y-93401000D01*
X196929558Y-93394482D01*
X196863373Y-93387963D01*
X196693534Y-93336443D01*
X196537009Y-93252778D01*
X196501271Y-93223448D01*
X196399814Y-93140186D01*
X196316552Y-93038729D01*
X196287222Y-93002991D01*
X196203557Y-92846466D01*
X196152037Y-92676627D01*
X196134641Y-92500000D01*
X196152037Y-92323373D01*
X196203557Y-92153534D01*
X196287222Y-91997009D01*
X196316552Y-91961271D01*
X196399814Y-91859814D01*
X196501271Y-91776552D01*
X196537009Y-91747222D01*
X196693534Y-91663557D01*
X196863373Y-91612037D01*
X196929557Y-91605519D01*
X196995740Y-91599000D01*
X197084260Y-91599000D01*
X197150442Y-91605518D01*
X197150442Y-91605518D01*
G37*
G36*
X194610442Y-91605518D02*
G01*
X194676627Y-91612037D01*
X194846466Y-91663557D01*
X195002991Y-91747222D01*
X195038729Y-91776552D01*
X195140186Y-91859814D01*
X195223448Y-91961271D01*
X195252778Y-91997009D01*
X195336443Y-92153534D01*
X195387963Y-92323373D01*
X195405359Y-92500000D01*
X195387963Y-92676627D01*
X195336443Y-92846466D01*
X195252778Y-93002991D01*
X195223448Y-93038729D01*
X195140186Y-93140186D01*
X195038729Y-93223448D01*
X195002991Y-93252778D01*
X194846466Y-93336443D01*
X194676627Y-93387963D01*
X194610443Y-93394481D01*
X194544260Y-93401000D01*
X194455740Y-93401000D01*
X194389558Y-93394482D01*
X194323373Y-93387963D01*
X194153534Y-93336443D01*
X193997009Y-93252778D01*
X193961271Y-93223448D01*
X193859814Y-93140186D01*
X193776552Y-93038729D01*
X193747222Y-93002991D01*
X193663557Y-92846466D01*
X193612037Y-92676627D01*
X193594641Y-92500000D01*
X193612037Y-92323373D01*
X193663557Y-92153534D01*
X193747222Y-91997009D01*
X193776552Y-91961271D01*
X193859814Y-91859814D01*
X193961271Y-91776552D01*
X193997009Y-91747222D01*
X194153534Y-91663557D01*
X194323373Y-91612037D01*
X194389557Y-91605519D01*
X194455740Y-91599000D01*
X194544260Y-91599000D01*
X194610442Y-91605518D01*
X194610442Y-91605518D01*
G37*
G36*
X207375256Y-89391298D02*
G01*
X207481579Y-89412447D01*
X207782042Y-89536903D01*
X208052451Y-89717585D01*
X208282415Y-89947549D01*
X208463097Y-90217958D01*
X208587553Y-90518421D01*
X208608702Y-90624744D01*
X208651000Y-90837389D01*
X208651000Y-91162611D01*
X208646946Y-91182991D01*
X208587553Y-91481579D01*
X208463097Y-91782042D01*
X208282415Y-92052451D01*
X208052451Y-92282415D01*
X207782042Y-92463097D01*
X207481579Y-92587553D01*
X207375256Y-92608702D01*
X207162611Y-92651000D01*
X206837389Y-92651000D01*
X206624744Y-92608702D01*
X206518421Y-92587553D01*
X206217958Y-92463097D01*
X205947549Y-92282415D01*
X205717585Y-92052451D01*
X205536903Y-91782042D01*
X205412447Y-91481579D01*
X205353054Y-91182991D01*
X205349000Y-91162611D01*
X205349000Y-90837389D01*
X205391298Y-90624744D01*
X205412447Y-90518421D01*
X205536903Y-90217958D01*
X205717585Y-89947549D01*
X205947549Y-89717585D01*
X206217958Y-89536903D01*
X206518421Y-89412447D01*
X206624744Y-89391298D01*
X206837389Y-89349000D01*
X207162611Y-89349000D01*
X207375256Y-89391298D01*
X207375256Y-89391298D01*
G37*
G36*
X147375256Y-89391298D02*
G01*
X147481579Y-89412447D01*
X147782042Y-89536903D01*
X148052451Y-89717585D01*
X148282415Y-89947549D01*
X148463097Y-90217958D01*
X148587553Y-90518421D01*
X148608702Y-90624744D01*
X148651000Y-90837389D01*
X148651000Y-91162611D01*
X148646946Y-91182991D01*
X148587553Y-91481579D01*
X148463097Y-91782042D01*
X148282415Y-92052451D01*
X148052451Y-92282415D01*
X147782042Y-92463097D01*
X147481579Y-92587553D01*
X147375256Y-92608702D01*
X147162611Y-92651000D01*
X146837389Y-92651000D01*
X146624744Y-92608702D01*
X146518421Y-92587553D01*
X146217958Y-92463097D01*
X145947549Y-92282415D01*
X145717585Y-92052451D01*
X145536903Y-91782042D01*
X145412447Y-91481579D01*
X145353054Y-91182991D01*
X145349000Y-91162611D01*
X145349000Y-90837389D01*
X145391298Y-90624744D01*
X145412447Y-90518421D01*
X145536903Y-90217958D01*
X145717585Y-89947549D01*
X145947549Y-89717585D01*
X146217958Y-89536903D01*
X146518421Y-89412447D01*
X146624744Y-89391298D01*
X146837389Y-89349000D01*
X147162611Y-89349000D01*
X147375256Y-89391298D01*
X147375256Y-89391298D01*
G37*
G36*
X167510443Y-89785519D02*
G01*
X167576627Y-89792037D01*
X167746466Y-89843557D01*
X167902991Y-89927222D01*
X167927759Y-89947549D01*
X168040186Y-90039814D01*
X168123448Y-90141271D01*
X168152778Y-90177009D01*
X168236443Y-90333534D01*
X168287963Y-90503373D01*
X168305359Y-90680000D01*
X168287963Y-90856627D01*
X168236443Y-91026466D01*
X168152778Y-91182991D01*
X168123448Y-91218729D01*
X168040186Y-91320186D01*
X167938729Y-91403448D01*
X167902991Y-91432778D01*
X167746466Y-91516443D01*
X167576627Y-91567963D01*
X167510442Y-91574482D01*
X167444260Y-91581000D01*
X167355740Y-91581000D01*
X167289558Y-91574482D01*
X167223373Y-91567963D01*
X167053534Y-91516443D01*
X166897009Y-91432778D01*
X166861271Y-91403448D01*
X166759814Y-91320186D01*
X166676552Y-91218729D01*
X166647222Y-91182991D01*
X166563557Y-91026466D01*
X166512037Y-90856627D01*
X166494641Y-90680000D01*
X166512037Y-90503373D01*
X166563557Y-90333534D01*
X166647222Y-90177009D01*
X166676552Y-90141271D01*
X166759814Y-90039814D01*
X166872241Y-89947549D01*
X166897009Y-89927222D01*
X167053534Y-89843557D01*
X167223373Y-89792037D01*
X167289557Y-89785519D01*
X167355740Y-89779000D01*
X167444260Y-89779000D01*
X167510443Y-89785519D01*
X167510443Y-89785519D01*
G37*
G36*
X136431248Y-89179976D02*
G01*
X136491924Y-89185952D01*
X136647626Y-89233184D01*
X136647628Y-89233185D01*
X136791121Y-89309883D01*
X136916896Y-89413104D01*
X137020117Y-89538879D01*
X137088181Y-89666219D01*
X137096816Y-89682374D01*
X137144048Y-89838076D01*
X137159996Y-90000000D01*
X137144048Y-90161924D01*
X137098219Y-90313000D01*
X137096815Y-90317628D01*
X137020117Y-90461121D01*
X136916896Y-90586896D01*
X136791121Y-90690117D01*
X136647628Y-90766815D01*
X136647626Y-90766816D01*
X136491924Y-90814048D01*
X136431248Y-90820024D01*
X136370574Y-90826000D01*
X136289426Y-90826000D01*
X136228752Y-90820024D01*
X136168076Y-90814048D01*
X136012374Y-90766816D01*
X136012372Y-90766815D01*
X135868879Y-90690117D01*
X135743104Y-90586896D01*
X135639883Y-90461121D01*
X135563185Y-90317628D01*
X135561781Y-90313000D01*
X135515952Y-90161924D01*
X135500004Y-90000000D01*
X135515952Y-89838076D01*
X135563184Y-89682374D01*
X135571819Y-89666219D01*
X135639883Y-89538879D01*
X135743104Y-89413104D01*
X135868879Y-89309883D01*
X136012372Y-89233185D01*
X136012374Y-89233184D01*
X136168076Y-89185952D01*
X136228752Y-89179976D01*
X136289426Y-89174000D01*
X136370574Y-89174000D01*
X136431248Y-89179976D01*
X136431248Y-89179976D01*
G37*
G36*
X142347747Y-88810921D02*
G01*
X142427376Y-88818764D01*
X142580627Y-88865252D01*
X142580630Y-88865253D01*
X142721863Y-88940744D01*
X142845659Y-89042341D01*
X142947256Y-89166137D01*
X143022747Y-89307370D01*
X143022748Y-89307373D01*
X143069236Y-89460624D01*
X143084933Y-89620000D01*
X143069236Y-89779376D01*
X143022748Y-89932627D01*
X143022747Y-89932630D01*
X142947256Y-90073863D01*
X142845659Y-90197659D01*
X142721863Y-90299256D01*
X142580630Y-90374747D01*
X142580627Y-90374748D01*
X142427376Y-90421236D01*
X142347747Y-90429079D01*
X142307934Y-90433000D01*
X141952066Y-90433000D01*
X141912253Y-90429079D01*
X141832624Y-90421236D01*
X141679373Y-90374748D01*
X141679370Y-90374747D01*
X141538137Y-90299256D01*
X141414341Y-90197659D01*
X141312744Y-90073863D01*
X141237253Y-89932630D01*
X141237252Y-89932627D01*
X141190764Y-89779376D01*
X141175067Y-89620000D01*
X141190764Y-89460624D01*
X141237252Y-89307373D01*
X141237253Y-89307370D01*
X141312744Y-89166137D01*
X141414341Y-89042341D01*
X141538137Y-88940744D01*
X141679370Y-88865253D01*
X141679373Y-88865252D01*
X141832624Y-88818764D01*
X141912253Y-88810921D01*
X141952066Y-88807000D01*
X142307934Y-88807000D01*
X142347747Y-88810921D01*
X142347747Y-88810921D01*
G37*
G36*
X172577747Y-88690921D02*
G01*
X172657376Y-88698764D01*
X172810627Y-88745252D01*
X172810630Y-88745253D01*
X172951863Y-88820744D01*
X173075659Y-88922341D01*
X173177256Y-89046137D01*
X173252747Y-89187370D01*
X173252748Y-89187373D01*
X173299236Y-89340624D01*
X173314933Y-89500000D01*
X173299236Y-89659376D01*
X173258994Y-89792037D01*
X173252747Y-89812630D01*
X173177256Y-89953863D01*
X173075659Y-90077659D01*
X172951863Y-90179256D01*
X172810630Y-90254747D01*
X172810627Y-90254748D01*
X172657376Y-90301236D01*
X172577747Y-90309079D01*
X172537934Y-90313000D01*
X172182066Y-90313000D01*
X172142253Y-90309079D01*
X172062624Y-90301236D01*
X171909373Y-90254748D01*
X171909370Y-90254747D01*
X171768137Y-90179256D01*
X171644341Y-90077659D01*
X171542744Y-89953863D01*
X171467253Y-89812630D01*
X171461006Y-89792037D01*
X171420764Y-89659376D01*
X171405067Y-89500000D01*
X171420764Y-89340624D01*
X171467252Y-89187373D01*
X171467253Y-89187370D01*
X171542744Y-89046137D01*
X171644341Y-88922341D01*
X171768137Y-88820744D01*
X171909370Y-88745253D01*
X171909373Y-88745252D01*
X172062624Y-88698764D01*
X172142253Y-88690921D01*
X172182066Y-88687000D01*
X172537934Y-88687000D01*
X172577747Y-88690921D01*
X172577747Y-88690921D01*
G37*
G36*
X139162517Y-88333781D02*
G01*
X139289946Y-88372436D01*
X139407383Y-88435208D01*
X139510317Y-88519683D01*
X139594792Y-88622617D01*
X139657564Y-88740054D01*
X139696219Y-88867483D01*
X139709270Y-89000000D01*
X139696219Y-89132517D01*
X139657564Y-89259946D01*
X139594792Y-89377383D01*
X139510317Y-89480317D01*
X139407383Y-89564792D01*
X139289946Y-89627564D01*
X139162517Y-89666219D01*
X139063205Y-89676000D01*
X138996795Y-89676000D01*
X138897483Y-89666219D01*
X138770054Y-89627564D01*
X138652617Y-89564792D01*
X138549683Y-89480317D01*
X138465208Y-89377383D01*
X138402436Y-89259946D01*
X138363781Y-89132517D01*
X138350730Y-89000000D01*
X138363781Y-88867483D01*
X138402436Y-88740054D01*
X138465208Y-88622617D01*
X138549683Y-88519683D01*
X138652617Y-88435208D01*
X138770054Y-88372436D01*
X138897483Y-88333781D01*
X138996795Y-88324000D01*
X139063205Y-88324000D01*
X139162517Y-88333781D01*
X139162517Y-88333781D01*
G37*
G36*
X167510442Y-87245518D02*
G01*
X167576627Y-87252037D01*
X167746466Y-87303557D01*
X167902991Y-87387222D01*
X167938729Y-87416552D01*
X168040186Y-87499814D01*
X168123448Y-87601271D01*
X168152778Y-87637009D01*
X168236443Y-87793534D01*
X168287963Y-87963373D01*
X168305359Y-88140000D01*
X168287963Y-88316627D01*
X168236443Y-88486466D01*
X168236442Y-88486468D01*
X168194611Y-88564728D01*
X168152778Y-88642991D01*
X168123448Y-88678729D01*
X168040186Y-88780186D01*
X167938729Y-88863448D01*
X167902991Y-88892778D01*
X167746466Y-88976443D01*
X167576627Y-89027963D01*
X167510442Y-89034482D01*
X167444260Y-89041000D01*
X167355740Y-89041000D01*
X167289558Y-89034482D01*
X167223373Y-89027963D01*
X167053534Y-88976443D01*
X166897009Y-88892778D01*
X166861271Y-88863448D01*
X166759814Y-88780186D01*
X166676552Y-88678729D01*
X166647222Y-88642991D01*
X166605389Y-88564728D01*
X166563558Y-88486468D01*
X166563557Y-88486466D01*
X166512037Y-88316627D01*
X166494641Y-88140000D01*
X166512037Y-87963373D01*
X166563557Y-87793534D01*
X166647222Y-87637009D01*
X166676552Y-87601271D01*
X166759814Y-87499814D01*
X166861271Y-87416552D01*
X166897009Y-87387222D01*
X167053534Y-87303557D01*
X167223373Y-87252037D01*
X167289558Y-87245518D01*
X167355740Y-87239000D01*
X167444260Y-87239000D01*
X167510442Y-87245518D01*
X167510442Y-87245518D01*
G37*
G36*
X142347747Y-86810921D02*
G01*
X142427376Y-86818764D01*
X142580627Y-86865252D01*
X142580630Y-86865253D01*
X142721863Y-86940744D01*
X142845659Y-87042341D01*
X142947256Y-87166137D01*
X143022747Y-87307370D01*
X143022748Y-87307373D01*
X143069236Y-87460624D01*
X143084933Y-87620000D01*
X143069236Y-87779376D01*
X143022748Y-87932627D01*
X143022747Y-87932630D01*
X142947256Y-88073863D01*
X142845659Y-88197659D01*
X142721863Y-88299256D01*
X142580630Y-88374747D01*
X142580627Y-88374748D01*
X142427376Y-88421236D01*
X142347747Y-88429079D01*
X142307934Y-88433000D01*
X141952066Y-88433000D01*
X141912253Y-88429079D01*
X141832624Y-88421236D01*
X141679373Y-88374748D01*
X141679370Y-88374747D01*
X141538137Y-88299256D01*
X141414341Y-88197659D01*
X141312744Y-88073863D01*
X141237253Y-87932630D01*
X141237252Y-87932627D01*
X141190764Y-87779376D01*
X141175067Y-87620000D01*
X141190764Y-87460624D01*
X141237252Y-87307373D01*
X141237253Y-87307370D01*
X141312744Y-87166137D01*
X141414341Y-87042341D01*
X141538137Y-86940744D01*
X141679370Y-86865253D01*
X141679373Y-86865252D01*
X141832624Y-86818764D01*
X141912253Y-86810921D01*
X141952066Y-86807000D01*
X142307934Y-86807000D01*
X142347747Y-86810921D01*
X142347747Y-86810921D01*
G37*
G36*
X172577747Y-86690921D02*
G01*
X172657376Y-86698764D01*
X172810627Y-86745252D01*
X172810630Y-86745253D01*
X172951863Y-86820744D01*
X173075659Y-86922341D01*
X173177256Y-87046137D01*
X173252747Y-87187370D01*
X173252748Y-87187373D01*
X173299236Y-87340624D01*
X173314933Y-87500000D01*
X173299236Y-87659376D01*
X173258540Y-87793532D01*
X173252747Y-87812630D01*
X173177256Y-87953863D01*
X173075659Y-88077659D01*
X172951863Y-88179256D01*
X172810630Y-88254747D01*
X172810627Y-88254748D01*
X172657376Y-88301236D01*
X172577747Y-88309079D01*
X172537934Y-88313000D01*
X172182066Y-88313000D01*
X172142253Y-88309079D01*
X172062624Y-88301236D01*
X171909373Y-88254748D01*
X171909370Y-88254747D01*
X171768137Y-88179256D01*
X171644341Y-88077659D01*
X171542744Y-87953863D01*
X171467253Y-87812630D01*
X171461460Y-87793532D01*
X171420764Y-87659376D01*
X171405067Y-87500000D01*
X171420764Y-87340624D01*
X171467252Y-87187373D01*
X171467253Y-87187370D01*
X171542744Y-87046137D01*
X171644341Y-86922341D01*
X171768137Y-86820744D01*
X171909370Y-86745253D01*
X171909373Y-86745252D01*
X172062624Y-86698764D01*
X172142253Y-86690921D01*
X172182066Y-86687000D01*
X172537934Y-86687000D01*
X172577747Y-86690921D01*
X172577747Y-86690921D01*
G37*
G36*
X167510442Y-84705518D02*
G01*
X167576627Y-84712037D01*
X167746466Y-84763557D01*
X167902991Y-84847222D01*
X167938729Y-84876552D01*
X168040186Y-84959814D01*
X168111028Y-85046137D01*
X168152778Y-85097009D01*
X168236443Y-85253534D01*
X168287963Y-85423373D01*
X168305359Y-85600000D01*
X168287963Y-85776627D01*
X168236443Y-85946466D01*
X168152778Y-86102991D01*
X168123448Y-86138729D01*
X168040186Y-86240186D01*
X167938729Y-86323448D01*
X167902991Y-86352778D01*
X167746466Y-86436443D01*
X167576627Y-86487963D01*
X167510443Y-86494481D01*
X167444260Y-86501000D01*
X167355740Y-86501000D01*
X167289557Y-86494481D01*
X167223373Y-86487963D01*
X167053534Y-86436443D01*
X166897009Y-86352778D01*
X166861271Y-86323448D01*
X166759814Y-86240186D01*
X166676552Y-86138729D01*
X166647222Y-86102991D01*
X166563557Y-85946466D01*
X166512037Y-85776627D01*
X166494641Y-85600000D01*
X166512037Y-85423373D01*
X166563557Y-85253534D01*
X166647222Y-85097009D01*
X166688972Y-85046137D01*
X166759814Y-84959814D01*
X166861271Y-84876552D01*
X166897009Y-84847222D01*
X167053534Y-84763557D01*
X167223373Y-84712037D01*
X167289558Y-84705518D01*
X167355740Y-84699000D01*
X167444260Y-84699000D01*
X167510442Y-84705518D01*
X167510442Y-84705518D01*
G37*
G36*
X142347747Y-84810921D02*
G01*
X142427376Y-84818764D01*
X142580627Y-84865252D01*
X142580630Y-84865253D01*
X142721863Y-84940744D01*
X142845659Y-85042341D01*
X142947256Y-85166137D01*
X143022747Y-85307370D01*
X143022748Y-85307373D01*
X143069236Y-85460624D01*
X143084933Y-85620000D01*
X143069236Y-85779376D01*
X143022748Y-85932627D01*
X143022747Y-85932630D01*
X142947256Y-86073863D01*
X142845659Y-86197659D01*
X142721863Y-86299256D01*
X142580630Y-86374747D01*
X142580627Y-86374748D01*
X142427376Y-86421236D01*
X142347747Y-86429079D01*
X142307934Y-86433000D01*
X141952066Y-86433000D01*
X141912253Y-86429079D01*
X141832624Y-86421236D01*
X141679373Y-86374748D01*
X141679370Y-86374747D01*
X141538137Y-86299256D01*
X141414341Y-86197659D01*
X141312744Y-86073863D01*
X141237253Y-85932630D01*
X141237252Y-85932627D01*
X141190764Y-85779376D01*
X141175067Y-85620000D01*
X141190764Y-85460624D01*
X141237252Y-85307373D01*
X141237253Y-85307370D01*
X141312744Y-85166137D01*
X141414341Y-85042341D01*
X141538137Y-84940744D01*
X141679370Y-84865253D01*
X141679373Y-84865252D01*
X141832624Y-84818764D01*
X141912253Y-84810921D01*
X141952066Y-84807000D01*
X142307934Y-84807000D01*
X142347747Y-84810921D01*
X142347747Y-84810921D01*
G37*
G36*
X172577747Y-84690921D02*
G01*
X172657376Y-84698764D01*
X172810627Y-84745252D01*
X172810630Y-84745253D01*
X172951863Y-84820744D01*
X173075659Y-84922341D01*
X173177256Y-85046137D01*
X173252747Y-85187370D01*
X173252748Y-85187373D01*
X173299236Y-85340624D01*
X173314933Y-85500000D01*
X173299236Y-85659376D01*
X173252748Y-85812627D01*
X173252747Y-85812630D01*
X173177256Y-85953863D01*
X173075659Y-86077659D01*
X172951863Y-86179256D01*
X172810630Y-86254747D01*
X172810627Y-86254748D01*
X172657376Y-86301236D01*
X172577747Y-86309079D01*
X172537934Y-86313000D01*
X172182066Y-86313000D01*
X172142253Y-86309079D01*
X172062624Y-86301236D01*
X171909373Y-86254748D01*
X171909370Y-86254747D01*
X171768137Y-86179256D01*
X171644341Y-86077659D01*
X171542744Y-85953863D01*
X171467253Y-85812630D01*
X171467252Y-85812627D01*
X171420764Y-85659376D01*
X171405067Y-85500000D01*
X171420764Y-85340624D01*
X171467252Y-85187373D01*
X171467253Y-85187370D01*
X171542744Y-85046137D01*
X171644341Y-84922341D01*
X171768137Y-84820744D01*
X171909370Y-84745253D01*
X171909373Y-84745252D01*
X172062624Y-84698764D01*
X172142253Y-84690921D01*
X172182066Y-84687000D01*
X172537934Y-84687000D01*
X172577747Y-84690921D01*
X172577747Y-84690921D01*
G37*
G36*
X139162517Y-83333781D02*
G01*
X139289946Y-83372436D01*
X139407383Y-83435208D01*
X139510317Y-83519683D01*
X139594792Y-83622617D01*
X139657564Y-83740054D01*
X139696219Y-83867483D01*
X139709270Y-84000000D01*
X139696219Y-84132517D01*
X139657564Y-84259946D01*
X139594792Y-84377383D01*
X139510317Y-84480317D01*
X139407383Y-84564792D01*
X139289946Y-84627564D01*
X139162517Y-84666219D01*
X139063205Y-84676000D01*
X138996795Y-84676000D01*
X138897483Y-84666219D01*
X138770054Y-84627564D01*
X138652617Y-84564792D01*
X138549683Y-84480317D01*
X138465208Y-84377383D01*
X138402436Y-84259946D01*
X138363781Y-84132517D01*
X138350730Y-84000000D01*
X138363781Y-83867483D01*
X138402436Y-83740054D01*
X138465208Y-83622617D01*
X138549683Y-83519683D01*
X138652617Y-83435208D01*
X138770054Y-83372436D01*
X138897483Y-83333781D01*
X138996795Y-83324000D01*
X139063205Y-83324000D01*
X139162517Y-83333781D01*
X139162517Y-83333781D01*
G37*
G36*
X142347747Y-82810921D02*
G01*
X142427376Y-82818764D01*
X142580627Y-82865252D01*
X142580630Y-82865253D01*
X142721863Y-82940744D01*
X142845659Y-83042341D01*
X142947256Y-83166137D01*
X143022747Y-83307370D01*
X143022748Y-83307373D01*
X143069236Y-83460624D01*
X143084933Y-83620000D01*
X143069236Y-83779376D01*
X143042509Y-83867483D01*
X143022747Y-83932630D01*
X142947256Y-84073863D01*
X142845659Y-84197659D01*
X142721863Y-84299256D01*
X142580630Y-84374747D01*
X142580627Y-84374748D01*
X142427376Y-84421236D01*
X142347747Y-84429079D01*
X142307934Y-84433000D01*
X141952066Y-84433000D01*
X141912253Y-84429079D01*
X141832624Y-84421236D01*
X141679373Y-84374748D01*
X141679370Y-84374747D01*
X141538137Y-84299256D01*
X141414341Y-84197659D01*
X141312744Y-84073863D01*
X141237253Y-83932630D01*
X141217491Y-83867483D01*
X141190764Y-83779376D01*
X141175067Y-83620000D01*
X141190764Y-83460624D01*
X141237252Y-83307373D01*
X141237253Y-83307370D01*
X141312744Y-83166137D01*
X141414341Y-83042341D01*
X141538137Y-82940744D01*
X141679370Y-82865253D01*
X141679373Y-82865252D01*
X141832624Y-82818764D01*
X141912253Y-82810921D01*
X141952066Y-82807000D01*
X142307934Y-82807000D01*
X142347747Y-82810921D01*
X142347747Y-82810921D01*
G37*
G36*
X172577747Y-82690921D02*
G01*
X172657376Y-82698764D01*
X172810627Y-82745252D01*
X172810630Y-82745253D01*
X172951863Y-82820744D01*
X173075659Y-82922341D01*
X173177256Y-83046137D01*
X173252747Y-83187370D01*
X173252748Y-83187373D01*
X173299236Y-83340624D01*
X173314933Y-83500000D01*
X173299236Y-83659376D01*
X173252748Y-83812627D01*
X173252747Y-83812630D01*
X173177256Y-83953863D01*
X173075659Y-84077659D01*
X172951863Y-84179256D01*
X172810630Y-84254747D01*
X172810627Y-84254748D01*
X172657376Y-84301236D01*
X172577747Y-84309079D01*
X172537934Y-84313000D01*
X172182066Y-84313000D01*
X172142253Y-84309079D01*
X172062624Y-84301236D01*
X171909373Y-84254748D01*
X171909370Y-84254747D01*
X171768137Y-84179256D01*
X171644341Y-84077659D01*
X171542744Y-83953863D01*
X171467253Y-83812630D01*
X171467252Y-83812627D01*
X171420764Y-83659376D01*
X171405067Y-83500000D01*
X171420764Y-83340624D01*
X171467252Y-83187373D01*
X171467253Y-83187370D01*
X171542744Y-83046137D01*
X171644341Y-82922341D01*
X171768137Y-82820744D01*
X171909370Y-82745253D01*
X171909373Y-82745252D01*
X172062624Y-82698764D01*
X172142253Y-82690921D01*
X172182066Y-82687000D01*
X172537934Y-82687000D01*
X172577747Y-82690921D01*
X172577747Y-82690921D01*
G37*
G36*
X168301000Y-83961000D02*
G01*
X166499000Y-83961000D01*
X166499000Y-82159000D01*
X168301000Y-82159000D01*
X168301000Y-83961000D01*
X168301000Y-83961000D01*
G37*
G36*
X136431248Y-82179976D02*
G01*
X136491924Y-82185952D01*
X136647626Y-82233184D01*
X136647628Y-82233185D01*
X136791121Y-82309883D01*
X136916896Y-82413104D01*
X137020117Y-82538879D01*
X137096639Y-82682042D01*
X137096816Y-82682374D01*
X137144048Y-82838076D01*
X137159996Y-83000000D01*
X137144048Y-83161924D01*
X137136328Y-83187373D01*
X137096815Y-83317628D01*
X137020117Y-83461121D01*
X136916896Y-83586896D01*
X136791121Y-83690117D01*
X136647628Y-83766815D01*
X136647626Y-83766816D01*
X136491924Y-83814048D01*
X136431248Y-83820024D01*
X136370574Y-83826000D01*
X136289426Y-83826000D01*
X136228752Y-83820024D01*
X136168076Y-83814048D01*
X136012374Y-83766816D01*
X136012372Y-83766815D01*
X135868879Y-83690117D01*
X135743104Y-83586896D01*
X135639883Y-83461121D01*
X135563185Y-83317628D01*
X135523672Y-83187373D01*
X135515952Y-83161924D01*
X135500004Y-83000000D01*
X135515952Y-82838076D01*
X135563184Y-82682374D01*
X135563361Y-82682042D01*
X135639883Y-82538879D01*
X135743104Y-82413104D01*
X135868879Y-82309883D01*
X136012372Y-82233185D01*
X136012374Y-82233184D01*
X136168076Y-82185952D01*
X136228752Y-82179976D01*
X136289426Y-82174000D01*
X136370574Y-82174000D01*
X136431248Y-82179976D01*
X136431248Y-82179976D01*
G37*
G36*
X207375256Y-80291298D02*
G01*
X207481579Y-80312447D01*
X207782042Y-80436903D01*
X208052451Y-80617585D01*
X208282415Y-80847549D01*
X208463097Y-81117958D01*
X208587553Y-81418421D01*
X208651000Y-81737391D01*
X208651000Y-82062609D01*
X208587553Y-82381579D01*
X208463097Y-82682042D01*
X208282415Y-82952451D01*
X208052451Y-83182415D01*
X207782042Y-83363097D01*
X207481579Y-83487553D01*
X207375256Y-83508702D01*
X207162611Y-83551000D01*
X206837389Y-83551000D01*
X206624744Y-83508702D01*
X206518421Y-83487553D01*
X206217958Y-83363097D01*
X205947549Y-83182415D01*
X205717585Y-82952451D01*
X205536903Y-82682042D01*
X205412447Y-82381579D01*
X205349000Y-82062609D01*
X205349000Y-81737391D01*
X205412447Y-81418421D01*
X205536903Y-81117958D01*
X205717585Y-80847549D01*
X205947549Y-80617585D01*
X206217958Y-80436903D01*
X206518421Y-80312447D01*
X206624744Y-80291298D01*
X206837389Y-80249000D01*
X207162611Y-80249000D01*
X207375256Y-80291298D01*
X207375256Y-80291298D01*
G37*
G36*
X147375256Y-80291298D02*
G01*
X147481579Y-80312447D01*
X147782042Y-80436903D01*
X148052451Y-80617585D01*
X148282415Y-80847549D01*
X148463097Y-81117958D01*
X148587553Y-81418421D01*
X148651000Y-81737391D01*
X148651000Y-82062609D01*
X148587553Y-82381579D01*
X148463097Y-82682042D01*
X148282415Y-82952451D01*
X148052451Y-83182415D01*
X147782042Y-83363097D01*
X147481579Y-83487553D01*
X147375256Y-83508702D01*
X147162611Y-83551000D01*
X146837389Y-83551000D01*
X146624744Y-83508702D01*
X146518421Y-83487553D01*
X146217958Y-83363097D01*
X145947549Y-83182415D01*
X145717585Y-82952451D01*
X145536903Y-82682042D01*
X145412447Y-82381579D01*
X145349000Y-82062609D01*
X145349000Y-81737391D01*
X145412447Y-81418421D01*
X145536903Y-81117958D01*
X145717585Y-80847549D01*
X145947549Y-80617585D01*
X146217958Y-80436903D01*
X146518421Y-80312447D01*
X146624744Y-80291298D01*
X146837389Y-80249000D01*
X147162611Y-80249000D01*
X147375256Y-80291298D01*
X147375256Y-80291298D01*
G37*
G36*
X192801000Y-81301000D02*
G01*
X190999000Y-81301000D01*
X190999000Y-79499000D01*
X192801000Y-79499000D01*
X192801000Y-81301000D01*
X192801000Y-81301000D01*
G37*
G36*
X194550443Y-79505519D02*
G01*
X194616627Y-79512037D01*
X194786466Y-79563557D01*
X194942991Y-79647222D01*
X194978729Y-79676552D01*
X195080186Y-79759814D01*
X195163448Y-79861271D01*
X195192778Y-79897009D01*
X195276443Y-80053534D01*
X195327963Y-80223373D01*
X195345359Y-80400000D01*
X195327963Y-80576627D01*
X195276443Y-80746466D01*
X195192778Y-80902991D01*
X195163448Y-80938729D01*
X195080186Y-81040186D01*
X194985419Y-81117958D01*
X194942991Y-81152778D01*
X194786466Y-81236443D01*
X194616627Y-81287963D01*
X194550442Y-81294482D01*
X194484260Y-81301000D01*
X194395740Y-81301000D01*
X194329558Y-81294482D01*
X194263373Y-81287963D01*
X194093534Y-81236443D01*
X193937009Y-81152778D01*
X193894581Y-81117958D01*
X193799814Y-81040186D01*
X193716552Y-80938729D01*
X193687222Y-80902991D01*
X193603557Y-80746466D01*
X193552037Y-80576627D01*
X193534641Y-80400000D01*
X193552037Y-80223373D01*
X193603557Y-80053534D01*
X193687222Y-79897009D01*
X193716552Y-79861271D01*
X193799814Y-79759814D01*
X193901271Y-79676552D01*
X193937009Y-79647222D01*
X194093534Y-79563557D01*
X194263373Y-79512037D01*
X194329557Y-79505519D01*
X194395740Y-79499000D01*
X194484260Y-79499000D01*
X194550443Y-79505519D01*
X194550443Y-79505519D01*
G37*
G36*
X197090443Y-79505519D02*
G01*
X197156627Y-79512037D01*
X197326466Y-79563557D01*
X197482991Y-79647222D01*
X197518729Y-79676552D01*
X197620186Y-79759814D01*
X197703448Y-79861271D01*
X197732778Y-79897009D01*
X197816443Y-80053534D01*
X197867963Y-80223373D01*
X197885359Y-80400000D01*
X197867963Y-80576627D01*
X197816443Y-80746466D01*
X197732778Y-80902991D01*
X197703448Y-80938729D01*
X197620186Y-81040186D01*
X197525419Y-81117958D01*
X197482991Y-81152778D01*
X197326466Y-81236443D01*
X197156627Y-81287963D01*
X197090442Y-81294482D01*
X197024260Y-81301000D01*
X196935740Y-81301000D01*
X196869558Y-81294482D01*
X196803373Y-81287963D01*
X196633534Y-81236443D01*
X196477009Y-81152778D01*
X196434581Y-81117958D01*
X196339814Y-81040186D01*
X196256552Y-80938729D01*
X196227222Y-80902991D01*
X196143557Y-80746466D01*
X196092037Y-80576627D01*
X196074641Y-80400000D01*
X196092037Y-80223373D01*
X196143557Y-80053534D01*
X196227222Y-79897009D01*
X196256552Y-79861271D01*
X196339814Y-79759814D01*
X196441271Y-79676552D01*
X196477009Y-79647222D01*
X196633534Y-79563557D01*
X196803373Y-79512037D01*
X196869557Y-79505519D01*
X196935740Y-79499000D01*
X197024260Y-79499000D01*
X197090443Y-79505519D01*
X197090443Y-79505519D01*
G37*
G36*
X199630443Y-79505519D02*
G01*
X199696627Y-79512037D01*
X199866466Y-79563557D01*
X200022991Y-79647222D01*
X200058729Y-79676552D01*
X200160186Y-79759814D01*
X200243448Y-79861271D01*
X200272778Y-79897009D01*
X200356443Y-80053534D01*
X200407963Y-80223373D01*
X200425359Y-80400000D01*
X200407963Y-80576627D01*
X200356443Y-80746466D01*
X200272778Y-80902991D01*
X200243448Y-80938729D01*
X200160186Y-81040186D01*
X200065419Y-81117958D01*
X200022991Y-81152778D01*
X199866466Y-81236443D01*
X199696627Y-81287963D01*
X199630442Y-81294482D01*
X199564260Y-81301000D01*
X199475740Y-81301000D01*
X199409558Y-81294482D01*
X199343373Y-81287963D01*
X199173534Y-81236443D01*
X199017009Y-81152778D01*
X198974581Y-81117958D01*
X198879814Y-81040186D01*
X198796552Y-80938729D01*
X198767222Y-80902991D01*
X198683557Y-80746466D01*
X198632037Y-80576627D01*
X198614641Y-80400000D01*
X198632037Y-80223373D01*
X198683557Y-80053534D01*
X198767222Y-79897009D01*
X198796552Y-79861271D01*
X198879814Y-79759814D01*
X198981271Y-79676552D01*
X199017009Y-79647222D01*
X199173534Y-79563557D01*
X199343373Y-79512037D01*
X199409557Y-79505519D01*
X199475740Y-79499000D01*
X199564260Y-79499000D01*
X199630443Y-79505519D01*
X199630443Y-79505519D01*
G37*
M02*
