G04 #@! TF.GenerationSoftware,KiCad,Pcbnew,(5.1.2)-1*
G04 #@! TF.CreationDate,2021-06-02T21:36:33+09:00*
G04 #@! TF.ProjectId,es,65732e6b-6963-4616-945f-706362585858,v1.3*
G04 #@! TF.SameCoordinates,Original*
G04 #@! TF.FileFunction,Legend,Bot*
G04 #@! TF.FilePolarity,Positive*
%FSLAX46Y46*%
G04 Gerber Fmt 4.6, Leading zero omitted, Abs format (unit mm)*
G04 Created by KiCad (PCBNEW (5.1.2)-1) date 2021-06-02 21:36:33*
%MOMM*%
%LPD*%
G04 APERTURE LIST*
%ADD10C,0.150000*%
%ADD11C,0.300000*%
%ADD12C,0.120000*%
%ADD13C,3.302000*%
%ADD14O,1.802000X1.802000*%
%ADD15R,1.802000X1.802000*%
%ADD16O,1.902000X1.626000*%
%ADD17O,1.352000X1.352000*%
%ADD18O,1.652000X1.652000*%
G04 APERTURE END LIST*
D10*
X193035714Y-82903809D02*
X192921428Y-82941904D01*
X192730952Y-82941904D01*
X192654761Y-82903809D01*
X192616666Y-82865714D01*
X192578571Y-82789523D01*
X192578571Y-82713333D01*
X192616666Y-82637142D01*
X192654761Y-82599047D01*
X192730952Y-82560952D01*
X192883333Y-82522857D01*
X192959523Y-82484761D01*
X192997619Y-82446666D01*
X193035714Y-82370476D01*
X193035714Y-82294285D01*
X192997619Y-82218095D01*
X192959523Y-82180000D01*
X192883333Y-82141904D01*
X192692857Y-82141904D01*
X192578571Y-82180000D01*
X192311904Y-82141904D02*
X192121428Y-82941904D01*
X191969047Y-82370476D01*
X191816666Y-82941904D01*
X191626190Y-82141904D01*
X191321428Y-82941904D02*
X191321428Y-82141904D01*
X191130952Y-82141904D01*
X191016666Y-82180000D01*
X190940476Y-82256190D01*
X190902380Y-82332380D01*
X190864285Y-82484761D01*
X190864285Y-82599047D01*
X190902380Y-82751428D01*
X190940476Y-82827619D01*
X191016666Y-82903809D01*
X191130952Y-82941904D01*
X191321428Y-82941904D01*
X197669523Y-90300000D02*
X197745714Y-90261904D01*
X197860000Y-90261904D01*
X197974285Y-90300000D01*
X198050476Y-90376190D01*
X198088571Y-90452380D01*
X198126666Y-90604761D01*
X198126666Y-90719047D01*
X198088571Y-90871428D01*
X198050476Y-90947619D01*
X197974285Y-91023809D01*
X197860000Y-91061904D01*
X197783809Y-91061904D01*
X197669523Y-91023809D01*
X197631428Y-90985714D01*
X197631428Y-90719047D01*
X197783809Y-90719047D01*
X197288571Y-91061904D02*
X197288571Y-90261904D01*
X196831428Y-91061904D01*
X196831428Y-90261904D01*
X196450476Y-91061904D02*
X196450476Y-90261904D01*
X196260000Y-90261904D01*
X196145714Y-90300000D01*
X196069523Y-90376190D01*
X196031428Y-90452380D01*
X195993333Y-90604761D01*
X195993333Y-90719047D01*
X196031428Y-90871428D01*
X196069523Y-90947619D01*
X196145714Y-91023809D01*
X196260000Y-91061904D01*
X196450476Y-91061904D01*
X194633333Y-91041904D02*
X194900000Y-90660952D01*
X195090476Y-91041904D02*
X195090476Y-90241904D01*
X194785714Y-90241904D01*
X194709523Y-90280000D01*
X194671428Y-90318095D01*
X194633333Y-90394285D01*
X194633333Y-90508571D01*
X194671428Y-90584761D01*
X194709523Y-90622857D01*
X194785714Y-90660952D01*
X195090476Y-90660952D01*
X194366666Y-90241904D02*
X193833333Y-91041904D01*
X193833333Y-90241904D02*
X194366666Y-91041904D01*
X192609523Y-90261904D02*
X192152380Y-90261904D01*
X192380952Y-91061904D02*
X192380952Y-90261904D01*
X191961904Y-90261904D02*
X191428571Y-91061904D01*
X191428571Y-90261904D02*
X191961904Y-91061904D01*
D11*
X143678571Y-81692857D02*
X143678571Y-80492857D01*
X143278571Y-81350000D01*
X142878571Y-80492857D01*
X142878571Y-81692857D01*
X142307142Y-81692857D02*
X142307142Y-80492857D01*
X141850000Y-80492857D01*
X141735714Y-80550000D01*
X141678571Y-80607142D01*
X141621428Y-80721428D01*
X141621428Y-80892857D01*
X141678571Y-81007142D01*
X141735714Y-81064285D01*
X141850000Y-81121428D01*
X142307142Y-81121428D01*
X141107142Y-80492857D02*
X141107142Y-81464285D01*
X141050000Y-81578571D01*
X140992857Y-81635714D01*
X140878571Y-81692857D01*
X140650000Y-81692857D01*
X140535714Y-81635714D01*
X140478571Y-81578571D01*
X140421428Y-81464285D01*
X140421428Y-80492857D01*
X173774285Y-92805714D02*
X173602857Y-92862857D01*
X173317142Y-92862857D01*
X173202857Y-92805714D01*
X173145714Y-92748571D01*
X173088571Y-92634285D01*
X173088571Y-92520000D01*
X173145714Y-92405714D01*
X173202857Y-92348571D01*
X173317142Y-92291428D01*
X173545714Y-92234285D01*
X173660000Y-92177142D01*
X173717142Y-92120000D01*
X173774285Y-92005714D01*
X173774285Y-91891428D01*
X173717142Y-91777142D01*
X173660000Y-91720000D01*
X173545714Y-91662857D01*
X173260000Y-91662857D01*
X173088571Y-91720000D01*
X172574285Y-92234285D02*
X172174285Y-92234285D01*
X172002857Y-92862857D02*
X172574285Y-92862857D01*
X172574285Y-91662857D01*
X172002857Y-91662857D01*
X171488571Y-92862857D02*
X171488571Y-91662857D01*
X170802857Y-92862857D01*
X170802857Y-91662857D01*
D12*
X164248571Y-86193333D02*
X163867619Y-86193333D01*
X164324761Y-86421904D02*
X164058095Y-85621904D01*
X163791428Y-86421904D01*
X163524761Y-86421904D02*
X163524761Y-85888571D01*
X163524761Y-85621904D02*
X163562857Y-85660000D01*
X163524761Y-85698095D01*
X163486666Y-85660000D01*
X163524761Y-85621904D01*
X163524761Y-85698095D01*
X163143809Y-86421904D02*
X163143809Y-85888571D01*
X163143809Y-86040952D02*
X163105714Y-85964761D01*
X163067619Y-85926666D01*
X162991428Y-85888571D01*
X162915238Y-85888571D01*
X161505714Y-86498095D02*
X161581904Y-86460000D01*
X161658095Y-86383809D01*
X161772380Y-86269523D01*
X161848571Y-86231428D01*
X161924761Y-86231428D01*
X161886666Y-86421904D02*
X161962857Y-86383809D01*
X162039047Y-86307619D01*
X162077142Y-86155238D01*
X162077142Y-85888571D01*
X162039047Y-85736190D01*
X161962857Y-85660000D01*
X161886666Y-85621904D01*
X161734285Y-85621904D01*
X161658095Y-85660000D01*
X161581904Y-85736190D01*
X161543809Y-85888571D01*
X161543809Y-86155238D01*
X161581904Y-86307619D01*
X161658095Y-86383809D01*
X161734285Y-86421904D01*
X161886666Y-86421904D01*
X160858095Y-85888571D02*
X160858095Y-86421904D01*
X161200952Y-85888571D02*
X161200952Y-86307619D01*
X161162857Y-86383809D01*
X161086666Y-86421904D01*
X160972380Y-86421904D01*
X160896190Y-86383809D01*
X160858095Y-86345714D01*
X160134285Y-86421904D02*
X160134285Y-86002857D01*
X160172380Y-85926666D01*
X160248571Y-85888571D01*
X160400952Y-85888571D01*
X160477142Y-85926666D01*
X160134285Y-86383809D02*
X160210476Y-86421904D01*
X160400952Y-86421904D01*
X160477142Y-86383809D01*
X160515238Y-86307619D01*
X160515238Y-86231428D01*
X160477142Y-86155238D01*
X160400952Y-86117142D01*
X160210476Y-86117142D01*
X160134285Y-86079047D01*
X159639047Y-86421904D02*
X159715238Y-86383809D01*
X159753333Y-86307619D01*
X159753333Y-85621904D01*
X159334285Y-86421904D02*
X159334285Y-85888571D01*
X159334285Y-85621904D02*
X159372380Y-85660000D01*
X159334285Y-85698095D01*
X159296190Y-85660000D01*
X159334285Y-85621904D01*
X159334285Y-85698095D01*
X159067619Y-85888571D02*
X158762857Y-85888571D01*
X158953333Y-85621904D02*
X158953333Y-86307619D01*
X158915238Y-86383809D01*
X158839047Y-86421904D01*
X158762857Y-86421904D01*
X158572380Y-85888571D02*
X158381904Y-86421904D01*
X158191428Y-85888571D02*
X158381904Y-86421904D01*
X158458095Y-86612380D01*
X158496190Y-86650476D01*
X158572380Y-86688571D01*
X157277142Y-86421904D02*
X157277142Y-85621904D01*
X157010476Y-86193333D01*
X156743809Y-85621904D01*
X156743809Y-86421904D01*
X156248571Y-86421904D02*
X156324761Y-86383809D01*
X156362857Y-86345714D01*
X156400952Y-86269523D01*
X156400952Y-86040952D01*
X156362857Y-85964761D01*
X156324761Y-85926666D01*
X156248571Y-85888571D01*
X156134285Y-85888571D01*
X156058095Y-85926666D01*
X156020000Y-85964761D01*
X155981904Y-86040952D01*
X155981904Y-86269523D01*
X156020000Y-86345714D01*
X156058095Y-86383809D01*
X156134285Y-86421904D01*
X156248571Y-86421904D01*
X155639047Y-85888571D02*
X155639047Y-86421904D01*
X155639047Y-85964761D02*
X155600952Y-85926666D01*
X155524761Y-85888571D01*
X155410476Y-85888571D01*
X155334285Y-85926666D01*
X155296190Y-86002857D01*
X155296190Y-86421904D01*
X154915238Y-86421904D02*
X154915238Y-85888571D01*
X154915238Y-85621904D02*
X154953333Y-85660000D01*
X154915238Y-85698095D01*
X154877142Y-85660000D01*
X154915238Y-85621904D01*
X154915238Y-85698095D01*
X154648571Y-85888571D02*
X154343809Y-85888571D01*
X154534285Y-85621904D02*
X154534285Y-86307619D01*
X154496190Y-86383809D01*
X154420000Y-86421904D01*
X154343809Y-86421904D01*
X153962857Y-86421904D02*
X154039047Y-86383809D01*
X154077142Y-86345714D01*
X154115238Y-86269523D01*
X154115238Y-86040952D01*
X154077142Y-85964761D01*
X154039047Y-85926666D01*
X153962857Y-85888571D01*
X153848571Y-85888571D01*
X153772380Y-85926666D01*
X153734285Y-85964761D01*
X153696190Y-86040952D01*
X153696190Y-86269523D01*
X153734285Y-86345714D01*
X153772380Y-86383809D01*
X153848571Y-86421904D01*
X153962857Y-86421904D01*
X153353333Y-86421904D02*
X153353333Y-85888571D01*
X153353333Y-86040952D02*
X153315238Y-85964761D01*
X153277142Y-85926666D01*
X153200952Y-85888571D01*
X153124761Y-85888571D01*
X164286666Y-87208571D02*
X164096190Y-87741904D01*
X163905714Y-87208571D01*
X163181904Y-87741904D02*
X163639047Y-87741904D01*
X163410476Y-87741904D02*
X163410476Y-86941904D01*
X163486666Y-87056190D01*
X163562857Y-87132380D01*
X163639047Y-87170476D01*
X162839047Y-87665714D02*
X162800952Y-87703809D01*
X162839047Y-87741904D01*
X162877142Y-87703809D01*
X162839047Y-87665714D01*
X162839047Y-87741904D01*
X162534285Y-86941904D02*
X162039047Y-86941904D01*
X162305714Y-87246666D01*
X162191428Y-87246666D01*
X162115238Y-87284761D01*
X162077142Y-87322857D01*
X162039047Y-87399047D01*
X162039047Y-87589523D01*
X162077142Y-87665714D01*
X162115238Y-87703809D01*
X162191428Y-87741904D01*
X162420000Y-87741904D01*
X162496190Y-87703809D01*
X162534285Y-87665714D01*
X161124761Y-87018095D02*
X161086666Y-86980000D01*
X161010476Y-86941904D01*
X160820000Y-86941904D01*
X160743809Y-86980000D01*
X160705714Y-87018095D01*
X160667619Y-87094285D01*
X160667619Y-87170476D01*
X160705714Y-87284761D01*
X161162857Y-87741904D01*
X160667619Y-87741904D01*
X160172380Y-86941904D02*
X160096190Y-86941904D01*
X160020000Y-86980000D01*
X159981904Y-87018095D01*
X159943809Y-87094285D01*
X159905714Y-87246666D01*
X159905714Y-87437142D01*
X159943809Y-87589523D01*
X159981904Y-87665714D01*
X160020000Y-87703809D01*
X160096190Y-87741904D01*
X160172380Y-87741904D01*
X160248571Y-87703809D01*
X160286666Y-87665714D01*
X160324761Y-87589523D01*
X160362857Y-87437142D01*
X160362857Y-87246666D01*
X160324761Y-87094285D01*
X160286666Y-87018095D01*
X160248571Y-86980000D01*
X160172380Y-86941904D01*
X159143809Y-87741904D02*
X159600952Y-87741904D01*
X159372380Y-87741904D02*
X159372380Y-86941904D01*
X159448571Y-87056190D01*
X159524761Y-87132380D01*
X159600952Y-87170476D01*
X158839047Y-87018095D02*
X158800952Y-86980000D01*
X158724761Y-86941904D01*
X158534285Y-86941904D01*
X158458095Y-86980000D01*
X158420000Y-87018095D01*
X158381904Y-87094285D01*
X158381904Y-87170476D01*
X158420000Y-87284761D01*
X158877142Y-87741904D01*
X158381904Y-87741904D01*
X156972380Y-87665714D02*
X157010476Y-87703809D01*
X157124761Y-87741904D01*
X157200952Y-87741904D01*
X157315238Y-87703809D01*
X157391428Y-87627619D01*
X157429523Y-87551428D01*
X157467619Y-87399047D01*
X157467619Y-87284761D01*
X157429523Y-87132380D01*
X157391428Y-87056190D01*
X157315238Y-86980000D01*
X157200952Y-86941904D01*
X157124761Y-86941904D01*
X157010476Y-86980000D01*
X156972380Y-87018095D01*
X156629523Y-87741904D02*
X156629523Y-87208571D01*
X156629523Y-87360952D02*
X156591428Y-87284761D01*
X156553333Y-87246666D01*
X156477142Y-87208571D01*
X156400952Y-87208571D01*
X155829523Y-87703809D02*
X155905714Y-87741904D01*
X156058095Y-87741904D01*
X156134285Y-87703809D01*
X156172380Y-87627619D01*
X156172380Y-87322857D01*
X156134285Y-87246666D01*
X156058095Y-87208571D01*
X155905714Y-87208571D01*
X155829523Y-87246666D01*
X155791428Y-87322857D01*
X155791428Y-87399047D01*
X156172380Y-87475238D01*
X155486666Y-87703809D02*
X155410476Y-87741904D01*
X155258095Y-87741904D01*
X155181904Y-87703809D01*
X155143809Y-87627619D01*
X155143809Y-87589523D01*
X155181904Y-87513333D01*
X155258095Y-87475238D01*
X155372380Y-87475238D01*
X155448571Y-87437142D01*
X155486666Y-87360952D01*
X155486666Y-87322857D01*
X155448571Y-87246666D01*
X155372380Y-87208571D01*
X155258095Y-87208571D01*
X155181904Y-87246666D01*
X154458095Y-87703809D02*
X154534285Y-87741904D01*
X154686666Y-87741904D01*
X154762857Y-87703809D01*
X154800952Y-87665714D01*
X154839047Y-87589523D01*
X154839047Y-87360952D01*
X154800952Y-87284761D01*
X154762857Y-87246666D01*
X154686666Y-87208571D01*
X154534285Y-87208571D01*
X154458095Y-87246666D01*
X153810476Y-87703809D02*
X153886666Y-87741904D01*
X154039047Y-87741904D01*
X154115238Y-87703809D01*
X154153333Y-87627619D01*
X154153333Y-87322857D01*
X154115238Y-87246666D01*
X154039047Y-87208571D01*
X153886666Y-87208571D01*
X153810476Y-87246666D01*
X153772380Y-87322857D01*
X153772380Y-87399047D01*
X154153333Y-87475238D01*
X153429523Y-87208571D02*
X153429523Y-87741904D01*
X153429523Y-87284761D02*
X153391428Y-87246666D01*
X153315238Y-87208571D01*
X153200952Y-87208571D01*
X153124761Y-87246666D01*
X153086666Y-87322857D01*
X153086666Y-87741904D01*
X152820000Y-87208571D02*
X152515238Y-87208571D01*
X152705714Y-86941904D02*
X152705714Y-87627619D01*
X152667619Y-87703809D01*
X152591428Y-87741904D01*
X152515238Y-87741904D01*
D10*
X173860000Y-91000000D02*
X173860000Y-86500000D01*
X170860000Y-91000000D02*
X173860000Y-91000000D01*
X170860000Y-82000000D02*
X170860000Y-91000000D01*
X173860000Y-82000000D02*
X170860000Y-82000000D01*
X173860000Y-86500000D02*
X173860000Y-82000000D01*
X173360000Y-84500000D02*
X173860000Y-84500000D01*
X173360000Y-88500000D02*
X173360000Y-84500000D01*
X173860000Y-88500000D02*
X173360000Y-88500000D01*
X140630000Y-82120000D02*
X140630000Y-86620000D01*
X143630000Y-82120000D02*
X140630000Y-82120000D01*
X143630000Y-91120000D02*
X143630000Y-82120000D01*
X140630000Y-91120000D02*
X143630000Y-91120000D01*
X140630000Y-86620000D02*
X140630000Y-91120000D01*
X141130000Y-88620000D02*
X140630000Y-88620000D01*
X141130000Y-84620000D02*
X141130000Y-88620000D01*
X140630000Y-84620000D02*
X141130000Y-84620000D01*
X169512380Y-82366666D02*
X170226666Y-82366666D01*
X170369523Y-82319047D01*
X170464761Y-82223809D01*
X170512380Y-82080952D01*
X170512380Y-81985714D01*
X169512380Y-82747619D02*
X169512380Y-83366666D01*
X169893333Y-83033333D01*
X169893333Y-83176190D01*
X169940952Y-83271428D01*
X169988571Y-83319047D01*
X170083809Y-83366666D01*
X170321904Y-83366666D01*
X170417142Y-83319047D01*
X170464761Y-83271428D01*
X170512380Y-83176190D01*
X170512380Y-82890476D01*
X170464761Y-82795238D01*
X170417142Y-82747619D01*
X174060000Y-89761904D02*
X174012380Y-89666666D01*
X174012380Y-89523809D01*
X174060000Y-89380952D01*
X174155238Y-89285714D01*
X174250476Y-89238095D01*
X174440952Y-89190476D01*
X174583809Y-89190476D01*
X174774285Y-89238095D01*
X174869523Y-89285714D01*
X174964761Y-89380952D01*
X175012380Y-89523809D01*
X175012380Y-89619047D01*
X174964761Y-89761904D01*
X174917142Y-89809523D01*
X174583809Y-89809523D01*
X174583809Y-89619047D01*
X174012380Y-87166666D02*
X175012380Y-87500000D01*
X174012380Y-87833333D01*
X175012380Y-85238095D02*
X174012380Y-85238095D01*
X174012380Y-85476190D01*
X174060000Y-85619047D01*
X174155238Y-85714285D01*
X174250476Y-85761904D01*
X174440952Y-85809523D01*
X174583809Y-85809523D01*
X174774285Y-85761904D01*
X174869523Y-85714285D01*
X174964761Y-85619047D01*
X175012380Y-85476190D01*
X175012380Y-85238095D01*
X174917142Y-84109523D02*
X174964761Y-84061904D01*
X175012380Y-83919047D01*
X175012380Y-83823809D01*
X174964761Y-83680952D01*
X174869523Y-83585714D01*
X174774285Y-83538095D01*
X174583809Y-83490476D01*
X174440952Y-83490476D01*
X174250476Y-83538095D01*
X174155238Y-83585714D01*
X174060000Y-83680952D01*
X174012380Y-83823809D01*
X174012380Y-83919047D01*
X174060000Y-84061904D01*
X174107619Y-84109523D01*
X141692380Y-91696666D02*
X142406666Y-91696666D01*
X142549523Y-91649047D01*
X142644761Y-91553809D01*
X142692380Y-91410952D01*
X142692380Y-91315714D01*
X142692380Y-92696666D02*
X142692380Y-92125238D01*
X142692380Y-92410952D02*
X141692380Y-92410952D01*
X141835238Y-92315714D01*
X141930476Y-92220476D01*
X141978095Y-92125238D01*
X143900000Y-83761904D02*
X143852380Y-83666666D01*
X143852380Y-83523809D01*
X143900000Y-83380952D01*
X143995238Y-83285714D01*
X144090476Y-83238095D01*
X144280952Y-83190476D01*
X144423809Y-83190476D01*
X144614285Y-83238095D01*
X144709523Y-83285714D01*
X144804761Y-83380952D01*
X144852380Y-83523809D01*
X144852380Y-83619047D01*
X144804761Y-83761904D01*
X144757142Y-83809523D01*
X144423809Y-83809523D01*
X144423809Y-83619047D01*
X143852380Y-85366666D02*
X144852380Y-85700000D01*
X143852380Y-86033333D01*
X144852380Y-87538095D02*
X143852380Y-87538095D01*
X143852380Y-87776190D01*
X143900000Y-87919047D01*
X143995238Y-88014285D01*
X144090476Y-88061904D01*
X144280952Y-88109523D01*
X144423809Y-88109523D01*
X144614285Y-88061904D01*
X144709523Y-88014285D01*
X144804761Y-87919047D01*
X144852380Y-87776190D01*
X144852380Y-87538095D01*
X144757142Y-89909523D02*
X144804761Y-89861904D01*
X144852380Y-89719047D01*
X144852380Y-89623809D01*
X144804761Y-89480952D01*
X144709523Y-89385714D01*
X144614285Y-89338095D01*
X144423809Y-89290476D01*
X144280952Y-89290476D01*
X144090476Y-89338095D01*
X143995238Y-89385714D01*
X143900000Y-89480952D01*
X143852380Y-89623809D01*
X143852380Y-89719047D01*
X143900000Y-89861904D01*
X143947619Y-89909523D01*
%LPC*%
D13*
X207000000Y-91000000D03*
X207000000Y-81900000D03*
X147000000Y-91000000D03*
X147000000Y-81900000D03*
D14*
X199520000Y-80400000D03*
X196980000Y-80400000D03*
X194440000Y-80400000D03*
D15*
X191900000Y-80400000D03*
D16*
X172360000Y-89500000D03*
X172360000Y-87500000D03*
X172360000Y-85500000D03*
X172360000Y-83500000D03*
D15*
X191960000Y-92500000D03*
D14*
X194500000Y-92500000D03*
X197040000Y-92500000D03*
D16*
X142130000Y-83620000D03*
X142130000Y-85620000D03*
X142130000Y-87620000D03*
X142130000Y-89620000D03*
D17*
X139030000Y-89000000D03*
X139030000Y-84000000D03*
D18*
X136330000Y-90000000D03*
X136330000Y-83000000D03*
D15*
X167400000Y-83060000D03*
D14*
X167400000Y-85600000D03*
X167400000Y-88140000D03*
X167400000Y-90680000D03*
M02*
