G04 #@! TF.GenerationSoftware,KiCad,Pcbnew,(5.1.2)-1*
G04 #@! TF.CreationDate,2021-06-02T21:36:33+09:00*
G04 #@! TF.ProjectId,es,65732e6b-6963-4616-945f-706362585858,v1.3*
G04 #@! TF.SameCoordinates,Original*
G04 #@! TF.FileFunction,Copper,L2,Bot*
G04 #@! TF.FilePolarity,Positive*
%FSLAX46Y46*%
G04 Gerber Fmt 4.6, Leading zero omitted, Abs format (unit mm)*
G04 Created by KiCad (PCBNEW (5.1.2)-1) date 2021-06-02 21:36:33*
%MOMM*%
%LPD*%
G04 APERTURE LIST*
%ADD10O,1.700000X1.700000*%
%ADD11R,1.700000X1.700000*%
%ADD12O,1.800000X1.524000*%
%ADD13O,1.250000X1.250000*%
%ADD14O,1.550000X1.550000*%
%ADD15C,0.800000*%
%ADD16C,0.300000*%
%ADD17C,0.250000*%
%ADD18C,0.254000*%
G04 APERTURE END LIST*
D10*
X199520000Y-80400000D03*
X196980000Y-80400000D03*
X194440000Y-80400000D03*
D11*
X191900000Y-80400000D03*
D12*
X172360000Y-89500000D03*
X172360000Y-87500000D03*
X172360000Y-85500000D03*
X172360000Y-83500000D03*
D11*
X191960000Y-92500000D03*
D10*
X194500000Y-92500000D03*
X197040000Y-92500000D03*
D12*
X142130000Y-83620000D03*
X142130000Y-85620000D03*
X142130000Y-87620000D03*
X142130000Y-89620000D03*
D13*
X139030000Y-89000000D03*
X139030000Y-84000000D03*
D14*
X136330000Y-90000000D03*
X136330000Y-83000000D03*
D11*
X167400000Y-83060000D03*
D10*
X167400000Y-85600000D03*
X167400000Y-88140000D03*
X167400000Y-90680000D03*
D15*
X175565100Y-83551600D03*
X179977200Y-91192900D03*
X181589200Y-90896000D03*
X179800000Y-83700000D03*
X193350000Y-90200000D03*
X190300000Y-91250000D03*
X196363000Y-86085000D03*
X178900000Y-84750000D03*
X194243900Y-85812200D03*
X165119500Y-90500000D03*
X185400000Y-90250000D03*
X183708600Y-90789500D03*
X179845000Y-81379966D03*
X176387300Y-84968100D03*
X177700000Y-86200000D03*
X188469700Y-88208600D03*
X150700000Y-91399998D03*
X194614300Y-87966500D03*
X137242400Y-85850000D03*
D16*
X175565100Y-83551600D02*
X178716700Y-80400000D01*
X178716700Y-80400000D02*
X191900000Y-80400000D01*
D17*
X172360000Y-85500000D02*
X178052900Y-91192900D01*
X178052900Y-91192900D02*
X179977200Y-91192900D01*
X171010000Y-86850000D02*
X172360000Y-85500000D01*
X166800000Y-86850000D02*
X171010000Y-86850000D01*
X166050000Y-86100000D02*
X166800000Y-86850000D01*
X167400000Y-83060000D02*
X166050000Y-84410000D01*
X166050000Y-84410000D02*
X166050000Y-86100000D01*
X168555300Y-85600000D02*
X170655300Y-83500000D01*
X170655300Y-83500000D02*
X172360000Y-83500000D01*
X167400000Y-85600000D02*
X168555300Y-85600000D01*
X172360000Y-83500000D02*
X176896700Y-88036700D01*
X176896700Y-88036700D02*
X178729900Y-88036700D01*
X178729900Y-88036700D02*
X181589200Y-90896000D01*
X180365685Y-83700000D02*
X179800000Y-83700000D01*
X196220000Y-83700000D02*
X180365685Y-83700000D01*
X199520000Y-80400000D02*
X196220000Y-83700000D01*
X172360000Y-89500000D02*
X172360000Y-90567300D01*
X167400000Y-90680000D02*
X172247300Y-90680000D01*
X172247300Y-90680000D02*
X172360000Y-90567300D01*
X190960998Y-91250000D02*
X190300000Y-91250000D01*
X193350000Y-90200000D02*
X192010998Y-90200000D01*
X192010998Y-90200000D02*
X190960998Y-91250000D01*
D16*
X195301700Y-85023700D02*
X196363000Y-86085000D01*
X193092000Y-85023700D02*
X195301700Y-85023700D01*
X185015700Y-93100000D02*
X193092000Y-85023700D01*
X143300000Y-93100000D02*
X185015700Y-93100000D01*
X140800000Y-86950000D02*
X140800000Y-90600000D01*
X140800000Y-90600000D02*
X143300000Y-93100000D01*
X142130000Y-85620000D02*
X140800000Y-86950000D01*
D17*
X178900000Y-84184315D02*
X178900000Y-84750000D01*
X180556598Y-81850000D02*
X178900000Y-83506598D01*
X194440000Y-80400000D02*
X192990000Y-81850000D01*
X192990000Y-81850000D02*
X180556598Y-81850000D01*
X178900000Y-83506598D02*
X178900000Y-84184315D01*
X194500000Y-91344700D02*
X195330500Y-90514200D01*
X195330500Y-90514200D02*
X195330500Y-86898800D01*
X195330500Y-86898800D02*
X194243900Y-85812200D01*
X194500000Y-92500000D02*
X194500000Y-91344700D01*
X185000001Y-90649999D02*
X185400000Y-90250000D01*
X165119500Y-90500000D02*
X166555000Y-91935500D01*
X183714500Y-91935500D02*
X185000001Y-90649999D01*
X166555000Y-91935500D02*
X183714500Y-91935500D01*
X183708600Y-90789500D02*
X178194999Y-85275899D01*
X179445001Y-81779965D02*
X179845000Y-81379966D01*
X178194999Y-85275899D02*
X178194999Y-83029967D01*
X178194999Y-83029967D02*
X179445001Y-81779965D01*
X142130000Y-87620000D02*
X145215900Y-87620000D01*
X145215900Y-87620000D02*
X151380100Y-81455800D01*
X151380100Y-81455800D02*
X172606200Y-81455800D01*
X172606200Y-81455800D02*
X174859800Y-83709400D01*
X174859800Y-83709400D02*
X174859800Y-83843700D01*
X174859800Y-83843700D02*
X175984200Y-84968100D01*
X175984200Y-84968100D02*
X176387300Y-84968100D01*
X177134315Y-86200000D02*
X177700000Y-86200000D01*
X142130000Y-89620000D02*
X143824600Y-89620000D01*
X174429500Y-84022000D02*
X176607500Y-86200000D01*
X176607500Y-86200000D02*
X177134315Y-86200000D01*
X174429500Y-83896300D02*
X174429500Y-84022000D01*
X172419400Y-81886200D02*
X174429500Y-83896300D01*
X143824600Y-89620000D02*
X151558400Y-81886200D01*
X151558400Y-81886200D02*
X172419400Y-81886200D01*
X151700001Y-92399999D02*
X151099999Y-91799997D01*
X184278301Y-92399999D02*
X151700001Y-92399999D01*
X188469700Y-88208600D02*
X184278301Y-92399999D01*
X151099999Y-91799997D02*
X150700000Y-91399998D01*
X137242400Y-88942400D02*
X137242400Y-86415685D01*
X137242400Y-86415685D02*
X137242400Y-85850000D01*
X192335800Y-87966500D02*
X186747289Y-93555011D01*
X194614300Y-87966500D02*
X192335800Y-87966500D01*
X141855011Y-93555011D02*
X137242400Y-88942400D01*
X186747289Y-93555011D02*
X141855011Y-93555011D01*
D18*
G36*
X193954526Y-88770437D02*
G01*
X194124044Y-88883705D01*
X194312402Y-88961726D01*
X194512361Y-89001500D01*
X194570500Y-89001500D01*
X194570500Y-90199398D01*
X193988998Y-90780901D01*
X193960000Y-90804699D01*
X193936202Y-90833697D01*
X193936201Y-90833698D01*
X193865026Y-90920424D01*
X193794454Y-91052454D01*
X193764180Y-91152258D01*
X193750998Y-91195714D01*
X193748834Y-91217683D01*
X193670986Y-91259294D01*
X193444866Y-91444866D01*
X193420393Y-91474687D01*
X193399502Y-91405820D01*
X193340537Y-91295506D01*
X193261185Y-91198815D01*
X193164494Y-91119463D01*
X193054180Y-91060498D01*
X192934482Y-91024188D01*
X192810000Y-91011928D01*
X191110000Y-91011928D01*
X190985518Y-91024188D01*
X190865820Y-91060498D01*
X190755506Y-91119463D01*
X190658815Y-91198815D01*
X190579463Y-91295506D01*
X190520498Y-91405820D01*
X190484188Y-91525518D01*
X190471928Y-91650000D01*
X190471928Y-93340000D01*
X188037101Y-93340000D01*
X192650602Y-88726500D01*
X193910589Y-88726500D01*
X193954526Y-88770437D01*
X193954526Y-88770437D01*
G37*
X193954526Y-88770437D02*
X194124044Y-88883705D01*
X194312402Y-88961726D01*
X194512361Y-89001500D01*
X194570500Y-89001500D01*
X194570500Y-90199398D01*
X193988998Y-90780901D01*
X193960000Y-90804699D01*
X193936202Y-90833697D01*
X193936201Y-90833698D01*
X193865026Y-90920424D01*
X193794454Y-91052454D01*
X193764180Y-91152258D01*
X193750998Y-91195714D01*
X193748834Y-91217683D01*
X193670986Y-91259294D01*
X193444866Y-91444866D01*
X193420393Y-91474687D01*
X193399502Y-91405820D01*
X193340537Y-91295506D01*
X193261185Y-91198815D01*
X193164494Y-91119463D01*
X193054180Y-91060498D01*
X192934482Y-91024188D01*
X192810000Y-91011928D01*
X191110000Y-91011928D01*
X190985518Y-91024188D01*
X190865820Y-91060498D01*
X190755506Y-91119463D01*
X190658815Y-91198815D01*
X190579463Y-91295506D01*
X190520498Y-91405820D01*
X190484188Y-91525518D01*
X190471928Y-91650000D01*
X190471928Y-93340000D01*
X188037101Y-93340000D01*
X192650602Y-88726500D01*
X193910589Y-88726500D01*
X193954526Y-88770437D01*
G36*
X209065424Y-79669580D02*
G01*
X209128356Y-79688580D01*
X209186405Y-79719445D01*
X209237343Y-79760989D01*
X209279248Y-79811644D01*
X209310515Y-79869471D01*
X209329956Y-79932272D01*
X209340000Y-80027835D01*
X209340001Y-92967711D01*
X209330420Y-93065424D01*
X209311420Y-93128357D01*
X209280554Y-93186406D01*
X209239011Y-93237343D01*
X209188356Y-93279248D01*
X209130529Y-93310515D01*
X209067728Y-93329956D01*
X208972165Y-93340000D01*
X198259812Y-93340000D01*
X198384157Y-93131252D01*
X198481481Y-92856891D01*
X198360814Y-92627000D01*
X197167000Y-92627000D01*
X197167000Y-92647000D01*
X196913000Y-92647000D01*
X196913000Y-92627000D01*
X196893000Y-92627000D01*
X196893000Y-92373000D01*
X196913000Y-92373000D01*
X196913000Y-91179845D01*
X197167000Y-91179845D01*
X197167000Y-92373000D01*
X198360814Y-92373000D01*
X198481481Y-92143109D01*
X198384157Y-91868748D01*
X198235178Y-91618645D01*
X198040269Y-91402412D01*
X197806920Y-91228359D01*
X197544099Y-91103175D01*
X197396890Y-91058524D01*
X197167000Y-91179845D01*
X196913000Y-91179845D01*
X196683110Y-91058524D01*
X196535901Y-91103175D01*
X196273080Y-91228359D01*
X196039731Y-91402412D01*
X195844822Y-91618645D01*
X195775201Y-91735523D01*
X195740706Y-91670986D01*
X195555134Y-91444866D01*
X195510921Y-91408581D01*
X195841504Y-91077998D01*
X195870501Y-91054201D01*
X195965474Y-90938476D01*
X196036046Y-90806447D01*
X196044107Y-90779872D01*
X204765000Y-90779872D01*
X204765000Y-91220128D01*
X204850890Y-91651925D01*
X205019369Y-92058669D01*
X205263962Y-92424729D01*
X205575271Y-92736038D01*
X205941331Y-92980631D01*
X206348075Y-93149110D01*
X206779872Y-93235000D01*
X207220128Y-93235000D01*
X207651925Y-93149110D01*
X208058669Y-92980631D01*
X208424729Y-92736038D01*
X208736038Y-92424729D01*
X208980631Y-92058669D01*
X209149110Y-91651925D01*
X209235000Y-91220128D01*
X209235000Y-90779872D01*
X209149110Y-90348075D01*
X208980631Y-89941331D01*
X208736038Y-89575271D01*
X208424729Y-89263962D01*
X208058669Y-89019369D01*
X207651925Y-88850890D01*
X207220128Y-88765000D01*
X206779872Y-88765000D01*
X206348075Y-88850890D01*
X205941331Y-89019369D01*
X205575271Y-89263962D01*
X205263962Y-89575271D01*
X205019369Y-89941331D01*
X204850890Y-90348075D01*
X204765000Y-90779872D01*
X196044107Y-90779872D01*
X196079503Y-90663186D01*
X196090500Y-90551533D01*
X196090500Y-90551524D01*
X196094176Y-90514201D01*
X196090500Y-90476878D01*
X196090500Y-87086074D01*
X196261061Y-87120000D01*
X196464939Y-87120000D01*
X196664898Y-87080226D01*
X196853256Y-87002205D01*
X197022774Y-86888937D01*
X197166937Y-86744774D01*
X197280205Y-86575256D01*
X197358226Y-86386898D01*
X197398000Y-86186939D01*
X197398000Y-85983061D01*
X197358226Y-85783102D01*
X197280205Y-85594744D01*
X197166937Y-85425226D01*
X197022774Y-85281063D01*
X196853256Y-85167795D01*
X196664898Y-85089774D01*
X196464939Y-85050000D01*
X196438157Y-85050000D01*
X195884047Y-84495890D01*
X195859464Y-84465936D01*
X195852231Y-84460000D01*
X196182678Y-84460000D01*
X196220000Y-84463676D01*
X196257322Y-84460000D01*
X196257333Y-84460000D01*
X196368986Y-84449003D01*
X196512247Y-84405546D01*
X196644276Y-84334974D01*
X196760001Y-84240001D01*
X196783804Y-84210997D01*
X199154005Y-81840797D01*
X199228889Y-81863513D01*
X199447050Y-81885000D01*
X199592950Y-81885000D01*
X199811111Y-81863513D01*
X200091034Y-81778599D01*
X200275739Y-81679872D01*
X204765000Y-81679872D01*
X204765000Y-82120128D01*
X204850890Y-82551925D01*
X205019369Y-82958669D01*
X205263962Y-83324729D01*
X205575271Y-83636038D01*
X205941331Y-83880631D01*
X206348075Y-84049110D01*
X206779872Y-84135000D01*
X207220128Y-84135000D01*
X207651925Y-84049110D01*
X208058669Y-83880631D01*
X208424729Y-83636038D01*
X208736038Y-83324729D01*
X208980631Y-82958669D01*
X209149110Y-82551925D01*
X209235000Y-82120128D01*
X209235000Y-81679872D01*
X209149110Y-81248075D01*
X208980631Y-80841331D01*
X208736038Y-80475271D01*
X208424729Y-80163962D01*
X208058669Y-79919369D01*
X207651925Y-79750890D01*
X207220128Y-79665000D01*
X206779872Y-79665000D01*
X206348075Y-79750890D01*
X205941331Y-79919369D01*
X205575271Y-80163962D01*
X205263962Y-80475271D01*
X205019369Y-80841331D01*
X204850890Y-81248075D01*
X204765000Y-81679872D01*
X200275739Y-81679872D01*
X200349014Y-81640706D01*
X200575134Y-81455134D01*
X200760706Y-81229014D01*
X200898599Y-80971034D01*
X200983513Y-80691111D01*
X201012185Y-80400000D01*
X200983513Y-80108889D01*
X200898599Y-79828966D01*
X200808285Y-79660000D01*
X208967721Y-79660000D01*
X209065424Y-79669580D01*
X209065424Y-79669580D01*
G37*
X209065424Y-79669580D02*
X209128356Y-79688580D01*
X209186405Y-79719445D01*
X209237343Y-79760989D01*
X209279248Y-79811644D01*
X209310515Y-79869471D01*
X209329956Y-79932272D01*
X209340000Y-80027835D01*
X209340001Y-92967711D01*
X209330420Y-93065424D01*
X209311420Y-93128357D01*
X209280554Y-93186406D01*
X209239011Y-93237343D01*
X209188356Y-93279248D01*
X209130529Y-93310515D01*
X209067728Y-93329956D01*
X208972165Y-93340000D01*
X198259812Y-93340000D01*
X198384157Y-93131252D01*
X198481481Y-92856891D01*
X198360814Y-92627000D01*
X197167000Y-92627000D01*
X197167000Y-92647000D01*
X196913000Y-92647000D01*
X196913000Y-92627000D01*
X196893000Y-92627000D01*
X196893000Y-92373000D01*
X196913000Y-92373000D01*
X196913000Y-91179845D01*
X197167000Y-91179845D01*
X197167000Y-92373000D01*
X198360814Y-92373000D01*
X198481481Y-92143109D01*
X198384157Y-91868748D01*
X198235178Y-91618645D01*
X198040269Y-91402412D01*
X197806920Y-91228359D01*
X197544099Y-91103175D01*
X197396890Y-91058524D01*
X197167000Y-91179845D01*
X196913000Y-91179845D01*
X196683110Y-91058524D01*
X196535901Y-91103175D01*
X196273080Y-91228359D01*
X196039731Y-91402412D01*
X195844822Y-91618645D01*
X195775201Y-91735523D01*
X195740706Y-91670986D01*
X195555134Y-91444866D01*
X195510921Y-91408581D01*
X195841504Y-91077998D01*
X195870501Y-91054201D01*
X195965474Y-90938476D01*
X196036046Y-90806447D01*
X196044107Y-90779872D01*
X204765000Y-90779872D01*
X204765000Y-91220128D01*
X204850890Y-91651925D01*
X205019369Y-92058669D01*
X205263962Y-92424729D01*
X205575271Y-92736038D01*
X205941331Y-92980631D01*
X206348075Y-93149110D01*
X206779872Y-93235000D01*
X207220128Y-93235000D01*
X207651925Y-93149110D01*
X208058669Y-92980631D01*
X208424729Y-92736038D01*
X208736038Y-92424729D01*
X208980631Y-92058669D01*
X209149110Y-91651925D01*
X209235000Y-91220128D01*
X209235000Y-90779872D01*
X209149110Y-90348075D01*
X208980631Y-89941331D01*
X208736038Y-89575271D01*
X208424729Y-89263962D01*
X208058669Y-89019369D01*
X207651925Y-88850890D01*
X207220128Y-88765000D01*
X206779872Y-88765000D01*
X206348075Y-88850890D01*
X205941331Y-89019369D01*
X205575271Y-89263962D01*
X205263962Y-89575271D01*
X205019369Y-89941331D01*
X204850890Y-90348075D01*
X204765000Y-90779872D01*
X196044107Y-90779872D01*
X196079503Y-90663186D01*
X196090500Y-90551533D01*
X196090500Y-90551524D01*
X196094176Y-90514201D01*
X196090500Y-90476878D01*
X196090500Y-87086074D01*
X196261061Y-87120000D01*
X196464939Y-87120000D01*
X196664898Y-87080226D01*
X196853256Y-87002205D01*
X197022774Y-86888937D01*
X197166937Y-86744774D01*
X197280205Y-86575256D01*
X197358226Y-86386898D01*
X197398000Y-86186939D01*
X197398000Y-85983061D01*
X197358226Y-85783102D01*
X197280205Y-85594744D01*
X197166937Y-85425226D01*
X197022774Y-85281063D01*
X196853256Y-85167795D01*
X196664898Y-85089774D01*
X196464939Y-85050000D01*
X196438157Y-85050000D01*
X195884047Y-84495890D01*
X195859464Y-84465936D01*
X195852231Y-84460000D01*
X196182678Y-84460000D01*
X196220000Y-84463676D01*
X196257322Y-84460000D01*
X196257333Y-84460000D01*
X196368986Y-84449003D01*
X196512247Y-84405546D01*
X196644276Y-84334974D01*
X196760001Y-84240001D01*
X196783804Y-84210997D01*
X199154005Y-81840797D01*
X199228889Y-81863513D01*
X199447050Y-81885000D01*
X199592950Y-81885000D01*
X199811111Y-81863513D01*
X200091034Y-81778599D01*
X200275739Y-81679872D01*
X204765000Y-81679872D01*
X204765000Y-82120128D01*
X204850890Y-82551925D01*
X205019369Y-82958669D01*
X205263962Y-83324729D01*
X205575271Y-83636038D01*
X205941331Y-83880631D01*
X206348075Y-84049110D01*
X206779872Y-84135000D01*
X207220128Y-84135000D01*
X207651925Y-84049110D01*
X208058669Y-83880631D01*
X208424729Y-83636038D01*
X208736038Y-83324729D01*
X208980631Y-82958669D01*
X209149110Y-82551925D01*
X209235000Y-82120128D01*
X209235000Y-81679872D01*
X209149110Y-81248075D01*
X208980631Y-80841331D01*
X208736038Y-80475271D01*
X208424729Y-80163962D01*
X208058669Y-79919369D01*
X207651925Y-79750890D01*
X207220128Y-79665000D01*
X206779872Y-79665000D01*
X206348075Y-79750890D01*
X205941331Y-79919369D01*
X205575271Y-80163962D01*
X205263962Y-80475271D01*
X205019369Y-80841331D01*
X204850890Y-81248075D01*
X204765000Y-81679872D01*
X200275739Y-81679872D01*
X200349014Y-81640706D01*
X200575134Y-81455134D01*
X200760706Y-81229014D01*
X200898599Y-80971034D01*
X200983513Y-80691111D01*
X201012185Y-80400000D01*
X200983513Y-80108889D01*
X200898599Y-79828966D01*
X200808285Y-79660000D01*
X208967721Y-79660000D01*
X209065424Y-79669580D01*
G36*
X170845214Y-87773860D02*
G01*
X170925096Y-88037195D01*
X171054817Y-88279887D01*
X171229392Y-88492608D01*
X171245663Y-88505961D01*
X171097865Y-88669670D01*
X170957476Y-88904932D01*
X170867780Y-89156930D01*
X170990280Y-89373000D01*
X172233000Y-89373000D01*
X172233000Y-89353000D01*
X172487000Y-89353000D01*
X172487000Y-89373000D01*
X173729720Y-89373000D01*
X173852220Y-89156930D01*
X173762524Y-88904932D01*
X173622135Y-88669670D01*
X173474337Y-88505961D01*
X173490608Y-88492608D01*
X173665183Y-88279887D01*
X173794904Y-88037195D01*
X173801302Y-88016104D01*
X176960697Y-91175500D01*
X168799433Y-91175500D01*
X168841476Y-91036890D01*
X168720155Y-90807000D01*
X167527000Y-90807000D01*
X167527000Y-90827000D01*
X167273000Y-90827000D01*
X167273000Y-90807000D01*
X167253000Y-90807000D01*
X167253000Y-90553000D01*
X167273000Y-90553000D01*
X167273000Y-90533000D01*
X167527000Y-90533000D01*
X167527000Y-90553000D01*
X168720155Y-90553000D01*
X168841476Y-90323110D01*
X168796825Y-90175901D01*
X168671641Y-89913080D01*
X168619422Y-89843070D01*
X170867780Y-89843070D01*
X170957476Y-90095068D01*
X171097865Y-90330330D01*
X171281454Y-90533683D01*
X171501188Y-90697312D01*
X171748622Y-90814929D01*
X172014248Y-90882014D01*
X172233000Y-90738749D01*
X172233000Y-89627000D01*
X172487000Y-89627000D01*
X172487000Y-90738749D01*
X172705752Y-90882014D01*
X172971378Y-90814929D01*
X173218812Y-90697312D01*
X173438546Y-90533683D01*
X173622135Y-90330330D01*
X173762524Y-90095068D01*
X173852220Y-89843070D01*
X173729720Y-89627000D01*
X172487000Y-89627000D01*
X172233000Y-89627000D01*
X170990280Y-89627000D01*
X170867780Y-89843070D01*
X168619422Y-89843070D01*
X168497588Y-89679731D01*
X168281355Y-89484822D01*
X168164477Y-89415201D01*
X168229014Y-89380706D01*
X168455134Y-89195134D01*
X168640706Y-88969014D01*
X168778599Y-88711034D01*
X168863513Y-88431111D01*
X168892185Y-88140000D01*
X168863513Y-87848889D01*
X168791047Y-87610000D01*
X170829075Y-87610000D01*
X170845214Y-87773860D01*
X170845214Y-87773860D01*
G37*
X170845214Y-87773860D02*
X170925096Y-88037195D01*
X171054817Y-88279887D01*
X171229392Y-88492608D01*
X171245663Y-88505961D01*
X171097865Y-88669670D01*
X170957476Y-88904932D01*
X170867780Y-89156930D01*
X170990280Y-89373000D01*
X172233000Y-89373000D01*
X172233000Y-89353000D01*
X172487000Y-89353000D01*
X172487000Y-89373000D01*
X173729720Y-89373000D01*
X173852220Y-89156930D01*
X173762524Y-88904932D01*
X173622135Y-88669670D01*
X173474337Y-88505961D01*
X173490608Y-88492608D01*
X173665183Y-88279887D01*
X173794904Y-88037195D01*
X173801302Y-88016104D01*
X176960697Y-91175500D01*
X168799433Y-91175500D01*
X168841476Y-91036890D01*
X168720155Y-90807000D01*
X167527000Y-90807000D01*
X167527000Y-90827000D01*
X167273000Y-90827000D01*
X167273000Y-90807000D01*
X167253000Y-90807000D01*
X167253000Y-90553000D01*
X167273000Y-90553000D01*
X167273000Y-90533000D01*
X167527000Y-90533000D01*
X167527000Y-90553000D01*
X168720155Y-90553000D01*
X168841476Y-90323110D01*
X168796825Y-90175901D01*
X168671641Y-89913080D01*
X168619422Y-89843070D01*
X170867780Y-89843070D01*
X170957476Y-90095068D01*
X171097865Y-90330330D01*
X171281454Y-90533683D01*
X171501188Y-90697312D01*
X171748622Y-90814929D01*
X172014248Y-90882014D01*
X172233000Y-90738749D01*
X172233000Y-89627000D01*
X172487000Y-89627000D01*
X172487000Y-90738749D01*
X172705752Y-90882014D01*
X172971378Y-90814929D01*
X173218812Y-90697312D01*
X173438546Y-90533683D01*
X173622135Y-90330330D01*
X173762524Y-90095068D01*
X173852220Y-89843070D01*
X173729720Y-89627000D01*
X172487000Y-89627000D01*
X172233000Y-89627000D01*
X170990280Y-89627000D01*
X170867780Y-89843070D01*
X168619422Y-89843070D01*
X168497588Y-89679731D01*
X168281355Y-89484822D01*
X168164477Y-89415201D01*
X168229014Y-89380706D01*
X168455134Y-89195134D01*
X168640706Y-88969014D01*
X168778599Y-88711034D01*
X168863513Y-88431111D01*
X168892185Y-88140000D01*
X168863513Y-87848889D01*
X168791047Y-87610000D01*
X170829075Y-87610000D01*
X170845214Y-87773860D01*
G36*
X178414840Y-79671246D02*
G01*
X178278467Y-79744138D01*
X178218259Y-79793550D01*
X178188887Y-79817655D01*
X178188884Y-79817658D01*
X178158936Y-79842236D01*
X178134358Y-79872184D01*
X175489943Y-82516600D01*
X175463161Y-82516600D01*
X175263202Y-82556374D01*
X175074844Y-82634395D01*
X174945813Y-82720611D01*
X173170004Y-80944803D01*
X173146201Y-80915799D01*
X173030476Y-80820826D01*
X172898447Y-80750254D01*
X172755186Y-80706797D01*
X172643533Y-80695800D01*
X172643522Y-80695800D01*
X172606200Y-80692124D01*
X172568878Y-80695800D01*
X151417422Y-80695800D01*
X151380099Y-80692124D01*
X151342776Y-80695800D01*
X151342767Y-80695800D01*
X151231114Y-80706797D01*
X151087853Y-80750254D01*
X150955824Y-80820826D01*
X150840099Y-80915799D01*
X150816301Y-80944797D01*
X149106639Y-82654459D01*
X149149110Y-82551925D01*
X149235000Y-82120128D01*
X149235000Y-81679872D01*
X149149110Y-81248075D01*
X148980631Y-80841331D01*
X148736038Y-80475271D01*
X148424729Y-80163962D01*
X148058669Y-79919369D01*
X147651925Y-79750890D01*
X147220128Y-79665000D01*
X146779872Y-79665000D01*
X146348075Y-79750890D01*
X145941331Y-79919369D01*
X145575271Y-80163962D01*
X145263962Y-80475271D01*
X145019369Y-80841331D01*
X144850890Y-81248075D01*
X144765000Y-81679872D01*
X144765000Y-82120128D01*
X144850890Y-82551925D01*
X145019369Y-82958669D01*
X145263962Y-83324729D01*
X145575271Y-83636038D01*
X145941331Y-83880631D01*
X146348075Y-84049110D01*
X146779872Y-84135000D01*
X147220128Y-84135000D01*
X147651925Y-84049110D01*
X147754460Y-84006639D01*
X144901099Y-86860000D01*
X143445813Y-86860000D01*
X143435183Y-86840113D01*
X143260608Y-86627392D01*
X143251601Y-86620000D01*
X143260608Y-86612608D01*
X143435183Y-86399887D01*
X143564904Y-86157195D01*
X143644786Y-85893860D01*
X143671759Y-85620000D01*
X143644786Y-85346140D01*
X143564904Y-85082805D01*
X143435183Y-84840113D01*
X143260608Y-84627392D01*
X143244337Y-84614039D01*
X143392135Y-84450330D01*
X143532524Y-84215068D01*
X143622220Y-83963070D01*
X143499720Y-83747000D01*
X142257000Y-83747000D01*
X142257000Y-83767000D01*
X142003000Y-83767000D01*
X142003000Y-83747000D01*
X140760280Y-83747000D01*
X140637780Y-83963070D01*
X140727476Y-84215068D01*
X140867865Y-84450330D01*
X141015663Y-84614039D01*
X140999392Y-84627392D01*
X140824817Y-84840113D01*
X140695096Y-85082805D01*
X140615214Y-85346140D01*
X140588241Y-85620000D01*
X140615214Y-85893860D01*
X140645650Y-85994193D01*
X140272190Y-86367653D01*
X140242236Y-86392236D01*
X140144138Y-86511768D01*
X140071246Y-86648141D01*
X140026359Y-86796114D01*
X140015000Y-86911440D01*
X140015000Y-86911447D01*
X140011203Y-86950000D01*
X140015000Y-86988553D01*
X140015000Y-88214078D01*
X139925265Y-88104735D01*
X139733405Y-87947280D01*
X139514514Y-87830280D01*
X139277003Y-87758232D01*
X139091893Y-87740000D01*
X138968107Y-87740000D01*
X138782997Y-87758232D01*
X138545486Y-87830280D01*
X138326595Y-87947280D01*
X138134735Y-88104735D01*
X138002400Y-88265986D01*
X138002400Y-86553711D01*
X138046337Y-86509774D01*
X138159605Y-86340256D01*
X138237626Y-86151898D01*
X138277400Y-85951939D01*
X138277400Y-85748061D01*
X138237626Y-85548102D01*
X138159605Y-85359744D01*
X138046337Y-85190226D01*
X137902174Y-85046063D01*
X137732656Y-84932795D01*
X137544298Y-84854774D01*
X137344339Y-84815000D01*
X137140461Y-84815000D01*
X136940502Y-84854774D01*
X136752144Y-84932795D01*
X136582626Y-85046063D01*
X136438463Y-85190226D01*
X136325195Y-85359744D01*
X136247174Y-85548102D01*
X136207400Y-85748061D01*
X136207400Y-85951939D01*
X136247174Y-86151898D01*
X136325195Y-86340256D01*
X136438463Y-86509774D01*
X136482401Y-86553712D01*
X136482400Y-88598188D01*
X136399264Y-88590000D01*
X136260736Y-88590000D01*
X136053592Y-88610402D01*
X135787806Y-88691027D01*
X135660000Y-88759341D01*
X135660000Y-84240659D01*
X135787806Y-84308973D01*
X136053592Y-84389598D01*
X136260736Y-84410000D01*
X136399264Y-84410000D01*
X136606408Y-84389598D01*
X136872194Y-84308973D01*
X137117144Y-84178044D01*
X137331844Y-84001844D01*
X137333357Y-84000000D01*
X137763904Y-84000000D01*
X137788232Y-84247003D01*
X137860280Y-84484514D01*
X137977280Y-84703405D01*
X138134735Y-84895265D01*
X138326595Y-85052720D01*
X138545486Y-85169720D01*
X138782997Y-85241768D01*
X138968107Y-85260000D01*
X139091893Y-85260000D01*
X139277003Y-85241768D01*
X139514514Y-85169720D01*
X139733405Y-85052720D01*
X139925265Y-84895265D01*
X140082720Y-84703405D01*
X140199720Y-84484514D01*
X140271768Y-84247003D01*
X140296096Y-84000000D01*
X140271768Y-83752997D01*
X140199720Y-83515486D01*
X140082720Y-83296595D01*
X140066582Y-83276930D01*
X140637780Y-83276930D01*
X140760280Y-83493000D01*
X142003000Y-83493000D01*
X142003000Y-82381251D01*
X142257000Y-82381251D01*
X142257000Y-83493000D01*
X143499720Y-83493000D01*
X143622220Y-83276930D01*
X143532524Y-83024932D01*
X143392135Y-82789670D01*
X143208546Y-82586317D01*
X142988812Y-82422688D01*
X142741378Y-82305071D01*
X142475752Y-82237986D01*
X142257000Y-82381251D01*
X142003000Y-82381251D01*
X141784248Y-82237986D01*
X141518622Y-82305071D01*
X141271188Y-82422688D01*
X141051454Y-82586317D01*
X140867865Y-82789670D01*
X140727476Y-83024932D01*
X140637780Y-83276930D01*
X140066582Y-83276930D01*
X139925265Y-83104735D01*
X139733405Y-82947280D01*
X139514514Y-82830280D01*
X139277003Y-82758232D01*
X139091893Y-82740000D01*
X138968107Y-82740000D01*
X138782997Y-82758232D01*
X138545486Y-82830280D01*
X138326595Y-82947280D01*
X138134735Y-83104735D01*
X137977280Y-83296595D01*
X137860280Y-83515486D01*
X137788232Y-83752997D01*
X137763904Y-84000000D01*
X137333357Y-84000000D01*
X137508044Y-83787144D01*
X137638973Y-83542194D01*
X137719598Y-83276408D01*
X137746822Y-83000000D01*
X137719598Y-82723592D01*
X137638973Y-82457806D01*
X137508044Y-82212856D01*
X137331844Y-81998156D01*
X137117144Y-81821956D01*
X136872194Y-81691027D01*
X136606408Y-81610402D01*
X136399264Y-81590000D01*
X136260736Y-81590000D01*
X136053592Y-81610402D01*
X135787806Y-81691027D01*
X135660000Y-81759341D01*
X135660000Y-80032279D01*
X135669580Y-79934576D01*
X135688580Y-79871644D01*
X135719445Y-79813595D01*
X135760989Y-79762657D01*
X135811644Y-79720752D01*
X135869471Y-79689485D01*
X135932272Y-79670044D01*
X136027835Y-79660000D01*
X178451913Y-79660000D01*
X178414840Y-79671246D01*
X178414840Y-79671246D01*
G37*
X178414840Y-79671246D02*
X178278467Y-79744138D01*
X178218259Y-79793550D01*
X178188887Y-79817655D01*
X178188884Y-79817658D01*
X178158936Y-79842236D01*
X178134358Y-79872184D01*
X175489943Y-82516600D01*
X175463161Y-82516600D01*
X175263202Y-82556374D01*
X175074844Y-82634395D01*
X174945813Y-82720611D01*
X173170004Y-80944803D01*
X173146201Y-80915799D01*
X173030476Y-80820826D01*
X172898447Y-80750254D01*
X172755186Y-80706797D01*
X172643533Y-80695800D01*
X172643522Y-80695800D01*
X172606200Y-80692124D01*
X172568878Y-80695800D01*
X151417422Y-80695800D01*
X151380099Y-80692124D01*
X151342776Y-80695800D01*
X151342767Y-80695800D01*
X151231114Y-80706797D01*
X151087853Y-80750254D01*
X150955824Y-80820826D01*
X150840099Y-80915799D01*
X150816301Y-80944797D01*
X149106639Y-82654459D01*
X149149110Y-82551925D01*
X149235000Y-82120128D01*
X149235000Y-81679872D01*
X149149110Y-81248075D01*
X148980631Y-80841331D01*
X148736038Y-80475271D01*
X148424729Y-80163962D01*
X148058669Y-79919369D01*
X147651925Y-79750890D01*
X147220128Y-79665000D01*
X146779872Y-79665000D01*
X146348075Y-79750890D01*
X145941331Y-79919369D01*
X145575271Y-80163962D01*
X145263962Y-80475271D01*
X145019369Y-80841331D01*
X144850890Y-81248075D01*
X144765000Y-81679872D01*
X144765000Y-82120128D01*
X144850890Y-82551925D01*
X145019369Y-82958669D01*
X145263962Y-83324729D01*
X145575271Y-83636038D01*
X145941331Y-83880631D01*
X146348075Y-84049110D01*
X146779872Y-84135000D01*
X147220128Y-84135000D01*
X147651925Y-84049110D01*
X147754460Y-84006639D01*
X144901099Y-86860000D01*
X143445813Y-86860000D01*
X143435183Y-86840113D01*
X143260608Y-86627392D01*
X143251601Y-86620000D01*
X143260608Y-86612608D01*
X143435183Y-86399887D01*
X143564904Y-86157195D01*
X143644786Y-85893860D01*
X143671759Y-85620000D01*
X143644786Y-85346140D01*
X143564904Y-85082805D01*
X143435183Y-84840113D01*
X143260608Y-84627392D01*
X143244337Y-84614039D01*
X143392135Y-84450330D01*
X143532524Y-84215068D01*
X143622220Y-83963070D01*
X143499720Y-83747000D01*
X142257000Y-83747000D01*
X142257000Y-83767000D01*
X142003000Y-83767000D01*
X142003000Y-83747000D01*
X140760280Y-83747000D01*
X140637780Y-83963070D01*
X140727476Y-84215068D01*
X140867865Y-84450330D01*
X141015663Y-84614039D01*
X140999392Y-84627392D01*
X140824817Y-84840113D01*
X140695096Y-85082805D01*
X140615214Y-85346140D01*
X140588241Y-85620000D01*
X140615214Y-85893860D01*
X140645650Y-85994193D01*
X140272190Y-86367653D01*
X140242236Y-86392236D01*
X140144138Y-86511768D01*
X140071246Y-86648141D01*
X140026359Y-86796114D01*
X140015000Y-86911440D01*
X140015000Y-86911447D01*
X140011203Y-86950000D01*
X140015000Y-86988553D01*
X140015000Y-88214078D01*
X139925265Y-88104735D01*
X139733405Y-87947280D01*
X139514514Y-87830280D01*
X139277003Y-87758232D01*
X139091893Y-87740000D01*
X138968107Y-87740000D01*
X138782997Y-87758232D01*
X138545486Y-87830280D01*
X138326595Y-87947280D01*
X138134735Y-88104735D01*
X138002400Y-88265986D01*
X138002400Y-86553711D01*
X138046337Y-86509774D01*
X138159605Y-86340256D01*
X138237626Y-86151898D01*
X138277400Y-85951939D01*
X138277400Y-85748061D01*
X138237626Y-85548102D01*
X138159605Y-85359744D01*
X138046337Y-85190226D01*
X137902174Y-85046063D01*
X137732656Y-84932795D01*
X137544298Y-84854774D01*
X137344339Y-84815000D01*
X137140461Y-84815000D01*
X136940502Y-84854774D01*
X136752144Y-84932795D01*
X136582626Y-85046063D01*
X136438463Y-85190226D01*
X136325195Y-85359744D01*
X136247174Y-85548102D01*
X136207400Y-85748061D01*
X136207400Y-85951939D01*
X136247174Y-86151898D01*
X136325195Y-86340256D01*
X136438463Y-86509774D01*
X136482401Y-86553712D01*
X136482400Y-88598188D01*
X136399264Y-88590000D01*
X136260736Y-88590000D01*
X136053592Y-88610402D01*
X135787806Y-88691027D01*
X135660000Y-88759341D01*
X135660000Y-84240659D01*
X135787806Y-84308973D01*
X136053592Y-84389598D01*
X136260736Y-84410000D01*
X136399264Y-84410000D01*
X136606408Y-84389598D01*
X136872194Y-84308973D01*
X137117144Y-84178044D01*
X137331844Y-84001844D01*
X137333357Y-84000000D01*
X137763904Y-84000000D01*
X137788232Y-84247003D01*
X137860280Y-84484514D01*
X137977280Y-84703405D01*
X138134735Y-84895265D01*
X138326595Y-85052720D01*
X138545486Y-85169720D01*
X138782997Y-85241768D01*
X138968107Y-85260000D01*
X139091893Y-85260000D01*
X139277003Y-85241768D01*
X139514514Y-85169720D01*
X139733405Y-85052720D01*
X139925265Y-84895265D01*
X140082720Y-84703405D01*
X140199720Y-84484514D01*
X140271768Y-84247003D01*
X140296096Y-84000000D01*
X140271768Y-83752997D01*
X140199720Y-83515486D01*
X140082720Y-83296595D01*
X140066582Y-83276930D01*
X140637780Y-83276930D01*
X140760280Y-83493000D01*
X142003000Y-83493000D01*
X142003000Y-82381251D01*
X142257000Y-82381251D01*
X142257000Y-83493000D01*
X143499720Y-83493000D01*
X143622220Y-83276930D01*
X143532524Y-83024932D01*
X143392135Y-82789670D01*
X143208546Y-82586317D01*
X142988812Y-82422688D01*
X142741378Y-82305071D01*
X142475752Y-82237986D01*
X142257000Y-82381251D01*
X142003000Y-82381251D01*
X141784248Y-82237986D01*
X141518622Y-82305071D01*
X141271188Y-82422688D01*
X141051454Y-82586317D01*
X140867865Y-82789670D01*
X140727476Y-83024932D01*
X140637780Y-83276930D01*
X140066582Y-83276930D01*
X139925265Y-83104735D01*
X139733405Y-82947280D01*
X139514514Y-82830280D01*
X139277003Y-82758232D01*
X139091893Y-82740000D01*
X138968107Y-82740000D01*
X138782997Y-82758232D01*
X138545486Y-82830280D01*
X138326595Y-82947280D01*
X138134735Y-83104735D01*
X137977280Y-83296595D01*
X137860280Y-83515486D01*
X137788232Y-83752997D01*
X137763904Y-84000000D01*
X137333357Y-84000000D01*
X137508044Y-83787144D01*
X137638973Y-83542194D01*
X137719598Y-83276408D01*
X137746822Y-83000000D01*
X137719598Y-82723592D01*
X137638973Y-82457806D01*
X137508044Y-82212856D01*
X137331844Y-81998156D01*
X137117144Y-81821956D01*
X136872194Y-81691027D01*
X136606408Y-81610402D01*
X136399264Y-81590000D01*
X136260736Y-81590000D01*
X136053592Y-81610402D01*
X135787806Y-81691027D01*
X135660000Y-81759341D01*
X135660000Y-80032279D01*
X135669580Y-79934576D01*
X135688580Y-79871644D01*
X135719445Y-79813595D01*
X135760989Y-79762657D01*
X135811644Y-79720752D01*
X135869471Y-79689485D01*
X135932272Y-79670044D01*
X136027835Y-79660000D01*
X178451913Y-79660000D01*
X178414840Y-79671246D01*
G36*
X197107000Y-80273000D02*
G01*
X197127000Y-80273000D01*
X197127000Y-80527000D01*
X197107000Y-80527000D01*
X197107000Y-80547000D01*
X196853000Y-80547000D01*
X196853000Y-80527000D01*
X196833000Y-80527000D01*
X196833000Y-80273000D01*
X196853000Y-80273000D01*
X196853000Y-80253000D01*
X197107000Y-80253000D01*
X197107000Y-80273000D01*
X197107000Y-80273000D01*
G37*
X197107000Y-80273000D02*
X197127000Y-80273000D01*
X197127000Y-80527000D01*
X197107000Y-80527000D01*
X197107000Y-80547000D01*
X196853000Y-80547000D01*
X196853000Y-80527000D01*
X196833000Y-80527000D01*
X196833000Y-80273000D01*
X196853000Y-80273000D01*
X196853000Y-80253000D01*
X197107000Y-80253000D01*
X197107000Y-80273000D01*
M02*
