G04 #@! TF.GenerationSoftware,KiCad,Pcbnew,(5.1.2)-1*
G04 #@! TF.CreationDate,2021-06-02T21:36:33+09:00*
G04 #@! TF.ProjectId,es,65732e6b-6963-4616-945f-706362585858,v1.3*
G04 #@! TF.SameCoordinates,Original*
G04 #@! TF.FileFunction,Paste,Top*
G04 #@! TF.FilePolarity,Positive*
%FSLAX46Y46*%
G04 Gerber Fmt 4.6, Leading zero omitted, Abs format (unit mm)*
G04 Created by KiCad (PCBNEW (5.1.2)-1) date 2021-06-02 21:36:33*
%MOMM*%
%LPD*%
G04 APERTURE LIST*
%ADD10C,0.100000*%
%ADD11C,0.250000*%
%ADD12C,0.930000*%
%ADD13R,0.650000X1.060000*%
%ADD14O,1.800000X1.524000*%
%ADD15C,0.875000*%
%ADD16R,1.350000X0.400000*%
%ADD17R,0.650000X1.050000*%
%ADD18C,0.600000*%
%ADD19C,0.975000*%
%ADD20R,0.350000X0.350000*%
%ADD21R,0.300000X0.350000*%
G04 APERTURE END LIST*
D10*
G36*
X180443626Y-88925301D02*
G01*
X180449693Y-88926201D01*
X180455643Y-88927691D01*
X180461418Y-88929758D01*
X180466962Y-88932380D01*
X180472223Y-88935533D01*
X180477150Y-88939187D01*
X180481694Y-88943306D01*
X180485813Y-88947850D01*
X180489467Y-88952777D01*
X180492620Y-88958038D01*
X180495242Y-88963582D01*
X180497309Y-88969357D01*
X180498799Y-88975307D01*
X180499699Y-88981374D01*
X180500000Y-88987500D01*
X180500000Y-89112500D01*
X180499699Y-89118626D01*
X180498799Y-89124693D01*
X180497309Y-89130643D01*
X180495242Y-89136418D01*
X180492620Y-89141962D01*
X180489467Y-89147223D01*
X180485813Y-89152150D01*
X180481694Y-89156694D01*
X180477150Y-89160813D01*
X180472223Y-89164467D01*
X180466962Y-89167620D01*
X180461418Y-89170242D01*
X180455643Y-89172309D01*
X180449693Y-89173799D01*
X180443626Y-89174699D01*
X180437500Y-89175000D01*
X179687500Y-89175000D01*
X179681374Y-89174699D01*
X179675307Y-89173799D01*
X179669357Y-89172309D01*
X179663582Y-89170242D01*
X179658038Y-89167620D01*
X179652777Y-89164467D01*
X179647850Y-89160813D01*
X179643306Y-89156694D01*
X179639187Y-89152150D01*
X179635533Y-89147223D01*
X179632380Y-89141962D01*
X179629758Y-89136418D01*
X179627691Y-89130643D01*
X179626201Y-89124693D01*
X179625301Y-89118626D01*
X179625000Y-89112500D01*
X179625000Y-88987500D01*
X179625301Y-88981374D01*
X179626201Y-88975307D01*
X179627691Y-88969357D01*
X179629758Y-88963582D01*
X179632380Y-88958038D01*
X179635533Y-88952777D01*
X179639187Y-88947850D01*
X179643306Y-88943306D01*
X179647850Y-88939187D01*
X179652777Y-88935533D01*
X179658038Y-88932380D01*
X179663582Y-88929758D01*
X179669357Y-88927691D01*
X179675307Y-88926201D01*
X179681374Y-88925301D01*
X179687500Y-88925000D01*
X180437500Y-88925000D01*
X180443626Y-88925301D01*
X180443626Y-88925301D01*
G37*
D11*
X180062500Y-89050000D03*
D10*
G36*
X180443626Y-88425301D02*
G01*
X180449693Y-88426201D01*
X180455643Y-88427691D01*
X180461418Y-88429758D01*
X180466962Y-88432380D01*
X180472223Y-88435533D01*
X180477150Y-88439187D01*
X180481694Y-88443306D01*
X180485813Y-88447850D01*
X180489467Y-88452777D01*
X180492620Y-88458038D01*
X180495242Y-88463582D01*
X180497309Y-88469357D01*
X180498799Y-88475307D01*
X180499699Y-88481374D01*
X180500000Y-88487500D01*
X180500000Y-88612500D01*
X180499699Y-88618626D01*
X180498799Y-88624693D01*
X180497309Y-88630643D01*
X180495242Y-88636418D01*
X180492620Y-88641962D01*
X180489467Y-88647223D01*
X180485813Y-88652150D01*
X180481694Y-88656694D01*
X180477150Y-88660813D01*
X180472223Y-88664467D01*
X180466962Y-88667620D01*
X180461418Y-88670242D01*
X180455643Y-88672309D01*
X180449693Y-88673799D01*
X180443626Y-88674699D01*
X180437500Y-88675000D01*
X179687500Y-88675000D01*
X179681374Y-88674699D01*
X179675307Y-88673799D01*
X179669357Y-88672309D01*
X179663582Y-88670242D01*
X179658038Y-88667620D01*
X179652777Y-88664467D01*
X179647850Y-88660813D01*
X179643306Y-88656694D01*
X179639187Y-88652150D01*
X179635533Y-88647223D01*
X179632380Y-88641962D01*
X179629758Y-88636418D01*
X179627691Y-88630643D01*
X179626201Y-88624693D01*
X179625301Y-88618626D01*
X179625000Y-88612500D01*
X179625000Y-88487500D01*
X179625301Y-88481374D01*
X179626201Y-88475307D01*
X179627691Y-88469357D01*
X179629758Y-88463582D01*
X179632380Y-88458038D01*
X179635533Y-88452777D01*
X179639187Y-88447850D01*
X179643306Y-88443306D01*
X179647850Y-88439187D01*
X179652777Y-88435533D01*
X179658038Y-88432380D01*
X179663582Y-88429758D01*
X179669357Y-88427691D01*
X179675307Y-88426201D01*
X179681374Y-88425301D01*
X179687500Y-88425000D01*
X180437500Y-88425000D01*
X180443626Y-88425301D01*
X180443626Y-88425301D01*
G37*
D11*
X180062500Y-88550000D03*
D10*
G36*
X180443626Y-87925301D02*
G01*
X180449693Y-87926201D01*
X180455643Y-87927691D01*
X180461418Y-87929758D01*
X180466962Y-87932380D01*
X180472223Y-87935533D01*
X180477150Y-87939187D01*
X180481694Y-87943306D01*
X180485813Y-87947850D01*
X180489467Y-87952777D01*
X180492620Y-87958038D01*
X180495242Y-87963582D01*
X180497309Y-87969357D01*
X180498799Y-87975307D01*
X180499699Y-87981374D01*
X180500000Y-87987500D01*
X180500000Y-88112500D01*
X180499699Y-88118626D01*
X180498799Y-88124693D01*
X180497309Y-88130643D01*
X180495242Y-88136418D01*
X180492620Y-88141962D01*
X180489467Y-88147223D01*
X180485813Y-88152150D01*
X180481694Y-88156694D01*
X180477150Y-88160813D01*
X180472223Y-88164467D01*
X180466962Y-88167620D01*
X180461418Y-88170242D01*
X180455643Y-88172309D01*
X180449693Y-88173799D01*
X180443626Y-88174699D01*
X180437500Y-88175000D01*
X179687500Y-88175000D01*
X179681374Y-88174699D01*
X179675307Y-88173799D01*
X179669357Y-88172309D01*
X179663582Y-88170242D01*
X179658038Y-88167620D01*
X179652777Y-88164467D01*
X179647850Y-88160813D01*
X179643306Y-88156694D01*
X179639187Y-88152150D01*
X179635533Y-88147223D01*
X179632380Y-88141962D01*
X179629758Y-88136418D01*
X179627691Y-88130643D01*
X179626201Y-88124693D01*
X179625301Y-88118626D01*
X179625000Y-88112500D01*
X179625000Y-87987500D01*
X179625301Y-87981374D01*
X179626201Y-87975307D01*
X179627691Y-87969357D01*
X179629758Y-87963582D01*
X179632380Y-87958038D01*
X179635533Y-87952777D01*
X179639187Y-87947850D01*
X179643306Y-87943306D01*
X179647850Y-87939187D01*
X179652777Y-87935533D01*
X179658038Y-87932380D01*
X179663582Y-87929758D01*
X179669357Y-87927691D01*
X179675307Y-87926201D01*
X179681374Y-87925301D01*
X179687500Y-87925000D01*
X180437500Y-87925000D01*
X180443626Y-87925301D01*
X180443626Y-87925301D01*
G37*
D11*
X180062500Y-88050000D03*
D10*
G36*
X180443626Y-87425301D02*
G01*
X180449693Y-87426201D01*
X180455643Y-87427691D01*
X180461418Y-87429758D01*
X180466962Y-87432380D01*
X180472223Y-87435533D01*
X180477150Y-87439187D01*
X180481694Y-87443306D01*
X180485813Y-87447850D01*
X180489467Y-87452777D01*
X180492620Y-87458038D01*
X180495242Y-87463582D01*
X180497309Y-87469357D01*
X180498799Y-87475307D01*
X180499699Y-87481374D01*
X180500000Y-87487500D01*
X180500000Y-87612500D01*
X180499699Y-87618626D01*
X180498799Y-87624693D01*
X180497309Y-87630643D01*
X180495242Y-87636418D01*
X180492620Y-87641962D01*
X180489467Y-87647223D01*
X180485813Y-87652150D01*
X180481694Y-87656694D01*
X180477150Y-87660813D01*
X180472223Y-87664467D01*
X180466962Y-87667620D01*
X180461418Y-87670242D01*
X180455643Y-87672309D01*
X180449693Y-87673799D01*
X180443626Y-87674699D01*
X180437500Y-87675000D01*
X179687500Y-87675000D01*
X179681374Y-87674699D01*
X179675307Y-87673799D01*
X179669357Y-87672309D01*
X179663582Y-87670242D01*
X179658038Y-87667620D01*
X179652777Y-87664467D01*
X179647850Y-87660813D01*
X179643306Y-87656694D01*
X179639187Y-87652150D01*
X179635533Y-87647223D01*
X179632380Y-87641962D01*
X179629758Y-87636418D01*
X179627691Y-87630643D01*
X179626201Y-87624693D01*
X179625301Y-87618626D01*
X179625000Y-87612500D01*
X179625000Y-87487500D01*
X179625301Y-87481374D01*
X179626201Y-87475307D01*
X179627691Y-87469357D01*
X179629758Y-87463582D01*
X179632380Y-87458038D01*
X179635533Y-87452777D01*
X179639187Y-87447850D01*
X179643306Y-87443306D01*
X179647850Y-87439187D01*
X179652777Y-87435533D01*
X179658038Y-87432380D01*
X179663582Y-87429758D01*
X179669357Y-87427691D01*
X179675307Y-87426201D01*
X179681374Y-87425301D01*
X179687500Y-87425000D01*
X180437500Y-87425000D01*
X180443626Y-87425301D01*
X180443626Y-87425301D01*
G37*
D11*
X180062500Y-87550000D03*
D10*
G36*
X180443626Y-86925301D02*
G01*
X180449693Y-86926201D01*
X180455643Y-86927691D01*
X180461418Y-86929758D01*
X180466962Y-86932380D01*
X180472223Y-86935533D01*
X180477150Y-86939187D01*
X180481694Y-86943306D01*
X180485813Y-86947850D01*
X180489467Y-86952777D01*
X180492620Y-86958038D01*
X180495242Y-86963582D01*
X180497309Y-86969357D01*
X180498799Y-86975307D01*
X180499699Y-86981374D01*
X180500000Y-86987500D01*
X180500000Y-87112500D01*
X180499699Y-87118626D01*
X180498799Y-87124693D01*
X180497309Y-87130643D01*
X180495242Y-87136418D01*
X180492620Y-87141962D01*
X180489467Y-87147223D01*
X180485813Y-87152150D01*
X180481694Y-87156694D01*
X180477150Y-87160813D01*
X180472223Y-87164467D01*
X180466962Y-87167620D01*
X180461418Y-87170242D01*
X180455643Y-87172309D01*
X180449693Y-87173799D01*
X180443626Y-87174699D01*
X180437500Y-87175000D01*
X179687500Y-87175000D01*
X179681374Y-87174699D01*
X179675307Y-87173799D01*
X179669357Y-87172309D01*
X179663582Y-87170242D01*
X179658038Y-87167620D01*
X179652777Y-87164467D01*
X179647850Y-87160813D01*
X179643306Y-87156694D01*
X179639187Y-87152150D01*
X179635533Y-87147223D01*
X179632380Y-87141962D01*
X179629758Y-87136418D01*
X179627691Y-87130643D01*
X179626201Y-87124693D01*
X179625301Y-87118626D01*
X179625000Y-87112500D01*
X179625000Y-86987500D01*
X179625301Y-86981374D01*
X179626201Y-86975307D01*
X179627691Y-86969357D01*
X179629758Y-86963582D01*
X179632380Y-86958038D01*
X179635533Y-86952777D01*
X179639187Y-86947850D01*
X179643306Y-86943306D01*
X179647850Y-86939187D01*
X179652777Y-86935533D01*
X179658038Y-86932380D01*
X179663582Y-86929758D01*
X179669357Y-86927691D01*
X179675307Y-86926201D01*
X179681374Y-86925301D01*
X179687500Y-86925000D01*
X180437500Y-86925000D01*
X180443626Y-86925301D01*
X180443626Y-86925301D01*
G37*
D11*
X180062500Y-87050000D03*
D10*
G36*
X180443626Y-86425301D02*
G01*
X180449693Y-86426201D01*
X180455643Y-86427691D01*
X180461418Y-86429758D01*
X180466962Y-86432380D01*
X180472223Y-86435533D01*
X180477150Y-86439187D01*
X180481694Y-86443306D01*
X180485813Y-86447850D01*
X180489467Y-86452777D01*
X180492620Y-86458038D01*
X180495242Y-86463582D01*
X180497309Y-86469357D01*
X180498799Y-86475307D01*
X180499699Y-86481374D01*
X180500000Y-86487500D01*
X180500000Y-86612500D01*
X180499699Y-86618626D01*
X180498799Y-86624693D01*
X180497309Y-86630643D01*
X180495242Y-86636418D01*
X180492620Y-86641962D01*
X180489467Y-86647223D01*
X180485813Y-86652150D01*
X180481694Y-86656694D01*
X180477150Y-86660813D01*
X180472223Y-86664467D01*
X180466962Y-86667620D01*
X180461418Y-86670242D01*
X180455643Y-86672309D01*
X180449693Y-86673799D01*
X180443626Y-86674699D01*
X180437500Y-86675000D01*
X179687500Y-86675000D01*
X179681374Y-86674699D01*
X179675307Y-86673799D01*
X179669357Y-86672309D01*
X179663582Y-86670242D01*
X179658038Y-86667620D01*
X179652777Y-86664467D01*
X179647850Y-86660813D01*
X179643306Y-86656694D01*
X179639187Y-86652150D01*
X179635533Y-86647223D01*
X179632380Y-86641962D01*
X179629758Y-86636418D01*
X179627691Y-86630643D01*
X179626201Y-86624693D01*
X179625301Y-86618626D01*
X179625000Y-86612500D01*
X179625000Y-86487500D01*
X179625301Y-86481374D01*
X179626201Y-86475307D01*
X179627691Y-86469357D01*
X179629758Y-86463582D01*
X179632380Y-86458038D01*
X179635533Y-86452777D01*
X179639187Y-86447850D01*
X179643306Y-86443306D01*
X179647850Y-86439187D01*
X179652777Y-86435533D01*
X179658038Y-86432380D01*
X179663582Y-86429758D01*
X179669357Y-86427691D01*
X179675307Y-86426201D01*
X179681374Y-86425301D01*
X179687500Y-86425000D01*
X180437500Y-86425000D01*
X180443626Y-86425301D01*
X180443626Y-86425301D01*
G37*
D11*
X180062500Y-86550000D03*
D10*
G36*
X180443626Y-85925301D02*
G01*
X180449693Y-85926201D01*
X180455643Y-85927691D01*
X180461418Y-85929758D01*
X180466962Y-85932380D01*
X180472223Y-85935533D01*
X180477150Y-85939187D01*
X180481694Y-85943306D01*
X180485813Y-85947850D01*
X180489467Y-85952777D01*
X180492620Y-85958038D01*
X180495242Y-85963582D01*
X180497309Y-85969357D01*
X180498799Y-85975307D01*
X180499699Y-85981374D01*
X180500000Y-85987500D01*
X180500000Y-86112500D01*
X180499699Y-86118626D01*
X180498799Y-86124693D01*
X180497309Y-86130643D01*
X180495242Y-86136418D01*
X180492620Y-86141962D01*
X180489467Y-86147223D01*
X180485813Y-86152150D01*
X180481694Y-86156694D01*
X180477150Y-86160813D01*
X180472223Y-86164467D01*
X180466962Y-86167620D01*
X180461418Y-86170242D01*
X180455643Y-86172309D01*
X180449693Y-86173799D01*
X180443626Y-86174699D01*
X180437500Y-86175000D01*
X179687500Y-86175000D01*
X179681374Y-86174699D01*
X179675307Y-86173799D01*
X179669357Y-86172309D01*
X179663582Y-86170242D01*
X179658038Y-86167620D01*
X179652777Y-86164467D01*
X179647850Y-86160813D01*
X179643306Y-86156694D01*
X179639187Y-86152150D01*
X179635533Y-86147223D01*
X179632380Y-86141962D01*
X179629758Y-86136418D01*
X179627691Y-86130643D01*
X179626201Y-86124693D01*
X179625301Y-86118626D01*
X179625000Y-86112500D01*
X179625000Y-85987500D01*
X179625301Y-85981374D01*
X179626201Y-85975307D01*
X179627691Y-85969357D01*
X179629758Y-85963582D01*
X179632380Y-85958038D01*
X179635533Y-85952777D01*
X179639187Y-85947850D01*
X179643306Y-85943306D01*
X179647850Y-85939187D01*
X179652777Y-85935533D01*
X179658038Y-85932380D01*
X179663582Y-85929758D01*
X179669357Y-85927691D01*
X179675307Y-85926201D01*
X179681374Y-85925301D01*
X179687500Y-85925000D01*
X180437500Y-85925000D01*
X180443626Y-85925301D01*
X180443626Y-85925301D01*
G37*
D11*
X180062500Y-86050000D03*
D10*
G36*
X180443626Y-85425301D02*
G01*
X180449693Y-85426201D01*
X180455643Y-85427691D01*
X180461418Y-85429758D01*
X180466962Y-85432380D01*
X180472223Y-85435533D01*
X180477150Y-85439187D01*
X180481694Y-85443306D01*
X180485813Y-85447850D01*
X180489467Y-85452777D01*
X180492620Y-85458038D01*
X180495242Y-85463582D01*
X180497309Y-85469357D01*
X180498799Y-85475307D01*
X180499699Y-85481374D01*
X180500000Y-85487500D01*
X180500000Y-85612500D01*
X180499699Y-85618626D01*
X180498799Y-85624693D01*
X180497309Y-85630643D01*
X180495242Y-85636418D01*
X180492620Y-85641962D01*
X180489467Y-85647223D01*
X180485813Y-85652150D01*
X180481694Y-85656694D01*
X180477150Y-85660813D01*
X180472223Y-85664467D01*
X180466962Y-85667620D01*
X180461418Y-85670242D01*
X180455643Y-85672309D01*
X180449693Y-85673799D01*
X180443626Y-85674699D01*
X180437500Y-85675000D01*
X179687500Y-85675000D01*
X179681374Y-85674699D01*
X179675307Y-85673799D01*
X179669357Y-85672309D01*
X179663582Y-85670242D01*
X179658038Y-85667620D01*
X179652777Y-85664467D01*
X179647850Y-85660813D01*
X179643306Y-85656694D01*
X179639187Y-85652150D01*
X179635533Y-85647223D01*
X179632380Y-85641962D01*
X179629758Y-85636418D01*
X179627691Y-85630643D01*
X179626201Y-85624693D01*
X179625301Y-85618626D01*
X179625000Y-85612500D01*
X179625000Y-85487500D01*
X179625301Y-85481374D01*
X179626201Y-85475307D01*
X179627691Y-85469357D01*
X179629758Y-85463582D01*
X179632380Y-85458038D01*
X179635533Y-85452777D01*
X179639187Y-85447850D01*
X179643306Y-85443306D01*
X179647850Y-85439187D01*
X179652777Y-85435533D01*
X179658038Y-85432380D01*
X179663582Y-85429758D01*
X179669357Y-85427691D01*
X179675307Y-85426201D01*
X179681374Y-85425301D01*
X179687500Y-85425000D01*
X180437500Y-85425000D01*
X180443626Y-85425301D01*
X180443626Y-85425301D01*
G37*
D11*
X180062500Y-85550000D03*
D10*
G36*
X180818626Y-84425301D02*
G01*
X180824693Y-84426201D01*
X180830643Y-84427691D01*
X180836418Y-84429758D01*
X180841962Y-84432380D01*
X180847223Y-84435533D01*
X180852150Y-84439187D01*
X180856694Y-84443306D01*
X180860813Y-84447850D01*
X180864467Y-84452777D01*
X180867620Y-84458038D01*
X180870242Y-84463582D01*
X180872309Y-84469357D01*
X180873799Y-84475307D01*
X180874699Y-84481374D01*
X180875000Y-84487500D01*
X180875000Y-85237500D01*
X180874699Y-85243626D01*
X180873799Y-85249693D01*
X180872309Y-85255643D01*
X180870242Y-85261418D01*
X180867620Y-85266962D01*
X180864467Y-85272223D01*
X180860813Y-85277150D01*
X180856694Y-85281694D01*
X180852150Y-85285813D01*
X180847223Y-85289467D01*
X180841962Y-85292620D01*
X180836418Y-85295242D01*
X180830643Y-85297309D01*
X180824693Y-85298799D01*
X180818626Y-85299699D01*
X180812500Y-85300000D01*
X180687500Y-85300000D01*
X180681374Y-85299699D01*
X180675307Y-85298799D01*
X180669357Y-85297309D01*
X180663582Y-85295242D01*
X180658038Y-85292620D01*
X180652777Y-85289467D01*
X180647850Y-85285813D01*
X180643306Y-85281694D01*
X180639187Y-85277150D01*
X180635533Y-85272223D01*
X180632380Y-85266962D01*
X180629758Y-85261418D01*
X180627691Y-85255643D01*
X180626201Y-85249693D01*
X180625301Y-85243626D01*
X180625000Y-85237500D01*
X180625000Y-84487500D01*
X180625301Y-84481374D01*
X180626201Y-84475307D01*
X180627691Y-84469357D01*
X180629758Y-84463582D01*
X180632380Y-84458038D01*
X180635533Y-84452777D01*
X180639187Y-84447850D01*
X180643306Y-84443306D01*
X180647850Y-84439187D01*
X180652777Y-84435533D01*
X180658038Y-84432380D01*
X180663582Y-84429758D01*
X180669357Y-84427691D01*
X180675307Y-84426201D01*
X180681374Y-84425301D01*
X180687500Y-84425000D01*
X180812500Y-84425000D01*
X180818626Y-84425301D01*
X180818626Y-84425301D01*
G37*
D11*
X180750000Y-84862500D03*
D10*
G36*
X181318626Y-84425301D02*
G01*
X181324693Y-84426201D01*
X181330643Y-84427691D01*
X181336418Y-84429758D01*
X181341962Y-84432380D01*
X181347223Y-84435533D01*
X181352150Y-84439187D01*
X181356694Y-84443306D01*
X181360813Y-84447850D01*
X181364467Y-84452777D01*
X181367620Y-84458038D01*
X181370242Y-84463582D01*
X181372309Y-84469357D01*
X181373799Y-84475307D01*
X181374699Y-84481374D01*
X181375000Y-84487500D01*
X181375000Y-85237500D01*
X181374699Y-85243626D01*
X181373799Y-85249693D01*
X181372309Y-85255643D01*
X181370242Y-85261418D01*
X181367620Y-85266962D01*
X181364467Y-85272223D01*
X181360813Y-85277150D01*
X181356694Y-85281694D01*
X181352150Y-85285813D01*
X181347223Y-85289467D01*
X181341962Y-85292620D01*
X181336418Y-85295242D01*
X181330643Y-85297309D01*
X181324693Y-85298799D01*
X181318626Y-85299699D01*
X181312500Y-85300000D01*
X181187500Y-85300000D01*
X181181374Y-85299699D01*
X181175307Y-85298799D01*
X181169357Y-85297309D01*
X181163582Y-85295242D01*
X181158038Y-85292620D01*
X181152777Y-85289467D01*
X181147850Y-85285813D01*
X181143306Y-85281694D01*
X181139187Y-85277150D01*
X181135533Y-85272223D01*
X181132380Y-85266962D01*
X181129758Y-85261418D01*
X181127691Y-85255643D01*
X181126201Y-85249693D01*
X181125301Y-85243626D01*
X181125000Y-85237500D01*
X181125000Y-84487500D01*
X181125301Y-84481374D01*
X181126201Y-84475307D01*
X181127691Y-84469357D01*
X181129758Y-84463582D01*
X181132380Y-84458038D01*
X181135533Y-84452777D01*
X181139187Y-84447850D01*
X181143306Y-84443306D01*
X181147850Y-84439187D01*
X181152777Y-84435533D01*
X181158038Y-84432380D01*
X181163582Y-84429758D01*
X181169357Y-84427691D01*
X181175307Y-84426201D01*
X181181374Y-84425301D01*
X181187500Y-84425000D01*
X181312500Y-84425000D01*
X181318626Y-84425301D01*
X181318626Y-84425301D01*
G37*
D11*
X181250000Y-84862500D03*
D10*
G36*
X181818626Y-84425301D02*
G01*
X181824693Y-84426201D01*
X181830643Y-84427691D01*
X181836418Y-84429758D01*
X181841962Y-84432380D01*
X181847223Y-84435533D01*
X181852150Y-84439187D01*
X181856694Y-84443306D01*
X181860813Y-84447850D01*
X181864467Y-84452777D01*
X181867620Y-84458038D01*
X181870242Y-84463582D01*
X181872309Y-84469357D01*
X181873799Y-84475307D01*
X181874699Y-84481374D01*
X181875000Y-84487500D01*
X181875000Y-85237500D01*
X181874699Y-85243626D01*
X181873799Y-85249693D01*
X181872309Y-85255643D01*
X181870242Y-85261418D01*
X181867620Y-85266962D01*
X181864467Y-85272223D01*
X181860813Y-85277150D01*
X181856694Y-85281694D01*
X181852150Y-85285813D01*
X181847223Y-85289467D01*
X181841962Y-85292620D01*
X181836418Y-85295242D01*
X181830643Y-85297309D01*
X181824693Y-85298799D01*
X181818626Y-85299699D01*
X181812500Y-85300000D01*
X181687500Y-85300000D01*
X181681374Y-85299699D01*
X181675307Y-85298799D01*
X181669357Y-85297309D01*
X181663582Y-85295242D01*
X181658038Y-85292620D01*
X181652777Y-85289467D01*
X181647850Y-85285813D01*
X181643306Y-85281694D01*
X181639187Y-85277150D01*
X181635533Y-85272223D01*
X181632380Y-85266962D01*
X181629758Y-85261418D01*
X181627691Y-85255643D01*
X181626201Y-85249693D01*
X181625301Y-85243626D01*
X181625000Y-85237500D01*
X181625000Y-84487500D01*
X181625301Y-84481374D01*
X181626201Y-84475307D01*
X181627691Y-84469357D01*
X181629758Y-84463582D01*
X181632380Y-84458038D01*
X181635533Y-84452777D01*
X181639187Y-84447850D01*
X181643306Y-84443306D01*
X181647850Y-84439187D01*
X181652777Y-84435533D01*
X181658038Y-84432380D01*
X181663582Y-84429758D01*
X181669357Y-84427691D01*
X181675307Y-84426201D01*
X181681374Y-84425301D01*
X181687500Y-84425000D01*
X181812500Y-84425000D01*
X181818626Y-84425301D01*
X181818626Y-84425301D01*
G37*
D11*
X181750000Y-84862500D03*
D10*
G36*
X182318626Y-84425301D02*
G01*
X182324693Y-84426201D01*
X182330643Y-84427691D01*
X182336418Y-84429758D01*
X182341962Y-84432380D01*
X182347223Y-84435533D01*
X182352150Y-84439187D01*
X182356694Y-84443306D01*
X182360813Y-84447850D01*
X182364467Y-84452777D01*
X182367620Y-84458038D01*
X182370242Y-84463582D01*
X182372309Y-84469357D01*
X182373799Y-84475307D01*
X182374699Y-84481374D01*
X182375000Y-84487500D01*
X182375000Y-85237500D01*
X182374699Y-85243626D01*
X182373799Y-85249693D01*
X182372309Y-85255643D01*
X182370242Y-85261418D01*
X182367620Y-85266962D01*
X182364467Y-85272223D01*
X182360813Y-85277150D01*
X182356694Y-85281694D01*
X182352150Y-85285813D01*
X182347223Y-85289467D01*
X182341962Y-85292620D01*
X182336418Y-85295242D01*
X182330643Y-85297309D01*
X182324693Y-85298799D01*
X182318626Y-85299699D01*
X182312500Y-85300000D01*
X182187500Y-85300000D01*
X182181374Y-85299699D01*
X182175307Y-85298799D01*
X182169357Y-85297309D01*
X182163582Y-85295242D01*
X182158038Y-85292620D01*
X182152777Y-85289467D01*
X182147850Y-85285813D01*
X182143306Y-85281694D01*
X182139187Y-85277150D01*
X182135533Y-85272223D01*
X182132380Y-85266962D01*
X182129758Y-85261418D01*
X182127691Y-85255643D01*
X182126201Y-85249693D01*
X182125301Y-85243626D01*
X182125000Y-85237500D01*
X182125000Y-84487500D01*
X182125301Y-84481374D01*
X182126201Y-84475307D01*
X182127691Y-84469357D01*
X182129758Y-84463582D01*
X182132380Y-84458038D01*
X182135533Y-84452777D01*
X182139187Y-84447850D01*
X182143306Y-84443306D01*
X182147850Y-84439187D01*
X182152777Y-84435533D01*
X182158038Y-84432380D01*
X182163582Y-84429758D01*
X182169357Y-84427691D01*
X182175307Y-84426201D01*
X182181374Y-84425301D01*
X182187500Y-84425000D01*
X182312500Y-84425000D01*
X182318626Y-84425301D01*
X182318626Y-84425301D01*
G37*
D11*
X182250000Y-84862500D03*
D10*
G36*
X182818626Y-84425301D02*
G01*
X182824693Y-84426201D01*
X182830643Y-84427691D01*
X182836418Y-84429758D01*
X182841962Y-84432380D01*
X182847223Y-84435533D01*
X182852150Y-84439187D01*
X182856694Y-84443306D01*
X182860813Y-84447850D01*
X182864467Y-84452777D01*
X182867620Y-84458038D01*
X182870242Y-84463582D01*
X182872309Y-84469357D01*
X182873799Y-84475307D01*
X182874699Y-84481374D01*
X182875000Y-84487500D01*
X182875000Y-85237500D01*
X182874699Y-85243626D01*
X182873799Y-85249693D01*
X182872309Y-85255643D01*
X182870242Y-85261418D01*
X182867620Y-85266962D01*
X182864467Y-85272223D01*
X182860813Y-85277150D01*
X182856694Y-85281694D01*
X182852150Y-85285813D01*
X182847223Y-85289467D01*
X182841962Y-85292620D01*
X182836418Y-85295242D01*
X182830643Y-85297309D01*
X182824693Y-85298799D01*
X182818626Y-85299699D01*
X182812500Y-85300000D01*
X182687500Y-85300000D01*
X182681374Y-85299699D01*
X182675307Y-85298799D01*
X182669357Y-85297309D01*
X182663582Y-85295242D01*
X182658038Y-85292620D01*
X182652777Y-85289467D01*
X182647850Y-85285813D01*
X182643306Y-85281694D01*
X182639187Y-85277150D01*
X182635533Y-85272223D01*
X182632380Y-85266962D01*
X182629758Y-85261418D01*
X182627691Y-85255643D01*
X182626201Y-85249693D01*
X182625301Y-85243626D01*
X182625000Y-85237500D01*
X182625000Y-84487500D01*
X182625301Y-84481374D01*
X182626201Y-84475307D01*
X182627691Y-84469357D01*
X182629758Y-84463582D01*
X182632380Y-84458038D01*
X182635533Y-84452777D01*
X182639187Y-84447850D01*
X182643306Y-84443306D01*
X182647850Y-84439187D01*
X182652777Y-84435533D01*
X182658038Y-84432380D01*
X182663582Y-84429758D01*
X182669357Y-84427691D01*
X182675307Y-84426201D01*
X182681374Y-84425301D01*
X182687500Y-84425000D01*
X182812500Y-84425000D01*
X182818626Y-84425301D01*
X182818626Y-84425301D01*
G37*
D11*
X182750000Y-84862500D03*
D10*
G36*
X183318626Y-84425301D02*
G01*
X183324693Y-84426201D01*
X183330643Y-84427691D01*
X183336418Y-84429758D01*
X183341962Y-84432380D01*
X183347223Y-84435533D01*
X183352150Y-84439187D01*
X183356694Y-84443306D01*
X183360813Y-84447850D01*
X183364467Y-84452777D01*
X183367620Y-84458038D01*
X183370242Y-84463582D01*
X183372309Y-84469357D01*
X183373799Y-84475307D01*
X183374699Y-84481374D01*
X183375000Y-84487500D01*
X183375000Y-85237500D01*
X183374699Y-85243626D01*
X183373799Y-85249693D01*
X183372309Y-85255643D01*
X183370242Y-85261418D01*
X183367620Y-85266962D01*
X183364467Y-85272223D01*
X183360813Y-85277150D01*
X183356694Y-85281694D01*
X183352150Y-85285813D01*
X183347223Y-85289467D01*
X183341962Y-85292620D01*
X183336418Y-85295242D01*
X183330643Y-85297309D01*
X183324693Y-85298799D01*
X183318626Y-85299699D01*
X183312500Y-85300000D01*
X183187500Y-85300000D01*
X183181374Y-85299699D01*
X183175307Y-85298799D01*
X183169357Y-85297309D01*
X183163582Y-85295242D01*
X183158038Y-85292620D01*
X183152777Y-85289467D01*
X183147850Y-85285813D01*
X183143306Y-85281694D01*
X183139187Y-85277150D01*
X183135533Y-85272223D01*
X183132380Y-85266962D01*
X183129758Y-85261418D01*
X183127691Y-85255643D01*
X183126201Y-85249693D01*
X183125301Y-85243626D01*
X183125000Y-85237500D01*
X183125000Y-84487500D01*
X183125301Y-84481374D01*
X183126201Y-84475307D01*
X183127691Y-84469357D01*
X183129758Y-84463582D01*
X183132380Y-84458038D01*
X183135533Y-84452777D01*
X183139187Y-84447850D01*
X183143306Y-84443306D01*
X183147850Y-84439187D01*
X183152777Y-84435533D01*
X183158038Y-84432380D01*
X183163582Y-84429758D01*
X183169357Y-84427691D01*
X183175307Y-84426201D01*
X183181374Y-84425301D01*
X183187500Y-84425000D01*
X183312500Y-84425000D01*
X183318626Y-84425301D01*
X183318626Y-84425301D01*
G37*
D11*
X183250000Y-84862500D03*
D10*
G36*
X183818626Y-84425301D02*
G01*
X183824693Y-84426201D01*
X183830643Y-84427691D01*
X183836418Y-84429758D01*
X183841962Y-84432380D01*
X183847223Y-84435533D01*
X183852150Y-84439187D01*
X183856694Y-84443306D01*
X183860813Y-84447850D01*
X183864467Y-84452777D01*
X183867620Y-84458038D01*
X183870242Y-84463582D01*
X183872309Y-84469357D01*
X183873799Y-84475307D01*
X183874699Y-84481374D01*
X183875000Y-84487500D01*
X183875000Y-85237500D01*
X183874699Y-85243626D01*
X183873799Y-85249693D01*
X183872309Y-85255643D01*
X183870242Y-85261418D01*
X183867620Y-85266962D01*
X183864467Y-85272223D01*
X183860813Y-85277150D01*
X183856694Y-85281694D01*
X183852150Y-85285813D01*
X183847223Y-85289467D01*
X183841962Y-85292620D01*
X183836418Y-85295242D01*
X183830643Y-85297309D01*
X183824693Y-85298799D01*
X183818626Y-85299699D01*
X183812500Y-85300000D01*
X183687500Y-85300000D01*
X183681374Y-85299699D01*
X183675307Y-85298799D01*
X183669357Y-85297309D01*
X183663582Y-85295242D01*
X183658038Y-85292620D01*
X183652777Y-85289467D01*
X183647850Y-85285813D01*
X183643306Y-85281694D01*
X183639187Y-85277150D01*
X183635533Y-85272223D01*
X183632380Y-85266962D01*
X183629758Y-85261418D01*
X183627691Y-85255643D01*
X183626201Y-85249693D01*
X183625301Y-85243626D01*
X183625000Y-85237500D01*
X183625000Y-84487500D01*
X183625301Y-84481374D01*
X183626201Y-84475307D01*
X183627691Y-84469357D01*
X183629758Y-84463582D01*
X183632380Y-84458038D01*
X183635533Y-84452777D01*
X183639187Y-84447850D01*
X183643306Y-84443306D01*
X183647850Y-84439187D01*
X183652777Y-84435533D01*
X183658038Y-84432380D01*
X183663582Y-84429758D01*
X183669357Y-84427691D01*
X183675307Y-84426201D01*
X183681374Y-84425301D01*
X183687500Y-84425000D01*
X183812500Y-84425000D01*
X183818626Y-84425301D01*
X183818626Y-84425301D01*
G37*
D11*
X183750000Y-84862500D03*
D10*
G36*
X184318626Y-84425301D02*
G01*
X184324693Y-84426201D01*
X184330643Y-84427691D01*
X184336418Y-84429758D01*
X184341962Y-84432380D01*
X184347223Y-84435533D01*
X184352150Y-84439187D01*
X184356694Y-84443306D01*
X184360813Y-84447850D01*
X184364467Y-84452777D01*
X184367620Y-84458038D01*
X184370242Y-84463582D01*
X184372309Y-84469357D01*
X184373799Y-84475307D01*
X184374699Y-84481374D01*
X184375000Y-84487500D01*
X184375000Y-85237500D01*
X184374699Y-85243626D01*
X184373799Y-85249693D01*
X184372309Y-85255643D01*
X184370242Y-85261418D01*
X184367620Y-85266962D01*
X184364467Y-85272223D01*
X184360813Y-85277150D01*
X184356694Y-85281694D01*
X184352150Y-85285813D01*
X184347223Y-85289467D01*
X184341962Y-85292620D01*
X184336418Y-85295242D01*
X184330643Y-85297309D01*
X184324693Y-85298799D01*
X184318626Y-85299699D01*
X184312500Y-85300000D01*
X184187500Y-85300000D01*
X184181374Y-85299699D01*
X184175307Y-85298799D01*
X184169357Y-85297309D01*
X184163582Y-85295242D01*
X184158038Y-85292620D01*
X184152777Y-85289467D01*
X184147850Y-85285813D01*
X184143306Y-85281694D01*
X184139187Y-85277150D01*
X184135533Y-85272223D01*
X184132380Y-85266962D01*
X184129758Y-85261418D01*
X184127691Y-85255643D01*
X184126201Y-85249693D01*
X184125301Y-85243626D01*
X184125000Y-85237500D01*
X184125000Y-84487500D01*
X184125301Y-84481374D01*
X184126201Y-84475307D01*
X184127691Y-84469357D01*
X184129758Y-84463582D01*
X184132380Y-84458038D01*
X184135533Y-84452777D01*
X184139187Y-84447850D01*
X184143306Y-84443306D01*
X184147850Y-84439187D01*
X184152777Y-84435533D01*
X184158038Y-84432380D01*
X184163582Y-84429758D01*
X184169357Y-84427691D01*
X184175307Y-84426201D01*
X184181374Y-84425301D01*
X184187500Y-84425000D01*
X184312500Y-84425000D01*
X184318626Y-84425301D01*
X184318626Y-84425301D01*
G37*
D11*
X184250000Y-84862500D03*
D10*
G36*
X185318626Y-85425301D02*
G01*
X185324693Y-85426201D01*
X185330643Y-85427691D01*
X185336418Y-85429758D01*
X185341962Y-85432380D01*
X185347223Y-85435533D01*
X185352150Y-85439187D01*
X185356694Y-85443306D01*
X185360813Y-85447850D01*
X185364467Y-85452777D01*
X185367620Y-85458038D01*
X185370242Y-85463582D01*
X185372309Y-85469357D01*
X185373799Y-85475307D01*
X185374699Y-85481374D01*
X185375000Y-85487500D01*
X185375000Y-85612500D01*
X185374699Y-85618626D01*
X185373799Y-85624693D01*
X185372309Y-85630643D01*
X185370242Y-85636418D01*
X185367620Y-85641962D01*
X185364467Y-85647223D01*
X185360813Y-85652150D01*
X185356694Y-85656694D01*
X185352150Y-85660813D01*
X185347223Y-85664467D01*
X185341962Y-85667620D01*
X185336418Y-85670242D01*
X185330643Y-85672309D01*
X185324693Y-85673799D01*
X185318626Y-85674699D01*
X185312500Y-85675000D01*
X184562500Y-85675000D01*
X184556374Y-85674699D01*
X184550307Y-85673799D01*
X184544357Y-85672309D01*
X184538582Y-85670242D01*
X184533038Y-85667620D01*
X184527777Y-85664467D01*
X184522850Y-85660813D01*
X184518306Y-85656694D01*
X184514187Y-85652150D01*
X184510533Y-85647223D01*
X184507380Y-85641962D01*
X184504758Y-85636418D01*
X184502691Y-85630643D01*
X184501201Y-85624693D01*
X184500301Y-85618626D01*
X184500000Y-85612500D01*
X184500000Y-85487500D01*
X184500301Y-85481374D01*
X184501201Y-85475307D01*
X184502691Y-85469357D01*
X184504758Y-85463582D01*
X184507380Y-85458038D01*
X184510533Y-85452777D01*
X184514187Y-85447850D01*
X184518306Y-85443306D01*
X184522850Y-85439187D01*
X184527777Y-85435533D01*
X184533038Y-85432380D01*
X184538582Y-85429758D01*
X184544357Y-85427691D01*
X184550307Y-85426201D01*
X184556374Y-85425301D01*
X184562500Y-85425000D01*
X185312500Y-85425000D01*
X185318626Y-85425301D01*
X185318626Y-85425301D01*
G37*
D11*
X184937500Y-85550000D03*
D10*
G36*
X185318626Y-85925301D02*
G01*
X185324693Y-85926201D01*
X185330643Y-85927691D01*
X185336418Y-85929758D01*
X185341962Y-85932380D01*
X185347223Y-85935533D01*
X185352150Y-85939187D01*
X185356694Y-85943306D01*
X185360813Y-85947850D01*
X185364467Y-85952777D01*
X185367620Y-85958038D01*
X185370242Y-85963582D01*
X185372309Y-85969357D01*
X185373799Y-85975307D01*
X185374699Y-85981374D01*
X185375000Y-85987500D01*
X185375000Y-86112500D01*
X185374699Y-86118626D01*
X185373799Y-86124693D01*
X185372309Y-86130643D01*
X185370242Y-86136418D01*
X185367620Y-86141962D01*
X185364467Y-86147223D01*
X185360813Y-86152150D01*
X185356694Y-86156694D01*
X185352150Y-86160813D01*
X185347223Y-86164467D01*
X185341962Y-86167620D01*
X185336418Y-86170242D01*
X185330643Y-86172309D01*
X185324693Y-86173799D01*
X185318626Y-86174699D01*
X185312500Y-86175000D01*
X184562500Y-86175000D01*
X184556374Y-86174699D01*
X184550307Y-86173799D01*
X184544357Y-86172309D01*
X184538582Y-86170242D01*
X184533038Y-86167620D01*
X184527777Y-86164467D01*
X184522850Y-86160813D01*
X184518306Y-86156694D01*
X184514187Y-86152150D01*
X184510533Y-86147223D01*
X184507380Y-86141962D01*
X184504758Y-86136418D01*
X184502691Y-86130643D01*
X184501201Y-86124693D01*
X184500301Y-86118626D01*
X184500000Y-86112500D01*
X184500000Y-85987500D01*
X184500301Y-85981374D01*
X184501201Y-85975307D01*
X184502691Y-85969357D01*
X184504758Y-85963582D01*
X184507380Y-85958038D01*
X184510533Y-85952777D01*
X184514187Y-85947850D01*
X184518306Y-85943306D01*
X184522850Y-85939187D01*
X184527777Y-85935533D01*
X184533038Y-85932380D01*
X184538582Y-85929758D01*
X184544357Y-85927691D01*
X184550307Y-85926201D01*
X184556374Y-85925301D01*
X184562500Y-85925000D01*
X185312500Y-85925000D01*
X185318626Y-85925301D01*
X185318626Y-85925301D01*
G37*
D11*
X184937500Y-86050000D03*
D10*
G36*
X185318626Y-86425301D02*
G01*
X185324693Y-86426201D01*
X185330643Y-86427691D01*
X185336418Y-86429758D01*
X185341962Y-86432380D01*
X185347223Y-86435533D01*
X185352150Y-86439187D01*
X185356694Y-86443306D01*
X185360813Y-86447850D01*
X185364467Y-86452777D01*
X185367620Y-86458038D01*
X185370242Y-86463582D01*
X185372309Y-86469357D01*
X185373799Y-86475307D01*
X185374699Y-86481374D01*
X185375000Y-86487500D01*
X185375000Y-86612500D01*
X185374699Y-86618626D01*
X185373799Y-86624693D01*
X185372309Y-86630643D01*
X185370242Y-86636418D01*
X185367620Y-86641962D01*
X185364467Y-86647223D01*
X185360813Y-86652150D01*
X185356694Y-86656694D01*
X185352150Y-86660813D01*
X185347223Y-86664467D01*
X185341962Y-86667620D01*
X185336418Y-86670242D01*
X185330643Y-86672309D01*
X185324693Y-86673799D01*
X185318626Y-86674699D01*
X185312500Y-86675000D01*
X184562500Y-86675000D01*
X184556374Y-86674699D01*
X184550307Y-86673799D01*
X184544357Y-86672309D01*
X184538582Y-86670242D01*
X184533038Y-86667620D01*
X184527777Y-86664467D01*
X184522850Y-86660813D01*
X184518306Y-86656694D01*
X184514187Y-86652150D01*
X184510533Y-86647223D01*
X184507380Y-86641962D01*
X184504758Y-86636418D01*
X184502691Y-86630643D01*
X184501201Y-86624693D01*
X184500301Y-86618626D01*
X184500000Y-86612500D01*
X184500000Y-86487500D01*
X184500301Y-86481374D01*
X184501201Y-86475307D01*
X184502691Y-86469357D01*
X184504758Y-86463582D01*
X184507380Y-86458038D01*
X184510533Y-86452777D01*
X184514187Y-86447850D01*
X184518306Y-86443306D01*
X184522850Y-86439187D01*
X184527777Y-86435533D01*
X184533038Y-86432380D01*
X184538582Y-86429758D01*
X184544357Y-86427691D01*
X184550307Y-86426201D01*
X184556374Y-86425301D01*
X184562500Y-86425000D01*
X185312500Y-86425000D01*
X185318626Y-86425301D01*
X185318626Y-86425301D01*
G37*
D11*
X184937500Y-86550000D03*
D10*
G36*
X185318626Y-86925301D02*
G01*
X185324693Y-86926201D01*
X185330643Y-86927691D01*
X185336418Y-86929758D01*
X185341962Y-86932380D01*
X185347223Y-86935533D01*
X185352150Y-86939187D01*
X185356694Y-86943306D01*
X185360813Y-86947850D01*
X185364467Y-86952777D01*
X185367620Y-86958038D01*
X185370242Y-86963582D01*
X185372309Y-86969357D01*
X185373799Y-86975307D01*
X185374699Y-86981374D01*
X185375000Y-86987500D01*
X185375000Y-87112500D01*
X185374699Y-87118626D01*
X185373799Y-87124693D01*
X185372309Y-87130643D01*
X185370242Y-87136418D01*
X185367620Y-87141962D01*
X185364467Y-87147223D01*
X185360813Y-87152150D01*
X185356694Y-87156694D01*
X185352150Y-87160813D01*
X185347223Y-87164467D01*
X185341962Y-87167620D01*
X185336418Y-87170242D01*
X185330643Y-87172309D01*
X185324693Y-87173799D01*
X185318626Y-87174699D01*
X185312500Y-87175000D01*
X184562500Y-87175000D01*
X184556374Y-87174699D01*
X184550307Y-87173799D01*
X184544357Y-87172309D01*
X184538582Y-87170242D01*
X184533038Y-87167620D01*
X184527777Y-87164467D01*
X184522850Y-87160813D01*
X184518306Y-87156694D01*
X184514187Y-87152150D01*
X184510533Y-87147223D01*
X184507380Y-87141962D01*
X184504758Y-87136418D01*
X184502691Y-87130643D01*
X184501201Y-87124693D01*
X184500301Y-87118626D01*
X184500000Y-87112500D01*
X184500000Y-86987500D01*
X184500301Y-86981374D01*
X184501201Y-86975307D01*
X184502691Y-86969357D01*
X184504758Y-86963582D01*
X184507380Y-86958038D01*
X184510533Y-86952777D01*
X184514187Y-86947850D01*
X184518306Y-86943306D01*
X184522850Y-86939187D01*
X184527777Y-86935533D01*
X184533038Y-86932380D01*
X184538582Y-86929758D01*
X184544357Y-86927691D01*
X184550307Y-86926201D01*
X184556374Y-86925301D01*
X184562500Y-86925000D01*
X185312500Y-86925000D01*
X185318626Y-86925301D01*
X185318626Y-86925301D01*
G37*
D11*
X184937500Y-87050000D03*
D10*
G36*
X185318626Y-87425301D02*
G01*
X185324693Y-87426201D01*
X185330643Y-87427691D01*
X185336418Y-87429758D01*
X185341962Y-87432380D01*
X185347223Y-87435533D01*
X185352150Y-87439187D01*
X185356694Y-87443306D01*
X185360813Y-87447850D01*
X185364467Y-87452777D01*
X185367620Y-87458038D01*
X185370242Y-87463582D01*
X185372309Y-87469357D01*
X185373799Y-87475307D01*
X185374699Y-87481374D01*
X185375000Y-87487500D01*
X185375000Y-87612500D01*
X185374699Y-87618626D01*
X185373799Y-87624693D01*
X185372309Y-87630643D01*
X185370242Y-87636418D01*
X185367620Y-87641962D01*
X185364467Y-87647223D01*
X185360813Y-87652150D01*
X185356694Y-87656694D01*
X185352150Y-87660813D01*
X185347223Y-87664467D01*
X185341962Y-87667620D01*
X185336418Y-87670242D01*
X185330643Y-87672309D01*
X185324693Y-87673799D01*
X185318626Y-87674699D01*
X185312500Y-87675000D01*
X184562500Y-87675000D01*
X184556374Y-87674699D01*
X184550307Y-87673799D01*
X184544357Y-87672309D01*
X184538582Y-87670242D01*
X184533038Y-87667620D01*
X184527777Y-87664467D01*
X184522850Y-87660813D01*
X184518306Y-87656694D01*
X184514187Y-87652150D01*
X184510533Y-87647223D01*
X184507380Y-87641962D01*
X184504758Y-87636418D01*
X184502691Y-87630643D01*
X184501201Y-87624693D01*
X184500301Y-87618626D01*
X184500000Y-87612500D01*
X184500000Y-87487500D01*
X184500301Y-87481374D01*
X184501201Y-87475307D01*
X184502691Y-87469357D01*
X184504758Y-87463582D01*
X184507380Y-87458038D01*
X184510533Y-87452777D01*
X184514187Y-87447850D01*
X184518306Y-87443306D01*
X184522850Y-87439187D01*
X184527777Y-87435533D01*
X184533038Y-87432380D01*
X184538582Y-87429758D01*
X184544357Y-87427691D01*
X184550307Y-87426201D01*
X184556374Y-87425301D01*
X184562500Y-87425000D01*
X185312500Y-87425000D01*
X185318626Y-87425301D01*
X185318626Y-87425301D01*
G37*
D11*
X184937500Y-87550000D03*
D10*
G36*
X185318626Y-87925301D02*
G01*
X185324693Y-87926201D01*
X185330643Y-87927691D01*
X185336418Y-87929758D01*
X185341962Y-87932380D01*
X185347223Y-87935533D01*
X185352150Y-87939187D01*
X185356694Y-87943306D01*
X185360813Y-87947850D01*
X185364467Y-87952777D01*
X185367620Y-87958038D01*
X185370242Y-87963582D01*
X185372309Y-87969357D01*
X185373799Y-87975307D01*
X185374699Y-87981374D01*
X185375000Y-87987500D01*
X185375000Y-88112500D01*
X185374699Y-88118626D01*
X185373799Y-88124693D01*
X185372309Y-88130643D01*
X185370242Y-88136418D01*
X185367620Y-88141962D01*
X185364467Y-88147223D01*
X185360813Y-88152150D01*
X185356694Y-88156694D01*
X185352150Y-88160813D01*
X185347223Y-88164467D01*
X185341962Y-88167620D01*
X185336418Y-88170242D01*
X185330643Y-88172309D01*
X185324693Y-88173799D01*
X185318626Y-88174699D01*
X185312500Y-88175000D01*
X184562500Y-88175000D01*
X184556374Y-88174699D01*
X184550307Y-88173799D01*
X184544357Y-88172309D01*
X184538582Y-88170242D01*
X184533038Y-88167620D01*
X184527777Y-88164467D01*
X184522850Y-88160813D01*
X184518306Y-88156694D01*
X184514187Y-88152150D01*
X184510533Y-88147223D01*
X184507380Y-88141962D01*
X184504758Y-88136418D01*
X184502691Y-88130643D01*
X184501201Y-88124693D01*
X184500301Y-88118626D01*
X184500000Y-88112500D01*
X184500000Y-87987500D01*
X184500301Y-87981374D01*
X184501201Y-87975307D01*
X184502691Y-87969357D01*
X184504758Y-87963582D01*
X184507380Y-87958038D01*
X184510533Y-87952777D01*
X184514187Y-87947850D01*
X184518306Y-87943306D01*
X184522850Y-87939187D01*
X184527777Y-87935533D01*
X184533038Y-87932380D01*
X184538582Y-87929758D01*
X184544357Y-87927691D01*
X184550307Y-87926201D01*
X184556374Y-87925301D01*
X184562500Y-87925000D01*
X185312500Y-87925000D01*
X185318626Y-87925301D01*
X185318626Y-87925301D01*
G37*
D11*
X184937500Y-88050000D03*
D10*
G36*
X185318626Y-88425301D02*
G01*
X185324693Y-88426201D01*
X185330643Y-88427691D01*
X185336418Y-88429758D01*
X185341962Y-88432380D01*
X185347223Y-88435533D01*
X185352150Y-88439187D01*
X185356694Y-88443306D01*
X185360813Y-88447850D01*
X185364467Y-88452777D01*
X185367620Y-88458038D01*
X185370242Y-88463582D01*
X185372309Y-88469357D01*
X185373799Y-88475307D01*
X185374699Y-88481374D01*
X185375000Y-88487500D01*
X185375000Y-88612500D01*
X185374699Y-88618626D01*
X185373799Y-88624693D01*
X185372309Y-88630643D01*
X185370242Y-88636418D01*
X185367620Y-88641962D01*
X185364467Y-88647223D01*
X185360813Y-88652150D01*
X185356694Y-88656694D01*
X185352150Y-88660813D01*
X185347223Y-88664467D01*
X185341962Y-88667620D01*
X185336418Y-88670242D01*
X185330643Y-88672309D01*
X185324693Y-88673799D01*
X185318626Y-88674699D01*
X185312500Y-88675000D01*
X184562500Y-88675000D01*
X184556374Y-88674699D01*
X184550307Y-88673799D01*
X184544357Y-88672309D01*
X184538582Y-88670242D01*
X184533038Y-88667620D01*
X184527777Y-88664467D01*
X184522850Y-88660813D01*
X184518306Y-88656694D01*
X184514187Y-88652150D01*
X184510533Y-88647223D01*
X184507380Y-88641962D01*
X184504758Y-88636418D01*
X184502691Y-88630643D01*
X184501201Y-88624693D01*
X184500301Y-88618626D01*
X184500000Y-88612500D01*
X184500000Y-88487500D01*
X184500301Y-88481374D01*
X184501201Y-88475307D01*
X184502691Y-88469357D01*
X184504758Y-88463582D01*
X184507380Y-88458038D01*
X184510533Y-88452777D01*
X184514187Y-88447850D01*
X184518306Y-88443306D01*
X184522850Y-88439187D01*
X184527777Y-88435533D01*
X184533038Y-88432380D01*
X184538582Y-88429758D01*
X184544357Y-88427691D01*
X184550307Y-88426201D01*
X184556374Y-88425301D01*
X184562500Y-88425000D01*
X185312500Y-88425000D01*
X185318626Y-88425301D01*
X185318626Y-88425301D01*
G37*
D11*
X184937500Y-88550000D03*
D10*
G36*
X185318626Y-88925301D02*
G01*
X185324693Y-88926201D01*
X185330643Y-88927691D01*
X185336418Y-88929758D01*
X185341962Y-88932380D01*
X185347223Y-88935533D01*
X185352150Y-88939187D01*
X185356694Y-88943306D01*
X185360813Y-88947850D01*
X185364467Y-88952777D01*
X185367620Y-88958038D01*
X185370242Y-88963582D01*
X185372309Y-88969357D01*
X185373799Y-88975307D01*
X185374699Y-88981374D01*
X185375000Y-88987500D01*
X185375000Y-89112500D01*
X185374699Y-89118626D01*
X185373799Y-89124693D01*
X185372309Y-89130643D01*
X185370242Y-89136418D01*
X185367620Y-89141962D01*
X185364467Y-89147223D01*
X185360813Y-89152150D01*
X185356694Y-89156694D01*
X185352150Y-89160813D01*
X185347223Y-89164467D01*
X185341962Y-89167620D01*
X185336418Y-89170242D01*
X185330643Y-89172309D01*
X185324693Y-89173799D01*
X185318626Y-89174699D01*
X185312500Y-89175000D01*
X184562500Y-89175000D01*
X184556374Y-89174699D01*
X184550307Y-89173799D01*
X184544357Y-89172309D01*
X184538582Y-89170242D01*
X184533038Y-89167620D01*
X184527777Y-89164467D01*
X184522850Y-89160813D01*
X184518306Y-89156694D01*
X184514187Y-89152150D01*
X184510533Y-89147223D01*
X184507380Y-89141962D01*
X184504758Y-89136418D01*
X184502691Y-89130643D01*
X184501201Y-89124693D01*
X184500301Y-89118626D01*
X184500000Y-89112500D01*
X184500000Y-88987500D01*
X184500301Y-88981374D01*
X184501201Y-88975307D01*
X184502691Y-88969357D01*
X184504758Y-88963582D01*
X184507380Y-88958038D01*
X184510533Y-88952777D01*
X184514187Y-88947850D01*
X184518306Y-88943306D01*
X184522850Y-88939187D01*
X184527777Y-88935533D01*
X184533038Y-88932380D01*
X184538582Y-88929758D01*
X184544357Y-88927691D01*
X184550307Y-88926201D01*
X184556374Y-88925301D01*
X184562500Y-88925000D01*
X185312500Y-88925000D01*
X185318626Y-88925301D01*
X185318626Y-88925301D01*
G37*
D11*
X184937500Y-89050000D03*
D10*
G36*
X184318626Y-89300301D02*
G01*
X184324693Y-89301201D01*
X184330643Y-89302691D01*
X184336418Y-89304758D01*
X184341962Y-89307380D01*
X184347223Y-89310533D01*
X184352150Y-89314187D01*
X184356694Y-89318306D01*
X184360813Y-89322850D01*
X184364467Y-89327777D01*
X184367620Y-89333038D01*
X184370242Y-89338582D01*
X184372309Y-89344357D01*
X184373799Y-89350307D01*
X184374699Y-89356374D01*
X184375000Y-89362500D01*
X184375000Y-90112500D01*
X184374699Y-90118626D01*
X184373799Y-90124693D01*
X184372309Y-90130643D01*
X184370242Y-90136418D01*
X184367620Y-90141962D01*
X184364467Y-90147223D01*
X184360813Y-90152150D01*
X184356694Y-90156694D01*
X184352150Y-90160813D01*
X184347223Y-90164467D01*
X184341962Y-90167620D01*
X184336418Y-90170242D01*
X184330643Y-90172309D01*
X184324693Y-90173799D01*
X184318626Y-90174699D01*
X184312500Y-90175000D01*
X184187500Y-90175000D01*
X184181374Y-90174699D01*
X184175307Y-90173799D01*
X184169357Y-90172309D01*
X184163582Y-90170242D01*
X184158038Y-90167620D01*
X184152777Y-90164467D01*
X184147850Y-90160813D01*
X184143306Y-90156694D01*
X184139187Y-90152150D01*
X184135533Y-90147223D01*
X184132380Y-90141962D01*
X184129758Y-90136418D01*
X184127691Y-90130643D01*
X184126201Y-90124693D01*
X184125301Y-90118626D01*
X184125000Y-90112500D01*
X184125000Y-89362500D01*
X184125301Y-89356374D01*
X184126201Y-89350307D01*
X184127691Y-89344357D01*
X184129758Y-89338582D01*
X184132380Y-89333038D01*
X184135533Y-89327777D01*
X184139187Y-89322850D01*
X184143306Y-89318306D01*
X184147850Y-89314187D01*
X184152777Y-89310533D01*
X184158038Y-89307380D01*
X184163582Y-89304758D01*
X184169357Y-89302691D01*
X184175307Y-89301201D01*
X184181374Y-89300301D01*
X184187500Y-89300000D01*
X184312500Y-89300000D01*
X184318626Y-89300301D01*
X184318626Y-89300301D01*
G37*
D11*
X184250000Y-89737500D03*
D10*
G36*
X183818626Y-89300301D02*
G01*
X183824693Y-89301201D01*
X183830643Y-89302691D01*
X183836418Y-89304758D01*
X183841962Y-89307380D01*
X183847223Y-89310533D01*
X183852150Y-89314187D01*
X183856694Y-89318306D01*
X183860813Y-89322850D01*
X183864467Y-89327777D01*
X183867620Y-89333038D01*
X183870242Y-89338582D01*
X183872309Y-89344357D01*
X183873799Y-89350307D01*
X183874699Y-89356374D01*
X183875000Y-89362500D01*
X183875000Y-90112500D01*
X183874699Y-90118626D01*
X183873799Y-90124693D01*
X183872309Y-90130643D01*
X183870242Y-90136418D01*
X183867620Y-90141962D01*
X183864467Y-90147223D01*
X183860813Y-90152150D01*
X183856694Y-90156694D01*
X183852150Y-90160813D01*
X183847223Y-90164467D01*
X183841962Y-90167620D01*
X183836418Y-90170242D01*
X183830643Y-90172309D01*
X183824693Y-90173799D01*
X183818626Y-90174699D01*
X183812500Y-90175000D01*
X183687500Y-90175000D01*
X183681374Y-90174699D01*
X183675307Y-90173799D01*
X183669357Y-90172309D01*
X183663582Y-90170242D01*
X183658038Y-90167620D01*
X183652777Y-90164467D01*
X183647850Y-90160813D01*
X183643306Y-90156694D01*
X183639187Y-90152150D01*
X183635533Y-90147223D01*
X183632380Y-90141962D01*
X183629758Y-90136418D01*
X183627691Y-90130643D01*
X183626201Y-90124693D01*
X183625301Y-90118626D01*
X183625000Y-90112500D01*
X183625000Y-89362500D01*
X183625301Y-89356374D01*
X183626201Y-89350307D01*
X183627691Y-89344357D01*
X183629758Y-89338582D01*
X183632380Y-89333038D01*
X183635533Y-89327777D01*
X183639187Y-89322850D01*
X183643306Y-89318306D01*
X183647850Y-89314187D01*
X183652777Y-89310533D01*
X183658038Y-89307380D01*
X183663582Y-89304758D01*
X183669357Y-89302691D01*
X183675307Y-89301201D01*
X183681374Y-89300301D01*
X183687500Y-89300000D01*
X183812500Y-89300000D01*
X183818626Y-89300301D01*
X183818626Y-89300301D01*
G37*
D11*
X183750000Y-89737500D03*
D10*
G36*
X183318626Y-89300301D02*
G01*
X183324693Y-89301201D01*
X183330643Y-89302691D01*
X183336418Y-89304758D01*
X183341962Y-89307380D01*
X183347223Y-89310533D01*
X183352150Y-89314187D01*
X183356694Y-89318306D01*
X183360813Y-89322850D01*
X183364467Y-89327777D01*
X183367620Y-89333038D01*
X183370242Y-89338582D01*
X183372309Y-89344357D01*
X183373799Y-89350307D01*
X183374699Y-89356374D01*
X183375000Y-89362500D01*
X183375000Y-90112500D01*
X183374699Y-90118626D01*
X183373799Y-90124693D01*
X183372309Y-90130643D01*
X183370242Y-90136418D01*
X183367620Y-90141962D01*
X183364467Y-90147223D01*
X183360813Y-90152150D01*
X183356694Y-90156694D01*
X183352150Y-90160813D01*
X183347223Y-90164467D01*
X183341962Y-90167620D01*
X183336418Y-90170242D01*
X183330643Y-90172309D01*
X183324693Y-90173799D01*
X183318626Y-90174699D01*
X183312500Y-90175000D01*
X183187500Y-90175000D01*
X183181374Y-90174699D01*
X183175307Y-90173799D01*
X183169357Y-90172309D01*
X183163582Y-90170242D01*
X183158038Y-90167620D01*
X183152777Y-90164467D01*
X183147850Y-90160813D01*
X183143306Y-90156694D01*
X183139187Y-90152150D01*
X183135533Y-90147223D01*
X183132380Y-90141962D01*
X183129758Y-90136418D01*
X183127691Y-90130643D01*
X183126201Y-90124693D01*
X183125301Y-90118626D01*
X183125000Y-90112500D01*
X183125000Y-89362500D01*
X183125301Y-89356374D01*
X183126201Y-89350307D01*
X183127691Y-89344357D01*
X183129758Y-89338582D01*
X183132380Y-89333038D01*
X183135533Y-89327777D01*
X183139187Y-89322850D01*
X183143306Y-89318306D01*
X183147850Y-89314187D01*
X183152777Y-89310533D01*
X183158038Y-89307380D01*
X183163582Y-89304758D01*
X183169357Y-89302691D01*
X183175307Y-89301201D01*
X183181374Y-89300301D01*
X183187500Y-89300000D01*
X183312500Y-89300000D01*
X183318626Y-89300301D01*
X183318626Y-89300301D01*
G37*
D11*
X183250000Y-89737500D03*
D10*
G36*
X182818626Y-89300301D02*
G01*
X182824693Y-89301201D01*
X182830643Y-89302691D01*
X182836418Y-89304758D01*
X182841962Y-89307380D01*
X182847223Y-89310533D01*
X182852150Y-89314187D01*
X182856694Y-89318306D01*
X182860813Y-89322850D01*
X182864467Y-89327777D01*
X182867620Y-89333038D01*
X182870242Y-89338582D01*
X182872309Y-89344357D01*
X182873799Y-89350307D01*
X182874699Y-89356374D01*
X182875000Y-89362500D01*
X182875000Y-90112500D01*
X182874699Y-90118626D01*
X182873799Y-90124693D01*
X182872309Y-90130643D01*
X182870242Y-90136418D01*
X182867620Y-90141962D01*
X182864467Y-90147223D01*
X182860813Y-90152150D01*
X182856694Y-90156694D01*
X182852150Y-90160813D01*
X182847223Y-90164467D01*
X182841962Y-90167620D01*
X182836418Y-90170242D01*
X182830643Y-90172309D01*
X182824693Y-90173799D01*
X182818626Y-90174699D01*
X182812500Y-90175000D01*
X182687500Y-90175000D01*
X182681374Y-90174699D01*
X182675307Y-90173799D01*
X182669357Y-90172309D01*
X182663582Y-90170242D01*
X182658038Y-90167620D01*
X182652777Y-90164467D01*
X182647850Y-90160813D01*
X182643306Y-90156694D01*
X182639187Y-90152150D01*
X182635533Y-90147223D01*
X182632380Y-90141962D01*
X182629758Y-90136418D01*
X182627691Y-90130643D01*
X182626201Y-90124693D01*
X182625301Y-90118626D01*
X182625000Y-90112500D01*
X182625000Y-89362500D01*
X182625301Y-89356374D01*
X182626201Y-89350307D01*
X182627691Y-89344357D01*
X182629758Y-89338582D01*
X182632380Y-89333038D01*
X182635533Y-89327777D01*
X182639187Y-89322850D01*
X182643306Y-89318306D01*
X182647850Y-89314187D01*
X182652777Y-89310533D01*
X182658038Y-89307380D01*
X182663582Y-89304758D01*
X182669357Y-89302691D01*
X182675307Y-89301201D01*
X182681374Y-89300301D01*
X182687500Y-89300000D01*
X182812500Y-89300000D01*
X182818626Y-89300301D01*
X182818626Y-89300301D01*
G37*
D11*
X182750000Y-89737500D03*
D10*
G36*
X182318626Y-89300301D02*
G01*
X182324693Y-89301201D01*
X182330643Y-89302691D01*
X182336418Y-89304758D01*
X182341962Y-89307380D01*
X182347223Y-89310533D01*
X182352150Y-89314187D01*
X182356694Y-89318306D01*
X182360813Y-89322850D01*
X182364467Y-89327777D01*
X182367620Y-89333038D01*
X182370242Y-89338582D01*
X182372309Y-89344357D01*
X182373799Y-89350307D01*
X182374699Y-89356374D01*
X182375000Y-89362500D01*
X182375000Y-90112500D01*
X182374699Y-90118626D01*
X182373799Y-90124693D01*
X182372309Y-90130643D01*
X182370242Y-90136418D01*
X182367620Y-90141962D01*
X182364467Y-90147223D01*
X182360813Y-90152150D01*
X182356694Y-90156694D01*
X182352150Y-90160813D01*
X182347223Y-90164467D01*
X182341962Y-90167620D01*
X182336418Y-90170242D01*
X182330643Y-90172309D01*
X182324693Y-90173799D01*
X182318626Y-90174699D01*
X182312500Y-90175000D01*
X182187500Y-90175000D01*
X182181374Y-90174699D01*
X182175307Y-90173799D01*
X182169357Y-90172309D01*
X182163582Y-90170242D01*
X182158038Y-90167620D01*
X182152777Y-90164467D01*
X182147850Y-90160813D01*
X182143306Y-90156694D01*
X182139187Y-90152150D01*
X182135533Y-90147223D01*
X182132380Y-90141962D01*
X182129758Y-90136418D01*
X182127691Y-90130643D01*
X182126201Y-90124693D01*
X182125301Y-90118626D01*
X182125000Y-90112500D01*
X182125000Y-89362500D01*
X182125301Y-89356374D01*
X182126201Y-89350307D01*
X182127691Y-89344357D01*
X182129758Y-89338582D01*
X182132380Y-89333038D01*
X182135533Y-89327777D01*
X182139187Y-89322850D01*
X182143306Y-89318306D01*
X182147850Y-89314187D01*
X182152777Y-89310533D01*
X182158038Y-89307380D01*
X182163582Y-89304758D01*
X182169357Y-89302691D01*
X182175307Y-89301201D01*
X182181374Y-89300301D01*
X182187500Y-89300000D01*
X182312500Y-89300000D01*
X182318626Y-89300301D01*
X182318626Y-89300301D01*
G37*
D11*
X182250000Y-89737500D03*
D10*
G36*
X181818626Y-89300301D02*
G01*
X181824693Y-89301201D01*
X181830643Y-89302691D01*
X181836418Y-89304758D01*
X181841962Y-89307380D01*
X181847223Y-89310533D01*
X181852150Y-89314187D01*
X181856694Y-89318306D01*
X181860813Y-89322850D01*
X181864467Y-89327777D01*
X181867620Y-89333038D01*
X181870242Y-89338582D01*
X181872309Y-89344357D01*
X181873799Y-89350307D01*
X181874699Y-89356374D01*
X181875000Y-89362500D01*
X181875000Y-90112500D01*
X181874699Y-90118626D01*
X181873799Y-90124693D01*
X181872309Y-90130643D01*
X181870242Y-90136418D01*
X181867620Y-90141962D01*
X181864467Y-90147223D01*
X181860813Y-90152150D01*
X181856694Y-90156694D01*
X181852150Y-90160813D01*
X181847223Y-90164467D01*
X181841962Y-90167620D01*
X181836418Y-90170242D01*
X181830643Y-90172309D01*
X181824693Y-90173799D01*
X181818626Y-90174699D01*
X181812500Y-90175000D01*
X181687500Y-90175000D01*
X181681374Y-90174699D01*
X181675307Y-90173799D01*
X181669357Y-90172309D01*
X181663582Y-90170242D01*
X181658038Y-90167620D01*
X181652777Y-90164467D01*
X181647850Y-90160813D01*
X181643306Y-90156694D01*
X181639187Y-90152150D01*
X181635533Y-90147223D01*
X181632380Y-90141962D01*
X181629758Y-90136418D01*
X181627691Y-90130643D01*
X181626201Y-90124693D01*
X181625301Y-90118626D01*
X181625000Y-90112500D01*
X181625000Y-89362500D01*
X181625301Y-89356374D01*
X181626201Y-89350307D01*
X181627691Y-89344357D01*
X181629758Y-89338582D01*
X181632380Y-89333038D01*
X181635533Y-89327777D01*
X181639187Y-89322850D01*
X181643306Y-89318306D01*
X181647850Y-89314187D01*
X181652777Y-89310533D01*
X181658038Y-89307380D01*
X181663582Y-89304758D01*
X181669357Y-89302691D01*
X181675307Y-89301201D01*
X181681374Y-89300301D01*
X181687500Y-89300000D01*
X181812500Y-89300000D01*
X181818626Y-89300301D01*
X181818626Y-89300301D01*
G37*
D11*
X181750000Y-89737500D03*
D10*
G36*
X181318626Y-89300301D02*
G01*
X181324693Y-89301201D01*
X181330643Y-89302691D01*
X181336418Y-89304758D01*
X181341962Y-89307380D01*
X181347223Y-89310533D01*
X181352150Y-89314187D01*
X181356694Y-89318306D01*
X181360813Y-89322850D01*
X181364467Y-89327777D01*
X181367620Y-89333038D01*
X181370242Y-89338582D01*
X181372309Y-89344357D01*
X181373799Y-89350307D01*
X181374699Y-89356374D01*
X181375000Y-89362500D01*
X181375000Y-90112500D01*
X181374699Y-90118626D01*
X181373799Y-90124693D01*
X181372309Y-90130643D01*
X181370242Y-90136418D01*
X181367620Y-90141962D01*
X181364467Y-90147223D01*
X181360813Y-90152150D01*
X181356694Y-90156694D01*
X181352150Y-90160813D01*
X181347223Y-90164467D01*
X181341962Y-90167620D01*
X181336418Y-90170242D01*
X181330643Y-90172309D01*
X181324693Y-90173799D01*
X181318626Y-90174699D01*
X181312500Y-90175000D01*
X181187500Y-90175000D01*
X181181374Y-90174699D01*
X181175307Y-90173799D01*
X181169357Y-90172309D01*
X181163582Y-90170242D01*
X181158038Y-90167620D01*
X181152777Y-90164467D01*
X181147850Y-90160813D01*
X181143306Y-90156694D01*
X181139187Y-90152150D01*
X181135533Y-90147223D01*
X181132380Y-90141962D01*
X181129758Y-90136418D01*
X181127691Y-90130643D01*
X181126201Y-90124693D01*
X181125301Y-90118626D01*
X181125000Y-90112500D01*
X181125000Y-89362500D01*
X181125301Y-89356374D01*
X181126201Y-89350307D01*
X181127691Y-89344357D01*
X181129758Y-89338582D01*
X181132380Y-89333038D01*
X181135533Y-89327777D01*
X181139187Y-89322850D01*
X181143306Y-89318306D01*
X181147850Y-89314187D01*
X181152777Y-89310533D01*
X181158038Y-89307380D01*
X181163582Y-89304758D01*
X181169357Y-89302691D01*
X181175307Y-89301201D01*
X181181374Y-89300301D01*
X181187500Y-89300000D01*
X181312500Y-89300000D01*
X181318626Y-89300301D01*
X181318626Y-89300301D01*
G37*
D11*
X181250000Y-89737500D03*
D10*
G36*
X180818626Y-89300301D02*
G01*
X180824693Y-89301201D01*
X180830643Y-89302691D01*
X180836418Y-89304758D01*
X180841962Y-89307380D01*
X180847223Y-89310533D01*
X180852150Y-89314187D01*
X180856694Y-89318306D01*
X180860813Y-89322850D01*
X180864467Y-89327777D01*
X180867620Y-89333038D01*
X180870242Y-89338582D01*
X180872309Y-89344357D01*
X180873799Y-89350307D01*
X180874699Y-89356374D01*
X180875000Y-89362500D01*
X180875000Y-90112500D01*
X180874699Y-90118626D01*
X180873799Y-90124693D01*
X180872309Y-90130643D01*
X180870242Y-90136418D01*
X180867620Y-90141962D01*
X180864467Y-90147223D01*
X180860813Y-90152150D01*
X180856694Y-90156694D01*
X180852150Y-90160813D01*
X180847223Y-90164467D01*
X180841962Y-90167620D01*
X180836418Y-90170242D01*
X180830643Y-90172309D01*
X180824693Y-90173799D01*
X180818626Y-90174699D01*
X180812500Y-90175000D01*
X180687500Y-90175000D01*
X180681374Y-90174699D01*
X180675307Y-90173799D01*
X180669357Y-90172309D01*
X180663582Y-90170242D01*
X180658038Y-90167620D01*
X180652777Y-90164467D01*
X180647850Y-90160813D01*
X180643306Y-90156694D01*
X180639187Y-90152150D01*
X180635533Y-90147223D01*
X180632380Y-90141962D01*
X180629758Y-90136418D01*
X180627691Y-90130643D01*
X180626201Y-90124693D01*
X180625301Y-90118626D01*
X180625000Y-90112500D01*
X180625000Y-89362500D01*
X180625301Y-89356374D01*
X180626201Y-89350307D01*
X180627691Y-89344357D01*
X180629758Y-89338582D01*
X180632380Y-89333038D01*
X180635533Y-89327777D01*
X180639187Y-89322850D01*
X180643306Y-89318306D01*
X180647850Y-89314187D01*
X180652777Y-89310533D01*
X180658038Y-89307380D01*
X180663582Y-89304758D01*
X180669357Y-89302691D01*
X180675307Y-89301201D01*
X180681374Y-89300301D01*
X180687500Y-89300000D01*
X180812500Y-89300000D01*
X180818626Y-89300301D01*
X180818626Y-89300301D01*
G37*
D11*
X180750000Y-89737500D03*
D10*
G36*
X183905289Y-85686120D02*
G01*
X183927858Y-85689467D01*
X183949991Y-85695011D01*
X183971474Y-85702698D01*
X183992100Y-85712453D01*
X184011670Y-85724183D01*
X184029996Y-85737775D01*
X184046902Y-85753098D01*
X184062225Y-85770004D01*
X184075817Y-85788330D01*
X184087547Y-85807900D01*
X184097302Y-85828526D01*
X184104989Y-85850009D01*
X184110533Y-85872142D01*
X184113880Y-85894711D01*
X184115000Y-85917500D01*
X184115000Y-86382500D01*
X184113880Y-86405289D01*
X184110533Y-86427858D01*
X184104989Y-86449991D01*
X184097302Y-86471474D01*
X184087547Y-86492100D01*
X184075817Y-86511670D01*
X184062225Y-86529996D01*
X184046902Y-86546902D01*
X184029996Y-86562225D01*
X184011670Y-86575817D01*
X183992100Y-86587547D01*
X183971474Y-86597302D01*
X183949991Y-86604989D01*
X183927858Y-86610533D01*
X183905289Y-86613880D01*
X183882500Y-86615000D01*
X183417500Y-86615000D01*
X183394711Y-86613880D01*
X183372142Y-86610533D01*
X183350009Y-86604989D01*
X183328526Y-86597302D01*
X183307900Y-86587547D01*
X183288330Y-86575817D01*
X183270004Y-86562225D01*
X183253098Y-86546902D01*
X183237775Y-86529996D01*
X183224183Y-86511670D01*
X183212453Y-86492100D01*
X183202698Y-86471474D01*
X183195011Y-86449991D01*
X183189467Y-86427858D01*
X183186120Y-86405289D01*
X183185000Y-86382500D01*
X183185000Y-85917500D01*
X183186120Y-85894711D01*
X183189467Y-85872142D01*
X183195011Y-85850009D01*
X183202698Y-85828526D01*
X183212453Y-85807900D01*
X183224183Y-85788330D01*
X183237775Y-85770004D01*
X183253098Y-85753098D01*
X183270004Y-85737775D01*
X183288330Y-85724183D01*
X183307900Y-85712453D01*
X183328526Y-85702698D01*
X183350009Y-85695011D01*
X183372142Y-85689467D01*
X183394711Y-85686120D01*
X183417500Y-85685000D01*
X183882500Y-85685000D01*
X183905289Y-85686120D01*
X183905289Y-85686120D01*
G37*
D12*
X183650000Y-86150000D03*
D10*
G36*
X182755289Y-85686120D02*
G01*
X182777858Y-85689467D01*
X182799991Y-85695011D01*
X182821474Y-85702698D01*
X182842100Y-85712453D01*
X182861670Y-85724183D01*
X182879996Y-85737775D01*
X182896902Y-85753098D01*
X182912225Y-85770004D01*
X182925817Y-85788330D01*
X182937547Y-85807900D01*
X182947302Y-85828526D01*
X182954989Y-85850009D01*
X182960533Y-85872142D01*
X182963880Y-85894711D01*
X182965000Y-85917500D01*
X182965000Y-86382500D01*
X182963880Y-86405289D01*
X182960533Y-86427858D01*
X182954989Y-86449991D01*
X182947302Y-86471474D01*
X182937547Y-86492100D01*
X182925817Y-86511670D01*
X182912225Y-86529996D01*
X182896902Y-86546902D01*
X182879996Y-86562225D01*
X182861670Y-86575817D01*
X182842100Y-86587547D01*
X182821474Y-86597302D01*
X182799991Y-86604989D01*
X182777858Y-86610533D01*
X182755289Y-86613880D01*
X182732500Y-86615000D01*
X182267500Y-86615000D01*
X182244711Y-86613880D01*
X182222142Y-86610533D01*
X182200009Y-86604989D01*
X182178526Y-86597302D01*
X182157900Y-86587547D01*
X182138330Y-86575817D01*
X182120004Y-86562225D01*
X182103098Y-86546902D01*
X182087775Y-86529996D01*
X182074183Y-86511670D01*
X182062453Y-86492100D01*
X182052698Y-86471474D01*
X182045011Y-86449991D01*
X182039467Y-86427858D01*
X182036120Y-86405289D01*
X182035000Y-86382500D01*
X182035000Y-85917500D01*
X182036120Y-85894711D01*
X182039467Y-85872142D01*
X182045011Y-85850009D01*
X182052698Y-85828526D01*
X182062453Y-85807900D01*
X182074183Y-85788330D01*
X182087775Y-85770004D01*
X182103098Y-85753098D01*
X182120004Y-85737775D01*
X182138330Y-85724183D01*
X182157900Y-85712453D01*
X182178526Y-85702698D01*
X182200009Y-85695011D01*
X182222142Y-85689467D01*
X182244711Y-85686120D01*
X182267500Y-85685000D01*
X182732500Y-85685000D01*
X182755289Y-85686120D01*
X182755289Y-85686120D01*
G37*
D12*
X182500000Y-86150000D03*
D10*
G36*
X181605289Y-85686120D02*
G01*
X181627858Y-85689467D01*
X181649991Y-85695011D01*
X181671474Y-85702698D01*
X181692100Y-85712453D01*
X181711670Y-85724183D01*
X181729996Y-85737775D01*
X181746902Y-85753098D01*
X181762225Y-85770004D01*
X181775817Y-85788330D01*
X181787547Y-85807900D01*
X181797302Y-85828526D01*
X181804989Y-85850009D01*
X181810533Y-85872142D01*
X181813880Y-85894711D01*
X181815000Y-85917500D01*
X181815000Y-86382500D01*
X181813880Y-86405289D01*
X181810533Y-86427858D01*
X181804989Y-86449991D01*
X181797302Y-86471474D01*
X181787547Y-86492100D01*
X181775817Y-86511670D01*
X181762225Y-86529996D01*
X181746902Y-86546902D01*
X181729996Y-86562225D01*
X181711670Y-86575817D01*
X181692100Y-86587547D01*
X181671474Y-86597302D01*
X181649991Y-86604989D01*
X181627858Y-86610533D01*
X181605289Y-86613880D01*
X181582500Y-86615000D01*
X181117500Y-86615000D01*
X181094711Y-86613880D01*
X181072142Y-86610533D01*
X181050009Y-86604989D01*
X181028526Y-86597302D01*
X181007900Y-86587547D01*
X180988330Y-86575817D01*
X180970004Y-86562225D01*
X180953098Y-86546902D01*
X180937775Y-86529996D01*
X180924183Y-86511670D01*
X180912453Y-86492100D01*
X180902698Y-86471474D01*
X180895011Y-86449991D01*
X180889467Y-86427858D01*
X180886120Y-86405289D01*
X180885000Y-86382500D01*
X180885000Y-85917500D01*
X180886120Y-85894711D01*
X180889467Y-85872142D01*
X180895011Y-85850009D01*
X180902698Y-85828526D01*
X180912453Y-85807900D01*
X180924183Y-85788330D01*
X180937775Y-85770004D01*
X180953098Y-85753098D01*
X180970004Y-85737775D01*
X180988330Y-85724183D01*
X181007900Y-85712453D01*
X181028526Y-85702698D01*
X181050009Y-85695011D01*
X181072142Y-85689467D01*
X181094711Y-85686120D01*
X181117500Y-85685000D01*
X181582500Y-85685000D01*
X181605289Y-85686120D01*
X181605289Y-85686120D01*
G37*
D12*
X181350000Y-86150000D03*
D10*
G36*
X183905289Y-86836120D02*
G01*
X183927858Y-86839467D01*
X183949991Y-86845011D01*
X183971474Y-86852698D01*
X183992100Y-86862453D01*
X184011670Y-86874183D01*
X184029996Y-86887775D01*
X184046902Y-86903098D01*
X184062225Y-86920004D01*
X184075817Y-86938330D01*
X184087547Y-86957900D01*
X184097302Y-86978526D01*
X184104989Y-87000009D01*
X184110533Y-87022142D01*
X184113880Y-87044711D01*
X184115000Y-87067500D01*
X184115000Y-87532500D01*
X184113880Y-87555289D01*
X184110533Y-87577858D01*
X184104989Y-87599991D01*
X184097302Y-87621474D01*
X184087547Y-87642100D01*
X184075817Y-87661670D01*
X184062225Y-87679996D01*
X184046902Y-87696902D01*
X184029996Y-87712225D01*
X184011670Y-87725817D01*
X183992100Y-87737547D01*
X183971474Y-87747302D01*
X183949991Y-87754989D01*
X183927858Y-87760533D01*
X183905289Y-87763880D01*
X183882500Y-87765000D01*
X183417500Y-87765000D01*
X183394711Y-87763880D01*
X183372142Y-87760533D01*
X183350009Y-87754989D01*
X183328526Y-87747302D01*
X183307900Y-87737547D01*
X183288330Y-87725817D01*
X183270004Y-87712225D01*
X183253098Y-87696902D01*
X183237775Y-87679996D01*
X183224183Y-87661670D01*
X183212453Y-87642100D01*
X183202698Y-87621474D01*
X183195011Y-87599991D01*
X183189467Y-87577858D01*
X183186120Y-87555289D01*
X183185000Y-87532500D01*
X183185000Y-87067500D01*
X183186120Y-87044711D01*
X183189467Y-87022142D01*
X183195011Y-87000009D01*
X183202698Y-86978526D01*
X183212453Y-86957900D01*
X183224183Y-86938330D01*
X183237775Y-86920004D01*
X183253098Y-86903098D01*
X183270004Y-86887775D01*
X183288330Y-86874183D01*
X183307900Y-86862453D01*
X183328526Y-86852698D01*
X183350009Y-86845011D01*
X183372142Y-86839467D01*
X183394711Y-86836120D01*
X183417500Y-86835000D01*
X183882500Y-86835000D01*
X183905289Y-86836120D01*
X183905289Y-86836120D01*
G37*
D12*
X183650000Y-87300000D03*
D10*
G36*
X182755289Y-86836120D02*
G01*
X182777858Y-86839467D01*
X182799991Y-86845011D01*
X182821474Y-86852698D01*
X182842100Y-86862453D01*
X182861670Y-86874183D01*
X182879996Y-86887775D01*
X182896902Y-86903098D01*
X182912225Y-86920004D01*
X182925817Y-86938330D01*
X182937547Y-86957900D01*
X182947302Y-86978526D01*
X182954989Y-87000009D01*
X182960533Y-87022142D01*
X182963880Y-87044711D01*
X182965000Y-87067500D01*
X182965000Y-87532500D01*
X182963880Y-87555289D01*
X182960533Y-87577858D01*
X182954989Y-87599991D01*
X182947302Y-87621474D01*
X182937547Y-87642100D01*
X182925817Y-87661670D01*
X182912225Y-87679996D01*
X182896902Y-87696902D01*
X182879996Y-87712225D01*
X182861670Y-87725817D01*
X182842100Y-87737547D01*
X182821474Y-87747302D01*
X182799991Y-87754989D01*
X182777858Y-87760533D01*
X182755289Y-87763880D01*
X182732500Y-87765000D01*
X182267500Y-87765000D01*
X182244711Y-87763880D01*
X182222142Y-87760533D01*
X182200009Y-87754989D01*
X182178526Y-87747302D01*
X182157900Y-87737547D01*
X182138330Y-87725817D01*
X182120004Y-87712225D01*
X182103098Y-87696902D01*
X182087775Y-87679996D01*
X182074183Y-87661670D01*
X182062453Y-87642100D01*
X182052698Y-87621474D01*
X182045011Y-87599991D01*
X182039467Y-87577858D01*
X182036120Y-87555289D01*
X182035000Y-87532500D01*
X182035000Y-87067500D01*
X182036120Y-87044711D01*
X182039467Y-87022142D01*
X182045011Y-87000009D01*
X182052698Y-86978526D01*
X182062453Y-86957900D01*
X182074183Y-86938330D01*
X182087775Y-86920004D01*
X182103098Y-86903098D01*
X182120004Y-86887775D01*
X182138330Y-86874183D01*
X182157900Y-86862453D01*
X182178526Y-86852698D01*
X182200009Y-86845011D01*
X182222142Y-86839467D01*
X182244711Y-86836120D01*
X182267500Y-86835000D01*
X182732500Y-86835000D01*
X182755289Y-86836120D01*
X182755289Y-86836120D01*
G37*
D12*
X182500000Y-87300000D03*
D10*
G36*
X181605289Y-86836120D02*
G01*
X181627858Y-86839467D01*
X181649991Y-86845011D01*
X181671474Y-86852698D01*
X181692100Y-86862453D01*
X181711670Y-86874183D01*
X181729996Y-86887775D01*
X181746902Y-86903098D01*
X181762225Y-86920004D01*
X181775817Y-86938330D01*
X181787547Y-86957900D01*
X181797302Y-86978526D01*
X181804989Y-87000009D01*
X181810533Y-87022142D01*
X181813880Y-87044711D01*
X181815000Y-87067500D01*
X181815000Y-87532500D01*
X181813880Y-87555289D01*
X181810533Y-87577858D01*
X181804989Y-87599991D01*
X181797302Y-87621474D01*
X181787547Y-87642100D01*
X181775817Y-87661670D01*
X181762225Y-87679996D01*
X181746902Y-87696902D01*
X181729996Y-87712225D01*
X181711670Y-87725817D01*
X181692100Y-87737547D01*
X181671474Y-87747302D01*
X181649991Y-87754989D01*
X181627858Y-87760533D01*
X181605289Y-87763880D01*
X181582500Y-87765000D01*
X181117500Y-87765000D01*
X181094711Y-87763880D01*
X181072142Y-87760533D01*
X181050009Y-87754989D01*
X181028526Y-87747302D01*
X181007900Y-87737547D01*
X180988330Y-87725817D01*
X180970004Y-87712225D01*
X180953098Y-87696902D01*
X180937775Y-87679996D01*
X180924183Y-87661670D01*
X180912453Y-87642100D01*
X180902698Y-87621474D01*
X180895011Y-87599991D01*
X180889467Y-87577858D01*
X180886120Y-87555289D01*
X180885000Y-87532500D01*
X180885000Y-87067500D01*
X180886120Y-87044711D01*
X180889467Y-87022142D01*
X180895011Y-87000009D01*
X180902698Y-86978526D01*
X180912453Y-86957900D01*
X180924183Y-86938330D01*
X180937775Y-86920004D01*
X180953098Y-86903098D01*
X180970004Y-86887775D01*
X180988330Y-86874183D01*
X181007900Y-86862453D01*
X181028526Y-86852698D01*
X181050009Y-86845011D01*
X181072142Y-86839467D01*
X181094711Y-86836120D01*
X181117500Y-86835000D01*
X181582500Y-86835000D01*
X181605289Y-86836120D01*
X181605289Y-86836120D01*
G37*
D12*
X181350000Y-87300000D03*
D10*
G36*
X183905289Y-87986120D02*
G01*
X183927858Y-87989467D01*
X183949991Y-87995011D01*
X183971474Y-88002698D01*
X183992100Y-88012453D01*
X184011670Y-88024183D01*
X184029996Y-88037775D01*
X184046902Y-88053098D01*
X184062225Y-88070004D01*
X184075817Y-88088330D01*
X184087547Y-88107900D01*
X184097302Y-88128526D01*
X184104989Y-88150009D01*
X184110533Y-88172142D01*
X184113880Y-88194711D01*
X184115000Y-88217500D01*
X184115000Y-88682500D01*
X184113880Y-88705289D01*
X184110533Y-88727858D01*
X184104989Y-88749991D01*
X184097302Y-88771474D01*
X184087547Y-88792100D01*
X184075817Y-88811670D01*
X184062225Y-88829996D01*
X184046902Y-88846902D01*
X184029996Y-88862225D01*
X184011670Y-88875817D01*
X183992100Y-88887547D01*
X183971474Y-88897302D01*
X183949991Y-88904989D01*
X183927858Y-88910533D01*
X183905289Y-88913880D01*
X183882500Y-88915000D01*
X183417500Y-88915000D01*
X183394711Y-88913880D01*
X183372142Y-88910533D01*
X183350009Y-88904989D01*
X183328526Y-88897302D01*
X183307900Y-88887547D01*
X183288330Y-88875817D01*
X183270004Y-88862225D01*
X183253098Y-88846902D01*
X183237775Y-88829996D01*
X183224183Y-88811670D01*
X183212453Y-88792100D01*
X183202698Y-88771474D01*
X183195011Y-88749991D01*
X183189467Y-88727858D01*
X183186120Y-88705289D01*
X183185000Y-88682500D01*
X183185000Y-88217500D01*
X183186120Y-88194711D01*
X183189467Y-88172142D01*
X183195011Y-88150009D01*
X183202698Y-88128526D01*
X183212453Y-88107900D01*
X183224183Y-88088330D01*
X183237775Y-88070004D01*
X183253098Y-88053098D01*
X183270004Y-88037775D01*
X183288330Y-88024183D01*
X183307900Y-88012453D01*
X183328526Y-88002698D01*
X183350009Y-87995011D01*
X183372142Y-87989467D01*
X183394711Y-87986120D01*
X183417500Y-87985000D01*
X183882500Y-87985000D01*
X183905289Y-87986120D01*
X183905289Y-87986120D01*
G37*
D12*
X183650000Y-88450000D03*
D10*
G36*
X182755289Y-87986120D02*
G01*
X182777858Y-87989467D01*
X182799991Y-87995011D01*
X182821474Y-88002698D01*
X182842100Y-88012453D01*
X182861670Y-88024183D01*
X182879996Y-88037775D01*
X182896902Y-88053098D01*
X182912225Y-88070004D01*
X182925817Y-88088330D01*
X182937547Y-88107900D01*
X182947302Y-88128526D01*
X182954989Y-88150009D01*
X182960533Y-88172142D01*
X182963880Y-88194711D01*
X182965000Y-88217500D01*
X182965000Y-88682500D01*
X182963880Y-88705289D01*
X182960533Y-88727858D01*
X182954989Y-88749991D01*
X182947302Y-88771474D01*
X182937547Y-88792100D01*
X182925817Y-88811670D01*
X182912225Y-88829996D01*
X182896902Y-88846902D01*
X182879996Y-88862225D01*
X182861670Y-88875817D01*
X182842100Y-88887547D01*
X182821474Y-88897302D01*
X182799991Y-88904989D01*
X182777858Y-88910533D01*
X182755289Y-88913880D01*
X182732500Y-88915000D01*
X182267500Y-88915000D01*
X182244711Y-88913880D01*
X182222142Y-88910533D01*
X182200009Y-88904989D01*
X182178526Y-88897302D01*
X182157900Y-88887547D01*
X182138330Y-88875817D01*
X182120004Y-88862225D01*
X182103098Y-88846902D01*
X182087775Y-88829996D01*
X182074183Y-88811670D01*
X182062453Y-88792100D01*
X182052698Y-88771474D01*
X182045011Y-88749991D01*
X182039467Y-88727858D01*
X182036120Y-88705289D01*
X182035000Y-88682500D01*
X182035000Y-88217500D01*
X182036120Y-88194711D01*
X182039467Y-88172142D01*
X182045011Y-88150009D01*
X182052698Y-88128526D01*
X182062453Y-88107900D01*
X182074183Y-88088330D01*
X182087775Y-88070004D01*
X182103098Y-88053098D01*
X182120004Y-88037775D01*
X182138330Y-88024183D01*
X182157900Y-88012453D01*
X182178526Y-88002698D01*
X182200009Y-87995011D01*
X182222142Y-87989467D01*
X182244711Y-87986120D01*
X182267500Y-87985000D01*
X182732500Y-87985000D01*
X182755289Y-87986120D01*
X182755289Y-87986120D01*
G37*
D12*
X182500000Y-88450000D03*
D10*
G36*
X181605289Y-87986120D02*
G01*
X181627858Y-87989467D01*
X181649991Y-87995011D01*
X181671474Y-88002698D01*
X181692100Y-88012453D01*
X181711670Y-88024183D01*
X181729996Y-88037775D01*
X181746902Y-88053098D01*
X181762225Y-88070004D01*
X181775817Y-88088330D01*
X181787547Y-88107900D01*
X181797302Y-88128526D01*
X181804989Y-88150009D01*
X181810533Y-88172142D01*
X181813880Y-88194711D01*
X181815000Y-88217500D01*
X181815000Y-88682500D01*
X181813880Y-88705289D01*
X181810533Y-88727858D01*
X181804989Y-88749991D01*
X181797302Y-88771474D01*
X181787547Y-88792100D01*
X181775817Y-88811670D01*
X181762225Y-88829996D01*
X181746902Y-88846902D01*
X181729996Y-88862225D01*
X181711670Y-88875817D01*
X181692100Y-88887547D01*
X181671474Y-88897302D01*
X181649991Y-88904989D01*
X181627858Y-88910533D01*
X181605289Y-88913880D01*
X181582500Y-88915000D01*
X181117500Y-88915000D01*
X181094711Y-88913880D01*
X181072142Y-88910533D01*
X181050009Y-88904989D01*
X181028526Y-88897302D01*
X181007900Y-88887547D01*
X180988330Y-88875817D01*
X180970004Y-88862225D01*
X180953098Y-88846902D01*
X180937775Y-88829996D01*
X180924183Y-88811670D01*
X180912453Y-88792100D01*
X180902698Y-88771474D01*
X180895011Y-88749991D01*
X180889467Y-88727858D01*
X180886120Y-88705289D01*
X180885000Y-88682500D01*
X180885000Y-88217500D01*
X180886120Y-88194711D01*
X180889467Y-88172142D01*
X180895011Y-88150009D01*
X180902698Y-88128526D01*
X180912453Y-88107900D01*
X180924183Y-88088330D01*
X180937775Y-88070004D01*
X180953098Y-88053098D01*
X180970004Y-88037775D01*
X180988330Y-88024183D01*
X181007900Y-88012453D01*
X181028526Y-88002698D01*
X181050009Y-87995011D01*
X181072142Y-87989467D01*
X181094711Y-87986120D01*
X181117500Y-87985000D01*
X181582500Y-87985000D01*
X181605289Y-87986120D01*
X181605289Y-87986120D01*
G37*
D12*
X181350000Y-88450000D03*
D13*
X154850000Y-88890000D03*
X152950000Y-88890000D03*
X152950000Y-86690000D03*
X153900000Y-86690000D03*
X154850000Y-86690000D03*
D14*
X172360000Y-89500000D03*
X172360000Y-87500000D03*
X172360000Y-85500000D03*
X172360000Y-83500000D03*
D10*
G36*
X151447691Y-83986053D02*
G01*
X151468926Y-83989203D01*
X151489750Y-83994419D01*
X151509962Y-84001651D01*
X151529368Y-84010830D01*
X151547781Y-84021866D01*
X151565024Y-84034654D01*
X151580930Y-84049070D01*
X151595346Y-84064976D01*
X151608134Y-84082219D01*
X151619170Y-84100632D01*
X151628349Y-84120038D01*
X151635581Y-84140250D01*
X151640797Y-84161074D01*
X151643947Y-84182309D01*
X151645000Y-84203750D01*
X151645000Y-84641250D01*
X151643947Y-84662691D01*
X151640797Y-84683926D01*
X151635581Y-84704750D01*
X151628349Y-84724962D01*
X151619170Y-84744368D01*
X151608134Y-84762781D01*
X151595346Y-84780024D01*
X151580930Y-84795930D01*
X151565024Y-84810346D01*
X151547781Y-84823134D01*
X151529368Y-84834170D01*
X151509962Y-84843349D01*
X151489750Y-84850581D01*
X151468926Y-84855797D01*
X151447691Y-84858947D01*
X151426250Y-84860000D01*
X150913750Y-84860000D01*
X150892309Y-84858947D01*
X150871074Y-84855797D01*
X150850250Y-84850581D01*
X150830038Y-84843349D01*
X150810632Y-84834170D01*
X150792219Y-84823134D01*
X150774976Y-84810346D01*
X150759070Y-84795930D01*
X150744654Y-84780024D01*
X150731866Y-84762781D01*
X150720830Y-84744368D01*
X150711651Y-84724962D01*
X150704419Y-84704750D01*
X150699203Y-84683926D01*
X150696053Y-84662691D01*
X150695000Y-84641250D01*
X150695000Y-84203750D01*
X150696053Y-84182309D01*
X150699203Y-84161074D01*
X150704419Y-84140250D01*
X150711651Y-84120038D01*
X150720830Y-84100632D01*
X150731866Y-84082219D01*
X150744654Y-84064976D01*
X150759070Y-84049070D01*
X150774976Y-84034654D01*
X150792219Y-84021866D01*
X150810632Y-84010830D01*
X150830038Y-84001651D01*
X150850250Y-83994419D01*
X150871074Y-83989203D01*
X150892309Y-83986053D01*
X150913750Y-83985000D01*
X151426250Y-83985000D01*
X151447691Y-83986053D01*
X151447691Y-83986053D01*
G37*
D15*
X151170000Y-84422500D03*
D10*
G36*
X151447691Y-85561053D02*
G01*
X151468926Y-85564203D01*
X151489750Y-85569419D01*
X151509962Y-85576651D01*
X151529368Y-85585830D01*
X151547781Y-85596866D01*
X151565024Y-85609654D01*
X151580930Y-85624070D01*
X151595346Y-85639976D01*
X151608134Y-85657219D01*
X151619170Y-85675632D01*
X151628349Y-85695038D01*
X151635581Y-85715250D01*
X151640797Y-85736074D01*
X151643947Y-85757309D01*
X151645000Y-85778750D01*
X151645000Y-86216250D01*
X151643947Y-86237691D01*
X151640797Y-86258926D01*
X151635581Y-86279750D01*
X151628349Y-86299962D01*
X151619170Y-86319368D01*
X151608134Y-86337781D01*
X151595346Y-86355024D01*
X151580930Y-86370930D01*
X151565024Y-86385346D01*
X151547781Y-86398134D01*
X151529368Y-86409170D01*
X151509962Y-86418349D01*
X151489750Y-86425581D01*
X151468926Y-86430797D01*
X151447691Y-86433947D01*
X151426250Y-86435000D01*
X150913750Y-86435000D01*
X150892309Y-86433947D01*
X150871074Y-86430797D01*
X150850250Y-86425581D01*
X150830038Y-86418349D01*
X150810632Y-86409170D01*
X150792219Y-86398134D01*
X150774976Y-86385346D01*
X150759070Y-86370930D01*
X150744654Y-86355024D01*
X150731866Y-86337781D01*
X150720830Y-86319368D01*
X150711651Y-86299962D01*
X150704419Y-86279750D01*
X150699203Y-86258926D01*
X150696053Y-86237691D01*
X150695000Y-86216250D01*
X150695000Y-85778750D01*
X150696053Y-85757309D01*
X150699203Y-85736074D01*
X150704419Y-85715250D01*
X150711651Y-85695038D01*
X150720830Y-85675632D01*
X150731866Y-85657219D01*
X150744654Y-85639976D01*
X150759070Y-85624070D01*
X150774976Y-85609654D01*
X150792219Y-85596866D01*
X150810632Y-85585830D01*
X150830038Y-85576651D01*
X150850250Y-85569419D01*
X150871074Y-85564203D01*
X150892309Y-85561053D01*
X150913750Y-85560000D01*
X151426250Y-85560000D01*
X151447691Y-85561053D01*
X151447691Y-85561053D01*
G37*
D15*
X151170000Y-85997500D03*
D10*
G36*
X184939691Y-92176053D02*
G01*
X184960926Y-92179203D01*
X184981750Y-92184419D01*
X185001962Y-92191651D01*
X185021368Y-92200830D01*
X185039781Y-92211866D01*
X185057024Y-92224654D01*
X185072930Y-92239070D01*
X185087346Y-92254976D01*
X185100134Y-92272219D01*
X185111170Y-92290632D01*
X185120349Y-92310038D01*
X185127581Y-92330250D01*
X185132797Y-92351074D01*
X185135947Y-92372309D01*
X185137000Y-92393750D01*
X185137000Y-92906250D01*
X185135947Y-92927691D01*
X185132797Y-92948926D01*
X185127581Y-92969750D01*
X185120349Y-92989962D01*
X185111170Y-93009368D01*
X185100134Y-93027781D01*
X185087346Y-93045024D01*
X185072930Y-93060930D01*
X185057024Y-93075346D01*
X185039781Y-93088134D01*
X185021368Y-93099170D01*
X185001962Y-93108349D01*
X184981750Y-93115581D01*
X184960926Y-93120797D01*
X184939691Y-93123947D01*
X184918250Y-93125000D01*
X184480750Y-93125000D01*
X184459309Y-93123947D01*
X184438074Y-93120797D01*
X184417250Y-93115581D01*
X184397038Y-93108349D01*
X184377632Y-93099170D01*
X184359219Y-93088134D01*
X184341976Y-93075346D01*
X184326070Y-93060930D01*
X184311654Y-93045024D01*
X184298866Y-93027781D01*
X184287830Y-93009368D01*
X184278651Y-92989962D01*
X184271419Y-92969750D01*
X184266203Y-92948926D01*
X184263053Y-92927691D01*
X184262000Y-92906250D01*
X184262000Y-92393750D01*
X184263053Y-92372309D01*
X184266203Y-92351074D01*
X184271419Y-92330250D01*
X184278651Y-92310038D01*
X184287830Y-92290632D01*
X184298866Y-92272219D01*
X184311654Y-92254976D01*
X184326070Y-92239070D01*
X184341976Y-92224654D01*
X184359219Y-92211866D01*
X184377632Y-92200830D01*
X184397038Y-92191651D01*
X184417250Y-92184419D01*
X184438074Y-92179203D01*
X184459309Y-92176053D01*
X184480750Y-92175000D01*
X184918250Y-92175000D01*
X184939691Y-92176053D01*
X184939691Y-92176053D01*
G37*
D15*
X184699500Y-92650000D03*
D10*
G36*
X183364691Y-92176053D02*
G01*
X183385926Y-92179203D01*
X183406750Y-92184419D01*
X183426962Y-92191651D01*
X183446368Y-92200830D01*
X183464781Y-92211866D01*
X183482024Y-92224654D01*
X183497930Y-92239070D01*
X183512346Y-92254976D01*
X183525134Y-92272219D01*
X183536170Y-92290632D01*
X183545349Y-92310038D01*
X183552581Y-92330250D01*
X183557797Y-92351074D01*
X183560947Y-92372309D01*
X183562000Y-92393750D01*
X183562000Y-92906250D01*
X183560947Y-92927691D01*
X183557797Y-92948926D01*
X183552581Y-92969750D01*
X183545349Y-92989962D01*
X183536170Y-93009368D01*
X183525134Y-93027781D01*
X183512346Y-93045024D01*
X183497930Y-93060930D01*
X183482024Y-93075346D01*
X183464781Y-93088134D01*
X183446368Y-93099170D01*
X183426962Y-93108349D01*
X183406750Y-93115581D01*
X183385926Y-93120797D01*
X183364691Y-93123947D01*
X183343250Y-93125000D01*
X182905750Y-93125000D01*
X182884309Y-93123947D01*
X182863074Y-93120797D01*
X182842250Y-93115581D01*
X182822038Y-93108349D01*
X182802632Y-93099170D01*
X182784219Y-93088134D01*
X182766976Y-93075346D01*
X182751070Y-93060930D01*
X182736654Y-93045024D01*
X182723866Y-93027781D01*
X182712830Y-93009368D01*
X182703651Y-92989962D01*
X182696419Y-92969750D01*
X182691203Y-92948926D01*
X182688053Y-92927691D01*
X182687000Y-92906250D01*
X182687000Y-92393750D01*
X182688053Y-92372309D01*
X182691203Y-92351074D01*
X182696419Y-92330250D01*
X182703651Y-92310038D01*
X182712830Y-92290632D01*
X182723866Y-92272219D01*
X182736654Y-92254976D01*
X182751070Y-92239070D01*
X182766976Y-92224654D01*
X182784219Y-92211866D01*
X182802632Y-92200830D01*
X182822038Y-92191651D01*
X182842250Y-92184419D01*
X182863074Y-92179203D01*
X182884309Y-92176053D01*
X182905750Y-92175000D01*
X183343250Y-92175000D01*
X183364691Y-92176053D01*
X183364691Y-92176053D01*
G37*
D15*
X183124500Y-92650000D03*
D10*
G36*
X184977691Y-81563553D02*
G01*
X184998926Y-81566703D01*
X185019750Y-81571919D01*
X185039962Y-81579151D01*
X185059368Y-81588330D01*
X185077781Y-81599366D01*
X185095024Y-81612154D01*
X185110930Y-81626570D01*
X185125346Y-81642476D01*
X185138134Y-81659719D01*
X185149170Y-81678132D01*
X185158349Y-81697538D01*
X185165581Y-81717750D01*
X185170797Y-81738574D01*
X185173947Y-81759809D01*
X185175000Y-81781250D01*
X185175000Y-82218750D01*
X185173947Y-82240191D01*
X185170797Y-82261426D01*
X185165581Y-82282250D01*
X185158349Y-82302462D01*
X185149170Y-82321868D01*
X185138134Y-82340281D01*
X185125346Y-82357524D01*
X185110930Y-82373430D01*
X185095024Y-82387846D01*
X185077781Y-82400634D01*
X185059368Y-82411670D01*
X185039962Y-82420849D01*
X185019750Y-82428081D01*
X184998926Y-82433297D01*
X184977691Y-82436447D01*
X184956250Y-82437500D01*
X184443750Y-82437500D01*
X184422309Y-82436447D01*
X184401074Y-82433297D01*
X184380250Y-82428081D01*
X184360038Y-82420849D01*
X184340632Y-82411670D01*
X184322219Y-82400634D01*
X184304976Y-82387846D01*
X184289070Y-82373430D01*
X184274654Y-82357524D01*
X184261866Y-82340281D01*
X184250830Y-82321868D01*
X184241651Y-82302462D01*
X184234419Y-82282250D01*
X184229203Y-82261426D01*
X184226053Y-82240191D01*
X184225000Y-82218750D01*
X184225000Y-81781250D01*
X184226053Y-81759809D01*
X184229203Y-81738574D01*
X184234419Y-81717750D01*
X184241651Y-81697538D01*
X184250830Y-81678132D01*
X184261866Y-81659719D01*
X184274654Y-81642476D01*
X184289070Y-81626570D01*
X184304976Y-81612154D01*
X184322219Y-81599366D01*
X184340632Y-81588330D01*
X184360038Y-81579151D01*
X184380250Y-81571919D01*
X184401074Y-81566703D01*
X184422309Y-81563553D01*
X184443750Y-81562500D01*
X184956250Y-81562500D01*
X184977691Y-81563553D01*
X184977691Y-81563553D01*
G37*
D15*
X184700000Y-82000000D03*
D10*
G36*
X184977691Y-79988553D02*
G01*
X184998926Y-79991703D01*
X185019750Y-79996919D01*
X185039962Y-80004151D01*
X185059368Y-80013330D01*
X185077781Y-80024366D01*
X185095024Y-80037154D01*
X185110930Y-80051570D01*
X185125346Y-80067476D01*
X185138134Y-80084719D01*
X185149170Y-80103132D01*
X185158349Y-80122538D01*
X185165581Y-80142750D01*
X185170797Y-80163574D01*
X185173947Y-80184809D01*
X185175000Y-80206250D01*
X185175000Y-80643750D01*
X185173947Y-80665191D01*
X185170797Y-80686426D01*
X185165581Y-80707250D01*
X185158349Y-80727462D01*
X185149170Y-80746868D01*
X185138134Y-80765281D01*
X185125346Y-80782524D01*
X185110930Y-80798430D01*
X185095024Y-80812846D01*
X185077781Y-80825634D01*
X185059368Y-80836670D01*
X185039962Y-80845849D01*
X185019750Y-80853081D01*
X184998926Y-80858297D01*
X184977691Y-80861447D01*
X184956250Y-80862500D01*
X184443750Y-80862500D01*
X184422309Y-80861447D01*
X184401074Y-80858297D01*
X184380250Y-80853081D01*
X184360038Y-80845849D01*
X184340632Y-80836670D01*
X184322219Y-80825634D01*
X184304976Y-80812846D01*
X184289070Y-80798430D01*
X184274654Y-80782524D01*
X184261866Y-80765281D01*
X184250830Y-80746868D01*
X184241651Y-80727462D01*
X184234419Y-80707250D01*
X184229203Y-80686426D01*
X184226053Y-80665191D01*
X184225000Y-80643750D01*
X184225000Y-80206250D01*
X184226053Y-80184809D01*
X184229203Y-80163574D01*
X184234419Y-80142750D01*
X184241651Y-80122538D01*
X184250830Y-80103132D01*
X184261866Y-80084719D01*
X184274654Y-80067476D01*
X184289070Y-80051570D01*
X184304976Y-80037154D01*
X184322219Y-80024366D01*
X184340632Y-80013330D01*
X184360038Y-80004151D01*
X184380250Y-79996919D01*
X184401074Y-79991703D01*
X184422309Y-79988553D01*
X184443750Y-79987500D01*
X184956250Y-79987500D01*
X184977691Y-79988553D01*
X184977691Y-79988553D01*
G37*
D15*
X184700000Y-80425000D03*
D10*
G36*
X188015691Y-92176053D02*
G01*
X188036926Y-92179203D01*
X188057750Y-92184419D01*
X188077962Y-92191651D01*
X188097368Y-92200830D01*
X188115781Y-92211866D01*
X188133024Y-92224654D01*
X188148930Y-92239070D01*
X188163346Y-92254976D01*
X188176134Y-92272219D01*
X188187170Y-92290632D01*
X188196349Y-92310038D01*
X188203581Y-92330250D01*
X188208797Y-92351074D01*
X188211947Y-92372309D01*
X188213000Y-92393750D01*
X188213000Y-92906250D01*
X188211947Y-92927691D01*
X188208797Y-92948926D01*
X188203581Y-92969750D01*
X188196349Y-92989962D01*
X188187170Y-93009368D01*
X188176134Y-93027781D01*
X188163346Y-93045024D01*
X188148930Y-93060930D01*
X188133024Y-93075346D01*
X188115781Y-93088134D01*
X188097368Y-93099170D01*
X188077962Y-93108349D01*
X188057750Y-93115581D01*
X188036926Y-93120797D01*
X188015691Y-93123947D01*
X187994250Y-93125000D01*
X187556750Y-93125000D01*
X187535309Y-93123947D01*
X187514074Y-93120797D01*
X187493250Y-93115581D01*
X187473038Y-93108349D01*
X187453632Y-93099170D01*
X187435219Y-93088134D01*
X187417976Y-93075346D01*
X187402070Y-93060930D01*
X187387654Y-93045024D01*
X187374866Y-93027781D01*
X187363830Y-93009368D01*
X187354651Y-92989962D01*
X187347419Y-92969750D01*
X187342203Y-92948926D01*
X187339053Y-92927691D01*
X187338000Y-92906250D01*
X187338000Y-92393750D01*
X187339053Y-92372309D01*
X187342203Y-92351074D01*
X187347419Y-92330250D01*
X187354651Y-92310038D01*
X187363830Y-92290632D01*
X187374866Y-92272219D01*
X187387654Y-92254976D01*
X187402070Y-92239070D01*
X187417976Y-92224654D01*
X187435219Y-92211866D01*
X187453632Y-92200830D01*
X187473038Y-92191651D01*
X187493250Y-92184419D01*
X187514074Y-92179203D01*
X187535309Y-92176053D01*
X187556750Y-92175000D01*
X187994250Y-92175000D01*
X188015691Y-92176053D01*
X188015691Y-92176053D01*
G37*
D15*
X187775500Y-92650000D03*
D10*
G36*
X186440691Y-92176053D02*
G01*
X186461926Y-92179203D01*
X186482750Y-92184419D01*
X186502962Y-92191651D01*
X186522368Y-92200830D01*
X186540781Y-92211866D01*
X186558024Y-92224654D01*
X186573930Y-92239070D01*
X186588346Y-92254976D01*
X186601134Y-92272219D01*
X186612170Y-92290632D01*
X186621349Y-92310038D01*
X186628581Y-92330250D01*
X186633797Y-92351074D01*
X186636947Y-92372309D01*
X186638000Y-92393750D01*
X186638000Y-92906250D01*
X186636947Y-92927691D01*
X186633797Y-92948926D01*
X186628581Y-92969750D01*
X186621349Y-92989962D01*
X186612170Y-93009368D01*
X186601134Y-93027781D01*
X186588346Y-93045024D01*
X186573930Y-93060930D01*
X186558024Y-93075346D01*
X186540781Y-93088134D01*
X186522368Y-93099170D01*
X186502962Y-93108349D01*
X186482750Y-93115581D01*
X186461926Y-93120797D01*
X186440691Y-93123947D01*
X186419250Y-93125000D01*
X185981750Y-93125000D01*
X185960309Y-93123947D01*
X185939074Y-93120797D01*
X185918250Y-93115581D01*
X185898038Y-93108349D01*
X185878632Y-93099170D01*
X185860219Y-93088134D01*
X185842976Y-93075346D01*
X185827070Y-93060930D01*
X185812654Y-93045024D01*
X185799866Y-93027781D01*
X185788830Y-93009368D01*
X185779651Y-92989962D01*
X185772419Y-92969750D01*
X185767203Y-92948926D01*
X185764053Y-92927691D01*
X185763000Y-92906250D01*
X185763000Y-92393750D01*
X185764053Y-92372309D01*
X185767203Y-92351074D01*
X185772419Y-92330250D01*
X185779651Y-92310038D01*
X185788830Y-92290632D01*
X185799866Y-92272219D01*
X185812654Y-92254976D01*
X185827070Y-92239070D01*
X185842976Y-92224654D01*
X185860219Y-92211866D01*
X185878632Y-92200830D01*
X185898038Y-92191651D01*
X185918250Y-92184419D01*
X185939074Y-92179203D01*
X185960309Y-92176053D01*
X185981750Y-92175000D01*
X186419250Y-92175000D01*
X186440691Y-92176053D01*
X186440691Y-92176053D01*
G37*
D15*
X186200500Y-92650000D03*
D10*
G36*
X175027691Y-90193553D02*
G01*
X175048926Y-90196703D01*
X175069750Y-90201919D01*
X175089962Y-90209151D01*
X175109368Y-90218330D01*
X175127781Y-90229366D01*
X175145024Y-90242154D01*
X175160930Y-90256570D01*
X175175346Y-90272476D01*
X175188134Y-90289719D01*
X175199170Y-90308132D01*
X175208349Y-90327538D01*
X175215581Y-90347750D01*
X175220797Y-90368574D01*
X175223947Y-90389809D01*
X175225000Y-90411250D01*
X175225000Y-90848750D01*
X175223947Y-90870191D01*
X175220797Y-90891426D01*
X175215581Y-90912250D01*
X175208349Y-90932462D01*
X175199170Y-90951868D01*
X175188134Y-90970281D01*
X175175346Y-90987524D01*
X175160930Y-91003430D01*
X175145024Y-91017846D01*
X175127781Y-91030634D01*
X175109368Y-91041670D01*
X175089962Y-91050849D01*
X175069750Y-91058081D01*
X175048926Y-91063297D01*
X175027691Y-91066447D01*
X175006250Y-91067500D01*
X174493750Y-91067500D01*
X174472309Y-91066447D01*
X174451074Y-91063297D01*
X174430250Y-91058081D01*
X174410038Y-91050849D01*
X174390632Y-91041670D01*
X174372219Y-91030634D01*
X174354976Y-91017846D01*
X174339070Y-91003430D01*
X174324654Y-90987524D01*
X174311866Y-90970281D01*
X174300830Y-90951868D01*
X174291651Y-90932462D01*
X174284419Y-90912250D01*
X174279203Y-90891426D01*
X174276053Y-90870191D01*
X174275000Y-90848750D01*
X174275000Y-90411250D01*
X174276053Y-90389809D01*
X174279203Y-90368574D01*
X174284419Y-90347750D01*
X174291651Y-90327538D01*
X174300830Y-90308132D01*
X174311866Y-90289719D01*
X174324654Y-90272476D01*
X174339070Y-90256570D01*
X174354976Y-90242154D01*
X174372219Y-90229366D01*
X174390632Y-90218330D01*
X174410038Y-90209151D01*
X174430250Y-90201919D01*
X174451074Y-90196703D01*
X174472309Y-90193553D01*
X174493750Y-90192500D01*
X175006250Y-90192500D01*
X175027691Y-90193553D01*
X175027691Y-90193553D01*
G37*
D15*
X174750000Y-90630000D03*
D10*
G36*
X175027691Y-88618553D02*
G01*
X175048926Y-88621703D01*
X175069750Y-88626919D01*
X175089962Y-88634151D01*
X175109368Y-88643330D01*
X175127781Y-88654366D01*
X175145024Y-88667154D01*
X175160930Y-88681570D01*
X175175346Y-88697476D01*
X175188134Y-88714719D01*
X175199170Y-88733132D01*
X175208349Y-88752538D01*
X175215581Y-88772750D01*
X175220797Y-88793574D01*
X175223947Y-88814809D01*
X175225000Y-88836250D01*
X175225000Y-89273750D01*
X175223947Y-89295191D01*
X175220797Y-89316426D01*
X175215581Y-89337250D01*
X175208349Y-89357462D01*
X175199170Y-89376868D01*
X175188134Y-89395281D01*
X175175346Y-89412524D01*
X175160930Y-89428430D01*
X175145024Y-89442846D01*
X175127781Y-89455634D01*
X175109368Y-89466670D01*
X175089962Y-89475849D01*
X175069750Y-89483081D01*
X175048926Y-89488297D01*
X175027691Y-89491447D01*
X175006250Y-89492500D01*
X174493750Y-89492500D01*
X174472309Y-89491447D01*
X174451074Y-89488297D01*
X174430250Y-89483081D01*
X174410038Y-89475849D01*
X174390632Y-89466670D01*
X174372219Y-89455634D01*
X174354976Y-89442846D01*
X174339070Y-89428430D01*
X174324654Y-89412524D01*
X174311866Y-89395281D01*
X174300830Y-89376868D01*
X174291651Y-89357462D01*
X174284419Y-89337250D01*
X174279203Y-89316426D01*
X174276053Y-89295191D01*
X174275000Y-89273750D01*
X174275000Y-88836250D01*
X174276053Y-88814809D01*
X174279203Y-88793574D01*
X174284419Y-88772750D01*
X174291651Y-88752538D01*
X174300830Y-88733132D01*
X174311866Y-88714719D01*
X174324654Y-88697476D01*
X174339070Y-88681570D01*
X174354976Y-88667154D01*
X174372219Y-88654366D01*
X174390632Y-88643330D01*
X174410038Y-88634151D01*
X174430250Y-88626919D01*
X174451074Y-88621703D01*
X174472309Y-88618553D01*
X174493750Y-88617500D01*
X175006250Y-88617500D01*
X175027691Y-88618553D01*
X175027691Y-88618553D01*
G37*
D15*
X174750000Y-89055000D03*
D10*
G36*
X160137691Y-82739053D02*
G01*
X160158926Y-82742203D01*
X160179750Y-82747419D01*
X160199962Y-82754651D01*
X160219368Y-82763830D01*
X160237781Y-82774866D01*
X160255024Y-82787654D01*
X160270930Y-82802070D01*
X160285346Y-82817976D01*
X160298134Y-82835219D01*
X160309170Y-82853632D01*
X160318349Y-82873038D01*
X160325581Y-82893250D01*
X160330797Y-82914074D01*
X160333947Y-82935309D01*
X160335000Y-82956750D01*
X160335000Y-83394250D01*
X160333947Y-83415691D01*
X160330797Y-83436926D01*
X160325581Y-83457750D01*
X160318349Y-83477962D01*
X160309170Y-83497368D01*
X160298134Y-83515781D01*
X160285346Y-83533024D01*
X160270930Y-83548930D01*
X160255024Y-83563346D01*
X160237781Y-83576134D01*
X160219368Y-83587170D01*
X160199962Y-83596349D01*
X160179750Y-83603581D01*
X160158926Y-83608797D01*
X160137691Y-83611947D01*
X160116250Y-83613000D01*
X159603750Y-83613000D01*
X159582309Y-83611947D01*
X159561074Y-83608797D01*
X159540250Y-83603581D01*
X159520038Y-83596349D01*
X159500632Y-83587170D01*
X159482219Y-83576134D01*
X159464976Y-83563346D01*
X159449070Y-83548930D01*
X159434654Y-83533024D01*
X159421866Y-83515781D01*
X159410830Y-83497368D01*
X159401651Y-83477962D01*
X159394419Y-83457750D01*
X159389203Y-83436926D01*
X159386053Y-83415691D01*
X159385000Y-83394250D01*
X159385000Y-82956750D01*
X159386053Y-82935309D01*
X159389203Y-82914074D01*
X159394419Y-82893250D01*
X159401651Y-82873038D01*
X159410830Y-82853632D01*
X159421866Y-82835219D01*
X159434654Y-82817976D01*
X159449070Y-82802070D01*
X159464976Y-82787654D01*
X159482219Y-82774866D01*
X159500632Y-82763830D01*
X159520038Y-82754651D01*
X159540250Y-82747419D01*
X159561074Y-82742203D01*
X159582309Y-82739053D01*
X159603750Y-82738000D01*
X160116250Y-82738000D01*
X160137691Y-82739053D01*
X160137691Y-82739053D01*
G37*
D15*
X159860000Y-83175500D03*
D10*
G36*
X160137691Y-81164053D02*
G01*
X160158926Y-81167203D01*
X160179750Y-81172419D01*
X160199962Y-81179651D01*
X160219368Y-81188830D01*
X160237781Y-81199866D01*
X160255024Y-81212654D01*
X160270930Y-81227070D01*
X160285346Y-81242976D01*
X160298134Y-81260219D01*
X160309170Y-81278632D01*
X160318349Y-81298038D01*
X160325581Y-81318250D01*
X160330797Y-81339074D01*
X160333947Y-81360309D01*
X160335000Y-81381750D01*
X160335000Y-81819250D01*
X160333947Y-81840691D01*
X160330797Y-81861926D01*
X160325581Y-81882750D01*
X160318349Y-81902962D01*
X160309170Y-81922368D01*
X160298134Y-81940781D01*
X160285346Y-81958024D01*
X160270930Y-81973930D01*
X160255024Y-81988346D01*
X160237781Y-82001134D01*
X160219368Y-82012170D01*
X160199962Y-82021349D01*
X160179750Y-82028581D01*
X160158926Y-82033797D01*
X160137691Y-82036947D01*
X160116250Y-82038000D01*
X159603750Y-82038000D01*
X159582309Y-82036947D01*
X159561074Y-82033797D01*
X159540250Y-82028581D01*
X159520038Y-82021349D01*
X159500632Y-82012170D01*
X159482219Y-82001134D01*
X159464976Y-81988346D01*
X159449070Y-81973930D01*
X159434654Y-81958024D01*
X159421866Y-81940781D01*
X159410830Y-81922368D01*
X159401651Y-81902962D01*
X159394419Y-81882750D01*
X159389203Y-81861926D01*
X159386053Y-81840691D01*
X159385000Y-81819250D01*
X159385000Y-81381750D01*
X159386053Y-81360309D01*
X159389203Y-81339074D01*
X159394419Y-81318250D01*
X159401651Y-81298038D01*
X159410830Y-81278632D01*
X159421866Y-81260219D01*
X159434654Y-81242976D01*
X159449070Y-81227070D01*
X159464976Y-81212654D01*
X159482219Y-81199866D01*
X159500632Y-81188830D01*
X159520038Y-81179651D01*
X159540250Y-81172419D01*
X159561074Y-81167203D01*
X159582309Y-81164053D01*
X159603750Y-81163000D01*
X160116250Y-81163000D01*
X160137691Y-81164053D01*
X160137691Y-81164053D01*
G37*
D15*
X159860000Y-81600500D03*
D10*
G36*
X180240691Y-92176053D02*
G01*
X180261926Y-92179203D01*
X180282750Y-92184419D01*
X180302962Y-92191651D01*
X180322368Y-92200830D01*
X180340781Y-92211866D01*
X180358024Y-92224654D01*
X180373930Y-92239070D01*
X180388346Y-92254976D01*
X180401134Y-92272219D01*
X180412170Y-92290632D01*
X180421349Y-92310038D01*
X180428581Y-92330250D01*
X180433797Y-92351074D01*
X180436947Y-92372309D01*
X180438000Y-92393750D01*
X180438000Y-92906250D01*
X180436947Y-92927691D01*
X180433797Y-92948926D01*
X180428581Y-92969750D01*
X180421349Y-92989962D01*
X180412170Y-93009368D01*
X180401134Y-93027781D01*
X180388346Y-93045024D01*
X180373930Y-93060930D01*
X180358024Y-93075346D01*
X180340781Y-93088134D01*
X180322368Y-93099170D01*
X180302962Y-93108349D01*
X180282750Y-93115581D01*
X180261926Y-93120797D01*
X180240691Y-93123947D01*
X180219250Y-93125000D01*
X179781750Y-93125000D01*
X179760309Y-93123947D01*
X179739074Y-93120797D01*
X179718250Y-93115581D01*
X179698038Y-93108349D01*
X179678632Y-93099170D01*
X179660219Y-93088134D01*
X179642976Y-93075346D01*
X179627070Y-93060930D01*
X179612654Y-93045024D01*
X179599866Y-93027781D01*
X179588830Y-93009368D01*
X179579651Y-92989962D01*
X179572419Y-92969750D01*
X179567203Y-92948926D01*
X179564053Y-92927691D01*
X179563000Y-92906250D01*
X179563000Y-92393750D01*
X179564053Y-92372309D01*
X179567203Y-92351074D01*
X179572419Y-92330250D01*
X179579651Y-92310038D01*
X179588830Y-92290632D01*
X179599866Y-92272219D01*
X179612654Y-92254976D01*
X179627070Y-92239070D01*
X179642976Y-92224654D01*
X179660219Y-92211866D01*
X179678632Y-92200830D01*
X179698038Y-92191651D01*
X179718250Y-92184419D01*
X179739074Y-92179203D01*
X179760309Y-92176053D01*
X179781750Y-92175000D01*
X180219250Y-92175000D01*
X180240691Y-92176053D01*
X180240691Y-92176053D01*
G37*
D15*
X180000500Y-92650000D03*
D10*
G36*
X181815691Y-92176053D02*
G01*
X181836926Y-92179203D01*
X181857750Y-92184419D01*
X181877962Y-92191651D01*
X181897368Y-92200830D01*
X181915781Y-92211866D01*
X181933024Y-92224654D01*
X181948930Y-92239070D01*
X181963346Y-92254976D01*
X181976134Y-92272219D01*
X181987170Y-92290632D01*
X181996349Y-92310038D01*
X182003581Y-92330250D01*
X182008797Y-92351074D01*
X182011947Y-92372309D01*
X182013000Y-92393750D01*
X182013000Y-92906250D01*
X182011947Y-92927691D01*
X182008797Y-92948926D01*
X182003581Y-92969750D01*
X181996349Y-92989962D01*
X181987170Y-93009368D01*
X181976134Y-93027781D01*
X181963346Y-93045024D01*
X181948930Y-93060930D01*
X181933024Y-93075346D01*
X181915781Y-93088134D01*
X181897368Y-93099170D01*
X181877962Y-93108349D01*
X181857750Y-93115581D01*
X181836926Y-93120797D01*
X181815691Y-93123947D01*
X181794250Y-93125000D01*
X181356750Y-93125000D01*
X181335309Y-93123947D01*
X181314074Y-93120797D01*
X181293250Y-93115581D01*
X181273038Y-93108349D01*
X181253632Y-93099170D01*
X181235219Y-93088134D01*
X181217976Y-93075346D01*
X181202070Y-93060930D01*
X181187654Y-93045024D01*
X181174866Y-93027781D01*
X181163830Y-93009368D01*
X181154651Y-92989962D01*
X181147419Y-92969750D01*
X181142203Y-92948926D01*
X181139053Y-92927691D01*
X181138000Y-92906250D01*
X181138000Y-92393750D01*
X181139053Y-92372309D01*
X181142203Y-92351074D01*
X181147419Y-92330250D01*
X181154651Y-92310038D01*
X181163830Y-92290632D01*
X181174866Y-92272219D01*
X181187654Y-92254976D01*
X181202070Y-92239070D01*
X181217976Y-92224654D01*
X181235219Y-92211866D01*
X181253632Y-92200830D01*
X181273038Y-92191651D01*
X181293250Y-92184419D01*
X181314074Y-92179203D01*
X181335309Y-92176053D01*
X181356750Y-92175000D01*
X181794250Y-92175000D01*
X181815691Y-92176053D01*
X181815691Y-92176053D01*
G37*
D15*
X181575500Y-92650000D03*
D10*
G36*
X175017691Y-85486053D02*
G01*
X175038926Y-85489203D01*
X175059750Y-85494419D01*
X175079962Y-85501651D01*
X175099368Y-85510830D01*
X175117781Y-85521866D01*
X175135024Y-85534654D01*
X175150930Y-85549070D01*
X175165346Y-85564976D01*
X175178134Y-85582219D01*
X175189170Y-85600632D01*
X175198349Y-85620038D01*
X175205581Y-85640250D01*
X175210797Y-85661074D01*
X175213947Y-85682309D01*
X175215000Y-85703750D01*
X175215000Y-86141250D01*
X175213947Y-86162691D01*
X175210797Y-86183926D01*
X175205581Y-86204750D01*
X175198349Y-86224962D01*
X175189170Y-86244368D01*
X175178134Y-86262781D01*
X175165346Y-86280024D01*
X175150930Y-86295930D01*
X175135024Y-86310346D01*
X175117781Y-86323134D01*
X175099368Y-86334170D01*
X175079962Y-86343349D01*
X175059750Y-86350581D01*
X175038926Y-86355797D01*
X175017691Y-86358947D01*
X174996250Y-86360000D01*
X174483750Y-86360000D01*
X174462309Y-86358947D01*
X174441074Y-86355797D01*
X174420250Y-86350581D01*
X174400038Y-86343349D01*
X174380632Y-86334170D01*
X174362219Y-86323134D01*
X174344976Y-86310346D01*
X174329070Y-86295930D01*
X174314654Y-86280024D01*
X174301866Y-86262781D01*
X174290830Y-86244368D01*
X174281651Y-86224962D01*
X174274419Y-86204750D01*
X174269203Y-86183926D01*
X174266053Y-86162691D01*
X174265000Y-86141250D01*
X174265000Y-85703750D01*
X174266053Y-85682309D01*
X174269203Y-85661074D01*
X174274419Y-85640250D01*
X174281651Y-85620038D01*
X174290830Y-85600632D01*
X174301866Y-85582219D01*
X174314654Y-85564976D01*
X174329070Y-85549070D01*
X174344976Y-85534654D01*
X174362219Y-85521866D01*
X174380632Y-85510830D01*
X174400038Y-85501651D01*
X174420250Y-85494419D01*
X174441074Y-85489203D01*
X174462309Y-85486053D01*
X174483750Y-85485000D01*
X174996250Y-85485000D01*
X175017691Y-85486053D01*
X175017691Y-85486053D01*
G37*
D15*
X174740000Y-85922500D03*
D10*
G36*
X175017691Y-87061053D02*
G01*
X175038926Y-87064203D01*
X175059750Y-87069419D01*
X175079962Y-87076651D01*
X175099368Y-87085830D01*
X175117781Y-87096866D01*
X175135024Y-87109654D01*
X175150930Y-87124070D01*
X175165346Y-87139976D01*
X175178134Y-87157219D01*
X175189170Y-87175632D01*
X175198349Y-87195038D01*
X175205581Y-87215250D01*
X175210797Y-87236074D01*
X175213947Y-87257309D01*
X175215000Y-87278750D01*
X175215000Y-87716250D01*
X175213947Y-87737691D01*
X175210797Y-87758926D01*
X175205581Y-87779750D01*
X175198349Y-87799962D01*
X175189170Y-87819368D01*
X175178134Y-87837781D01*
X175165346Y-87855024D01*
X175150930Y-87870930D01*
X175135024Y-87885346D01*
X175117781Y-87898134D01*
X175099368Y-87909170D01*
X175079962Y-87918349D01*
X175059750Y-87925581D01*
X175038926Y-87930797D01*
X175017691Y-87933947D01*
X174996250Y-87935000D01*
X174483750Y-87935000D01*
X174462309Y-87933947D01*
X174441074Y-87930797D01*
X174420250Y-87925581D01*
X174400038Y-87918349D01*
X174380632Y-87909170D01*
X174362219Y-87898134D01*
X174344976Y-87885346D01*
X174329070Y-87870930D01*
X174314654Y-87855024D01*
X174301866Y-87837781D01*
X174290830Y-87819368D01*
X174281651Y-87799962D01*
X174274419Y-87779750D01*
X174269203Y-87758926D01*
X174266053Y-87737691D01*
X174265000Y-87716250D01*
X174265000Y-87278750D01*
X174266053Y-87257309D01*
X174269203Y-87236074D01*
X174274419Y-87215250D01*
X174281651Y-87195038D01*
X174290830Y-87175632D01*
X174301866Y-87157219D01*
X174314654Y-87139976D01*
X174329070Y-87124070D01*
X174344976Y-87109654D01*
X174362219Y-87096866D01*
X174380632Y-87085830D01*
X174400038Y-87076651D01*
X174420250Y-87069419D01*
X174441074Y-87064203D01*
X174462309Y-87061053D01*
X174483750Y-87060000D01*
X174996250Y-87060000D01*
X175017691Y-87061053D01*
X175017691Y-87061053D01*
G37*
D15*
X174740000Y-87497500D03*
D10*
G36*
X158457691Y-82759053D02*
G01*
X158478926Y-82762203D01*
X158499750Y-82767419D01*
X158519962Y-82774651D01*
X158539368Y-82783830D01*
X158557781Y-82794866D01*
X158575024Y-82807654D01*
X158590930Y-82822070D01*
X158605346Y-82837976D01*
X158618134Y-82855219D01*
X158629170Y-82873632D01*
X158638349Y-82893038D01*
X158645581Y-82913250D01*
X158650797Y-82934074D01*
X158653947Y-82955309D01*
X158655000Y-82976750D01*
X158655000Y-83414250D01*
X158653947Y-83435691D01*
X158650797Y-83456926D01*
X158645581Y-83477750D01*
X158638349Y-83497962D01*
X158629170Y-83517368D01*
X158618134Y-83535781D01*
X158605346Y-83553024D01*
X158590930Y-83568930D01*
X158575024Y-83583346D01*
X158557781Y-83596134D01*
X158539368Y-83607170D01*
X158519962Y-83616349D01*
X158499750Y-83623581D01*
X158478926Y-83628797D01*
X158457691Y-83631947D01*
X158436250Y-83633000D01*
X157923750Y-83633000D01*
X157902309Y-83631947D01*
X157881074Y-83628797D01*
X157860250Y-83623581D01*
X157840038Y-83616349D01*
X157820632Y-83607170D01*
X157802219Y-83596134D01*
X157784976Y-83583346D01*
X157769070Y-83568930D01*
X157754654Y-83553024D01*
X157741866Y-83535781D01*
X157730830Y-83517368D01*
X157721651Y-83497962D01*
X157714419Y-83477750D01*
X157709203Y-83456926D01*
X157706053Y-83435691D01*
X157705000Y-83414250D01*
X157705000Y-82976750D01*
X157706053Y-82955309D01*
X157709203Y-82934074D01*
X157714419Y-82913250D01*
X157721651Y-82893038D01*
X157730830Y-82873632D01*
X157741866Y-82855219D01*
X157754654Y-82837976D01*
X157769070Y-82822070D01*
X157784976Y-82807654D01*
X157802219Y-82794866D01*
X157820632Y-82783830D01*
X157840038Y-82774651D01*
X157860250Y-82767419D01*
X157881074Y-82762203D01*
X157902309Y-82759053D01*
X157923750Y-82758000D01*
X158436250Y-82758000D01*
X158457691Y-82759053D01*
X158457691Y-82759053D01*
G37*
D15*
X158180000Y-83195500D03*
D10*
G36*
X158457691Y-81184053D02*
G01*
X158478926Y-81187203D01*
X158499750Y-81192419D01*
X158519962Y-81199651D01*
X158539368Y-81208830D01*
X158557781Y-81219866D01*
X158575024Y-81232654D01*
X158590930Y-81247070D01*
X158605346Y-81262976D01*
X158618134Y-81280219D01*
X158629170Y-81298632D01*
X158638349Y-81318038D01*
X158645581Y-81338250D01*
X158650797Y-81359074D01*
X158653947Y-81380309D01*
X158655000Y-81401750D01*
X158655000Y-81839250D01*
X158653947Y-81860691D01*
X158650797Y-81881926D01*
X158645581Y-81902750D01*
X158638349Y-81922962D01*
X158629170Y-81942368D01*
X158618134Y-81960781D01*
X158605346Y-81978024D01*
X158590930Y-81993930D01*
X158575024Y-82008346D01*
X158557781Y-82021134D01*
X158539368Y-82032170D01*
X158519962Y-82041349D01*
X158499750Y-82048581D01*
X158478926Y-82053797D01*
X158457691Y-82056947D01*
X158436250Y-82058000D01*
X157923750Y-82058000D01*
X157902309Y-82056947D01*
X157881074Y-82053797D01*
X157860250Y-82048581D01*
X157840038Y-82041349D01*
X157820632Y-82032170D01*
X157802219Y-82021134D01*
X157784976Y-82008346D01*
X157769070Y-81993930D01*
X157754654Y-81978024D01*
X157741866Y-81960781D01*
X157730830Y-81942368D01*
X157721651Y-81922962D01*
X157714419Y-81902750D01*
X157709203Y-81881926D01*
X157706053Y-81860691D01*
X157705000Y-81839250D01*
X157705000Y-81401750D01*
X157706053Y-81380309D01*
X157709203Y-81359074D01*
X157714419Y-81338250D01*
X157721651Y-81318038D01*
X157730830Y-81298632D01*
X157741866Y-81280219D01*
X157754654Y-81262976D01*
X157769070Y-81247070D01*
X157784976Y-81232654D01*
X157802219Y-81219866D01*
X157820632Y-81208830D01*
X157840038Y-81199651D01*
X157860250Y-81192419D01*
X157881074Y-81187203D01*
X157902309Y-81184053D01*
X157923750Y-81183000D01*
X158436250Y-81183000D01*
X158457691Y-81184053D01*
X158457691Y-81184053D01*
G37*
D15*
X158180000Y-81620500D03*
D10*
G36*
X160137691Y-87073053D02*
G01*
X160158926Y-87076203D01*
X160179750Y-87081419D01*
X160199962Y-87088651D01*
X160219368Y-87097830D01*
X160237781Y-87108866D01*
X160255024Y-87121654D01*
X160270930Y-87136070D01*
X160285346Y-87151976D01*
X160298134Y-87169219D01*
X160309170Y-87187632D01*
X160318349Y-87207038D01*
X160325581Y-87227250D01*
X160330797Y-87248074D01*
X160333947Y-87269309D01*
X160335000Y-87290750D01*
X160335000Y-87728250D01*
X160333947Y-87749691D01*
X160330797Y-87770926D01*
X160325581Y-87791750D01*
X160318349Y-87811962D01*
X160309170Y-87831368D01*
X160298134Y-87849781D01*
X160285346Y-87867024D01*
X160270930Y-87882930D01*
X160255024Y-87897346D01*
X160237781Y-87910134D01*
X160219368Y-87921170D01*
X160199962Y-87930349D01*
X160179750Y-87937581D01*
X160158926Y-87942797D01*
X160137691Y-87945947D01*
X160116250Y-87947000D01*
X159603750Y-87947000D01*
X159582309Y-87945947D01*
X159561074Y-87942797D01*
X159540250Y-87937581D01*
X159520038Y-87930349D01*
X159500632Y-87921170D01*
X159482219Y-87910134D01*
X159464976Y-87897346D01*
X159449070Y-87882930D01*
X159434654Y-87867024D01*
X159421866Y-87849781D01*
X159410830Y-87831368D01*
X159401651Y-87811962D01*
X159394419Y-87791750D01*
X159389203Y-87770926D01*
X159386053Y-87749691D01*
X159385000Y-87728250D01*
X159385000Y-87290750D01*
X159386053Y-87269309D01*
X159389203Y-87248074D01*
X159394419Y-87227250D01*
X159401651Y-87207038D01*
X159410830Y-87187632D01*
X159421866Y-87169219D01*
X159434654Y-87151976D01*
X159449070Y-87136070D01*
X159464976Y-87121654D01*
X159482219Y-87108866D01*
X159500632Y-87097830D01*
X159520038Y-87088651D01*
X159540250Y-87081419D01*
X159561074Y-87076203D01*
X159582309Y-87073053D01*
X159603750Y-87072000D01*
X160116250Y-87072000D01*
X160137691Y-87073053D01*
X160137691Y-87073053D01*
G37*
D15*
X159860000Y-87509500D03*
D10*
G36*
X160137691Y-85498053D02*
G01*
X160158926Y-85501203D01*
X160179750Y-85506419D01*
X160199962Y-85513651D01*
X160219368Y-85522830D01*
X160237781Y-85533866D01*
X160255024Y-85546654D01*
X160270930Y-85561070D01*
X160285346Y-85576976D01*
X160298134Y-85594219D01*
X160309170Y-85612632D01*
X160318349Y-85632038D01*
X160325581Y-85652250D01*
X160330797Y-85673074D01*
X160333947Y-85694309D01*
X160335000Y-85715750D01*
X160335000Y-86153250D01*
X160333947Y-86174691D01*
X160330797Y-86195926D01*
X160325581Y-86216750D01*
X160318349Y-86236962D01*
X160309170Y-86256368D01*
X160298134Y-86274781D01*
X160285346Y-86292024D01*
X160270930Y-86307930D01*
X160255024Y-86322346D01*
X160237781Y-86335134D01*
X160219368Y-86346170D01*
X160199962Y-86355349D01*
X160179750Y-86362581D01*
X160158926Y-86367797D01*
X160137691Y-86370947D01*
X160116250Y-86372000D01*
X159603750Y-86372000D01*
X159582309Y-86370947D01*
X159561074Y-86367797D01*
X159540250Y-86362581D01*
X159520038Y-86355349D01*
X159500632Y-86346170D01*
X159482219Y-86335134D01*
X159464976Y-86322346D01*
X159449070Y-86307930D01*
X159434654Y-86292024D01*
X159421866Y-86274781D01*
X159410830Y-86256368D01*
X159401651Y-86236962D01*
X159394419Y-86216750D01*
X159389203Y-86195926D01*
X159386053Y-86174691D01*
X159385000Y-86153250D01*
X159385000Y-85715750D01*
X159386053Y-85694309D01*
X159389203Y-85673074D01*
X159394419Y-85652250D01*
X159401651Y-85632038D01*
X159410830Y-85612632D01*
X159421866Y-85594219D01*
X159434654Y-85576976D01*
X159449070Y-85561070D01*
X159464976Y-85546654D01*
X159482219Y-85533866D01*
X159500632Y-85522830D01*
X159520038Y-85513651D01*
X159540250Y-85506419D01*
X159561074Y-85501203D01*
X159582309Y-85498053D01*
X159603750Y-85497000D01*
X160116250Y-85497000D01*
X160137691Y-85498053D01*
X160137691Y-85498053D01*
G37*
D15*
X159860000Y-85934500D03*
D10*
G36*
X160137691Y-89384053D02*
G01*
X160158926Y-89387203D01*
X160179750Y-89392419D01*
X160199962Y-89399651D01*
X160219368Y-89408830D01*
X160237781Y-89419866D01*
X160255024Y-89432654D01*
X160270930Y-89447070D01*
X160285346Y-89462976D01*
X160298134Y-89480219D01*
X160309170Y-89498632D01*
X160318349Y-89518038D01*
X160325581Y-89538250D01*
X160330797Y-89559074D01*
X160333947Y-89580309D01*
X160335000Y-89601750D01*
X160335000Y-90039250D01*
X160333947Y-90060691D01*
X160330797Y-90081926D01*
X160325581Y-90102750D01*
X160318349Y-90122962D01*
X160309170Y-90142368D01*
X160298134Y-90160781D01*
X160285346Y-90178024D01*
X160270930Y-90193930D01*
X160255024Y-90208346D01*
X160237781Y-90221134D01*
X160219368Y-90232170D01*
X160199962Y-90241349D01*
X160179750Y-90248581D01*
X160158926Y-90253797D01*
X160137691Y-90256947D01*
X160116250Y-90258000D01*
X159603750Y-90258000D01*
X159582309Y-90256947D01*
X159561074Y-90253797D01*
X159540250Y-90248581D01*
X159520038Y-90241349D01*
X159500632Y-90232170D01*
X159482219Y-90221134D01*
X159464976Y-90208346D01*
X159449070Y-90193930D01*
X159434654Y-90178024D01*
X159421866Y-90160781D01*
X159410830Y-90142368D01*
X159401651Y-90122962D01*
X159394419Y-90102750D01*
X159389203Y-90081926D01*
X159386053Y-90060691D01*
X159385000Y-90039250D01*
X159385000Y-89601750D01*
X159386053Y-89580309D01*
X159389203Y-89559074D01*
X159394419Y-89538250D01*
X159401651Y-89518038D01*
X159410830Y-89498632D01*
X159421866Y-89480219D01*
X159434654Y-89462976D01*
X159449070Y-89447070D01*
X159464976Y-89432654D01*
X159482219Y-89419866D01*
X159500632Y-89408830D01*
X159520038Y-89399651D01*
X159540250Y-89392419D01*
X159561074Y-89387203D01*
X159582309Y-89384053D01*
X159603750Y-89383000D01*
X160116250Y-89383000D01*
X160137691Y-89384053D01*
X160137691Y-89384053D01*
G37*
D15*
X159860000Y-89820500D03*
D10*
G36*
X160137691Y-90959053D02*
G01*
X160158926Y-90962203D01*
X160179750Y-90967419D01*
X160199962Y-90974651D01*
X160219368Y-90983830D01*
X160237781Y-90994866D01*
X160255024Y-91007654D01*
X160270930Y-91022070D01*
X160285346Y-91037976D01*
X160298134Y-91055219D01*
X160309170Y-91073632D01*
X160318349Y-91093038D01*
X160325581Y-91113250D01*
X160330797Y-91134074D01*
X160333947Y-91155309D01*
X160335000Y-91176750D01*
X160335000Y-91614250D01*
X160333947Y-91635691D01*
X160330797Y-91656926D01*
X160325581Y-91677750D01*
X160318349Y-91697962D01*
X160309170Y-91717368D01*
X160298134Y-91735781D01*
X160285346Y-91753024D01*
X160270930Y-91768930D01*
X160255024Y-91783346D01*
X160237781Y-91796134D01*
X160219368Y-91807170D01*
X160199962Y-91816349D01*
X160179750Y-91823581D01*
X160158926Y-91828797D01*
X160137691Y-91831947D01*
X160116250Y-91833000D01*
X159603750Y-91833000D01*
X159582309Y-91831947D01*
X159561074Y-91828797D01*
X159540250Y-91823581D01*
X159520038Y-91816349D01*
X159500632Y-91807170D01*
X159482219Y-91796134D01*
X159464976Y-91783346D01*
X159449070Y-91768930D01*
X159434654Y-91753024D01*
X159421866Y-91735781D01*
X159410830Y-91717368D01*
X159401651Y-91697962D01*
X159394419Y-91677750D01*
X159389203Y-91656926D01*
X159386053Y-91635691D01*
X159385000Y-91614250D01*
X159385000Y-91176750D01*
X159386053Y-91155309D01*
X159389203Y-91134074D01*
X159394419Y-91113250D01*
X159401651Y-91093038D01*
X159410830Y-91073632D01*
X159421866Y-91055219D01*
X159434654Y-91037976D01*
X159449070Y-91022070D01*
X159464976Y-91007654D01*
X159482219Y-90994866D01*
X159500632Y-90983830D01*
X159520038Y-90974651D01*
X159540250Y-90967419D01*
X159561074Y-90962203D01*
X159582309Y-90959053D01*
X159603750Y-90958000D01*
X160116250Y-90958000D01*
X160137691Y-90959053D01*
X160137691Y-90959053D01*
G37*
D15*
X159860000Y-91395500D03*
D10*
G36*
X158457691Y-85518053D02*
G01*
X158478926Y-85521203D01*
X158499750Y-85526419D01*
X158519962Y-85533651D01*
X158539368Y-85542830D01*
X158557781Y-85553866D01*
X158575024Y-85566654D01*
X158590930Y-85581070D01*
X158605346Y-85596976D01*
X158618134Y-85614219D01*
X158629170Y-85632632D01*
X158638349Y-85652038D01*
X158645581Y-85672250D01*
X158650797Y-85693074D01*
X158653947Y-85714309D01*
X158655000Y-85735750D01*
X158655000Y-86173250D01*
X158653947Y-86194691D01*
X158650797Y-86215926D01*
X158645581Y-86236750D01*
X158638349Y-86256962D01*
X158629170Y-86276368D01*
X158618134Y-86294781D01*
X158605346Y-86312024D01*
X158590930Y-86327930D01*
X158575024Y-86342346D01*
X158557781Y-86355134D01*
X158539368Y-86366170D01*
X158519962Y-86375349D01*
X158499750Y-86382581D01*
X158478926Y-86387797D01*
X158457691Y-86390947D01*
X158436250Y-86392000D01*
X157923750Y-86392000D01*
X157902309Y-86390947D01*
X157881074Y-86387797D01*
X157860250Y-86382581D01*
X157840038Y-86375349D01*
X157820632Y-86366170D01*
X157802219Y-86355134D01*
X157784976Y-86342346D01*
X157769070Y-86327930D01*
X157754654Y-86312024D01*
X157741866Y-86294781D01*
X157730830Y-86276368D01*
X157721651Y-86256962D01*
X157714419Y-86236750D01*
X157709203Y-86215926D01*
X157706053Y-86194691D01*
X157705000Y-86173250D01*
X157705000Y-85735750D01*
X157706053Y-85714309D01*
X157709203Y-85693074D01*
X157714419Y-85672250D01*
X157721651Y-85652038D01*
X157730830Y-85632632D01*
X157741866Y-85614219D01*
X157754654Y-85596976D01*
X157769070Y-85581070D01*
X157784976Y-85566654D01*
X157802219Y-85553866D01*
X157820632Y-85542830D01*
X157840038Y-85533651D01*
X157860250Y-85526419D01*
X157881074Y-85521203D01*
X157902309Y-85518053D01*
X157923750Y-85517000D01*
X158436250Y-85517000D01*
X158457691Y-85518053D01*
X158457691Y-85518053D01*
G37*
D15*
X158180000Y-85954500D03*
D10*
G36*
X158457691Y-87093053D02*
G01*
X158478926Y-87096203D01*
X158499750Y-87101419D01*
X158519962Y-87108651D01*
X158539368Y-87117830D01*
X158557781Y-87128866D01*
X158575024Y-87141654D01*
X158590930Y-87156070D01*
X158605346Y-87171976D01*
X158618134Y-87189219D01*
X158629170Y-87207632D01*
X158638349Y-87227038D01*
X158645581Y-87247250D01*
X158650797Y-87268074D01*
X158653947Y-87289309D01*
X158655000Y-87310750D01*
X158655000Y-87748250D01*
X158653947Y-87769691D01*
X158650797Y-87790926D01*
X158645581Y-87811750D01*
X158638349Y-87831962D01*
X158629170Y-87851368D01*
X158618134Y-87869781D01*
X158605346Y-87887024D01*
X158590930Y-87902930D01*
X158575024Y-87917346D01*
X158557781Y-87930134D01*
X158539368Y-87941170D01*
X158519962Y-87950349D01*
X158499750Y-87957581D01*
X158478926Y-87962797D01*
X158457691Y-87965947D01*
X158436250Y-87967000D01*
X157923750Y-87967000D01*
X157902309Y-87965947D01*
X157881074Y-87962797D01*
X157860250Y-87957581D01*
X157840038Y-87950349D01*
X157820632Y-87941170D01*
X157802219Y-87930134D01*
X157784976Y-87917346D01*
X157769070Y-87902930D01*
X157754654Y-87887024D01*
X157741866Y-87869781D01*
X157730830Y-87851368D01*
X157721651Y-87831962D01*
X157714419Y-87811750D01*
X157709203Y-87790926D01*
X157706053Y-87769691D01*
X157705000Y-87748250D01*
X157705000Y-87310750D01*
X157706053Y-87289309D01*
X157709203Y-87268074D01*
X157714419Y-87247250D01*
X157721651Y-87227038D01*
X157730830Y-87207632D01*
X157741866Y-87189219D01*
X157754654Y-87171976D01*
X157769070Y-87156070D01*
X157784976Y-87141654D01*
X157802219Y-87128866D01*
X157820632Y-87117830D01*
X157840038Y-87108651D01*
X157860250Y-87101419D01*
X157881074Y-87096203D01*
X157902309Y-87093053D01*
X157923750Y-87092000D01*
X158436250Y-87092000D01*
X158457691Y-87093053D01*
X158457691Y-87093053D01*
G37*
D15*
X158180000Y-87529500D03*
D10*
G36*
X158457691Y-91003053D02*
G01*
X158478926Y-91006203D01*
X158499750Y-91011419D01*
X158519962Y-91018651D01*
X158539368Y-91027830D01*
X158557781Y-91038866D01*
X158575024Y-91051654D01*
X158590930Y-91066070D01*
X158605346Y-91081976D01*
X158618134Y-91099219D01*
X158629170Y-91117632D01*
X158638349Y-91137038D01*
X158645581Y-91157250D01*
X158650797Y-91178074D01*
X158653947Y-91199309D01*
X158655000Y-91220750D01*
X158655000Y-91658250D01*
X158653947Y-91679691D01*
X158650797Y-91700926D01*
X158645581Y-91721750D01*
X158638349Y-91741962D01*
X158629170Y-91761368D01*
X158618134Y-91779781D01*
X158605346Y-91797024D01*
X158590930Y-91812930D01*
X158575024Y-91827346D01*
X158557781Y-91840134D01*
X158539368Y-91851170D01*
X158519962Y-91860349D01*
X158499750Y-91867581D01*
X158478926Y-91872797D01*
X158457691Y-91875947D01*
X158436250Y-91877000D01*
X157923750Y-91877000D01*
X157902309Y-91875947D01*
X157881074Y-91872797D01*
X157860250Y-91867581D01*
X157840038Y-91860349D01*
X157820632Y-91851170D01*
X157802219Y-91840134D01*
X157784976Y-91827346D01*
X157769070Y-91812930D01*
X157754654Y-91797024D01*
X157741866Y-91779781D01*
X157730830Y-91761368D01*
X157721651Y-91741962D01*
X157714419Y-91721750D01*
X157709203Y-91700926D01*
X157706053Y-91679691D01*
X157705000Y-91658250D01*
X157705000Y-91220750D01*
X157706053Y-91199309D01*
X157709203Y-91178074D01*
X157714419Y-91157250D01*
X157721651Y-91137038D01*
X157730830Y-91117632D01*
X157741866Y-91099219D01*
X157754654Y-91081976D01*
X157769070Y-91066070D01*
X157784976Y-91051654D01*
X157802219Y-91038866D01*
X157820632Y-91027830D01*
X157840038Y-91018651D01*
X157860250Y-91011419D01*
X157881074Y-91006203D01*
X157902309Y-91003053D01*
X157923750Y-91002000D01*
X158436250Y-91002000D01*
X158457691Y-91003053D01*
X158457691Y-91003053D01*
G37*
D15*
X158180000Y-91439500D03*
D10*
G36*
X158457691Y-89428053D02*
G01*
X158478926Y-89431203D01*
X158499750Y-89436419D01*
X158519962Y-89443651D01*
X158539368Y-89452830D01*
X158557781Y-89463866D01*
X158575024Y-89476654D01*
X158590930Y-89491070D01*
X158605346Y-89506976D01*
X158618134Y-89524219D01*
X158629170Y-89542632D01*
X158638349Y-89562038D01*
X158645581Y-89582250D01*
X158650797Y-89603074D01*
X158653947Y-89624309D01*
X158655000Y-89645750D01*
X158655000Y-90083250D01*
X158653947Y-90104691D01*
X158650797Y-90125926D01*
X158645581Y-90146750D01*
X158638349Y-90166962D01*
X158629170Y-90186368D01*
X158618134Y-90204781D01*
X158605346Y-90222024D01*
X158590930Y-90237930D01*
X158575024Y-90252346D01*
X158557781Y-90265134D01*
X158539368Y-90276170D01*
X158519962Y-90285349D01*
X158499750Y-90292581D01*
X158478926Y-90297797D01*
X158457691Y-90300947D01*
X158436250Y-90302000D01*
X157923750Y-90302000D01*
X157902309Y-90300947D01*
X157881074Y-90297797D01*
X157860250Y-90292581D01*
X157840038Y-90285349D01*
X157820632Y-90276170D01*
X157802219Y-90265134D01*
X157784976Y-90252346D01*
X157769070Y-90237930D01*
X157754654Y-90222024D01*
X157741866Y-90204781D01*
X157730830Y-90186368D01*
X157721651Y-90166962D01*
X157714419Y-90146750D01*
X157709203Y-90125926D01*
X157706053Y-90104691D01*
X157705000Y-90083250D01*
X157705000Y-89645750D01*
X157706053Y-89624309D01*
X157709203Y-89603074D01*
X157714419Y-89582250D01*
X157721651Y-89562038D01*
X157730830Y-89542632D01*
X157741866Y-89524219D01*
X157754654Y-89506976D01*
X157769070Y-89491070D01*
X157784976Y-89476654D01*
X157802219Y-89463866D01*
X157820632Y-89452830D01*
X157840038Y-89443651D01*
X157860250Y-89436419D01*
X157881074Y-89431203D01*
X157902309Y-89428053D01*
X157923750Y-89427000D01*
X158436250Y-89427000D01*
X158457691Y-89428053D01*
X158457691Y-89428053D01*
G37*
D15*
X158180000Y-89864500D03*
D10*
G36*
X202209691Y-85113053D02*
G01*
X202230926Y-85116203D01*
X202251750Y-85121419D01*
X202271962Y-85128651D01*
X202291368Y-85137830D01*
X202309781Y-85148866D01*
X202327024Y-85161654D01*
X202342930Y-85176070D01*
X202357346Y-85191976D01*
X202370134Y-85209219D01*
X202381170Y-85227632D01*
X202390349Y-85247038D01*
X202397581Y-85267250D01*
X202402797Y-85288074D01*
X202405947Y-85309309D01*
X202407000Y-85330750D01*
X202407000Y-85843250D01*
X202405947Y-85864691D01*
X202402797Y-85885926D01*
X202397581Y-85906750D01*
X202390349Y-85926962D01*
X202381170Y-85946368D01*
X202370134Y-85964781D01*
X202357346Y-85982024D01*
X202342930Y-85997930D01*
X202327024Y-86012346D01*
X202309781Y-86025134D01*
X202291368Y-86036170D01*
X202271962Y-86045349D01*
X202251750Y-86052581D01*
X202230926Y-86057797D01*
X202209691Y-86060947D01*
X202188250Y-86062000D01*
X201750750Y-86062000D01*
X201729309Y-86060947D01*
X201708074Y-86057797D01*
X201687250Y-86052581D01*
X201667038Y-86045349D01*
X201647632Y-86036170D01*
X201629219Y-86025134D01*
X201611976Y-86012346D01*
X201596070Y-85997930D01*
X201581654Y-85982024D01*
X201568866Y-85964781D01*
X201557830Y-85946368D01*
X201548651Y-85926962D01*
X201541419Y-85906750D01*
X201536203Y-85885926D01*
X201533053Y-85864691D01*
X201532000Y-85843250D01*
X201532000Y-85330750D01*
X201533053Y-85309309D01*
X201536203Y-85288074D01*
X201541419Y-85267250D01*
X201548651Y-85247038D01*
X201557830Y-85227632D01*
X201568866Y-85209219D01*
X201581654Y-85191976D01*
X201596070Y-85176070D01*
X201611976Y-85161654D01*
X201629219Y-85148866D01*
X201647632Y-85137830D01*
X201667038Y-85128651D01*
X201687250Y-85121419D01*
X201708074Y-85116203D01*
X201729309Y-85113053D01*
X201750750Y-85112000D01*
X202188250Y-85112000D01*
X202209691Y-85113053D01*
X202209691Y-85113053D01*
G37*
D15*
X201969500Y-85587000D03*
D10*
G36*
X200634691Y-85113053D02*
G01*
X200655926Y-85116203D01*
X200676750Y-85121419D01*
X200696962Y-85128651D01*
X200716368Y-85137830D01*
X200734781Y-85148866D01*
X200752024Y-85161654D01*
X200767930Y-85176070D01*
X200782346Y-85191976D01*
X200795134Y-85209219D01*
X200806170Y-85227632D01*
X200815349Y-85247038D01*
X200822581Y-85267250D01*
X200827797Y-85288074D01*
X200830947Y-85309309D01*
X200832000Y-85330750D01*
X200832000Y-85843250D01*
X200830947Y-85864691D01*
X200827797Y-85885926D01*
X200822581Y-85906750D01*
X200815349Y-85926962D01*
X200806170Y-85946368D01*
X200795134Y-85964781D01*
X200782346Y-85982024D01*
X200767930Y-85997930D01*
X200752024Y-86012346D01*
X200734781Y-86025134D01*
X200716368Y-86036170D01*
X200696962Y-86045349D01*
X200676750Y-86052581D01*
X200655926Y-86057797D01*
X200634691Y-86060947D01*
X200613250Y-86062000D01*
X200175750Y-86062000D01*
X200154309Y-86060947D01*
X200133074Y-86057797D01*
X200112250Y-86052581D01*
X200092038Y-86045349D01*
X200072632Y-86036170D01*
X200054219Y-86025134D01*
X200036976Y-86012346D01*
X200021070Y-85997930D01*
X200006654Y-85982024D01*
X199993866Y-85964781D01*
X199982830Y-85946368D01*
X199973651Y-85926962D01*
X199966419Y-85906750D01*
X199961203Y-85885926D01*
X199958053Y-85864691D01*
X199957000Y-85843250D01*
X199957000Y-85330750D01*
X199958053Y-85309309D01*
X199961203Y-85288074D01*
X199966419Y-85267250D01*
X199973651Y-85247038D01*
X199982830Y-85227632D01*
X199993866Y-85209219D01*
X200006654Y-85191976D01*
X200021070Y-85176070D01*
X200036976Y-85161654D01*
X200054219Y-85148866D01*
X200072632Y-85137830D01*
X200092038Y-85128651D01*
X200112250Y-85121419D01*
X200133074Y-85116203D01*
X200154309Y-85113053D01*
X200175750Y-85112000D01*
X200613250Y-85112000D01*
X200634691Y-85113053D01*
X200634691Y-85113053D01*
G37*
D15*
X200394500Y-85587000D03*
D10*
G36*
X200634691Y-83526053D02*
G01*
X200655926Y-83529203D01*
X200676750Y-83534419D01*
X200696962Y-83541651D01*
X200716368Y-83550830D01*
X200734781Y-83561866D01*
X200752024Y-83574654D01*
X200767930Y-83589070D01*
X200782346Y-83604976D01*
X200795134Y-83622219D01*
X200806170Y-83640632D01*
X200815349Y-83660038D01*
X200822581Y-83680250D01*
X200827797Y-83701074D01*
X200830947Y-83722309D01*
X200832000Y-83743750D01*
X200832000Y-84256250D01*
X200830947Y-84277691D01*
X200827797Y-84298926D01*
X200822581Y-84319750D01*
X200815349Y-84339962D01*
X200806170Y-84359368D01*
X200795134Y-84377781D01*
X200782346Y-84395024D01*
X200767930Y-84410930D01*
X200752024Y-84425346D01*
X200734781Y-84438134D01*
X200716368Y-84449170D01*
X200696962Y-84458349D01*
X200676750Y-84465581D01*
X200655926Y-84470797D01*
X200634691Y-84473947D01*
X200613250Y-84475000D01*
X200175750Y-84475000D01*
X200154309Y-84473947D01*
X200133074Y-84470797D01*
X200112250Y-84465581D01*
X200092038Y-84458349D01*
X200072632Y-84449170D01*
X200054219Y-84438134D01*
X200036976Y-84425346D01*
X200021070Y-84410930D01*
X200006654Y-84395024D01*
X199993866Y-84377781D01*
X199982830Y-84359368D01*
X199973651Y-84339962D01*
X199966419Y-84319750D01*
X199961203Y-84298926D01*
X199958053Y-84277691D01*
X199957000Y-84256250D01*
X199957000Y-83743750D01*
X199958053Y-83722309D01*
X199961203Y-83701074D01*
X199966419Y-83680250D01*
X199973651Y-83660038D01*
X199982830Y-83640632D01*
X199993866Y-83622219D01*
X200006654Y-83604976D01*
X200021070Y-83589070D01*
X200036976Y-83574654D01*
X200054219Y-83561866D01*
X200072632Y-83550830D01*
X200092038Y-83541651D01*
X200112250Y-83534419D01*
X200133074Y-83529203D01*
X200154309Y-83526053D01*
X200175750Y-83525000D01*
X200613250Y-83525000D01*
X200634691Y-83526053D01*
X200634691Y-83526053D01*
G37*
D15*
X200394500Y-84000000D03*
D10*
G36*
X202209691Y-83526053D02*
G01*
X202230926Y-83529203D01*
X202251750Y-83534419D01*
X202271962Y-83541651D01*
X202291368Y-83550830D01*
X202309781Y-83561866D01*
X202327024Y-83574654D01*
X202342930Y-83589070D01*
X202357346Y-83604976D01*
X202370134Y-83622219D01*
X202381170Y-83640632D01*
X202390349Y-83660038D01*
X202397581Y-83680250D01*
X202402797Y-83701074D01*
X202405947Y-83722309D01*
X202407000Y-83743750D01*
X202407000Y-84256250D01*
X202405947Y-84277691D01*
X202402797Y-84298926D01*
X202397581Y-84319750D01*
X202390349Y-84339962D01*
X202381170Y-84359368D01*
X202370134Y-84377781D01*
X202357346Y-84395024D01*
X202342930Y-84410930D01*
X202327024Y-84425346D01*
X202309781Y-84438134D01*
X202291368Y-84449170D01*
X202271962Y-84458349D01*
X202251750Y-84465581D01*
X202230926Y-84470797D01*
X202209691Y-84473947D01*
X202188250Y-84475000D01*
X201750750Y-84475000D01*
X201729309Y-84473947D01*
X201708074Y-84470797D01*
X201687250Y-84465581D01*
X201667038Y-84458349D01*
X201647632Y-84449170D01*
X201629219Y-84438134D01*
X201611976Y-84425346D01*
X201596070Y-84410930D01*
X201581654Y-84395024D01*
X201568866Y-84377781D01*
X201557830Y-84359368D01*
X201548651Y-84339962D01*
X201541419Y-84319750D01*
X201536203Y-84298926D01*
X201533053Y-84277691D01*
X201532000Y-84256250D01*
X201532000Y-83743750D01*
X201533053Y-83722309D01*
X201536203Y-83701074D01*
X201541419Y-83680250D01*
X201548651Y-83660038D01*
X201557830Y-83640632D01*
X201568866Y-83622219D01*
X201581654Y-83604976D01*
X201596070Y-83589070D01*
X201611976Y-83574654D01*
X201629219Y-83561866D01*
X201647632Y-83550830D01*
X201667038Y-83541651D01*
X201687250Y-83534419D01*
X201708074Y-83529203D01*
X201729309Y-83526053D01*
X201750750Y-83525000D01*
X202188250Y-83525000D01*
X202209691Y-83526053D01*
X202209691Y-83526053D01*
G37*
D15*
X201969500Y-84000000D03*
D10*
G36*
X164327691Y-90026053D02*
G01*
X164348926Y-90029203D01*
X164369750Y-90034419D01*
X164389962Y-90041651D01*
X164409368Y-90050830D01*
X164427781Y-90061866D01*
X164445024Y-90074654D01*
X164460930Y-90089070D01*
X164475346Y-90104976D01*
X164488134Y-90122219D01*
X164499170Y-90140632D01*
X164508349Y-90160038D01*
X164515581Y-90180250D01*
X164520797Y-90201074D01*
X164523947Y-90222309D01*
X164525000Y-90243750D01*
X164525000Y-90756250D01*
X164523947Y-90777691D01*
X164520797Y-90798926D01*
X164515581Y-90819750D01*
X164508349Y-90839962D01*
X164499170Y-90859368D01*
X164488134Y-90877781D01*
X164475346Y-90895024D01*
X164460930Y-90910930D01*
X164445024Y-90925346D01*
X164427781Y-90938134D01*
X164409368Y-90949170D01*
X164389962Y-90958349D01*
X164369750Y-90965581D01*
X164348926Y-90970797D01*
X164327691Y-90973947D01*
X164306250Y-90975000D01*
X163868750Y-90975000D01*
X163847309Y-90973947D01*
X163826074Y-90970797D01*
X163805250Y-90965581D01*
X163785038Y-90958349D01*
X163765632Y-90949170D01*
X163747219Y-90938134D01*
X163729976Y-90925346D01*
X163714070Y-90910930D01*
X163699654Y-90895024D01*
X163686866Y-90877781D01*
X163675830Y-90859368D01*
X163666651Y-90839962D01*
X163659419Y-90819750D01*
X163654203Y-90798926D01*
X163651053Y-90777691D01*
X163650000Y-90756250D01*
X163650000Y-90243750D01*
X163651053Y-90222309D01*
X163654203Y-90201074D01*
X163659419Y-90180250D01*
X163666651Y-90160038D01*
X163675830Y-90140632D01*
X163686866Y-90122219D01*
X163699654Y-90104976D01*
X163714070Y-90089070D01*
X163729976Y-90074654D01*
X163747219Y-90061866D01*
X163765632Y-90050830D01*
X163785038Y-90041651D01*
X163805250Y-90034419D01*
X163826074Y-90029203D01*
X163847309Y-90026053D01*
X163868750Y-90025000D01*
X164306250Y-90025000D01*
X164327691Y-90026053D01*
X164327691Y-90026053D01*
G37*
D15*
X164087500Y-90500000D03*
D10*
G36*
X162752691Y-90026053D02*
G01*
X162773926Y-90029203D01*
X162794750Y-90034419D01*
X162814962Y-90041651D01*
X162834368Y-90050830D01*
X162852781Y-90061866D01*
X162870024Y-90074654D01*
X162885930Y-90089070D01*
X162900346Y-90104976D01*
X162913134Y-90122219D01*
X162924170Y-90140632D01*
X162933349Y-90160038D01*
X162940581Y-90180250D01*
X162945797Y-90201074D01*
X162948947Y-90222309D01*
X162950000Y-90243750D01*
X162950000Y-90756250D01*
X162948947Y-90777691D01*
X162945797Y-90798926D01*
X162940581Y-90819750D01*
X162933349Y-90839962D01*
X162924170Y-90859368D01*
X162913134Y-90877781D01*
X162900346Y-90895024D01*
X162885930Y-90910930D01*
X162870024Y-90925346D01*
X162852781Y-90938134D01*
X162834368Y-90949170D01*
X162814962Y-90958349D01*
X162794750Y-90965581D01*
X162773926Y-90970797D01*
X162752691Y-90973947D01*
X162731250Y-90975000D01*
X162293750Y-90975000D01*
X162272309Y-90973947D01*
X162251074Y-90970797D01*
X162230250Y-90965581D01*
X162210038Y-90958349D01*
X162190632Y-90949170D01*
X162172219Y-90938134D01*
X162154976Y-90925346D01*
X162139070Y-90910930D01*
X162124654Y-90895024D01*
X162111866Y-90877781D01*
X162100830Y-90859368D01*
X162091651Y-90839962D01*
X162084419Y-90819750D01*
X162079203Y-90798926D01*
X162076053Y-90777691D01*
X162075000Y-90756250D01*
X162075000Y-90243750D01*
X162076053Y-90222309D01*
X162079203Y-90201074D01*
X162084419Y-90180250D01*
X162091651Y-90160038D01*
X162100830Y-90140632D01*
X162111866Y-90122219D01*
X162124654Y-90104976D01*
X162139070Y-90089070D01*
X162154976Y-90074654D01*
X162172219Y-90061866D01*
X162190632Y-90050830D01*
X162210038Y-90041651D01*
X162230250Y-90034419D01*
X162251074Y-90029203D01*
X162272309Y-90026053D01*
X162293750Y-90025000D01*
X162731250Y-90025000D01*
X162752691Y-90026053D01*
X162752691Y-90026053D01*
G37*
D15*
X162512500Y-90500000D03*
D10*
G36*
X140477691Y-79936053D02*
G01*
X140498926Y-79939203D01*
X140519750Y-79944419D01*
X140539962Y-79951651D01*
X140559368Y-79960830D01*
X140577781Y-79971866D01*
X140595024Y-79984654D01*
X140610930Y-79999070D01*
X140625346Y-80014976D01*
X140638134Y-80032219D01*
X140649170Y-80050632D01*
X140658349Y-80070038D01*
X140665581Y-80090250D01*
X140670797Y-80111074D01*
X140673947Y-80132309D01*
X140675000Y-80153750D01*
X140675000Y-80666250D01*
X140673947Y-80687691D01*
X140670797Y-80708926D01*
X140665581Y-80729750D01*
X140658349Y-80749962D01*
X140649170Y-80769368D01*
X140638134Y-80787781D01*
X140625346Y-80805024D01*
X140610930Y-80820930D01*
X140595024Y-80835346D01*
X140577781Y-80848134D01*
X140559368Y-80859170D01*
X140539962Y-80868349D01*
X140519750Y-80875581D01*
X140498926Y-80880797D01*
X140477691Y-80883947D01*
X140456250Y-80885000D01*
X140018750Y-80885000D01*
X139997309Y-80883947D01*
X139976074Y-80880797D01*
X139955250Y-80875581D01*
X139935038Y-80868349D01*
X139915632Y-80859170D01*
X139897219Y-80848134D01*
X139879976Y-80835346D01*
X139864070Y-80820930D01*
X139849654Y-80805024D01*
X139836866Y-80787781D01*
X139825830Y-80769368D01*
X139816651Y-80749962D01*
X139809419Y-80729750D01*
X139804203Y-80708926D01*
X139801053Y-80687691D01*
X139800000Y-80666250D01*
X139800000Y-80153750D01*
X139801053Y-80132309D01*
X139804203Y-80111074D01*
X139809419Y-80090250D01*
X139816651Y-80070038D01*
X139825830Y-80050632D01*
X139836866Y-80032219D01*
X139849654Y-80014976D01*
X139864070Y-79999070D01*
X139879976Y-79984654D01*
X139897219Y-79971866D01*
X139915632Y-79960830D01*
X139935038Y-79951651D01*
X139955250Y-79944419D01*
X139976074Y-79939203D01*
X139997309Y-79936053D01*
X140018750Y-79935000D01*
X140456250Y-79935000D01*
X140477691Y-79936053D01*
X140477691Y-79936053D01*
G37*
D15*
X140237500Y-80410000D03*
D10*
G36*
X138902691Y-79936053D02*
G01*
X138923926Y-79939203D01*
X138944750Y-79944419D01*
X138964962Y-79951651D01*
X138984368Y-79960830D01*
X139002781Y-79971866D01*
X139020024Y-79984654D01*
X139035930Y-79999070D01*
X139050346Y-80014976D01*
X139063134Y-80032219D01*
X139074170Y-80050632D01*
X139083349Y-80070038D01*
X139090581Y-80090250D01*
X139095797Y-80111074D01*
X139098947Y-80132309D01*
X139100000Y-80153750D01*
X139100000Y-80666250D01*
X139098947Y-80687691D01*
X139095797Y-80708926D01*
X139090581Y-80729750D01*
X139083349Y-80749962D01*
X139074170Y-80769368D01*
X139063134Y-80787781D01*
X139050346Y-80805024D01*
X139035930Y-80820930D01*
X139020024Y-80835346D01*
X139002781Y-80848134D01*
X138984368Y-80859170D01*
X138964962Y-80868349D01*
X138944750Y-80875581D01*
X138923926Y-80880797D01*
X138902691Y-80883947D01*
X138881250Y-80885000D01*
X138443750Y-80885000D01*
X138422309Y-80883947D01*
X138401074Y-80880797D01*
X138380250Y-80875581D01*
X138360038Y-80868349D01*
X138340632Y-80859170D01*
X138322219Y-80848134D01*
X138304976Y-80835346D01*
X138289070Y-80820930D01*
X138274654Y-80805024D01*
X138261866Y-80787781D01*
X138250830Y-80769368D01*
X138241651Y-80749962D01*
X138234419Y-80729750D01*
X138229203Y-80708926D01*
X138226053Y-80687691D01*
X138225000Y-80666250D01*
X138225000Y-80153750D01*
X138226053Y-80132309D01*
X138229203Y-80111074D01*
X138234419Y-80090250D01*
X138241651Y-80070038D01*
X138250830Y-80050632D01*
X138261866Y-80032219D01*
X138274654Y-80014976D01*
X138289070Y-79999070D01*
X138304976Y-79984654D01*
X138322219Y-79971866D01*
X138340632Y-79960830D01*
X138360038Y-79951651D01*
X138380250Y-79944419D01*
X138401074Y-79939203D01*
X138422309Y-79936053D01*
X138443750Y-79935000D01*
X138881250Y-79935000D01*
X138902691Y-79936053D01*
X138902691Y-79936053D01*
G37*
D15*
X138662500Y-80410000D03*
D14*
X142130000Y-83620000D03*
X142130000Y-85620000D03*
X142130000Y-87620000D03*
X142130000Y-89620000D03*
D16*
X139030000Y-87800000D03*
X139030000Y-87150000D03*
X139030000Y-86500000D03*
X139030000Y-85850000D03*
X139030000Y-85200000D03*
D10*
G36*
X202209691Y-86699053D02*
G01*
X202230926Y-86702203D01*
X202251750Y-86707419D01*
X202271962Y-86714651D01*
X202291368Y-86723830D01*
X202309781Y-86734866D01*
X202327024Y-86747654D01*
X202342930Y-86762070D01*
X202357346Y-86777976D01*
X202370134Y-86795219D01*
X202381170Y-86813632D01*
X202390349Y-86833038D01*
X202397581Y-86853250D01*
X202402797Y-86874074D01*
X202405947Y-86895309D01*
X202407000Y-86916750D01*
X202407000Y-87429250D01*
X202405947Y-87450691D01*
X202402797Y-87471926D01*
X202397581Y-87492750D01*
X202390349Y-87512962D01*
X202381170Y-87532368D01*
X202370134Y-87550781D01*
X202357346Y-87568024D01*
X202342930Y-87583930D01*
X202327024Y-87598346D01*
X202309781Y-87611134D01*
X202291368Y-87622170D01*
X202271962Y-87631349D01*
X202251750Y-87638581D01*
X202230926Y-87643797D01*
X202209691Y-87646947D01*
X202188250Y-87648000D01*
X201750750Y-87648000D01*
X201729309Y-87646947D01*
X201708074Y-87643797D01*
X201687250Y-87638581D01*
X201667038Y-87631349D01*
X201647632Y-87622170D01*
X201629219Y-87611134D01*
X201611976Y-87598346D01*
X201596070Y-87583930D01*
X201581654Y-87568024D01*
X201568866Y-87550781D01*
X201557830Y-87532368D01*
X201548651Y-87512962D01*
X201541419Y-87492750D01*
X201536203Y-87471926D01*
X201533053Y-87450691D01*
X201532000Y-87429250D01*
X201532000Y-86916750D01*
X201533053Y-86895309D01*
X201536203Y-86874074D01*
X201541419Y-86853250D01*
X201548651Y-86833038D01*
X201557830Y-86813632D01*
X201568866Y-86795219D01*
X201581654Y-86777976D01*
X201596070Y-86762070D01*
X201611976Y-86747654D01*
X201629219Y-86734866D01*
X201647632Y-86723830D01*
X201667038Y-86714651D01*
X201687250Y-86707419D01*
X201708074Y-86702203D01*
X201729309Y-86699053D01*
X201750750Y-86698000D01*
X202188250Y-86698000D01*
X202209691Y-86699053D01*
X202209691Y-86699053D01*
G37*
D15*
X201969500Y-87173000D03*
D10*
G36*
X200634691Y-86699053D02*
G01*
X200655926Y-86702203D01*
X200676750Y-86707419D01*
X200696962Y-86714651D01*
X200716368Y-86723830D01*
X200734781Y-86734866D01*
X200752024Y-86747654D01*
X200767930Y-86762070D01*
X200782346Y-86777976D01*
X200795134Y-86795219D01*
X200806170Y-86813632D01*
X200815349Y-86833038D01*
X200822581Y-86853250D01*
X200827797Y-86874074D01*
X200830947Y-86895309D01*
X200832000Y-86916750D01*
X200832000Y-87429250D01*
X200830947Y-87450691D01*
X200827797Y-87471926D01*
X200822581Y-87492750D01*
X200815349Y-87512962D01*
X200806170Y-87532368D01*
X200795134Y-87550781D01*
X200782346Y-87568024D01*
X200767930Y-87583930D01*
X200752024Y-87598346D01*
X200734781Y-87611134D01*
X200716368Y-87622170D01*
X200696962Y-87631349D01*
X200676750Y-87638581D01*
X200655926Y-87643797D01*
X200634691Y-87646947D01*
X200613250Y-87648000D01*
X200175750Y-87648000D01*
X200154309Y-87646947D01*
X200133074Y-87643797D01*
X200112250Y-87638581D01*
X200092038Y-87631349D01*
X200072632Y-87622170D01*
X200054219Y-87611134D01*
X200036976Y-87598346D01*
X200021070Y-87583930D01*
X200006654Y-87568024D01*
X199993866Y-87550781D01*
X199982830Y-87532368D01*
X199973651Y-87512962D01*
X199966419Y-87492750D01*
X199961203Y-87471926D01*
X199958053Y-87450691D01*
X199957000Y-87429250D01*
X199957000Y-86916750D01*
X199958053Y-86895309D01*
X199961203Y-86874074D01*
X199966419Y-86853250D01*
X199973651Y-86833038D01*
X199982830Y-86813632D01*
X199993866Y-86795219D01*
X200006654Y-86777976D01*
X200021070Y-86762070D01*
X200036976Y-86747654D01*
X200054219Y-86734866D01*
X200072632Y-86723830D01*
X200092038Y-86714651D01*
X200112250Y-86707419D01*
X200133074Y-86702203D01*
X200154309Y-86699053D01*
X200175750Y-86698000D01*
X200613250Y-86698000D01*
X200634691Y-86699053D01*
X200634691Y-86699053D01*
G37*
D15*
X200394500Y-87173000D03*
D10*
G36*
X200634691Y-88286053D02*
G01*
X200655926Y-88289203D01*
X200676750Y-88294419D01*
X200696962Y-88301651D01*
X200716368Y-88310830D01*
X200734781Y-88321866D01*
X200752024Y-88334654D01*
X200767930Y-88349070D01*
X200782346Y-88364976D01*
X200795134Y-88382219D01*
X200806170Y-88400632D01*
X200815349Y-88420038D01*
X200822581Y-88440250D01*
X200827797Y-88461074D01*
X200830947Y-88482309D01*
X200832000Y-88503750D01*
X200832000Y-89016250D01*
X200830947Y-89037691D01*
X200827797Y-89058926D01*
X200822581Y-89079750D01*
X200815349Y-89099962D01*
X200806170Y-89119368D01*
X200795134Y-89137781D01*
X200782346Y-89155024D01*
X200767930Y-89170930D01*
X200752024Y-89185346D01*
X200734781Y-89198134D01*
X200716368Y-89209170D01*
X200696962Y-89218349D01*
X200676750Y-89225581D01*
X200655926Y-89230797D01*
X200634691Y-89233947D01*
X200613250Y-89235000D01*
X200175750Y-89235000D01*
X200154309Y-89233947D01*
X200133074Y-89230797D01*
X200112250Y-89225581D01*
X200092038Y-89218349D01*
X200072632Y-89209170D01*
X200054219Y-89198134D01*
X200036976Y-89185346D01*
X200021070Y-89170930D01*
X200006654Y-89155024D01*
X199993866Y-89137781D01*
X199982830Y-89119368D01*
X199973651Y-89099962D01*
X199966419Y-89079750D01*
X199961203Y-89058926D01*
X199958053Y-89037691D01*
X199957000Y-89016250D01*
X199957000Y-88503750D01*
X199958053Y-88482309D01*
X199961203Y-88461074D01*
X199966419Y-88440250D01*
X199973651Y-88420038D01*
X199982830Y-88400632D01*
X199993866Y-88382219D01*
X200006654Y-88364976D01*
X200021070Y-88349070D01*
X200036976Y-88334654D01*
X200054219Y-88321866D01*
X200072632Y-88310830D01*
X200092038Y-88301651D01*
X200112250Y-88294419D01*
X200133074Y-88289203D01*
X200154309Y-88286053D01*
X200175750Y-88285000D01*
X200613250Y-88285000D01*
X200634691Y-88286053D01*
X200634691Y-88286053D01*
G37*
D15*
X200394500Y-88760000D03*
D10*
G36*
X202209691Y-88286053D02*
G01*
X202230926Y-88289203D01*
X202251750Y-88294419D01*
X202271962Y-88301651D01*
X202291368Y-88310830D01*
X202309781Y-88321866D01*
X202327024Y-88334654D01*
X202342930Y-88349070D01*
X202357346Y-88364976D01*
X202370134Y-88382219D01*
X202381170Y-88400632D01*
X202390349Y-88420038D01*
X202397581Y-88440250D01*
X202402797Y-88461074D01*
X202405947Y-88482309D01*
X202407000Y-88503750D01*
X202407000Y-89016250D01*
X202405947Y-89037691D01*
X202402797Y-89058926D01*
X202397581Y-89079750D01*
X202390349Y-89099962D01*
X202381170Y-89119368D01*
X202370134Y-89137781D01*
X202357346Y-89155024D01*
X202342930Y-89170930D01*
X202327024Y-89185346D01*
X202309781Y-89198134D01*
X202291368Y-89209170D01*
X202271962Y-89218349D01*
X202251750Y-89225581D01*
X202230926Y-89230797D01*
X202209691Y-89233947D01*
X202188250Y-89235000D01*
X201750750Y-89235000D01*
X201729309Y-89233947D01*
X201708074Y-89230797D01*
X201687250Y-89225581D01*
X201667038Y-89218349D01*
X201647632Y-89209170D01*
X201629219Y-89198134D01*
X201611976Y-89185346D01*
X201596070Y-89170930D01*
X201581654Y-89155024D01*
X201568866Y-89137781D01*
X201557830Y-89119368D01*
X201548651Y-89099962D01*
X201541419Y-89079750D01*
X201536203Y-89058926D01*
X201533053Y-89037691D01*
X201532000Y-89016250D01*
X201532000Y-88503750D01*
X201533053Y-88482309D01*
X201536203Y-88461074D01*
X201541419Y-88440250D01*
X201548651Y-88420038D01*
X201557830Y-88400632D01*
X201568866Y-88382219D01*
X201581654Y-88364976D01*
X201596070Y-88349070D01*
X201611976Y-88334654D01*
X201629219Y-88321866D01*
X201647632Y-88310830D01*
X201667038Y-88301651D01*
X201687250Y-88294419D01*
X201708074Y-88289203D01*
X201729309Y-88286053D01*
X201750750Y-88285000D01*
X202188250Y-88285000D01*
X202209691Y-88286053D01*
X202209691Y-88286053D01*
G37*
D15*
X201969500Y-88760000D03*
D10*
G36*
X190387691Y-87909053D02*
G01*
X190408926Y-87912203D01*
X190429750Y-87917419D01*
X190449962Y-87924651D01*
X190469368Y-87933830D01*
X190487781Y-87944866D01*
X190505024Y-87957654D01*
X190520930Y-87972070D01*
X190535346Y-87987976D01*
X190548134Y-88005219D01*
X190559170Y-88023632D01*
X190568349Y-88043038D01*
X190575581Y-88063250D01*
X190580797Y-88084074D01*
X190583947Y-88105309D01*
X190585000Y-88126750D01*
X190585000Y-88564250D01*
X190583947Y-88585691D01*
X190580797Y-88606926D01*
X190575581Y-88627750D01*
X190568349Y-88647962D01*
X190559170Y-88667368D01*
X190548134Y-88685781D01*
X190535346Y-88703024D01*
X190520930Y-88718930D01*
X190505024Y-88733346D01*
X190487781Y-88746134D01*
X190469368Y-88757170D01*
X190449962Y-88766349D01*
X190429750Y-88773581D01*
X190408926Y-88778797D01*
X190387691Y-88781947D01*
X190366250Y-88783000D01*
X189853750Y-88783000D01*
X189832309Y-88781947D01*
X189811074Y-88778797D01*
X189790250Y-88773581D01*
X189770038Y-88766349D01*
X189750632Y-88757170D01*
X189732219Y-88746134D01*
X189714976Y-88733346D01*
X189699070Y-88718930D01*
X189684654Y-88703024D01*
X189671866Y-88685781D01*
X189660830Y-88667368D01*
X189651651Y-88647962D01*
X189644419Y-88627750D01*
X189639203Y-88606926D01*
X189636053Y-88585691D01*
X189635000Y-88564250D01*
X189635000Y-88126750D01*
X189636053Y-88105309D01*
X189639203Y-88084074D01*
X189644419Y-88063250D01*
X189651651Y-88043038D01*
X189660830Y-88023632D01*
X189671866Y-88005219D01*
X189684654Y-87987976D01*
X189699070Y-87972070D01*
X189714976Y-87957654D01*
X189732219Y-87944866D01*
X189750632Y-87933830D01*
X189770038Y-87924651D01*
X189790250Y-87917419D01*
X189811074Y-87912203D01*
X189832309Y-87909053D01*
X189853750Y-87908000D01*
X190366250Y-87908000D01*
X190387691Y-87909053D01*
X190387691Y-87909053D01*
G37*
D15*
X190110000Y-88345500D03*
D10*
G36*
X190387691Y-86334053D02*
G01*
X190408926Y-86337203D01*
X190429750Y-86342419D01*
X190449962Y-86349651D01*
X190469368Y-86358830D01*
X190487781Y-86369866D01*
X190505024Y-86382654D01*
X190520930Y-86397070D01*
X190535346Y-86412976D01*
X190548134Y-86430219D01*
X190559170Y-86448632D01*
X190568349Y-86468038D01*
X190575581Y-86488250D01*
X190580797Y-86509074D01*
X190583947Y-86530309D01*
X190585000Y-86551750D01*
X190585000Y-86989250D01*
X190583947Y-87010691D01*
X190580797Y-87031926D01*
X190575581Y-87052750D01*
X190568349Y-87072962D01*
X190559170Y-87092368D01*
X190548134Y-87110781D01*
X190535346Y-87128024D01*
X190520930Y-87143930D01*
X190505024Y-87158346D01*
X190487781Y-87171134D01*
X190469368Y-87182170D01*
X190449962Y-87191349D01*
X190429750Y-87198581D01*
X190408926Y-87203797D01*
X190387691Y-87206947D01*
X190366250Y-87208000D01*
X189853750Y-87208000D01*
X189832309Y-87206947D01*
X189811074Y-87203797D01*
X189790250Y-87198581D01*
X189770038Y-87191349D01*
X189750632Y-87182170D01*
X189732219Y-87171134D01*
X189714976Y-87158346D01*
X189699070Y-87143930D01*
X189684654Y-87128024D01*
X189671866Y-87110781D01*
X189660830Y-87092368D01*
X189651651Y-87072962D01*
X189644419Y-87052750D01*
X189639203Y-87031926D01*
X189636053Y-87010691D01*
X189635000Y-86989250D01*
X189635000Y-86551750D01*
X189636053Y-86530309D01*
X189639203Y-86509074D01*
X189644419Y-86488250D01*
X189651651Y-86468038D01*
X189660830Y-86448632D01*
X189671866Y-86430219D01*
X189684654Y-86412976D01*
X189699070Y-86397070D01*
X189714976Y-86382654D01*
X189732219Y-86369866D01*
X189750632Y-86358830D01*
X189770038Y-86349651D01*
X189790250Y-86342419D01*
X189811074Y-86337203D01*
X189832309Y-86334053D01*
X189853750Y-86333000D01*
X190366250Y-86333000D01*
X190387691Y-86334053D01*
X190387691Y-86334053D01*
G37*
D15*
X190110000Y-86770500D03*
D17*
X164300000Y-84450000D03*
X164300000Y-88600000D03*
X162150000Y-84450000D03*
X162150000Y-88600000D03*
D10*
G36*
X193424703Y-84515722D02*
G01*
X193439264Y-84517882D01*
X193453543Y-84521459D01*
X193467403Y-84526418D01*
X193480710Y-84532712D01*
X193493336Y-84540280D01*
X193505159Y-84549048D01*
X193516066Y-84558934D01*
X193525952Y-84569841D01*
X193534720Y-84581664D01*
X193542288Y-84594290D01*
X193548582Y-84607597D01*
X193553541Y-84621457D01*
X193557118Y-84635736D01*
X193559278Y-84650297D01*
X193560000Y-84665000D01*
X193560000Y-84965000D01*
X193559278Y-84979703D01*
X193557118Y-84994264D01*
X193553541Y-85008543D01*
X193548582Y-85022403D01*
X193542288Y-85035710D01*
X193534720Y-85048336D01*
X193525952Y-85060159D01*
X193516066Y-85071066D01*
X193505159Y-85080952D01*
X193493336Y-85089720D01*
X193480710Y-85097288D01*
X193467403Y-85103582D01*
X193453543Y-85108541D01*
X193439264Y-85112118D01*
X193424703Y-85114278D01*
X193410000Y-85115000D01*
X191960000Y-85115000D01*
X191945297Y-85114278D01*
X191930736Y-85112118D01*
X191916457Y-85108541D01*
X191902597Y-85103582D01*
X191889290Y-85097288D01*
X191876664Y-85089720D01*
X191864841Y-85080952D01*
X191853934Y-85071066D01*
X191844048Y-85060159D01*
X191835280Y-85048336D01*
X191827712Y-85035710D01*
X191821418Y-85022403D01*
X191816459Y-85008543D01*
X191812882Y-84994264D01*
X191810722Y-84979703D01*
X191810000Y-84965000D01*
X191810000Y-84665000D01*
X191810722Y-84650297D01*
X191812882Y-84635736D01*
X191816459Y-84621457D01*
X191821418Y-84607597D01*
X191827712Y-84594290D01*
X191835280Y-84581664D01*
X191844048Y-84569841D01*
X191853934Y-84558934D01*
X191864841Y-84549048D01*
X191876664Y-84540280D01*
X191889290Y-84532712D01*
X191902597Y-84526418D01*
X191916457Y-84521459D01*
X191930736Y-84517882D01*
X191945297Y-84515722D01*
X191960000Y-84515000D01*
X193410000Y-84515000D01*
X193424703Y-84515722D01*
X193424703Y-84515722D01*
G37*
D18*
X192685000Y-84815000D03*
D10*
G36*
X193424703Y-85785722D02*
G01*
X193439264Y-85787882D01*
X193453543Y-85791459D01*
X193467403Y-85796418D01*
X193480710Y-85802712D01*
X193493336Y-85810280D01*
X193505159Y-85819048D01*
X193516066Y-85828934D01*
X193525952Y-85839841D01*
X193534720Y-85851664D01*
X193542288Y-85864290D01*
X193548582Y-85877597D01*
X193553541Y-85891457D01*
X193557118Y-85905736D01*
X193559278Y-85920297D01*
X193560000Y-85935000D01*
X193560000Y-86235000D01*
X193559278Y-86249703D01*
X193557118Y-86264264D01*
X193553541Y-86278543D01*
X193548582Y-86292403D01*
X193542288Y-86305710D01*
X193534720Y-86318336D01*
X193525952Y-86330159D01*
X193516066Y-86341066D01*
X193505159Y-86350952D01*
X193493336Y-86359720D01*
X193480710Y-86367288D01*
X193467403Y-86373582D01*
X193453543Y-86378541D01*
X193439264Y-86382118D01*
X193424703Y-86384278D01*
X193410000Y-86385000D01*
X191960000Y-86385000D01*
X191945297Y-86384278D01*
X191930736Y-86382118D01*
X191916457Y-86378541D01*
X191902597Y-86373582D01*
X191889290Y-86367288D01*
X191876664Y-86359720D01*
X191864841Y-86350952D01*
X191853934Y-86341066D01*
X191844048Y-86330159D01*
X191835280Y-86318336D01*
X191827712Y-86305710D01*
X191821418Y-86292403D01*
X191816459Y-86278543D01*
X191812882Y-86264264D01*
X191810722Y-86249703D01*
X191810000Y-86235000D01*
X191810000Y-85935000D01*
X191810722Y-85920297D01*
X191812882Y-85905736D01*
X191816459Y-85891457D01*
X191821418Y-85877597D01*
X191827712Y-85864290D01*
X191835280Y-85851664D01*
X191844048Y-85839841D01*
X191853934Y-85828934D01*
X191864841Y-85819048D01*
X191876664Y-85810280D01*
X191889290Y-85802712D01*
X191902597Y-85796418D01*
X191916457Y-85791459D01*
X191930736Y-85787882D01*
X191945297Y-85785722D01*
X191960000Y-85785000D01*
X193410000Y-85785000D01*
X193424703Y-85785722D01*
X193424703Y-85785722D01*
G37*
D18*
X192685000Y-86085000D03*
D10*
G36*
X193424703Y-87055722D02*
G01*
X193439264Y-87057882D01*
X193453543Y-87061459D01*
X193467403Y-87066418D01*
X193480710Y-87072712D01*
X193493336Y-87080280D01*
X193505159Y-87089048D01*
X193516066Y-87098934D01*
X193525952Y-87109841D01*
X193534720Y-87121664D01*
X193542288Y-87134290D01*
X193548582Y-87147597D01*
X193553541Y-87161457D01*
X193557118Y-87175736D01*
X193559278Y-87190297D01*
X193560000Y-87205000D01*
X193560000Y-87505000D01*
X193559278Y-87519703D01*
X193557118Y-87534264D01*
X193553541Y-87548543D01*
X193548582Y-87562403D01*
X193542288Y-87575710D01*
X193534720Y-87588336D01*
X193525952Y-87600159D01*
X193516066Y-87611066D01*
X193505159Y-87620952D01*
X193493336Y-87629720D01*
X193480710Y-87637288D01*
X193467403Y-87643582D01*
X193453543Y-87648541D01*
X193439264Y-87652118D01*
X193424703Y-87654278D01*
X193410000Y-87655000D01*
X191960000Y-87655000D01*
X191945297Y-87654278D01*
X191930736Y-87652118D01*
X191916457Y-87648541D01*
X191902597Y-87643582D01*
X191889290Y-87637288D01*
X191876664Y-87629720D01*
X191864841Y-87620952D01*
X191853934Y-87611066D01*
X191844048Y-87600159D01*
X191835280Y-87588336D01*
X191827712Y-87575710D01*
X191821418Y-87562403D01*
X191816459Y-87548543D01*
X191812882Y-87534264D01*
X191810722Y-87519703D01*
X191810000Y-87505000D01*
X191810000Y-87205000D01*
X191810722Y-87190297D01*
X191812882Y-87175736D01*
X191816459Y-87161457D01*
X191821418Y-87147597D01*
X191827712Y-87134290D01*
X191835280Y-87121664D01*
X191844048Y-87109841D01*
X191853934Y-87098934D01*
X191864841Y-87089048D01*
X191876664Y-87080280D01*
X191889290Y-87072712D01*
X191902597Y-87066418D01*
X191916457Y-87061459D01*
X191930736Y-87057882D01*
X191945297Y-87055722D01*
X191960000Y-87055000D01*
X193410000Y-87055000D01*
X193424703Y-87055722D01*
X193424703Y-87055722D01*
G37*
D18*
X192685000Y-87355000D03*
D10*
G36*
X193424703Y-88325722D02*
G01*
X193439264Y-88327882D01*
X193453543Y-88331459D01*
X193467403Y-88336418D01*
X193480710Y-88342712D01*
X193493336Y-88350280D01*
X193505159Y-88359048D01*
X193516066Y-88368934D01*
X193525952Y-88379841D01*
X193534720Y-88391664D01*
X193542288Y-88404290D01*
X193548582Y-88417597D01*
X193553541Y-88431457D01*
X193557118Y-88445736D01*
X193559278Y-88460297D01*
X193560000Y-88475000D01*
X193560000Y-88775000D01*
X193559278Y-88789703D01*
X193557118Y-88804264D01*
X193553541Y-88818543D01*
X193548582Y-88832403D01*
X193542288Y-88845710D01*
X193534720Y-88858336D01*
X193525952Y-88870159D01*
X193516066Y-88881066D01*
X193505159Y-88890952D01*
X193493336Y-88899720D01*
X193480710Y-88907288D01*
X193467403Y-88913582D01*
X193453543Y-88918541D01*
X193439264Y-88922118D01*
X193424703Y-88924278D01*
X193410000Y-88925000D01*
X191960000Y-88925000D01*
X191945297Y-88924278D01*
X191930736Y-88922118D01*
X191916457Y-88918541D01*
X191902597Y-88913582D01*
X191889290Y-88907288D01*
X191876664Y-88899720D01*
X191864841Y-88890952D01*
X191853934Y-88881066D01*
X191844048Y-88870159D01*
X191835280Y-88858336D01*
X191827712Y-88845710D01*
X191821418Y-88832403D01*
X191816459Y-88818543D01*
X191812882Y-88804264D01*
X191810722Y-88789703D01*
X191810000Y-88775000D01*
X191810000Y-88475000D01*
X191810722Y-88460297D01*
X191812882Y-88445736D01*
X191816459Y-88431457D01*
X191821418Y-88417597D01*
X191827712Y-88404290D01*
X191835280Y-88391664D01*
X191844048Y-88379841D01*
X191853934Y-88368934D01*
X191864841Y-88359048D01*
X191876664Y-88350280D01*
X191889290Y-88342712D01*
X191902597Y-88336418D01*
X191916457Y-88331459D01*
X191930736Y-88327882D01*
X191945297Y-88325722D01*
X191960000Y-88325000D01*
X193410000Y-88325000D01*
X193424703Y-88325722D01*
X193424703Y-88325722D01*
G37*
D18*
X192685000Y-88625000D03*
D10*
G36*
X198574703Y-88325722D02*
G01*
X198589264Y-88327882D01*
X198603543Y-88331459D01*
X198617403Y-88336418D01*
X198630710Y-88342712D01*
X198643336Y-88350280D01*
X198655159Y-88359048D01*
X198666066Y-88368934D01*
X198675952Y-88379841D01*
X198684720Y-88391664D01*
X198692288Y-88404290D01*
X198698582Y-88417597D01*
X198703541Y-88431457D01*
X198707118Y-88445736D01*
X198709278Y-88460297D01*
X198710000Y-88475000D01*
X198710000Y-88775000D01*
X198709278Y-88789703D01*
X198707118Y-88804264D01*
X198703541Y-88818543D01*
X198698582Y-88832403D01*
X198692288Y-88845710D01*
X198684720Y-88858336D01*
X198675952Y-88870159D01*
X198666066Y-88881066D01*
X198655159Y-88890952D01*
X198643336Y-88899720D01*
X198630710Y-88907288D01*
X198617403Y-88913582D01*
X198603543Y-88918541D01*
X198589264Y-88922118D01*
X198574703Y-88924278D01*
X198560000Y-88925000D01*
X197110000Y-88925000D01*
X197095297Y-88924278D01*
X197080736Y-88922118D01*
X197066457Y-88918541D01*
X197052597Y-88913582D01*
X197039290Y-88907288D01*
X197026664Y-88899720D01*
X197014841Y-88890952D01*
X197003934Y-88881066D01*
X196994048Y-88870159D01*
X196985280Y-88858336D01*
X196977712Y-88845710D01*
X196971418Y-88832403D01*
X196966459Y-88818543D01*
X196962882Y-88804264D01*
X196960722Y-88789703D01*
X196960000Y-88775000D01*
X196960000Y-88475000D01*
X196960722Y-88460297D01*
X196962882Y-88445736D01*
X196966459Y-88431457D01*
X196971418Y-88417597D01*
X196977712Y-88404290D01*
X196985280Y-88391664D01*
X196994048Y-88379841D01*
X197003934Y-88368934D01*
X197014841Y-88359048D01*
X197026664Y-88350280D01*
X197039290Y-88342712D01*
X197052597Y-88336418D01*
X197066457Y-88331459D01*
X197080736Y-88327882D01*
X197095297Y-88325722D01*
X197110000Y-88325000D01*
X198560000Y-88325000D01*
X198574703Y-88325722D01*
X198574703Y-88325722D01*
G37*
D18*
X197835000Y-88625000D03*
D10*
G36*
X198574703Y-87055722D02*
G01*
X198589264Y-87057882D01*
X198603543Y-87061459D01*
X198617403Y-87066418D01*
X198630710Y-87072712D01*
X198643336Y-87080280D01*
X198655159Y-87089048D01*
X198666066Y-87098934D01*
X198675952Y-87109841D01*
X198684720Y-87121664D01*
X198692288Y-87134290D01*
X198698582Y-87147597D01*
X198703541Y-87161457D01*
X198707118Y-87175736D01*
X198709278Y-87190297D01*
X198710000Y-87205000D01*
X198710000Y-87505000D01*
X198709278Y-87519703D01*
X198707118Y-87534264D01*
X198703541Y-87548543D01*
X198698582Y-87562403D01*
X198692288Y-87575710D01*
X198684720Y-87588336D01*
X198675952Y-87600159D01*
X198666066Y-87611066D01*
X198655159Y-87620952D01*
X198643336Y-87629720D01*
X198630710Y-87637288D01*
X198617403Y-87643582D01*
X198603543Y-87648541D01*
X198589264Y-87652118D01*
X198574703Y-87654278D01*
X198560000Y-87655000D01*
X197110000Y-87655000D01*
X197095297Y-87654278D01*
X197080736Y-87652118D01*
X197066457Y-87648541D01*
X197052597Y-87643582D01*
X197039290Y-87637288D01*
X197026664Y-87629720D01*
X197014841Y-87620952D01*
X197003934Y-87611066D01*
X196994048Y-87600159D01*
X196985280Y-87588336D01*
X196977712Y-87575710D01*
X196971418Y-87562403D01*
X196966459Y-87548543D01*
X196962882Y-87534264D01*
X196960722Y-87519703D01*
X196960000Y-87505000D01*
X196960000Y-87205000D01*
X196960722Y-87190297D01*
X196962882Y-87175736D01*
X196966459Y-87161457D01*
X196971418Y-87147597D01*
X196977712Y-87134290D01*
X196985280Y-87121664D01*
X196994048Y-87109841D01*
X197003934Y-87098934D01*
X197014841Y-87089048D01*
X197026664Y-87080280D01*
X197039290Y-87072712D01*
X197052597Y-87066418D01*
X197066457Y-87061459D01*
X197080736Y-87057882D01*
X197095297Y-87055722D01*
X197110000Y-87055000D01*
X198560000Y-87055000D01*
X198574703Y-87055722D01*
X198574703Y-87055722D01*
G37*
D18*
X197835000Y-87355000D03*
D10*
G36*
X198574703Y-85785722D02*
G01*
X198589264Y-85787882D01*
X198603543Y-85791459D01*
X198617403Y-85796418D01*
X198630710Y-85802712D01*
X198643336Y-85810280D01*
X198655159Y-85819048D01*
X198666066Y-85828934D01*
X198675952Y-85839841D01*
X198684720Y-85851664D01*
X198692288Y-85864290D01*
X198698582Y-85877597D01*
X198703541Y-85891457D01*
X198707118Y-85905736D01*
X198709278Y-85920297D01*
X198710000Y-85935000D01*
X198710000Y-86235000D01*
X198709278Y-86249703D01*
X198707118Y-86264264D01*
X198703541Y-86278543D01*
X198698582Y-86292403D01*
X198692288Y-86305710D01*
X198684720Y-86318336D01*
X198675952Y-86330159D01*
X198666066Y-86341066D01*
X198655159Y-86350952D01*
X198643336Y-86359720D01*
X198630710Y-86367288D01*
X198617403Y-86373582D01*
X198603543Y-86378541D01*
X198589264Y-86382118D01*
X198574703Y-86384278D01*
X198560000Y-86385000D01*
X197110000Y-86385000D01*
X197095297Y-86384278D01*
X197080736Y-86382118D01*
X197066457Y-86378541D01*
X197052597Y-86373582D01*
X197039290Y-86367288D01*
X197026664Y-86359720D01*
X197014841Y-86350952D01*
X197003934Y-86341066D01*
X196994048Y-86330159D01*
X196985280Y-86318336D01*
X196977712Y-86305710D01*
X196971418Y-86292403D01*
X196966459Y-86278543D01*
X196962882Y-86264264D01*
X196960722Y-86249703D01*
X196960000Y-86235000D01*
X196960000Y-85935000D01*
X196960722Y-85920297D01*
X196962882Y-85905736D01*
X196966459Y-85891457D01*
X196971418Y-85877597D01*
X196977712Y-85864290D01*
X196985280Y-85851664D01*
X196994048Y-85839841D01*
X197003934Y-85828934D01*
X197014841Y-85819048D01*
X197026664Y-85810280D01*
X197039290Y-85802712D01*
X197052597Y-85796418D01*
X197066457Y-85791459D01*
X197080736Y-85787882D01*
X197095297Y-85785722D01*
X197110000Y-85785000D01*
X198560000Y-85785000D01*
X198574703Y-85785722D01*
X198574703Y-85785722D01*
G37*
D18*
X197835000Y-86085000D03*
D10*
G36*
X198574703Y-84515722D02*
G01*
X198589264Y-84517882D01*
X198603543Y-84521459D01*
X198617403Y-84526418D01*
X198630710Y-84532712D01*
X198643336Y-84540280D01*
X198655159Y-84549048D01*
X198666066Y-84558934D01*
X198675952Y-84569841D01*
X198684720Y-84581664D01*
X198692288Y-84594290D01*
X198698582Y-84607597D01*
X198703541Y-84621457D01*
X198707118Y-84635736D01*
X198709278Y-84650297D01*
X198710000Y-84665000D01*
X198710000Y-84965000D01*
X198709278Y-84979703D01*
X198707118Y-84994264D01*
X198703541Y-85008543D01*
X198698582Y-85022403D01*
X198692288Y-85035710D01*
X198684720Y-85048336D01*
X198675952Y-85060159D01*
X198666066Y-85071066D01*
X198655159Y-85080952D01*
X198643336Y-85089720D01*
X198630710Y-85097288D01*
X198617403Y-85103582D01*
X198603543Y-85108541D01*
X198589264Y-85112118D01*
X198574703Y-85114278D01*
X198560000Y-85115000D01*
X197110000Y-85115000D01*
X197095297Y-85114278D01*
X197080736Y-85112118D01*
X197066457Y-85108541D01*
X197052597Y-85103582D01*
X197039290Y-85097288D01*
X197026664Y-85089720D01*
X197014841Y-85080952D01*
X197003934Y-85071066D01*
X196994048Y-85060159D01*
X196985280Y-85048336D01*
X196977712Y-85035710D01*
X196971418Y-85022403D01*
X196966459Y-85008543D01*
X196962882Y-84994264D01*
X196960722Y-84979703D01*
X196960000Y-84965000D01*
X196960000Y-84665000D01*
X196960722Y-84650297D01*
X196962882Y-84635736D01*
X196966459Y-84621457D01*
X196971418Y-84607597D01*
X196977712Y-84594290D01*
X196985280Y-84581664D01*
X196994048Y-84569841D01*
X197003934Y-84558934D01*
X197014841Y-84549048D01*
X197026664Y-84540280D01*
X197039290Y-84532712D01*
X197052597Y-84526418D01*
X197066457Y-84521459D01*
X197080736Y-84517882D01*
X197095297Y-84515722D01*
X197110000Y-84515000D01*
X198560000Y-84515000D01*
X198574703Y-84515722D01*
X198574703Y-84515722D01*
G37*
D18*
X197835000Y-84815000D03*
D10*
G36*
X153182142Y-83981174D02*
G01*
X153205803Y-83984684D01*
X153229007Y-83990496D01*
X153251529Y-83998554D01*
X153273153Y-84008782D01*
X153293670Y-84021079D01*
X153312883Y-84035329D01*
X153330607Y-84051393D01*
X153346671Y-84069117D01*
X153360921Y-84088330D01*
X153373218Y-84108847D01*
X153383446Y-84130471D01*
X153391504Y-84152993D01*
X153397316Y-84176197D01*
X153400826Y-84199858D01*
X153402000Y-84223750D01*
X153402000Y-85136250D01*
X153400826Y-85160142D01*
X153397316Y-85183803D01*
X153391504Y-85207007D01*
X153383446Y-85229529D01*
X153373218Y-85251153D01*
X153360921Y-85271670D01*
X153346671Y-85290883D01*
X153330607Y-85308607D01*
X153312883Y-85324671D01*
X153293670Y-85338921D01*
X153273153Y-85351218D01*
X153251529Y-85361446D01*
X153229007Y-85369504D01*
X153205803Y-85375316D01*
X153182142Y-85378826D01*
X153158250Y-85380000D01*
X152670750Y-85380000D01*
X152646858Y-85378826D01*
X152623197Y-85375316D01*
X152599993Y-85369504D01*
X152577471Y-85361446D01*
X152555847Y-85351218D01*
X152535330Y-85338921D01*
X152516117Y-85324671D01*
X152498393Y-85308607D01*
X152482329Y-85290883D01*
X152468079Y-85271670D01*
X152455782Y-85251153D01*
X152445554Y-85229529D01*
X152437496Y-85207007D01*
X152431684Y-85183803D01*
X152428174Y-85160142D01*
X152427000Y-85136250D01*
X152427000Y-84223750D01*
X152428174Y-84199858D01*
X152431684Y-84176197D01*
X152437496Y-84152993D01*
X152445554Y-84130471D01*
X152455782Y-84108847D01*
X152468079Y-84088330D01*
X152482329Y-84069117D01*
X152498393Y-84051393D01*
X152516117Y-84035329D01*
X152535330Y-84021079D01*
X152555847Y-84008782D01*
X152577471Y-83998554D01*
X152599993Y-83990496D01*
X152623197Y-83984684D01*
X152646858Y-83981174D01*
X152670750Y-83980000D01*
X153158250Y-83980000D01*
X153182142Y-83981174D01*
X153182142Y-83981174D01*
G37*
D19*
X152914500Y-84680000D03*
D10*
G36*
X155057142Y-83981174D02*
G01*
X155080803Y-83984684D01*
X155104007Y-83990496D01*
X155126529Y-83998554D01*
X155148153Y-84008782D01*
X155168670Y-84021079D01*
X155187883Y-84035329D01*
X155205607Y-84051393D01*
X155221671Y-84069117D01*
X155235921Y-84088330D01*
X155248218Y-84108847D01*
X155258446Y-84130471D01*
X155266504Y-84152993D01*
X155272316Y-84176197D01*
X155275826Y-84199858D01*
X155277000Y-84223750D01*
X155277000Y-85136250D01*
X155275826Y-85160142D01*
X155272316Y-85183803D01*
X155266504Y-85207007D01*
X155258446Y-85229529D01*
X155248218Y-85251153D01*
X155235921Y-85271670D01*
X155221671Y-85290883D01*
X155205607Y-85308607D01*
X155187883Y-85324671D01*
X155168670Y-85338921D01*
X155148153Y-85351218D01*
X155126529Y-85361446D01*
X155104007Y-85369504D01*
X155080803Y-85375316D01*
X155057142Y-85378826D01*
X155033250Y-85380000D01*
X154545750Y-85380000D01*
X154521858Y-85378826D01*
X154498197Y-85375316D01*
X154474993Y-85369504D01*
X154452471Y-85361446D01*
X154430847Y-85351218D01*
X154410330Y-85338921D01*
X154391117Y-85324671D01*
X154373393Y-85308607D01*
X154357329Y-85290883D01*
X154343079Y-85271670D01*
X154330782Y-85251153D01*
X154320554Y-85229529D01*
X154312496Y-85207007D01*
X154306684Y-85183803D01*
X154303174Y-85160142D01*
X154302000Y-85136250D01*
X154302000Y-84223750D01*
X154303174Y-84199858D01*
X154306684Y-84176197D01*
X154312496Y-84152993D01*
X154320554Y-84130471D01*
X154330782Y-84108847D01*
X154343079Y-84088330D01*
X154357329Y-84069117D01*
X154373393Y-84051393D01*
X154391117Y-84035329D01*
X154410330Y-84021079D01*
X154430847Y-84008782D01*
X154452471Y-83998554D01*
X154474993Y-83990496D01*
X154498197Y-83984684D01*
X154521858Y-83981174D01*
X154545750Y-83980000D01*
X155033250Y-83980000D01*
X155057142Y-83981174D01*
X155057142Y-83981174D01*
G37*
D19*
X154789500Y-84680000D03*
D10*
G36*
X155145142Y-90161174D02*
G01*
X155168803Y-90164684D01*
X155192007Y-90170496D01*
X155214529Y-90178554D01*
X155236153Y-90188782D01*
X155256670Y-90201079D01*
X155275883Y-90215329D01*
X155293607Y-90231393D01*
X155309671Y-90249117D01*
X155323921Y-90268330D01*
X155336218Y-90288847D01*
X155346446Y-90310471D01*
X155354504Y-90332993D01*
X155360316Y-90356197D01*
X155363826Y-90379858D01*
X155365000Y-90403750D01*
X155365000Y-91316250D01*
X155363826Y-91340142D01*
X155360316Y-91363803D01*
X155354504Y-91387007D01*
X155346446Y-91409529D01*
X155336218Y-91431153D01*
X155323921Y-91451670D01*
X155309671Y-91470883D01*
X155293607Y-91488607D01*
X155275883Y-91504671D01*
X155256670Y-91518921D01*
X155236153Y-91531218D01*
X155214529Y-91541446D01*
X155192007Y-91549504D01*
X155168803Y-91555316D01*
X155145142Y-91558826D01*
X155121250Y-91560000D01*
X154633750Y-91560000D01*
X154609858Y-91558826D01*
X154586197Y-91555316D01*
X154562993Y-91549504D01*
X154540471Y-91541446D01*
X154518847Y-91531218D01*
X154498330Y-91518921D01*
X154479117Y-91504671D01*
X154461393Y-91488607D01*
X154445329Y-91470883D01*
X154431079Y-91451670D01*
X154418782Y-91431153D01*
X154408554Y-91409529D01*
X154400496Y-91387007D01*
X154394684Y-91363803D01*
X154391174Y-91340142D01*
X154390000Y-91316250D01*
X154390000Y-90403750D01*
X154391174Y-90379858D01*
X154394684Y-90356197D01*
X154400496Y-90332993D01*
X154408554Y-90310471D01*
X154418782Y-90288847D01*
X154431079Y-90268330D01*
X154445329Y-90249117D01*
X154461393Y-90231393D01*
X154479117Y-90215329D01*
X154498330Y-90201079D01*
X154518847Y-90188782D01*
X154540471Y-90178554D01*
X154562993Y-90170496D01*
X154586197Y-90164684D01*
X154609858Y-90161174D01*
X154633750Y-90160000D01*
X155121250Y-90160000D01*
X155145142Y-90161174D01*
X155145142Y-90161174D01*
G37*
D19*
X154877500Y-90860000D03*
D10*
G36*
X153270142Y-90161174D02*
G01*
X153293803Y-90164684D01*
X153317007Y-90170496D01*
X153339529Y-90178554D01*
X153361153Y-90188782D01*
X153381670Y-90201079D01*
X153400883Y-90215329D01*
X153418607Y-90231393D01*
X153434671Y-90249117D01*
X153448921Y-90268330D01*
X153461218Y-90288847D01*
X153471446Y-90310471D01*
X153479504Y-90332993D01*
X153485316Y-90356197D01*
X153488826Y-90379858D01*
X153490000Y-90403750D01*
X153490000Y-91316250D01*
X153488826Y-91340142D01*
X153485316Y-91363803D01*
X153479504Y-91387007D01*
X153471446Y-91409529D01*
X153461218Y-91431153D01*
X153448921Y-91451670D01*
X153434671Y-91470883D01*
X153418607Y-91488607D01*
X153400883Y-91504671D01*
X153381670Y-91518921D01*
X153361153Y-91531218D01*
X153339529Y-91541446D01*
X153317007Y-91549504D01*
X153293803Y-91555316D01*
X153270142Y-91558826D01*
X153246250Y-91560000D01*
X152758750Y-91560000D01*
X152734858Y-91558826D01*
X152711197Y-91555316D01*
X152687993Y-91549504D01*
X152665471Y-91541446D01*
X152643847Y-91531218D01*
X152623330Y-91518921D01*
X152604117Y-91504671D01*
X152586393Y-91488607D01*
X152570329Y-91470883D01*
X152556079Y-91451670D01*
X152543782Y-91431153D01*
X152533554Y-91409529D01*
X152525496Y-91387007D01*
X152519684Y-91363803D01*
X152516174Y-91340142D01*
X152515000Y-91316250D01*
X152515000Y-90403750D01*
X152516174Y-90379858D01*
X152519684Y-90356197D01*
X152525496Y-90332993D01*
X152533554Y-90310471D01*
X152543782Y-90288847D01*
X152556079Y-90268330D01*
X152570329Y-90249117D01*
X152586393Y-90231393D01*
X152604117Y-90215329D01*
X152623330Y-90201079D01*
X152643847Y-90188782D01*
X152665471Y-90178554D01*
X152687993Y-90170496D01*
X152711197Y-90164684D01*
X152734858Y-90161174D01*
X152758750Y-90160000D01*
X153246250Y-90160000D01*
X153270142Y-90161174D01*
X153270142Y-90161174D01*
G37*
D19*
X153002500Y-90860000D03*
D10*
G36*
X178077691Y-80088553D02*
G01*
X178098926Y-80091703D01*
X178119750Y-80096919D01*
X178139962Y-80104151D01*
X178159368Y-80113330D01*
X178177781Y-80124366D01*
X178195024Y-80137154D01*
X178210930Y-80151570D01*
X178225346Y-80167476D01*
X178238134Y-80184719D01*
X178249170Y-80203132D01*
X178258349Y-80222538D01*
X178265581Y-80242750D01*
X178270797Y-80263574D01*
X178273947Y-80284809D01*
X178275000Y-80306250D01*
X178275000Y-80743750D01*
X178273947Y-80765191D01*
X178270797Y-80786426D01*
X178265581Y-80807250D01*
X178258349Y-80827462D01*
X178249170Y-80846868D01*
X178238134Y-80865281D01*
X178225346Y-80882524D01*
X178210930Y-80898430D01*
X178195024Y-80912846D01*
X178177781Y-80925634D01*
X178159368Y-80936670D01*
X178139962Y-80945849D01*
X178119750Y-80953081D01*
X178098926Y-80958297D01*
X178077691Y-80961447D01*
X178056250Y-80962500D01*
X177543750Y-80962500D01*
X177522309Y-80961447D01*
X177501074Y-80958297D01*
X177480250Y-80953081D01*
X177460038Y-80945849D01*
X177440632Y-80936670D01*
X177422219Y-80925634D01*
X177404976Y-80912846D01*
X177389070Y-80898430D01*
X177374654Y-80882524D01*
X177361866Y-80865281D01*
X177350830Y-80846868D01*
X177341651Y-80827462D01*
X177334419Y-80807250D01*
X177329203Y-80786426D01*
X177326053Y-80765191D01*
X177325000Y-80743750D01*
X177325000Y-80306250D01*
X177326053Y-80284809D01*
X177329203Y-80263574D01*
X177334419Y-80242750D01*
X177341651Y-80222538D01*
X177350830Y-80203132D01*
X177361866Y-80184719D01*
X177374654Y-80167476D01*
X177389070Y-80151570D01*
X177404976Y-80137154D01*
X177422219Y-80124366D01*
X177440632Y-80113330D01*
X177460038Y-80104151D01*
X177480250Y-80096919D01*
X177501074Y-80091703D01*
X177522309Y-80088553D01*
X177543750Y-80087500D01*
X178056250Y-80087500D01*
X178077691Y-80088553D01*
X178077691Y-80088553D01*
G37*
D15*
X177800000Y-80525000D03*
D10*
G36*
X178077691Y-81663553D02*
G01*
X178098926Y-81666703D01*
X178119750Y-81671919D01*
X178139962Y-81679151D01*
X178159368Y-81688330D01*
X178177781Y-81699366D01*
X178195024Y-81712154D01*
X178210930Y-81726570D01*
X178225346Y-81742476D01*
X178238134Y-81759719D01*
X178249170Y-81778132D01*
X178258349Y-81797538D01*
X178265581Y-81817750D01*
X178270797Y-81838574D01*
X178273947Y-81859809D01*
X178275000Y-81881250D01*
X178275000Y-82318750D01*
X178273947Y-82340191D01*
X178270797Y-82361426D01*
X178265581Y-82382250D01*
X178258349Y-82402462D01*
X178249170Y-82421868D01*
X178238134Y-82440281D01*
X178225346Y-82457524D01*
X178210930Y-82473430D01*
X178195024Y-82487846D01*
X178177781Y-82500634D01*
X178159368Y-82511670D01*
X178139962Y-82520849D01*
X178119750Y-82528081D01*
X178098926Y-82533297D01*
X178077691Y-82536447D01*
X178056250Y-82537500D01*
X177543750Y-82537500D01*
X177522309Y-82536447D01*
X177501074Y-82533297D01*
X177480250Y-82528081D01*
X177460038Y-82520849D01*
X177440632Y-82511670D01*
X177422219Y-82500634D01*
X177404976Y-82487846D01*
X177389070Y-82473430D01*
X177374654Y-82457524D01*
X177361866Y-82440281D01*
X177350830Y-82421868D01*
X177341651Y-82402462D01*
X177334419Y-82382250D01*
X177329203Y-82361426D01*
X177326053Y-82340191D01*
X177325000Y-82318750D01*
X177325000Y-81881250D01*
X177326053Y-81859809D01*
X177329203Y-81838574D01*
X177334419Y-81817750D01*
X177341651Y-81797538D01*
X177350830Y-81778132D01*
X177361866Y-81759719D01*
X177374654Y-81742476D01*
X177389070Y-81726570D01*
X177404976Y-81712154D01*
X177422219Y-81699366D01*
X177440632Y-81688330D01*
X177460038Y-81679151D01*
X177480250Y-81671919D01*
X177501074Y-81666703D01*
X177522309Y-81663553D01*
X177543750Y-81662500D01*
X178056250Y-81662500D01*
X178077691Y-81663553D01*
X178077691Y-81663553D01*
G37*
D15*
X177800000Y-82100000D03*
D20*
X181025000Y-81700000D03*
D21*
X181600000Y-81700000D03*
D20*
X182175000Y-81700000D03*
X182175000Y-80450000D03*
D21*
X181600000Y-80450000D03*
D20*
X181025000Y-80450000D03*
M02*
