G04 #@! TF.GenerationSoftware,KiCad,Pcbnew,(5.1.2)-1*
G04 #@! TF.CreationDate,2021-06-02T21:36:33+09:00*
G04 #@! TF.ProjectId,es,65732e6b-6963-4616-945f-706362585858,v1.3*
G04 #@! TF.SameCoordinates,Original*
G04 #@! TF.FileFunction,Soldermask,Top*
G04 #@! TF.FilePolarity,Negative*
%FSLAX46Y46*%
G04 Gerber Fmt 4.6, Leading zero omitted, Abs format (unit mm)*
G04 Created by KiCad (PCBNEW (5.1.2)-1) date 2021-06-02 21:36:33*
%MOMM*%
%LPD*%
G04 APERTURE LIST*
%ADD10C,0.100000*%
G04 APERTURE END LIST*
D10*
G36*
X192861000Y-93401000D02*
G01*
X191059000Y-93401000D01*
X191059000Y-91599000D01*
X192861000Y-91599000D01*
X192861000Y-93401000D01*
X192861000Y-93401000D01*
G37*
G36*
X194610442Y-91605518D02*
G01*
X194676627Y-91612037D01*
X194846466Y-91663557D01*
X195002991Y-91747222D01*
X195032658Y-91771569D01*
X195140186Y-91859814D01*
X195223448Y-91961271D01*
X195252778Y-91997009D01*
X195336443Y-92153534D01*
X195387963Y-92323373D01*
X195405359Y-92500000D01*
X195387963Y-92676627D01*
X195336443Y-92846466D01*
X195252778Y-93002991D01*
X195234535Y-93025220D01*
X195140186Y-93140186D01*
X195038729Y-93223448D01*
X195002991Y-93252778D01*
X194846466Y-93336443D01*
X194676627Y-93387963D01*
X194610443Y-93394481D01*
X194544260Y-93401000D01*
X194455740Y-93401000D01*
X194389558Y-93394482D01*
X194323373Y-93387963D01*
X194153534Y-93336443D01*
X193997009Y-93252778D01*
X193961271Y-93223448D01*
X193859814Y-93140186D01*
X193765465Y-93025220D01*
X193747222Y-93002991D01*
X193663557Y-92846466D01*
X193612037Y-92676627D01*
X193594641Y-92500000D01*
X193612037Y-92323373D01*
X193663557Y-92153534D01*
X193747222Y-91997009D01*
X193776552Y-91961271D01*
X193859814Y-91859814D01*
X193967342Y-91771569D01*
X193997009Y-91747222D01*
X194153534Y-91663557D01*
X194323373Y-91612037D01*
X194389557Y-91605519D01*
X194455740Y-91599000D01*
X194544260Y-91599000D01*
X194610442Y-91605518D01*
X194610442Y-91605518D01*
G37*
G36*
X197150442Y-91605518D02*
G01*
X197216627Y-91612037D01*
X197386466Y-91663557D01*
X197542991Y-91747222D01*
X197572658Y-91771569D01*
X197680186Y-91859814D01*
X197763448Y-91961271D01*
X197792778Y-91997009D01*
X197876443Y-92153534D01*
X197927963Y-92323373D01*
X197945359Y-92500000D01*
X197927963Y-92676627D01*
X197876443Y-92846466D01*
X197792778Y-93002991D01*
X197774535Y-93025220D01*
X197680186Y-93140186D01*
X197578729Y-93223448D01*
X197542991Y-93252778D01*
X197386466Y-93336443D01*
X197216627Y-93387963D01*
X197150443Y-93394481D01*
X197084260Y-93401000D01*
X196995740Y-93401000D01*
X196929558Y-93394482D01*
X196863373Y-93387963D01*
X196693534Y-93336443D01*
X196537009Y-93252778D01*
X196501271Y-93223448D01*
X196399814Y-93140186D01*
X196305465Y-93025220D01*
X196287222Y-93002991D01*
X196203557Y-92846466D01*
X196152037Y-92676627D01*
X196134641Y-92500000D01*
X196152037Y-92323373D01*
X196203557Y-92153534D01*
X196287222Y-91997009D01*
X196316552Y-91961271D01*
X196399814Y-91859814D01*
X196507342Y-91771569D01*
X196537009Y-91747222D01*
X196693534Y-91663557D01*
X196863373Y-91612037D01*
X196929557Y-91605519D01*
X196995740Y-91599000D01*
X197084260Y-91599000D01*
X197150442Y-91605518D01*
X197150442Y-91605518D01*
G37*
G36*
X188117591Y-92128085D02*
G01*
X188151569Y-92138393D01*
X188182890Y-92155134D01*
X188210339Y-92177661D01*
X188232866Y-92205110D01*
X188249607Y-92236431D01*
X188259915Y-92270409D01*
X188264000Y-92311890D01*
X188264000Y-92988110D01*
X188259915Y-93029591D01*
X188249607Y-93063569D01*
X188232866Y-93094890D01*
X188210339Y-93122339D01*
X188182890Y-93144866D01*
X188151569Y-93161607D01*
X188117591Y-93171915D01*
X188076110Y-93176000D01*
X187474890Y-93176000D01*
X187433409Y-93171915D01*
X187399431Y-93161607D01*
X187368110Y-93144866D01*
X187340661Y-93122339D01*
X187318134Y-93094890D01*
X187301393Y-93063569D01*
X187291085Y-93029591D01*
X187287000Y-92988110D01*
X187287000Y-92311890D01*
X187291085Y-92270409D01*
X187301393Y-92236431D01*
X187318134Y-92205110D01*
X187340661Y-92177661D01*
X187368110Y-92155134D01*
X187399431Y-92138393D01*
X187433409Y-92128085D01*
X187474890Y-92124000D01*
X188076110Y-92124000D01*
X188117591Y-92128085D01*
X188117591Y-92128085D01*
G37*
G36*
X186542591Y-92128085D02*
G01*
X186576569Y-92138393D01*
X186607890Y-92155134D01*
X186635339Y-92177661D01*
X186657866Y-92205110D01*
X186674607Y-92236431D01*
X186684915Y-92270409D01*
X186689000Y-92311890D01*
X186689000Y-92988110D01*
X186684915Y-93029591D01*
X186674607Y-93063569D01*
X186657866Y-93094890D01*
X186635339Y-93122339D01*
X186607890Y-93144866D01*
X186576569Y-93161607D01*
X186542591Y-93171915D01*
X186501110Y-93176000D01*
X185899890Y-93176000D01*
X185858409Y-93171915D01*
X185824431Y-93161607D01*
X185793110Y-93144866D01*
X185765661Y-93122339D01*
X185743134Y-93094890D01*
X185726393Y-93063569D01*
X185716085Y-93029591D01*
X185712000Y-92988110D01*
X185712000Y-92311890D01*
X185716085Y-92270409D01*
X185726393Y-92236431D01*
X185743134Y-92205110D01*
X185765661Y-92177661D01*
X185793110Y-92155134D01*
X185824431Y-92138393D01*
X185858409Y-92128085D01*
X185899890Y-92124000D01*
X186501110Y-92124000D01*
X186542591Y-92128085D01*
X186542591Y-92128085D01*
G37*
G36*
X183466591Y-92128085D02*
G01*
X183500569Y-92138393D01*
X183531890Y-92155134D01*
X183559339Y-92177661D01*
X183581866Y-92205110D01*
X183598607Y-92236431D01*
X183608915Y-92270409D01*
X183613000Y-92311890D01*
X183613000Y-92988110D01*
X183608915Y-93029591D01*
X183598607Y-93063569D01*
X183581866Y-93094890D01*
X183559339Y-93122339D01*
X183531890Y-93144866D01*
X183500569Y-93161607D01*
X183466591Y-93171915D01*
X183425110Y-93176000D01*
X182823890Y-93176000D01*
X182782409Y-93171915D01*
X182748431Y-93161607D01*
X182717110Y-93144866D01*
X182689661Y-93122339D01*
X182667134Y-93094890D01*
X182650393Y-93063569D01*
X182640085Y-93029591D01*
X182636000Y-92988110D01*
X182636000Y-92311890D01*
X182640085Y-92270409D01*
X182650393Y-92236431D01*
X182667134Y-92205110D01*
X182689661Y-92177661D01*
X182717110Y-92155134D01*
X182748431Y-92138393D01*
X182782409Y-92128085D01*
X182823890Y-92124000D01*
X183425110Y-92124000D01*
X183466591Y-92128085D01*
X183466591Y-92128085D01*
G37*
G36*
X185041591Y-92128085D02*
G01*
X185075569Y-92138393D01*
X185106890Y-92155134D01*
X185134339Y-92177661D01*
X185156866Y-92205110D01*
X185173607Y-92236431D01*
X185183915Y-92270409D01*
X185188000Y-92311890D01*
X185188000Y-92988110D01*
X185183915Y-93029591D01*
X185173607Y-93063569D01*
X185156866Y-93094890D01*
X185134339Y-93122339D01*
X185106890Y-93144866D01*
X185075569Y-93161607D01*
X185041591Y-93171915D01*
X185000110Y-93176000D01*
X184398890Y-93176000D01*
X184357409Y-93171915D01*
X184323431Y-93161607D01*
X184292110Y-93144866D01*
X184264661Y-93122339D01*
X184242134Y-93094890D01*
X184225393Y-93063569D01*
X184215085Y-93029591D01*
X184211000Y-92988110D01*
X184211000Y-92311890D01*
X184215085Y-92270409D01*
X184225393Y-92236431D01*
X184242134Y-92205110D01*
X184264661Y-92177661D01*
X184292110Y-92155134D01*
X184323431Y-92138393D01*
X184357409Y-92128085D01*
X184398890Y-92124000D01*
X185000110Y-92124000D01*
X185041591Y-92128085D01*
X185041591Y-92128085D01*
G37*
G36*
X180342591Y-92128085D02*
G01*
X180376569Y-92138393D01*
X180407890Y-92155134D01*
X180435339Y-92177661D01*
X180457866Y-92205110D01*
X180474607Y-92236431D01*
X180484915Y-92270409D01*
X180489000Y-92311890D01*
X180489000Y-92988110D01*
X180484915Y-93029591D01*
X180474607Y-93063569D01*
X180457866Y-93094890D01*
X180435339Y-93122339D01*
X180407890Y-93144866D01*
X180376569Y-93161607D01*
X180342591Y-93171915D01*
X180301110Y-93176000D01*
X179699890Y-93176000D01*
X179658409Y-93171915D01*
X179624431Y-93161607D01*
X179593110Y-93144866D01*
X179565661Y-93122339D01*
X179543134Y-93094890D01*
X179526393Y-93063569D01*
X179516085Y-93029591D01*
X179512000Y-92988110D01*
X179512000Y-92311890D01*
X179516085Y-92270409D01*
X179526393Y-92236431D01*
X179543134Y-92205110D01*
X179565661Y-92177661D01*
X179593110Y-92155134D01*
X179624431Y-92138393D01*
X179658409Y-92128085D01*
X179699890Y-92124000D01*
X180301110Y-92124000D01*
X180342591Y-92128085D01*
X180342591Y-92128085D01*
G37*
G36*
X181917591Y-92128085D02*
G01*
X181951569Y-92138393D01*
X181982890Y-92155134D01*
X182010339Y-92177661D01*
X182032866Y-92205110D01*
X182049607Y-92236431D01*
X182059915Y-92270409D01*
X182064000Y-92311890D01*
X182064000Y-92988110D01*
X182059915Y-93029591D01*
X182049607Y-93063569D01*
X182032866Y-93094890D01*
X182010339Y-93122339D01*
X181982890Y-93144866D01*
X181951569Y-93161607D01*
X181917591Y-93171915D01*
X181876110Y-93176000D01*
X181274890Y-93176000D01*
X181233409Y-93171915D01*
X181199431Y-93161607D01*
X181168110Y-93144866D01*
X181140661Y-93122339D01*
X181118134Y-93094890D01*
X181101393Y-93063569D01*
X181091085Y-93029591D01*
X181087000Y-92988110D01*
X181087000Y-92311890D01*
X181091085Y-92270409D01*
X181101393Y-92236431D01*
X181118134Y-92205110D01*
X181140661Y-92177661D01*
X181168110Y-92155134D01*
X181199431Y-92138393D01*
X181233409Y-92128085D01*
X181274890Y-92124000D01*
X181876110Y-92124000D01*
X181917591Y-92128085D01*
X181917591Y-92128085D01*
G37*
G36*
X207321941Y-89380693D02*
G01*
X207481579Y-89412447D01*
X207692950Y-89500000D01*
X207761995Y-89528599D01*
X207782042Y-89536903D01*
X208052451Y-89717585D01*
X208282415Y-89947549D01*
X208461769Y-90215971D01*
X208463098Y-90217960D01*
X208472463Y-90240569D01*
X208587553Y-90518421D01*
X208608702Y-90624744D01*
X208651000Y-90837389D01*
X208651000Y-91162611D01*
X208619656Y-91320185D01*
X208587553Y-91481579D01*
X208536088Y-91605826D01*
X208465095Y-91777220D01*
X208463097Y-91782042D01*
X208282415Y-92052451D01*
X208052451Y-92282415D01*
X207782042Y-92463097D01*
X207481579Y-92587553D01*
X207375256Y-92608702D01*
X207162611Y-92651000D01*
X206837389Y-92651000D01*
X206624744Y-92608702D01*
X206518421Y-92587553D01*
X206217958Y-92463097D01*
X205947549Y-92282415D01*
X205717585Y-92052451D01*
X205536903Y-91782042D01*
X205534906Y-91777220D01*
X205463912Y-91605826D01*
X205412447Y-91481579D01*
X205380344Y-91320185D01*
X205349000Y-91162611D01*
X205349000Y-90837389D01*
X205391298Y-90624744D01*
X205412447Y-90518421D01*
X205527537Y-90240569D01*
X205536902Y-90217960D01*
X205538231Y-90215971D01*
X205717585Y-89947549D01*
X205947549Y-89717585D01*
X206217958Y-89536903D01*
X206238006Y-89528599D01*
X206307050Y-89500000D01*
X206518421Y-89412447D01*
X206678059Y-89380693D01*
X206837389Y-89349000D01*
X207162611Y-89349000D01*
X207321941Y-89380693D01*
X207321941Y-89380693D01*
G37*
G36*
X147321941Y-89380693D02*
G01*
X147481579Y-89412447D01*
X147692950Y-89500000D01*
X147761995Y-89528599D01*
X147782042Y-89536903D01*
X148052451Y-89717585D01*
X148282415Y-89947549D01*
X148461769Y-90215971D01*
X148463098Y-90217960D01*
X148472463Y-90240569D01*
X148587553Y-90518421D01*
X148608702Y-90624744D01*
X148651000Y-90837389D01*
X148651000Y-91162611D01*
X148619656Y-91320185D01*
X148587553Y-91481579D01*
X148536088Y-91605826D01*
X148465095Y-91777220D01*
X148463097Y-91782042D01*
X148282415Y-92052451D01*
X148052451Y-92282415D01*
X147782042Y-92463097D01*
X147481579Y-92587553D01*
X147375256Y-92608702D01*
X147162611Y-92651000D01*
X146837389Y-92651000D01*
X146624744Y-92608702D01*
X146518421Y-92587553D01*
X146217958Y-92463097D01*
X145947549Y-92282415D01*
X145717585Y-92052451D01*
X145536903Y-91782042D01*
X145534906Y-91777220D01*
X145463912Y-91605826D01*
X145412447Y-91481579D01*
X145380344Y-91320185D01*
X145349000Y-91162611D01*
X145349000Y-90837389D01*
X145391298Y-90624744D01*
X145412447Y-90518421D01*
X145527537Y-90240569D01*
X145536902Y-90217960D01*
X145538231Y-90215971D01*
X145717585Y-89947549D01*
X145947549Y-89717585D01*
X146217958Y-89536903D01*
X146238006Y-89528599D01*
X146307050Y-89500000D01*
X146518421Y-89412447D01*
X146678059Y-89380693D01*
X146837389Y-89349000D01*
X147162611Y-89349000D01*
X147321941Y-89380693D01*
X147321941Y-89380693D01*
G37*
G36*
X158559591Y-90955085D02*
G01*
X158593569Y-90965393D01*
X158624890Y-90982134D01*
X158652339Y-91004661D01*
X158674866Y-91032110D01*
X158691607Y-91063431D01*
X158701915Y-91097409D01*
X158706000Y-91138890D01*
X158706000Y-91740110D01*
X158701915Y-91781591D01*
X158691607Y-91815569D01*
X158674866Y-91846890D01*
X158652339Y-91874339D01*
X158624890Y-91896866D01*
X158593569Y-91913607D01*
X158559591Y-91923915D01*
X158518110Y-91928000D01*
X157841890Y-91928000D01*
X157800409Y-91923915D01*
X157766431Y-91913607D01*
X157735110Y-91896866D01*
X157707661Y-91874339D01*
X157685134Y-91846890D01*
X157668393Y-91815569D01*
X157658085Y-91781591D01*
X157654000Y-91740110D01*
X157654000Y-91138890D01*
X157658085Y-91097409D01*
X157668393Y-91063431D01*
X157685134Y-91032110D01*
X157707661Y-91004661D01*
X157735110Y-90982134D01*
X157766431Y-90965393D01*
X157800409Y-90955085D01*
X157841890Y-90951000D01*
X158518110Y-90951000D01*
X158559591Y-90955085D01*
X158559591Y-90955085D01*
G37*
G36*
X160239591Y-90911085D02*
G01*
X160273569Y-90921393D01*
X160304890Y-90938134D01*
X160332339Y-90960661D01*
X160354866Y-90988110D01*
X160371607Y-91019431D01*
X160381915Y-91053409D01*
X160386000Y-91094890D01*
X160386000Y-91696110D01*
X160381915Y-91737591D01*
X160371607Y-91771569D01*
X160354866Y-91802890D01*
X160332339Y-91830339D01*
X160304890Y-91852866D01*
X160273569Y-91869607D01*
X160239591Y-91879915D01*
X160198110Y-91884000D01*
X159521890Y-91884000D01*
X159480409Y-91879915D01*
X159446431Y-91869607D01*
X159415110Y-91852866D01*
X159387661Y-91830339D01*
X159365134Y-91802890D01*
X159348393Y-91771569D01*
X159338085Y-91737591D01*
X159334000Y-91696110D01*
X159334000Y-91094890D01*
X159338085Y-91053409D01*
X159348393Y-91019431D01*
X159365134Y-90988110D01*
X159387661Y-90960661D01*
X159415110Y-90938134D01*
X159446431Y-90921393D01*
X159480409Y-90911085D01*
X159521890Y-90907000D01*
X160198110Y-90907000D01*
X160239591Y-90911085D01*
X160239591Y-90911085D01*
G37*
G36*
X155249468Y-90113565D02*
G01*
X155288138Y-90125296D01*
X155323777Y-90144346D01*
X155355017Y-90169983D01*
X155380654Y-90201223D01*
X155399704Y-90236862D01*
X155411435Y-90275532D01*
X155416000Y-90321888D01*
X155416000Y-91398112D01*
X155411435Y-91444468D01*
X155399704Y-91483138D01*
X155380654Y-91518777D01*
X155355017Y-91550017D01*
X155323777Y-91575654D01*
X155288138Y-91594704D01*
X155249468Y-91606435D01*
X155203112Y-91611000D01*
X154551888Y-91611000D01*
X154505532Y-91606435D01*
X154466862Y-91594704D01*
X154431223Y-91575654D01*
X154399983Y-91550017D01*
X154374346Y-91518777D01*
X154355296Y-91483138D01*
X154343565Y-91444468D01*
X154339000Y-91398112D01*
X154339000Y-90321888D01*
X154343565Y-90275532D01*
X154355296Y-90236862D01*
X154374346Y-90201223D01*
X154399983Y-90169983D01*
X154431223Y-90144346D01*
X154466862Y-90125296D01*
X154505532Y-90113565D01*
X154551888Y-90109000D01*
X155203112Y-90109000D01*
X155249468Y-90113565D01*
X155249468Y-90113565D01*
G37*
G36*
X153374468Y-90113565D02*
G01*
X153413138Y-90125296D01*
X153448777Y-90144346D01*
X153480017Y-90169983D01*
X153505654Y-90201223D01*
X153524704Y-90236862D01*
X153536435Y-90275532D01*
X153541000Y-90321888D01*
X153541000Y-91398112D01*
X153536435Y-91444468D01*
X153524704Y-91483138D01*
X153505654Y-91518777D01*
X153480017Y-91550017D01*
X153448777Y-91575654D01*
X153413138Y-91594704D01*
X153374468Y-91606435D01*
X153328112Y-91611000D01*
X152676888Y-91611000D01*
X152630532Y-91606435D01*
X152591862Y-91594704D01*
X152556223Y-91575654D01*
X152524983Y-91550017D01*
X152499346Y-91518777D01*
X152480296Y-91483138D01*
X152468565Y-91444468D01*
X152464000Y-91398112D01*
X152464000Y-90321888D01*
X152468565Y-90275532D01*
X152480296Y-90236862D01*
X152499346Y-90201223D01*
X152524983Y-90169983D01*
X152556223Y-90144346D01*
X152591862Y-90125296D01*
X152630532Y-90113565D01*
X152676888Y-90109000D01*
X153328112Y-90109000D01*
X153374468Y-90113565D01*
X153374468Y-90113565D01*
G37*
G36*
X167510443Y-89785519D02*
G01*
X167576627Y-89792037D01*
X167746466Y-89843557D01*
X167902991Y-89927222D01*
X167927759Y-89947549D01*
X168040186Y-90039814D01*
X168110338Y-90125296D01*
X168152778Y-90177009D01*
X168165721Y-90201223D01*
X168213392Y-90290408D01*
X168236443Y-90333534D01*
X168287963Y-90503373D01*
X168305359Y-90680000D01*
X168287963Y-90856627D01*
X168236443Y-91026466D01*
X168152778Y-91182991D01*
X168142717Y-91195250D01*
X168040186Y-91320186D01*
X167949903Y-91394278D01*
X167902991Y-91432778D01*
X167746466Y-91516443D01*
X167576627Y-91567963D01*
X167510442Y-91574482D01*
X167444260Y-91581000D01*
X167355740Y-91581000D01*
X167289558Y-91574482D01*
X167223373Y-91567963D01*
X167053534Y-91516443D01*
X166897009Y-91432778D01*
X166850097Y-91394278D01*
X166759814Y-91320186D01*
X166657283Y-91195250D01*
X166647222Y-91182991D01*
X166563557Y-91026466D01*
X166512037Y-90856627D01*
X166494641Y-90680000D01*
X166512037Y-90503373D01*
X166563557Y-90333534D01*
X166586609Y-90290408D01*
X166634279Y-90201223D01*
X166647222Y-90177009D01*
X166689662Y-90125296D01*
X166759814Y-90039814D01*
X166872241Y-89947549D01*
X166897009Y-89927222D01*
X167053534Y-89843557D01*
X167223373Y-89792037D01*
X167289557Y-89785519D01*
X167355740Y-89779000D01*
X167444260Y-89779000D01*
X167510443Y-89785519D01*
X167510443Y-89785519D01*
G37*
G36*
X175129591Y-90145585D02*
G01*
X175163569Y-90155893D01*
X175194890Y-90172634D01*
X175222339Y-90195161D01*
X175244866Y-90222610D01*
X175261607Y-90253931D01*
X175271915Y-90287909D01*
X175276000Y-90329390D01*
X175276000Y-90930610D01*
X175271915Y-90972091D01*
X175261607Y-91006069D01*
X175244866Y-91037390D01*
X175222339Y-91064839D01*
X175194890Y-91087366D01*
X175163569Y-91104107D01*
X175129591Y-91114415D01*
X175088110Y-91118500D01*
X174411890Y-91118500D01*
X174370409Y-91114415D01*
X174336431Y-91104107D01*
X174305110Y-91087366D01*
X174277661Y-91064839D01*
X174255134Y-91037390D01*
X174238393Y-91006069D01*
X174228085Y-90972091D01*
X174224000Y-90930610D01*
X174224000Y-90329390D01*
X174228085Y-90287909D01*
X174238393Y-90253931D01*
X174255134Y-90222610D01*
X174277661Y-90195161D01*
X174305110Y-90172634D01*
X174336431Y-90155893D01*
X174370409Y-90145585D01*
X174411890Y-90141500D01*
X175088110Y-90141500D01*
X175129591Y-90145585D01*
X175129591Y-90145585D01*
G37*
G36*
X164429591Y-89978085D02*
G01*
X164463569Y-89988393D01*
X164494890Y-90005134D01*
X164522339Y-90027661D01*
X164544866Y-90055110D01*
X164561607Y-90086431D01*
X164571915Y-90120409D01*
X164576000Y-90161890D01*
X164576000Y-90838110D01*
X164571915Y-90879591D01*
X164561607Y-90913569D01*
X164544866Y-90944890D01*
X164522339Y-90972339D01*
X164494890Y-90994866D01*
X164463569Y-91011607D01*
X164429591Y-91021915D01*
X164388110Y-91026000D01*
X163786890Y-91026000D01*
X163745409Y-91021915D01*
X163711431Y-91011607D01*
X163680110Y-90994866D01*
X163652661Y-90972339D01*
X163630134Y-90944890D01*
X163613393Y-90913569D01*
X163603085Y-90879591D01*
X163599000Y-90838110D01*
X163599000Y-90161890D01*
X163603085Y-90120409D01*
X163613393Y-90086431D01*
X163630134Y-90055110D01*
X163652661Y-90027661D01*
X163680110Y-90005134D01*
X163711431Y-89988393D01*
X163745409Y-89978085D01*
X163786890Y-89974000D01*
X164388110Y-89974000D01*
X164429591Y-89978085D01*
X164429591Y-89978085D01*
G37*
G36*
X162854591Y-89978085D02*
G01*
X162888569Y-89988393D01*
X162919890Y-90005134D01*
X162947339Y-90027661D01*
X162969866Y-90055110D01*
X162986607Y-90086431D01*
X162996915Y-90120409D01*
X163001000Y-90161890D01*
X163001000Y-90838110D01*
X162996915Y-90879591D01*
X162986607Y-90913569D01*
X162969866Y-90944890D01*
X162947339Y-90972339D01*
X162919890Y-90994866D01*
X162888569Y-91011607D01*
X162854591Y-91021915D01*
X162813110Y-91026000D01*
X162211890Y-91026000D01*
X162170409Y-91021915D01*
X162136431Y-91011607D01*
X162105110Y-90994866D01*
X162077661Y-90972339D01*
X162055134Y-90944890D01*
X162038393Y-90913569D01*
X162028085Y-90879591D01*
X162024000Y-90838110D01*
X162024000Y-90161890D01*
X162028085Y-90120409D01*
X162038393Y-90086431D01*
X162055134Y-90055110D01*
X162077661Y-90027661D01*
X162105110Y-90005134D01*
X162136431Y-89988393D01*
X162170409Y-89978085D01*
X162211890Y-89974000D01*
X162813110Y-89974000D01*
X162854591Y-89978085D01*
X162854591Y-89978085D01*
G37*
G36*
X136405581Y-89177448D02*
G01*
X136491924Y-89185952D01*
X136647626Y-89233184D01*
X136647628Y-89233185D01*
X136791121Y-89309883D01*
X136916896Y-89413104D01*
X137020117Y-89538879D01*
X137088181Y-89666219D01*
X137096816Y-89682374D01*
X137144048Y-89838076D01*
X137159996Y-90000000D01*
X137144048Y-90161924D01*
X137098572Y-90311836D01*
X137096815Y-90317628D01*
X137020117Y-90461121D01*
X136916896Y-90586896D01*
X136791121Y-90690117D01*
X136647628Y-90766815D01*
X136647626Y-90766816D01*
X136491924Y-90814048D01*
X136431248Y-90820024D01*
X136370574Y-90826000D01*
X136289426Y-90826000D01*
X136228752Y-90820024D01*
X136168076Y-90814048D01*
X136012374Y-90766816D01*
X136012372Y-90766815D01*
X135868879Y-90690117D01*
X135743104Y-90586896D01*
X135639883Y-90461121D01*
X135563185Y-90317628D01*
X135561428Y-90311836D01*
X135515952Y-90161924D01*
X135500004Y-90000000D01*
X135515952Y-89838076D01*
X135563184Y-89682374D01*
X135571819Y-89666219D01*
X135639883Y-89538879D01*
X135743104Y-89413104D01*
X135868879Y-89309883D01*
X136012372Y-89233185D01*
X136012374Y-89233184D01*
X136168076Y-89185952D01*
X136254419Y-89177448D01*
X136289426Y-89174000D01*
X136370574Y-89174000D01*
X136405581Y-89177448D01*
X136405581Y-89177448D01*
G37*
G36*
X142346008Y-88810750D02*
G01*
X142427376Y-88818764D01*
X142580627Y-88865252D01*
X142580630Y-88865253D01*
X142721863Y-88940744D01*
X142845659Y-89042341D01*
X142947256Y-89166137D01*
X143022747Y-89307370D01*
X143022748Y-89307373D01*
X143069236Y-89460624D01*
X143084933Y-89620000D01*
X143069236Y-89779376D01*
X143022748Y-89932627D01*
X143022747Y-89932630D01*
X142947256Y-90073863D01*
X142845659Y-90197659D01*
X142721863Y-90299256D01*
X142580630Y-90374747D01*
X142580627Y-90374748D01*
X142427376Y-90421236D01*
X142347747Y-90429079D01*
X142307934Y-90433000D01*
X141952066Y-90433000D01*
X141912253Y-90429079D01*
X141832624Y-90421236D01*
X141679373Y-90374748D01*
X141679370Y-90374747D01*
X141538137Y-90299256D01*
X141414341Y-90197659D01*
X141312744Y-90073863D01*
X141237253Y-89932630D01*
X141237252Y-89932627D01*
X141190764Y-89779376D01*
X141175067Y-89620000D01*
X141190764Y-89460624D01*
X141237252Y-89307373D01*
X141237253Y-89307370D01*
X141312744Y-89166137D01*
X141414341Y-89042341D01*
X141538137Y-88940744D01*
X141679370Y-88865253D01*
X141679373Y-88865252D01*
X141832624Y-88818764D01*
X141913992Y-88810750D01*
X141952066Y-88807000D01*
X142307934Y-88807000D01*
X142346008Y-88810750D01*
X142346008Y-88810750D01*
G37*
G36*
X158559591Y-89380085D02*
G01*
X158593569Y-89390393D01*
X158624890Y-89407134D01*
X158652339Y-89429661D01*
X158674866Y-89457110D01*
X158691607Y-89488431D01*
X158701915Y-89522409D01*
X158706000Y-89563890D01*
X158706000Y-90165110D01*
X158701915Y-90206591D01*
X158691607Y-90240569D01*
X158674866Y-90271890D01*
X158652339Y-90299339D01*
X158624890Y-90321866D01*
X158593569Y-90338607D01*
X158559591Y-90348915D01*
X158518110Y-90353000D01*
X157841890Y-90353000D01*
X157800409Y-90348915D01*
X157766431Y-90338607D01*
X157735110Y-90321866D01*
X157707661Y-90299339D01*
X157685134Y-90271890D01*
X157668393Y-90240569D01*
X157658085Y-90206591D01*
X157654000Y-90165110D01*
X157654000Y-89563890D01*
X157658085Y-89522409D01*
X157668393Y-89488431D01*
X157685134Y-89457110D01*
X157707661Y-89429661D01*
X157735110Y-89407134D01*
X157766431Y-89390393D01*
X157800409Y-89380085D01*
X157841890Y-89376000D01*
X158518110Y-89376000D01*
X158559591Y-89380085D01*
X158559591Y-89380085D01*
G37*
G36*
X172543934Y-88687591D02*
G01*
X172657376Y-88698764D01*
X172810627Y-88745252D01*
X172810630Y-88745253D01*
X172951863Y-88820744D01*
X173075659Y-88922341D01*
X173177256Y-89046137D01*
X173252747Y-89187370D01*
X173252748Y-89187373D01*
X173299236Y-89340624D01*
X173314933Y-89500000D01*
X173299236Y-89659376D01*
X173258994Y-89792037D01*
X173252747Y-89812630D01*
X173177256Y-89953863D01*
X173075659Y-90077659D01*
X172951863Y-90179256D01*
X172810630Y-90254747D01*
X172810627Y-90254748D01*
X172657376Y-90301236D01*
X172578546Y-90309000D01*
X172537934Y-90313000D01*
X172182066Y-90313000D01*
X172141454Y-90309000D01*
X172062624Y-90301236D01*
X171909373Y-90254748D01*
X171909370Y-90254747D01*
X171768137Y-90179256D01*
X171644341Y-90077659D01*
X171542744Y-89953863D01*
X171467253Y-89812630D01*
X171461006Y-89792037D01*
X171420764Y-89659376D01*
X171405067Y-89500000D01*
X171420764Y-89340624D01*
X171467252Y-89187373D01*
X171467253Y-89187370D01*
X171542744Y-89046137D01*
X171644341Y-88922341D01*
X171768137Y-88820744D01*
X171909370Y-88745253D01*
X171909373Y-88745252D01*
X172062624Y-88698764D01*
X172176066Y-88687591D01*
X172182066Y-88687000D01*
X172537934Y-88687000D01*
X172543934Y-88687591D01*
X172543934Y-88687591D01*
G37*
G36*
X160239591Y-89336085D02*
G01*
X160273569Y-89346393D01*
X160304890Y-89363134D01*
X160332339Y-89385661D01*
X160354866Y-89413110D01*
X160371607Y-89444431D01*
X160381915Y-89478409D01*
X160386000Y-89519890D01*
X160386000Y-90121110D01*
X160381915Y-90162591D01*
X160371607Y-90196569D01*
X160354866Y-90227890D01*
X160332339Y-90255339D01*
X160304890Y-90277866D01*
X160273569Y-90294607D01*
X160239591Y-90304915D01*
X160198110Y-90309000D01*
X159521890Y-90309000D01*
X159480409Y-90304915D01*
X159446431Y-90294607D01*
X159415110Y-90277866D01*
X159387661Y-90255339D01*
X159365134Y-90227890D01*
X159348393Y-90196569D01*
X159338085Y-90162591D01*
X159334000Y-90121110D01*
X159334000Y-89519890D01*
X159338085Y-89478409D01*
X159348393Y-89444431D01*
X159365134Y-89413110D01*
X159387661Y-89385661D01*
X159415110Y-89363134D01*
X159446431Y-89346393D01*
X159480409Y-89336085D01*
X159521890Y-89332000D01*
X160198110Y-89332000D01*
X160239591Y-89336085D01*
X160239591Y-89336085D01*
G37*
G36*
X180905355Y-84375083D02*
G01*
X180910029Y-84376501D01*
X180914330Y-84378800D01*
X180920702Y-84384029D01*
X180941076Y-84397643D01*
X180963715Y-84407020D01*
X180987749Y-84411800D01*
X181012253Y-84411800D01*
X181036286Y-84407019D01*
X181058925Y-84397642D01*
X181079298Y-84384029D01*
X181085670Y-84378800D01*
X181089971Y-84376501D01*
X181094645Y-84375083D01*
X181105641Y-84374000D01*
X181394359Y-84374000D01*
X181405355Y-84375083D01*
X181410029Y-84376501D01*
X181414330Y-84378800D01*
X181420702Y-84384029D01*
X181441076Y-84397643D01*
X181463715Y-84407020D01*
X181487749Y-84411800D01*
X181512253Y-84411800D01*
X181536286Y-84407019D01*
X181558925Y-84397642D01*
X181579298Y-84384029D01*
X181585670Y-84378800D01*
X181589971Y-84376501D01*
X181594645Y-84375083D01*
X181605641Y-84374000D01*
X181894359Y-84374000D01*
X181905355Y-84375083D01*
X181910029Y-84376501D01*
X181914330Y-84378800D01*
X181920702Y-84384029D01*
X181941076Y-84397643D01*
X181963715Y-84407020D01*
X181987749Y-84411800D01*
X182012253Y-84411800D01*
X182036286Y-84407019D01*
X182058925Y-84397642D01*
X182079298Y-84384029D01*
X182085670Y-84378800D01*
X182089971Y-84376501D01*
X182094645Y-84375083D01*
X182105641Y-84374000D01*
X182394359Y-84374000D01*
X182405355Y-84375083D01*
X182410029Y-84376501D01*
X182414330Y-84378800D01*
X182420702Y-84384029D01*
X182441076Y-84397643D01*
X182463715Y-84407020D01*
X182487749Y-84411800D01*
X182512253Y-84411800D01*
X182536286Y-84407019D01*
X182558925Y-84397642D01*
X182579298Y-84384029D01*
X182585670Y-84378800D01*
X182589971Y-84376501D01*
X182594645Y-84375083D01*
X182605641Y-84374000D01*
X182894359Y-84374000D01*
X182905355Y-84375083D01*
X182910029Y-84376501D01*
X182914330Y-84378800D01*
X182920702Y-84384029D01*
X182941076Y-84397643D01*
X182963715Y-84407020D01*
X182987749Y-84411800D01*
X183012253Y-84411800D01*
X183036286Y-84407019D01*
X183058925Y-84397642D01*
X183079298Y-84384029D01*
X183085670Y-84378800D01*
X183089971Y-84376501D01*
X183094645Y-84375083D01*
X183105641Y-84374000D01*
X183394359Y-84374000D01*
X183405355Y-84375083D01*
X183410029Y-84376501D01*
X183414330Y-84378800D01*
X183420702Y-84384029D01*
X183441076Y-84397643D01*
X183463715Y-84407020D01*
X183487749Y-84411800D01*
X183512253Y-84411800D01*
X183536286Y-84407019D01*
X183558925Y-84397642D01*
X183579298Y-84384029D01*
X183585670Y-84378800D01*
X183589971Y-84376501D01*
X183594645Y-84375083D01*
X183605641Y-84374000D01*
X183894359Y-84374000D01*
X183905355Y-84375083D01*
X183910029Y-84376501D01*
X183914330Y-84378800D01*
X183920702Y-84384029D01*
X183941076Y-84397643D01*
X183963715Y-84407020D01*
X183987749Y-84411800D01*
X184012253Y-84411800D01*
X184036286Y-84407019D01*
X184058925Y-84397642D01*
X184079298Y-84384029D01*
X184085670Y-84378800D01*
X184089971Y-84376501D01*
X184094645Y-84375083D01*
X184105641Y-84374000D01*
X184394359Y-84374000D01*
X184405355Y-84375083D01*
X184410029Y-84376501D01*
X184414331Y-84378800D01*
X184418104Y-84381896D01*
X184421200Y-84385669D01*
X184423499Y-84389971D01*
X184424917Y-84394645D01*
X184426000Y-84405641D01*
X184426000Y-85249001D01*
X184428402Y-85273387D01*
X184435515Y-85296836D01*
X184447066Y-85318447D01*
X184462611Y-85337389D01*
X184481553Y-85352934D01*
X184503164Y-85364485D01*
X184526613Y-85371598D01*
X184550999Y-85374000D01*
X185394359Y-85374000D01*
X185405355Y-85375083D01*
X185410029Y-85376501D01*
X185414331Y-85378800D01*
X185418104Y-85381896D01*
X185421200Y-85385669D01*
X185423499Y-85389971D01*
X185424917Y-85394645D01*
X185426000Y-85405641D01*
X185426000Y-85694359D01*
X185424917Y-85705355D01*
X185423499Y-85710029D01*
X185421200Y-85714330D01*
X185415971Y-85720702D01*
X185402357Y-85741076D01*
X185392980Y-85763715D01*
X185388200Y-85787749D01*
X185388200Y-85812253D01*
X185392981Y-85836286D01*
X185402358Y-85858925D01*
X185415971Y-85879298D01*
X185421200Y-85885670D01*
X185423499Y-85889971D01*
X185424917Y-85894645D01*
X185426000Y-85905641D01*
X185426000Y-86194359D01*
X185424917Y-86205355D01*
X185423499Y-86210029D01*
X185421200Y-86214330D01*
X185415971Y-86220702D01*
X185402357Y-86241076D01*
X185392980Y-86263715D01*
X185388200Y-86287749D01*
X185388200Y-86312253D01*
X185392981Y-86336286D01*
X185402358Y-86358925D01*
X185415971Y-86379298D01*
X185421200Y-86385670D01*
X185423499Y-86389971D01*
X185424917Y-86394645D01*
X185426000Y-86405641D01*
X185426000Y-86694359D01*
X185424917Y-86705355D01*
X185423499Y-86710029D01*
X185421200Y-86714330D01*
X185415971Y-86720702D01*
X185402357Y-86741076D01*
X185392980Y-86763715D01*
X185388200Y-86787749D01*
X185388200Y-86812253D01*
X185392981Y-86836286D01*
X185402358Y-86858925D01*
X185415971Y-86879298D01*
X185421200Y-86885670D01*
X185423499Y-86889971D01*
X185424917Y-86894645D01*
X185426000Y-86905641D01*
X185426000Y-87194359D01*
X185424917Y-87205355D01*
X185423499Y-87210029D01*
X185421200Y-87214330D01*
X185415971Y-87220702D01*
X185402357Y-87241076D01*
X185392980Y-87263715D01*
X185388200Y-87287749D01*
X185388200Y-87312253D01*
X185392981Y-87336286D01*
X185402358Y-87358925D01*
X185415971Y-87379298D01*
X185421200Y-87385670D01*
X185423499Y-87389971D01*
X185424917Y-87394645D01*
X185426000Y-87405641D01*
X185426000Y-87694359D01*
X185424917Y-87705355D01*
X185423499Y-87710029D01*
X185421200Y-87714330D01*
X185415971Y-87720702D01*
X185402357Y-87741076D01*
X185392980Y-87763715D01*
X185388200Y-87787749D01*
X185388200Y-87812253D01*
X185392981Y-87836286D01*
X185402358Y-87858925D01*
X185415971Y-87879298D01*
X185421200Y-87885670D01*
X185423499Y-87889971D01*
X185424917Y-87894645D01*
X185426000Y-87905641D01*
X185426000Y-88194359D01*
X185424917Y-88205355D01*
X185423499Y-88210029D01*
X185421200Y-88214330D01*
X185415971Y-88220702D01*
X185402357Y-88241076D01*
X185392980Y-88263715D01*
X185388200Y-88287749D01*
X185388200Y-88312253D01*
X185392981Y-88336286D01*
X185402358Y-88358925D01*
X185415971Y-88379298D01*
X185421200Y-88385670D01*
X185423499Y-88389971D01*
X185424917Y-88394645D01*
X185426000Y-88405641D01*
X185426000Y-88694359D01*
X185424917Y-88705355D01*
X185423499Y-88710029D01*
X185421200Y-88714330D01*
X185415971Y-88720702D01*
X185402357Y-88741076D01*
X185392980Y-88763715D01*
X185388200Y-88787749D01*
X185388200Y-88812253D01*
X185392981Y-88836286D01*
X185402358Y-88858925D01*
X185415971Y-88879298D01*
X185421200Y-88885670D01*
X185423499Y-88889971D01*
X185424917Y-88894645D01*
X185426000Y-88905641D01*
X185426000Y-89194359D01*
X185424917Y-89205355D01*
X185423499Y-89210029D01*
X185421200Y-89214331D01*
X185418104Y-89218104D01*
X185414331Y-89221200D01*
X185410029Y-89223499D01*
X185405355Y-89224917D01*
X185394359Y-89226000D01*
X184550999Y-89226000D01*
X184526613Y-89228402D01*
X184503164Y-89235515D01*
X184481553Y-89247066D01*
X184462611Y-89262611D01*
X184447066Y-89281553D01*
X184435515Y-89303164D01*
X184428402Y-89326613D01*
X184426000Y-89350999D01*
X184426000Y-90194359D01*
X184424917Y-90205355D01*
X184423499Y-90210029D01*
X184421200Y-90214331D01*
X184418104Y-90218104D01*
X184414331Y-90221200D01*
X184410029Y-90223499D01*
X184405355Y-90224917D01*
X184394359Y-90226000D01*
X184105641Y-90226000D01*
X184094645Y-90224917D01*
X184089971Y-90223499D01*
X184085670Y-90221200D01*
X184079298Y-90215971D01*
X184058924Y-90202357D01*
X184036285Y-90192980D01*
X184012251Y-90188200D01*
X183987747Y-90188200D01*
X183963714Y-90192981D01*
X183941075Y-90202358D01*
X183920702Y-90215971D01*
X183914330Y-90221200D01*
X183910029Y-90223499D01*
X183905355Y-90224917D01*
X183894359Y-90226000D01*
X183605641Y-90226000D01*
X183594645Y-90224917D01*
X183589971Y-90223499D01*
X183585670Y-90221200D01*
X183579298Y-90215971D01*
X183558924Y-90202357D01*
X183536285Y-90192980D01*
X183512251Y-90188200D01*
X183487747Y-90188200D01*
X183463714Y-90192981D01*
X183441075Y-90202358D01*
X183420702Y-90215971D01*
X183414330Y-90221200D01*
X183410029Y-90223499D01*
X183405355Y-90224917D01*
X183394359Y-90226000D01*
X183105641Y-90226000D01*
X183094645Y-90224917D01*
X183089971Y-90223499D01*
X183085670Y-90221200D01*
X183079298Y-90215971D01*
X183058924Y-90202357D01*
X183036285Y-90192980D01*
X183012251Y-90188200D01*
X182987747Y-90188200D01*
X182963714Y-90192981D01*
X182941075Y-90202358D01*
X182920702Y-90215971D01*
X182914330Y-90221200D01*
X182910029Y-90223499D01*
X182905355Y-90224917D01*
X182894359Y-90226000D01*
X182605641Y-90226000D01*
X182594645Y-90224917D01*
X182589971Y-90223499D01*
X182585670Y-90221200D01*
X182579298Y-90215971D01*
X182558924Y-90202357D01*
X182536285Y-90192980D01*
X182512251Y-90188200D01*
X182487747Y-90188200D01*
X182463714Y-90192981D01*
X182441075Y-90202358D01*
X182420702Y-90215971D01*
X182414330Y-90221200D01*
X182410029Y-90223499D01*
X182405355Y-90224917D01*
X182394359Y-90226000D01*
X182105641Y-90226000D01*
X182094645Y-90224917D01*
X182089971Y-90223499D01*
X182085670Y-90221200D01*
X182079298Y-90215971D01*
X182058924Y-90202357D01*
X182036285Y-90192980D01*
X182012251Y-90188200D01*
X181987747Y-90188200D01*
X181963714Y-90192981D01*
X181941075Y-90202358D01*
X181920702Y-90215971D01*
X181914330Y-90221200D01*
X181910029Y-90223499D01*
X181905355Y-90224917D01*
X181894359Y-90226000D01*
X181605641Y-90226000D01*
X181594645Y-90224917D01*
X181589971Y-90223499D01*
X181585670Y-90221200D01*
X181579298Y-90215971D01*
X181558924Y-90202357D01*
X181536285Y-90192980D01*
X181512251Y-90188200D01*
X181487747Y-90188200D01*
X181463714Y-90192981D01*
X181441075Y-90202358D01*
X181420702Y-90215971D01*
X181414330Y-90221200D01*
X181410029Y-90223499D01*
X181405355Y-90224917D01*
X181394359Y-90226000D01*
X181105641Y-90226000D01*
X181094645Y-90224917D01*
X181089971Y-90223499D01*
X181085670Y-90221200D01*
X181079298Y-90215971D01*
X181058924Y-90202357D01*
X181036285Y-90192980D01*
X181012251Y-90188200D01*
X180987747Y-90188200D01*
X180963714Y-90192981D01*
X180941075Y-90202358D01*
X180920702Y-90215971D01*
X180914330Y-90221200D01*
X180910029Y-90223499D01*
X180905355Y-90224917D01*
X180894359Y-90226000D01*
X180605641Y-90226000D01*
X180594645Y-90224917D01*
X180589971Y-90223499D01*
X180585669Y-90221200D01*
X180581896Y-90218104D01*
X180578800Y-90214331D01*
X180576501Y-90210029D01*
X180575083Y-90205355D01*
X180574000Y-90194359D01*
X180574000Y-89350999D01*
X180571598Y-89326613D01*
X180564485Y-89303164D01*
X180552934Y-89281553D01*
X180537389Y-89262611D01*
X180518447Y-89247066D01*
X180496836Y-89235515D01*
X180473387Y-89228402D01*
X180449001Y-89226000D01*
X179605641Y-89226000D01*
X179594645Y-89224917D01*
X179589971Y-89223499D01*
X179585669Y-89221200D01*
X179581896Y-89218104D01*
X179578800Y-89214331D01*
X179576501Y-89210029D01*
X179575083Y-89205355D01*
X179574000Y-89194359D01*
X179574000Y-89115801D01*
X180551000Y-89115801D01*
X180551000Y-89124001D01*
X180553402Y-89148387D01*
X180560515Y-89171836D01*
X180572066Y-89193447D01*
X180587611Y-89212389D01*
X180606553Y-89227934D01*
X180628164Y-89239485D01*
X180651613Y-89246598D01*
X180675999Y-89249000D01*
X180684199Y-89249000D01*
X180708585Y-89246598D01*
X180732034Y-89239485D01*
X180753645Y-89227934D01*
X180772587Y-89212389D01*
X180788132Y-89193447D01*
X180799683Y-89171836D01*
X180806796Y-89148387D01*
X180807991Y-89136247D01*
X184191403Y-89136247D01*
X184196183Y-89160281D01*
X184205559Y-89182920D01*
X184219172Y-89203295D01*
X184236498Y-89220623D01*
X184256872Y-89234238D01*
X184279510Y-89243616D01*
X184303543Y-89248398D01*
X184315801Y-89249000D01*
X184324001Y-89249000D01*
X184348387Y-89246598D01*
X184371836Y-89239485D01*
X184393447Y-89227934D01*
X184412389Y-89212389D01*
X184427934Y-89193447D01*
X184439485Y-89171836D01*
X184446598Y-89148387D01*
X184449000Y-89124001D01*
X184449000Y-89115801D01*
X184446598Y-89091415D01*
X184439485Y-89067966D01*
X184427934Y-89046355D01*
X184412389Y-89027413D01*
X184393447Y-89011868D01*
X184371836Y-89000317D01*
X184348387Y-88993204D01*
X184324001Y-88990802D01*
X184299615Y-88993204D01*
X184276166Y-89000317D01*
X184254555Y-89011868D01*
X184235613Y-89027413D01*
X184227382Y-89036496D01*
X184219179Y-89044698D01*
X184205564Y-89065072D01*
X184196186Y-89087710D01*
X184191404Y-89111743D01*
X184191403Y-89136247D01*
X180807991Y-89136247D01*
X180809198Y-89124001D01*
X180806796Y-89099615D01*
X180799683Y-89076166D01*
X180788132Y-89054555D01*
X180772587Y-89035613D01*
X180763504Y-89027382D01*
X180755302Y-89019179D01*
X180734928Y-89005564D01*
X180712290Y-88996186D01*
X180688257Y-88991404D01*
X180663753Y-88991403D01*
X180639719Y-88996183D01*
X180617080Y-89005559D01*
X180596705Y-89019172D01*
X180579377Y-89036498D01*
X180565762Y-89056872D01*
X180556384Y-89079510D01*
X180551602Y-89103543D01*
X180551000Y-89115801D01*
X179574000Y-89115801D01*
X179574000Y-88905641D01*
X179575083Y-88894645D01*
X179576501Y-88889971D01*
X179578800Y-88885670D01*
X179584029Y-88879298D01*
X179597643Y-88858924D01*
X179607020Y-88836285D01*
X179611800Y-88812251D01*
X179611800Y-88787747D01*
X179607019Y-88763714D01*
X179597642Y-88741075D01*
X179584029Y-88720702D01*
X179578800Y-88714330D01*
X179576501Y-88710029D01*
X179575083Y-88705355D01*
X179574000Y-88694359D01*
X179574000Y-88405641D01*
X179575083Y-88394645D01*
X179576501Y-88389971D01*
X179578800Y-88385670D01*
X179584029Y-88379298D01*
X179597643Y-88358924D01*
X179607020Y-88336285D01*
X179611800Y-88312251D01*
X179611800Y-88287747D01*
X179607019Y-88263714D01*
X179597642Y-88241075D01*
X179584029Y-88220702D01*
X179578800Y-88214330D01*
X179576501Y-88210029D01*
X179575083Y-88205355D01*
X179574000Y-88194359D01*
X179574000Y-87905641D01*
X179575083Y-87894645D01*
X179576501Y-87889971D01*
X179578800Y-87885670D01*
X179584029Y-87879298D01*
X179597643Y-87858924D01*
X179607020Y-87836285D01*
X179611800Y-87812251D01*
X179611800Y-87787747D01*
X179607019Y-87763714D01*
X179597642Y-87741075D01*
X179584029Y-87720702D01*
X179578800Y-87714330D01*
X179576501Y-87710029D01*
X179575083Y-87705355D01*
X179574000Y-87694359D01*
X179574000Y-87405641D01*
X179575083Y-87394645D01*
X179576501Y-87389971D01*
X179578800Y-87385670D01*
X179584029Y-87379298D01*
X179597643Y-87358924D01*
X179607020Y-87336285D01*
X179611800Y-87312251D01*
X179611800Y-87287747D01*
X179607019Y-87263714D01*
X179597642Y-87241075D01*
X179584029Y-87220702D01*
X179578800Y-87214330D01*
X179576501Y-87210029D01*
X179575083Y-87205355D01*
X179574000Y-87194359D01*
X179574000Y-86905641D01*
X179575083Y-86894645D01*
X179576501Y-86889971D01*
X179578800Y-86885670D01*
X179584029Y-86879298D01*
X179597643Y-86858924D01*
X179607020Y-86836285D01*
X179611800Y-86812251D01*
X179611800Y-86787747D01*
X179607019Y-86763714D01*
X179597642Y-86741075D01*
X179584029Y-86720702D01*
X179578800Y-86714330D01*
X179576501Y-86710029D01*
X179575083Y-86705355D01*
X179574000Y-86694359D01*
X179574000Y-86405641D01*
X179575083Y-86394645D01*
X179576501Y-86389971D01*
X179578800Y-86385670D01*
X179584029Y-86379298D01*
X179597643Y-86358924D01*
X179607020Y-86336285D01*
X179611800Y-86312251D01*
X179611800Y-86287747D01*
X179607019Y-86263714D01*
X179597642Y-86241075D01*
X179584029Y-86220702D01*
X179578800Y-86214330D01*
X179576501Y-86210029D01*
X179575083Y-86205355D01*
X179574000Y-86194359D01*
X179574000Y-85905641D01*
X179575083Y-85894645D01*
X179576501Y-85889971D01*
X179578800Y-85885670D01*
X179584029Y-85879298D01*
X179597643Y-85858924D01*
X179607020Y-85836285D01*
X179611800Y-85812251D01*
X179611800Y-85787747D01*
X179607019Y-85763714D01*
X179597642Y-85741075D01*
X179584029Y-85720702D01*
X179578800Y-85714330D01*
X179576501Y-85710029D01*
X179575083Y-85705355D01*
X179574000Y-85694359D01*
X179574000Y-85475999D01*
X180551000Y-85475999D01*
X180551000Y-85484199D01*
X180553402Y-85508585D01*
X180560515Y-85532034D01*
X180572066Y-85553645D01*
X180587611Y-85572587D01*
X180606553Y-85588132D01*
X180628164Y-85599683D01*
X180651613Y-85606796D01*
X180675999Y-85609198D01*
X180700385Y-85606796D01*
X180723834Y-85599683D01*
X180745445Y-85588132D01*
X180764387Y-85572587D01*
X180772620Y-85563502D01*
X180780821Y-85555302D01*
X180794436Y-85534928D01*
X180803814Y-85512290D01*
X180808596Y-85488257D01*
X180808596Y-85475999D01*
X184190802Y-85475999D01*
X184193204Y-85500385D01*
X184200317Y-85523834D01*
X184211868Y-85545445D01*
X184227413Y-85564387D01*
X184236496Y-85572618D01*
X184244698Y-85580821D01*
X184265072Y-85594436D01*
X184287710Y-85603814D01*
X184311743Y-85608596D01*
X184336247Y-85608597D01*
X184360281Y-85603817D01*
X184382920Y-85594441D01*
X184403295Y-85580828D01*
X184420623Y-85563502D01*
X184434238Y-85543128D01*
X184443616Y-85520490D01*
X184448398Y-85496457D01*
X184449000Y-85484199D01*
X184449000Y-85475999D01*
X184446598Y-85451613D01*
X184439485Y-85428164D01*
X184427934Y-85406553D01*
X184412389Y-85387611D01*
X184393447Y-85372066D01*
X184371836Y-85360515D01*
X184348387Y-85353402D01*
X184324001Y-85351000D01*
X184315801Y-85351000D01*
X184291415Y-85353402D01*
X184267966Y-85360515D01*
X184246355Y-85372066D01*
X184227413Y-85387611D01*
X184211868Y-85406553D01*
X184200317Y-85428164D01*
X184193204Y-85451613D01*
X184190802Y-85475999D01*
X180808596Y-85475999D01*
X180808597Y-85463753D01*
X180803817Y-85439719D01*
X180794441Y-85417080D01*
X180780828Y-85396705D01*
X180763502Y-85379377D01*
X180743128Y-85365762D01*
X180720490Y-85356384D01*
X180696457Y-85351602D01*
X180684199Y-85351000D01*
X180675999Y-85351000D01*
X180651613Y-85353402D01*
X180628164Y-85360515D01*
X180606553Y-85372066D01*
X180587611Y-85387611D01*
X180572066Y-85406553D01*
X180560515Y-85428164D01*
X180553402Y-85451613D01*
X180551000Y-85475999D01*
X179574000Y-85475999D01*
X179574000Y-85405641D01*
X179575083Y-85394645D01*
X179576501Y-85389971D01*
X179578800Y-85385669D01*
X179581896Y-85381896D01*
X179585669Y-85378800D01*
X179589971Y-85376501D01*
X179594645Y-85375083D01*
X179605641Y-85374000D01*
X180449001Y-85374000D01*
X180473387Y-85371598D01*
X180496836Y-85364485D01*
X180518447Y-85352934D01*
X180537389Y-85337389D01*
X180552934Y-85318447D01*
X180564485Y-85296836D01*
X180571598Y-85273387D01*
X180574000Y-85249001D01*
X180574000Y-84405641D01*
X180575083Y-84394645D01*
X180576501Y-84389971D01*
X180578800Y-84385669D01*
X180581896Y-84381896D01*
X180585669Y-84378800D01*
X180589971Y-84376501D01*
X180594645Y-84375083D01*
X180605641Y-84374000D01*
X180894359Y-84374000D01*
X180905355Y-84375083D01*
X180905355Y-84375083D01*
G37*
G36*
X139162517Y-88333781D02*
G01*
X139289946Y-88372436D01*
X139407383Y-88435208D01*
X139510317Y-88519683D01*
X139594792Y-88622617D01*
X139657564Y-88740054D01*
X139696219Y-88867483D01*
X139709270Y-89000000D01*
X139696219Y-89132517D01*
X139657564Y-89259946D01*
X139594792Y-89377383D01*
X139510317Y-89480317D01*
X139407383Y-89564792D01*
X139289946Y-89627564D01*
X139162517Y-89666219D01*
X139063205Y-89676000D01*
X138996795Y-89676000D01*
X138897483Y-89666219D01*
X138770054Y-89627564D01*
X138652617Y-89564792D01*
X138549683Y-89480317D01*
X138465208Y-89377383D01*
X138402436Y-89259946D01*
X138363781Y-89132517D01*
X138350730Y-89000000D01*
X138363781Y-88867483D01*
X138402436Y-88740054D01*
X138465208Y-88622617D01*
X138549683Y-88519683D01*
X138652617Y-88435208D01*
X138770054Y-88372436D01*
X138897483Y-88333781D01*
X138996795Y-88324000D01*
X139063205Y-88324000D01*
X139162517Y-88333781D01*
X139162517Y-88333781D01*
G37*
G36*
X175129591Y-88570585D02*
G01*
X175163569Y-88580893D01*
X175194890Y-88597634D01*
X175222339Y-88620161D01*
X175244866Y-88647610D01*
X175261607Y-88678931D01*
X175271915Y-88712909D01*
X175276000Y-88754390D01*
X175276000Y-89355610D01*
X175271915Y-89397091D01*
X175261607Y-89431069D01*
X175244866Y-89462390D01*
X175222339Y-89489839D01*
X175194890Y-89512366D01*
X175163569Y-89529107D01*
X175129591Y-89539415D01*
X175088110Y-89543500D01*
X174411890Y-89543500D01*
X174370409Y-89539415D01*
X174336431Y-89529107D01*
X174305110Y-89512366D01*
X174277661Y-89489839D01*
X174255134Y-89462390D01*
X174238393Y-89431069D01*
X174228085Y-89397091D01*
X174224000Y-89355610D01*
X174224000Y-88754390D01*
X174228085Y-88712909D01*
X174238393Y-88678931D01*
X174255134Y-88647610D01*
X174277661Y-88620161D01*
X174305110Y-88597634D01*
X174336431Y-88580893D01*
X174370409Y-88570585D01*
X174411890Y-88566500D01*
X175088110Y-88566500D01*
X175129591Y-88570585D01*
X175129591Y-88570585D01*
G37*
G36*
X155226000Y-89471000D02*
G01*
X154474000Y-89471000D01*
X154474000Y-88309000D01*
X155226000Y-88309000D01*
X155226000Y-89471000D01*
X155226000Y-89471000D01*
G37*
G36*
X153326000Y-89471000D02*
G01*
X152574000Y-89471000D01*
X152574000Y-88309000D01*
X153326000Y-88309000D01*
X153326000Y-89471000D01*
X153326000Y-89471000D01*
G37*
G36*
X200736591Y-88238085D02*
G01*
X200770569Y-88248393D01*
X200801890Y-88265134D01*
X200829339Y-88287661D01*
X200851866Y-88315110D01*
X200868607Y-88346431D01*
X200878915Y-88380409D01*
X200883000Y-88421890D01*
X200883000Y-89098110D01*
X200878915Y-89139591D01*
X200868607Y-89173569D01*
X200851866Y-89204890D01*
X200829339Y-89232339D01*
X200801890Y-89254866D01*
X200770569Y-89271607D01*
X200736591Y-89281915D01*
X200695110Y-89286000D01*
X200093890Y-89286000D01*
X200052409Y-89281915D01*
X200018431Y-89271607D01*
X199987110Y-89254866D01*
X199959661Y-89232339D01*
X199937134Y-89204890D01*
X199920393Y-89173569D01*
X199910085Y-89139591D01*
X199906000Y-89098110D01*
X199906000Y-88421890D01*
X199910085Y-88380409D01*
X199920393Y-88346431D01*
X199937134Y-88315110D01*
X199959661Y-88287661D01*
X199987110Y-88265134D01*
X200018431Y-88248393D01*
X200052409Y-88238085D01*
X200093890Y-88234000D01*
X200695110Y-88234000D01*
X200736591Y-88238085D01*
X200736591Y-88238085D01*
G37*
G36*
X202311591Y-88238085D02*
G01*
X202345569Y-88248393D01*
X202376890Y-88265134D01*
X202404339Y-88287661D01*
X202426866Y-88315110D01*
X202443607Y-88346431D01*
X202453915Y-88380409D01*
X202458000Y-88421890D01*
X202458000Y-89098110D01*
X202453915Y-89139591D01*
X202443607Y-89173569D01*
X202426866Y-89204890D01*
X202404339Y-89232339D01*
X202376890Y-89254866D01*
X202345569Y-89271607D01*
X202311591Y-89281915D01*
X202270110Y-89286000D01*
X201668890Y-89286000D01*
X201627409Y-89281915D01*
X201593431Y-89271607D01*
X201562110Y-89254866D01*
X201534661Y-89232339D01*
X201512134Y-89204890D01*
X201495393Y-89173569D01*
X201485085Y-89139591D01*
X201481000Y-89098110D01*
X201481000Y-88421890D01*
X201485085Y-88380409D01*
X201495393Y-88346431D01*
X201512134Y-88315110D01*
X201534661Y-88287661D01*
X201562110Y-88265134D01*
X201593431Y-88248393D01*
X201627409Y-88238085D01*
X201668890Y-88234000D01*
X202270110Y-88234000D01*
X202311591Y-88238085D01*
X202311591Y-88238085D01*
G37*
G36*
X164676000Y-89176000D02*
G01*
X163924000Y-89176000D01*
X163924000Y-88024000D01*
X164676000Y-88024000D01*
X164676000Y-89176000D01*
X164676000Y-89176000D01*
G37*
G36*
X162526000Y-89176000D02*
G01*
X161774000Y-89176000D01*
X161774000Y-88024000D01*
X162526000Y-88024000D01*
X162526000Y-89176000D01*
X162526000Y-89176000D01*
G37*
G36*
X167501188Y-87244607D02*
G01*
X167576627Y-87252037D01*
X167746466Y-87303557D01*
X167902991Y-87387222D01*
X167919779Y-87401000D01*
X168040186Y-87499814D01*
X168114566Y-87590448D01*
X168152778Y-87637009D01*
X168236443Y-87793534D01*
X168287963Y-87963373D01*
X168305359Y-88140000D01*
X168287963Y-88316627D01*
X168238935Y-88478250D01*
X168236442Y-88486468D01*
X168194611Y-88564728D01*
X168152778Y-88642991D01*
X168129237Y-88671676D01*
X168040186Y-88780186D01*
X167946757Y-88856860D01*
X167902991Y-88892778D01*
X167746466Y-88976443D01*
X167576627Y-89027963D01*
X167510442Y-89034482D01*
X167444260Y-89041000D01*
X167355740Y-89041000D01*
X167289558Y-89034482D01*
X167223373Y-89027963D01*
X167053534Y-88976443D01*
X166897009Y-88892778D01*
X166853243Y-88856860D01*
X166759814Y-88780186D01*
X166670763Y-88671676D01*
X166647222Y-88642991D01*
X166605389Y-88564728D01*
X166563558Y-88486468D01*
X166561065Y-88478250D01*
X166512037Y-88316627D01*
X166494641Y-88140000D01*
X166512037Y-87963373D01*
X166563557Y-87793534D01*
X166647222Y-87637009D01*
X166685434Y-87590448D01*
X166759814Y-87499814D01*
X166880221Y-87401000D01*
X166897009Y-87387222D01*
X167053534Y-87303557D01*
X167223373Y-87252037D01*
X167298812Y-87244607D01*
X167355740Y-87239000D01*
X167444260Y-87239000D01*
X167501188Y-87244607D01*
X167501188Y-87244607D01*
G37*
G36*
X193519928Y-88276764D02*
G01*
X193541009Y-88283160D01*
X193560445Y-88293548D01*
X193577476Y-88307524D01*
X193591452Y-88324555D01*
X193601840Y-88343991D01*
X193608236Y-88365072D01*
X193611000Y-88393140D01*
X193611000Y-88856860D01*
X193608236Y-88884928D01*
X193601840Y-88906009D01*
X193591452Y-88925445D01*
X193577476Y-88942476D01*
X193560445Y-88956452D01*
X193541009Y-88966840D01*
X193519928Y-88973236D01*
X193491860Y-88976000D01*
X191878140Y-88976000D01*
X191850072Y-88973236D01*
X191828991Y-88966840D01*
X191809555Y-88956452D01*
X191792524Y-88942476D01*
X191778548Y-88925445D01*
X191768160Y-88906009D01*
X191761764Y-88884928D01*
X191759000Y-88856860D01*
X191759000Y-88393140D01*
X191761764Y-88365072D01*
X191768160Y-88343991D01*
X191778548Y-88324555D01*
X191792524Y-88307524D01*
X191809555Y-88293548D01*
X191828991Y-88283160D01*
X191850072Y-88276764D01*
X191878140Y-88274000D01*
X193491860Y-88274000D01*
X193519928Y-88276764D01*
X193519928Y-88276764D01*
G37*
G36*
X198669928Y-88276764D02*
G01*
X198691009Y-88283160D01*
X198710445Y-88293548D01*
X198727476Y-88307524D01*
X198741452Y-88324555D01*
X198751840Y-88343991D01*
X198758236Y-88365072D01*
X198761000Y-88393140D01*
X198761000Y-88856860D01*
X198758236Y-88884928D01*
X198751840Y-88906009D01*
X198741452Y-88925445D01*
X198727476Y-88942476D01*
X198710445Y-88956452D01*
X198691009Y-88966840D01*
X198669928Y-88973236D01*
X198641860Y-88976000D01*
X197028140Y-88976000D01*
X197000072Y-88973236D01*
X196978991Y-88966840D01*
X196959555Y-88956452D01*
X196942524Y-88942476D01*
X196928548Y-88925445D01*
X196918160Y-88906009D01*
X196911764Y-88884928D01*
X196909000Y-88856860D01*
X196909000Y-88393140D01*
X196911764Y-88365072D01*
X196918160Y-88343991D01*
X196928548Y-88324555D01*
X196942524Y-88307524D01*
X196959555Y-88293548D01*
X196978991Y-88283160D01*
X197000072Y-88276764D01*
X197028140Y-88274000D01*
X198641860Y-88274000D01*
X198669928Y-88276764D01*
X198669928Y-88276764D01*
G37*
G36*
X190489591Y-87861085D02*
G01*
X190523569Y-87871393D01*
X190554890Y-87888134D01*
X190582339Y-87910661D01*
X190604866Y-87938110D01*
X190621607Y-87969431D01*
X190631915Y-88003409D01*
X190636000Y-88044890D01*
X190636000Y-88646110D01*
X190631915Y-88687591D01*
X190621607Y-88721569D01*
X190604866Y-88752890D01*
X190582339Y-88780339D01*
X190554890Y-88802866D01*
X190523569Y-88819607D01*
X190489591Y-88829915D01*
X190448110Y-88834000D01*
X189771890Y-88834000D01*
X189730409Y-88829915D01*
X189696431Y-88819607D01*
X189665110Y-88802866D01*
X189637661Y-88780339D01*
X189615134Y-88752890D01*
X189598393Y-88721569D01*
X189588085Y-88687591D01*
X189584000Y-88646110D01*
X189584000Y-88044890D01*
X189588085Y-88003409D01*
X189598393Y-87969431D01*
X189615134Y-87938110D01*
X189637661Y-87910661D01*
X189665110Y-87888134D01*
X189696431Y-87871393D01*
X189730409Y-87861085D01*
X189771890Y-87857000D01*
X190448110Y-87857000D01*
X190489591Y-87861085D01*
X190489591Y-87861085D01*
G37*
G36*
X142347747Y-86810921D02*
G01*
X142427376Y-86818764D01*
X142580627Y-86865252D01*
X142580630Y-86865253D01*
X142721863Y-86940744D01*
X142845659Y-87042341D01*
X142947256Y-87166137D01*
X143022747Y-87307370D01*
X143022748Y-87307373D01*
X143069236Y-87460624D01*
X143084933Y-87620000D01*
X143069236Y-87779376D01*
X143027522Y-87916890D01*
X143022747Y-87932630D01*
X142947256Y-88073863D01*
X142845659Y-88197659D01*
X142721863Y-88299256D01*
X142580630Y-88374747D01*
X142580627Y-88374748D01*
X142427376Y-88421236D01*
X142347747Y-88429079D01*
X142307934Y-88433000D01*
X141952066Y-88433000D01*
X141912253Y-88429079D01*
X141832624Y-88421236D01*
X141679373Y-88374748D01*
X141679370Y-88374747D01*
X141538137Y-88299256D01*
X141414341Y-88197659D01*
X141312744Y-88073863D01*
X141237253Y-87932630D01*
X141232478Y-87916890D01*
X141190764Y-87779376D01*
X141175067Y-87620000D01*
X141190764Y-87460624D01*
X141237252Y-87307373D01*
X141237253Y-87307370D01*
X141312744Y-87166137D01*
X141414341Y-87042341D01*
X141538137Y-86940744D01*
X141679370Y-86865253D01*
X141679373Y-86865252D01*
X141832624Y-86818764D01*
X141912253Y-86810921D01*
X141952066Y-86807000D01*
X142307934Y-86807000D01*
X142347747Y-86810921D01*
X142347747Y-86810921D01*
G37*
G36*
X172577747Y-86690921D02*
G01*
X172657376Y-86698764D01*
X172810627Y-86745252D01*
X172810630Y-86745253D01*
X172951863Y-86820744D01*
X173075659Y-86922341D01*
X173177256Y-87046137D01*
X173252747Y-87187370D01*
X173252748Y-87187373D01*
X173299236Y-87340624D01*
X173314933Y-87500000D01*
X173299236Y-87659376D01*
X173252862Y-87812251D01*
X173252747Y-87812630D01*
X173177256Y-87953863D01*
X173075659Y-88077659D01*
X172951863Y-88179256D01*
X172810630Y-88254747D01*
X172810627Y-88254748D01*
X172657376Y-88301236D01*
X172593532Y-88307524D01*
X172537934Y-88313000D01*
X172182066Y-88313000D01*
X172126468Y-88307524D01*
X172062624Y-88301236D01*
X171909373Y-88254748D01*
X171909370Y-88254747D01*
X171768137Y-88179256D01*
X171644341Y-88077659D01*
X171542744Y-87953863D01*
X171467253Y-87812630D01*
X171467138Y-87812251D01*
X171420764Y-87659376D01*
X171405067Y-87500000D01*
X171420764Y-87340624D01*
X171467252Y-87187373D01*
X171467253Y-87187370D01*
X171542744Y-87046137D01*
X171644341Y-86922341D01*
X171768137Y-86820744D01*
X171909370Y-86745253D01*
X171909373Y-86745252D01*
X172062624Y-86698764D01*
X172142253Y-86690921D01*
X172182066Y-86687000D01*
X172537934Y-86687000D01*
X172577747Y-86690921D01*
X172577747Y-86690921D01*
G37*
G36*
X139756000Y-88051000D02*
G01*
X138304000Y-88051000D01*
X138304000Y-84949000D01*
X139756000Y-84949000D01*
X139756000Y-88051000D01*
X139756000Y-88051000D01*
G37*
G36*
X158559591Y-87045085D02*
G01*
X158593569Y-87055393D01*
X158624890Y-87072134D01*
X158652339Y-87094661D01*
X158674866Y-87122110D01*
X158691607Y-87153431D01*
X158701915Y-87187409D01*
X158706000Y-87228890D01*
X158706000Y-87830110D01*
X158701915Y-87871591D01*
X158691607Y-87905569D01*
X158674866Y-87936890D01*
X158652339Y-87964339D01*
X158624890Y-87986866D01*
X158593569Y-88003607D01*
X158559591Y-88013915D01*
X158518110Y-88018000D01*
X157841890Y-88018000D01*
X157800409Y-88013915D01*
X157766431Y-88003607D01*
X157735110Y-87986866D01*
X157707661Y-87964339D01*
X157685134Y-87936890D01*
X157668393Y-87905569D01*
X157658085Y-87871591D01*
X157654000Y-87830110D01*
X157654000Y-87228890D01*
X157658085Y-87187409D01*
X157668393Y-87153431D01*
X157685134Y-87122110D01*
X157707661Y-87094661D01*
X157735110Y-87072134D01*
X157766431Y-87055393D01*
X157800409Y-87045085D01*
X157841890Y-87041000D01*
X158518110Y-87041000D01*
X158559591Y-87045085D01*
X158559591Y-87045085D01*
G37*
G36*
X160239591Y-87025085D02*
G01*
X160273569Y-87035393D01*
X160304890Y-87052134D01*
X160332339Y-87074661D01*
X160354866Y-87102110D01*
X160371607Y-87133431D01*
X160381915Y-87167409D01*
X160386000Y-87208890D01*
X160386000Y-87810110D01*
X160381915Y-87851591D01*
X160371607Y-87885569D01*
X160354866Y-87916890D01*
X160332339Y-87944339D01*
X160304890Y-87966866D01*
X160273569Y-87983607D01*
X160239591Y-87993915D01*
X160198110Y-87998000D01*
X159521890Y-87998000D01*
X159480409Y-87993915D01*
X159446431Y-87983607D01*
X159415110Y-87966866D01*
X159387661Y-87944339D01*
X159365134Y-87916890D01*
X159348393Y-87885569D01*
X159338085Y-87851591D01*
X159334000Y-87810110D01*
X159334000Y-87208890D01*
X159338085Y-87167409D01*
X159348393Y-87133431D01*
X159365134Y-87102110D01*
X159387661Y-87074661D01*
X159415110Y-87052134D01*
X159446431Y-87035393D01*
X159480409Y-87025085D01*
X159521890Y-87021000D01*
X160198110Y-87021000D01*
X160239591Y-87025085D01*
X160239591Y-87025085D01*
G37*
G36*
X175119591Y-87013085D02*
G01*
X175153569Y-87023393D01*
X175184890Y-87040134D01*
X175212339Y-87062661D01*
X175234866Y-87090110D01*
X175251607Y-87121431D01*
X175261915Y-87155409D01*
X175266000Y-87196890D01*
X175266000Y-87798110D01*
X175261915Y-87839591D01*
X175251607Y-87873569D01*
X175234866Y-87904890D01*
X175212339Y-87932339D01*
X175184890Y-87954866D01*
X175153569Y-87971607D01*
X175119591Y-87981915D01*
X175078110Y-87986000D01*
X174401890Y-87986000D01*
X174360409Y-87981915D01*
X174326431Y-87971607D01*
X174295110Y-87954866D01*
X174267661Y-87932339D01*
X174245134Y-87904890D01*
X174228393Y-87873569D01*
X174218085Y-87839591D01*
X174214000Y-87798110D01*
X174214000Y-87196890D01*
X174218085Y-87155409D01*
X174228393Y-87121431D01*
X174245134Y-87090110D01*
X174267661Y-87062661D01*
X174295110Y-87040134D01*
X174326431Y-87023393D01*
X174360409Y-87013085D01*
X174401890Y-87009000D01*
X175078110Y-87009000D01*
X175119591Y-87013085D01*
X175119591Y-87013085D01*
G37*
G36*
X193519928Y-87006764D02*
G01*
X193541009Y-87013160D01*
X193560445Y-87023548D01*
X193577476Y-87037524D01*
X193591452Y-87054555D01*
X193601840Y-87073991D01*
X193608236Y-87095072D01*
X193611000Y-87123140D01*
X193611000Y-87586860D01*
X193608236Y-87614928D01*
X193601840Y-87636009D01*
X193591452Y-87655445D01*
X193577476Y-87672476D01*
X193560445Y-87686452D01*
X193541009Y-87696840D01*
X193519928Y-87703236D01*
X193491860Y-87706000D01*
X191878140Y-87706000D01*
X191850072Y-87703236D01*
X191828991Y-87696840D01*
X191809555Y-87686452D01*
X191792524Y-87672476D01*
X191778548Y-87655445D01*
X191768160Y-87636009D01*
X191761764Y-87614928D01*
X191759000Y-87586860D01*
X191759000Y-87123140D01*
X191761764Y-87095072D01*
X191768160Y-87073991D01*
X191778548Y-87054555D01*
X191792524Y-87037524D01*
X191809555Y-87023548D01*
X191828991Y-87013160D01*
X191850072Y-87006764D01*
X191878140Y-87004000D01*
X193491860Y-87004000D01*
X193519928Y-87006764D01*
X193519928Y-87006764D01*
G37*
G36*
X198669928Y-87006764D02*
G01*
X198691009Y-87013160D01*
X198710445Y-87023548D01*
X198727476Y-87037524D01*
X198741452Y-87054555D01*
X198751840Y-87073991D01*
X198758236Y-87095072D01*
X198761000Y-87123140D01*
X198761000Y-87586860D01*
X198758236Y-87614928D01*
X198751840Y-87636009D01*
X198741452Y-87655445D01*
X198727476Y-87672476D01*
X198710445Y-87686452D01*
X198691009Y-87696840D01*
X198669928Y-87703236D01*
X198641860Y-87706000D01*
X197028140Y-87706000D01*
X197000072Y-87703236D01*
X196978991Y-87696840D01*
X196959555Y-87686452D01*
X196942524Y-87672476D01*
X196928548Y-87655445D01*
X196918160Y-87636009D01*
X196911764Y-87614928D01*
X196909000Y-87586860D01*
X196909000Y-87123140D01*
X196911764Y-87095072D01*
X196918160Y-87073991D01*
X196928548Y-87054555D01*
X196942524Y-87037524D01*
X196959555Y-87023548D01*
X196978991Y-87013160D01*
X197000072Y-87006764D01*
X197028140Y-87004000D01*
X198641860Y-87004000D01*
X198669928Y-87006764D01*
X198669928Y-87006764D01*
G37*
G36*
X200736591Y-86651085D02*
G01*
X200770569Y-86661393D01*
X200801890Y-86678134D01*
X200829339Y-86700661D01*
X200851866Y-86728110D01*
X200868607Y-86759431D01*
X200878915Y-86793409D01*
X200883000Y-86834890D01*
X200883000Y-87511110D01*
X200878915Y-87552591D01*
X200868607Y-87586569D01*
X200851866Y-87617890D01*
X200829339Y-87645339D01*
X200801890Y-87667866D01*
X200770569Y-87684607D01*
X200736591Y-87694915D01*
X200695110Y-87699000D01*
X200093890Y-87699000D01*
X200052409Y-87694915D01*
X200018431Y-87684607D01*
X199987110Y-87667866D01*
X199959661Y-87645339D01*
X199937134Y-87617890D01*
X199920393Y-87586569D01*
X199910085Y-87552591D01*
X199906000Y-87511110D01*
X199906000Y-86834890D01*
X199910085Y-86793409D01*
X199920393Y-86759431D01*
X199937134Y-86728110D01*
X199959661Y-86700661D01*
X199987110Y-86678134D01*
X200018431Y-86661393D01*
X200052409Y-86651085D01*
X200093890Y-86647000D01*
X200695110Y-86647000D01*
X200736591Y-86651085D01*
X200736591Y-86651085D01*
G37*
G36*
X202311591Y-86651085D02*
G01*
X202345569Y-86661393D01*
X202376890Y-86678134D01*
X202404339Y-86700661D01*
X202426866Y-86728110D01*
X202443607Y-86759431D01*
X202453915Y-86793409D01*
X202458000Y-86834890D01*
X202458000Y-87511110D01*
X202453915Y-87552591D01*
X202443607Y-87586569D01*
X202426866Y-87617890D01*
X202404339Y-87645339D01*
X202376890Y-87667866D01*
X202345569Y-87684607D01*
X202311591Y-87694915D01*
X202270110Y-87699000D01*
X201668890Y-87699000D01*
X201627409Y-87694915D01*
X201593431Y-87684607D01*
X201562110Y-87667866D01*
X201534661Y-87645339D01*
X201512134Y-87617890D01*
X201495393Y-87586569D01*
X201485085Y-87552591D01*
X201481000Y-87511110D01*
X201481000Y-86834890D01*
X201485085Y-86793409D01*
X201495393Y-86759431D01*
X201512134Y-86728110D01*
X201534661Y-86700661D01*
X201562110Y-86678134D01*
X201593431Y-86661393D01*
X201627409Y-86651085D01*
X201668890Y-86647000D01*
X202270110Y-86647000D01*
X202311591Y-86651085D01*
X202311591Y-86651085D01*
G37*
G36*
X155226000Y-87271000D02*
G01*
X152574000Y-87271000D01*
X152574000Y-86109000D01*
X155226000Y-86109000D01*
X155226000Y-87271000D01*
X155226000Y-87271000D01*
G37*
G36*
X190489591Y-86286085D02*
G01*
X190523569Y-86296393D01*
X190554890Y-86313134D01*
X190582339Y-86335661D01*
X190604866Y-86363110D01*
X190621607Y-86394431D01*
X190631915Y-86428409D01*
X190636000Y-86469890D01*
X190636000Y-87071110D01*
X190631915Y-87112591D01*
X190621607Y-87146569D01*
X190604866Y-87177890D01*
X190582339Y-87205339D01*
X190554890Y-87227866D01*
X190523569Y-87244607D01*
X190489591Y-87254915D01*
X190448110Y-87259000D01*
X189771890Y-87259000D01*
X189730409Y-87254915D01*
X189696431Y-87244607D01*
X189665110Y-87227866D01*
X189637661Y-87205339D01*
X189615134Y-87177890D01*
X189598393Y-87146569D01*
X189588085Y-87112591D01*
X189584000Y-87071110D01*
X189584000Y-86469890D01*
X189588085Y-86428409D01*
X189598393Y-86394431D01*
X189615134Y-86363110D01*
X189637661Y-86335661D01*
X189665110Y-86313134D01*
X189696431Y-86296393D01*
X189730409Y-86286085D01*
X189771890Y-86282000D01*
X190448110Y-86282000D01*
X190489591Y-86286085D01*
X190489591Y-86286085D01*
G37*
G36*
X167510442Y-84705518D02*
G01*
X167576627Y-84712037D01*
X167746466Y-84763557D01*
X167746468Y-84763558D01*
X167811968Y-84798569D01*
X167902991Y-84847222D01*
X167930546Y-84869836D01*
X168040186Y-84959814D01*
X168120486Y-85057661D01*
X168152778Y-85097009D01*
X168152779Y-85097011D01*
X168211789Y-85207409D01*
X168236443Y-85253534D01*
X168287963Y-85423373D01*
X168305359Y-85600000D01*
X168287963Y-85776627D01*
X168236443Y-85946466D01*
X168152778Y-86102991D01*
X168124047Y-86138000D01*
X168040186Y-86240186D01*
X167951297Y-86313134D01*
X167902991Y-86352778D01*
X167902989Y-86352779D01*
X167761497Y-86428409D01*
X167746466Y-86436443D01*
X167576627Y-86487963D01*
X167510443Y-86494481D01*
X167444260Y-86501000D01*
X167355740Y-86501000D01*
X167289557Y-86494481D01*
X167223373Y-86487963D01*
X167053534Y-86436443D01*
X167038504Y-86428409D01*
X166897011Y-86352779D01*
X166897009Y-86352778D01*
X166848703Y-86313134D01*
X166759814Y-86240186D01*
X166675953Y-86138000D01*
X166647222Y-86102991D01*
X166563557Y-85946466D01*
X166512037Y-85776627D01*
X166494641Y-85600000D01*
X166512037Y-85423373D01*
X166563557Y-85253534D01*
X166588212Y-85207409D01*
X166647221Y-85097011D01*
X166647222Y-85097009D01*
X166679514Y-85057661D01*
X166759814Y-84959814D01*
X166869454Y-84869836D01*
X166897009Y-84847222D01*
X166988032Y-84798569D01*
X167053532Y-84763558D01*
X167053534Y-84763557D01*
X167223373Y-84712037D01*
X167289558Y-84705518D01*
X167355740Y-84699000D01*
X167444260Y-84699000D01*
X167510442Y-84705518D01*
X167510442Y-84705518D01*
G37*
G36*
X151549591Y-85513085D02*
G01*
X151583569Y-85523393D01*
X151614890Y-85540134D01*
X151642339Y-85562661D01*
X151664866Y-85590110D01*
X151681607Y-85621431D01*
X151691915Y-85655409D01*
X151696000Y-85696890D01*
X151696000Y-86298110D01*
X151691915Y-86339591D01*
X151681607Y-86373569D01*
X151664866Y-86404890D01*
X151642339Y-86432339D01*
X151614890Y-86454866D01*
X151583569Y-86471607D01*
X151549591Y-86481915D01*
X151508110Y-86486000D01*
X150831890Y-86486000D01*
X150790409Y-86481915D01*
X150756431Y-86471607D01*
X150725110Y-86454866D01*
X150697661Y-86432339D01*
X150675134Y-86404890D01*
X150658393Y-86373569D01*
X150648085Y-86339591D01*
X150644000Y-86298110D01*
X150644000Y-85696890D01*
X150648085Y-85655409D01*
X150658393Y-85621431D01*
X150675134Y-85590110D01*
X150697661Y-85562661D01*
X150725110Y-85540134D01*
X150756431Y-85523393D01*
X150790409Y-85513085D01*
X150831890Y-85509000D01*
X151508110Y-85509000D01*
X151549591Y-85513085D01*
X151549591Y-85513085D01*
G37*
G36*
X158559591Y-85470085D02*
G01*
X158593569Y-85480393D01*
X158624890Y-85497134D01*
X158652339Y-85519661D01*
X158674866Y-85547110D01*
X158691607Y-85578431D01*
X158701915Y-85612409D01*
X158706000Y-85653890D01*
X158706000Y-86255110D01*
X158701915Y-86296591D01*
X158691607Y-86330569D01*
X158674866Y-86361890D01*
X158652339Y-86389339D01*
X158624890Y-86411866D01*
X158593569Y-86428607D01*
X158559591Y-86438915D01*
X158518110Y-86443000D01*
X157841890Y-86443000D01*
X157800409Y-86438915D01*
X157766431Y-86428607D01*
X157735110Y-86411866D01*
X157707661Y-86389339D01*
X157685134Y-86361890D01*
X157668393Y-86330569D01*
X157658085Y-86296591D01*
X157654000Y-86255110D01*
X157654000Y-85653890D01*
X157658085Y-85612409D01*
X157668393Y-85578431D01*
X157685134Y-85547110D01*
X157707661Y-85519661D01*
X157735110Y-85497134D01*
X157766431Y-85480393D01*
X157800409Y-85470085D01*
X157841890Y-85466000D01*
X158518110Y-85466000D01*
X158559591Y-85470085D01*
X158559591Y-85470085D01*
G37*
G36*
X193519928Y-85736764D02*
G01*
X193541009Y-85743160D01*
X193560445Y-85753548D01*
X193577476Y-85767524D01*
X193591452Y-85784555D01*
X193601840Y-85803991D01*
X193608236Y-85825072D01*
X193611000Y-85853140D01*
X193611000Y-86316860D01*
X193608236Y-86344928D01*
X193601840Y-86366009D01*
X193591452Y-86385445D01*
X193577476Y-86402476D01*
X193560445Y-86416452D01*
X193541009Y-86426840D01*
X193519928Y-86433236D01*
X193491860Y-86436000D01*
X191878140Y-86436000D01*
X191850072Y-86433236D01*
X191828991Y-86426840D01*
X191809555Y-86416452D01*
X191792524Y-86402476D01*
X191778548Y-86385445D01*
X191768160Y-86366009D01*
X191761764Y-86344928D01*
X191759000Y-86316860D01*
X191759000Y-85853140D01*
X191761764Y-85825072D01*
X191768160Y-85803991D01*
X191778548Y-85784555D01*
X191792524Y-85767524D01*
X191809555Y-85753548D01*
X191828991Y-85743160D01*
X191850072Y-85736764D01*
X191878140Y-85734000D01*
X193491860Y-85734000D01*
X193519928Y-85736764D01*
X193519928Y-85736764D01*
G37*
G36*
X198669928Y-85736764D02*
G01*
X198691009Y-85743160D01*
X198710445Y-85753548D01*
X198727476Y-85767524D01*
X198741452Y-85784555D01*
X198751840Y-85803991D01*
X198758236Y-85825072D01*
X198761000Y-85853140D01*
X198761000Y-86316860D01*
X198758236Y-86344928D01*
X198751840Y-86366009D01*
X198741452Y-86385445D01*
X198727476Y-86402476D01*
X198710445Y-86416452D01*
X198691009Y-86426840D01*
X198669928Y-86433236D01*
X198641860Y-86436000D01*
X197028140Y-86436000D01*
X197000072Y-86433236D01*
X196978991Y-86426840D01*
X196959555Y-86416452D01*
X196942524Y-86402476D01*
X196928548Y-86385445D01*
X196918160Y-86366009D01*
X196911764Y-86344928D01*
X196909000Y-86316860D01*
X196909000Y-85853140D01*
X196911764Y-85825072D01*
X196918160Y-85803991D01*
X196928548Y-85784555D01*
X196942524Y-85767524D01*
X196959555Y-85753548D01*
X196978991Y-85743160D01*
X197000072Y-85736764D01*
X197028140Y-85734000D01*
X198641860Y-85734000D01*
X198669928Y-85736764D01*
X198669928Y-85736764D01*
G37*
G36*
X142347747Y-84810921D02*
G01*
X142427376Y-84818764D01*
X142554541Y-84857339D01*
X142580630Y-84865253D01*
X142721863Y-84940744D01*
X142845659Y-85042341D01*
X142947256Y-85166137D01*
X143022747Y-85307370D01*
X143022748Y-85307373D01*
X143069236Y-85460624D01*
X143084933Y-85620000D01*
X143069236Y-85779376D01*
X143030934Y-85905641D01*
X143022747Y-85932630D01*
X142947256Y-86073863D01*
X142845659Y-86197659D01*
X142721863Y-86299256D01*
X142580630Y-86374747D01*
X142580627Y-86374748D01*
X142427376Y-86421236D01*
X142352536Y-86428607D01*
X142307934Y-86433000D01*
X141952066Y-86433000D01*
X141907464Y-86428607D01*
X141832624Y-86421236D01*
X141679373Y-86374748D01*
X141679370Y-86374747D01*
X141538137Y-86299256D01*
X141414341Y-86197659D01*
X141312744Y-86073863D01*
X141237253Y-85932630D01*
X141229066Y-85905641D01*
X141190764Y-85779376D01*
X141175067Y-85620000D01*
X141190764Y-85460624D01*
X141237252Y-85307373D01*
X141237253Y-85307370D01*
X141312744Y-85166137D01*
X141414341Y-85042341D01*
X141538137Y-84940744D01*
X141679370Y-84865253D01*
X141705459Y-84857339D01*
X141832624Y-84818764D01*
X141912253Y-84810921D01*
X141952066Y-84807000D01*
X142307934Y-84807000D01*
X142347747Y-84810921D01*
X142347747Y-84810921D01*
G37*
G36*
X160239591Y-85450085D02*
G01*
X160273569Y-85460393D01*
X160304890Y-85477134D01*
X160332339Y-85499661D01*
X160354866Y-85527110D01*
X160371607Y-85558431D01*
X160381915Y-85592409D01*
X160386000Y-85633890D01*
X160386000Y-86235110D01*
X160381915Y-86276591D01*
X160371607Y-86310569D01*
X160354866Y-86341890D01*
X160332339Y-86369339D01*
X160304890Y-86391866D01*
X160273569Y-86408607D01*
X160239591Y-86418915D01*
X160198110Y-86423000D01*
X159521890Y-86423000D01*
X159480409Y-86418915D01*
X159446431Y-86408607D01*
X159415110Y-86391866D01*
X159387661Y-86369339D01*
X159365134Y-86341890D01*
X159348393Y-86310569D01*
X159338085Y-86276591D01*
X159334000Y-86235110D01*
X159334000Y-85633890D01*
X159338085Y-85592409D01*
X159348393Y-85558431D01*
X159365134Y-85527110D01*
X159387661Y-85499661D01*
X159415110Y-85477134D01*
X159446431Y-85460393D01*
X159480409Y-85450085D01*
X159521890Y-85446000D01*
X160198110Y-85446000D01*
X160239591Y-85450085D01*
X160239591Y-85450085D01*
G37*
G36*
X175119591Y-85438085D02*
G01*
X175153569Y-85448393D01*
X175184890Y-85465134D01*
X175212339Y-85487661D01*
X175234866Y-85515110D01*
X175251607Y-85546431D01*
X175261915Y-85580409D01*
X175266000Y-85621890D01*
X175266000Y-86223110D01*
X175261915Y-86264591D01*
X175251607Y-86298569D01*
X175234866Y-86329890D01*
X175212339Y-86357339D01*
X175184890Y-86379866D01*
X175153569Y-86396607D01*
X175119591Y-86406915D01*
X175078110Y-86411000D01*
X174401890Y-86411000D01*
X174360409Y-86406915D01*
X174326431Y-86396607D01*
X174295110Y-86379866D01*
X174267661Y-86357339D01*
X174245134Y-86329890D01*
X174228393Y-86298569D01*
X174218085Y-86264591D01*
X174214000Y-86223110D01*
X174214000Y-85621890D01*
X174218085Y-85580409D01*
X174228393Y-85546431D01*
X174245134Y-85515110D01*
X174267661Y-85487661D01*
X174295110Y-85465134D01*
X174326431Y-85448393D01*
X174360409Y-85438085D01*
X174401890Y-85434000D01*
X175078110Y-85434000D01*
X175119591Y-85438085D01*
X175119591Y-85438085D01*
G37*
G36*
X172577747Y-84690921D02*
G01*
X172657376Y-84698764D01*
X172810627Y-84745252D01*
X172810630Y-84745253D01*
X172951863Y-84820744D01*
X173075659Y-84922341D01*
X173177256Y-85046137D01*
X173252747Y-85187370D01*
X173252748Y-85187373D01*
X173299236Y-85340624D01*
X173314933Y-85500000D01*
X173299236Y-85659376D01*
X173255368Y-85803991D01*
X173252747Y-85812630D01*
X173177256Y-85953863D01*
X173075659Y-86077659D01*
X172951863Y-86179256D01*
X172810630Y-86254747D01*
X172810627Y-86254748D01*
X172657376Y-86301236D01*
X172577747Y-86309079D01*
X172537934Y-86313000D01*
X172182066Y-86313000D01*
X172142253Y-86309079D01*
X172062624Y-86301236D01*
X171909373Y-86254748D01*
X171909370Y-86254747D01*
X171768137Y-86179256D01*
X171644341Y-86077659D01*
X171542744Y-85953863D01*
X171467253Y-85812630D01*
X171464632Y-85803991D01*
X171420764Y-85659376D01*
X171405067Y-85500000D01*
X171420764Y-85340624D01*
X171467252Y-85187373D01*
X171467253Y-85187370D01*
X171542744Y-85046137D01*
X171644341Y-84922341D01*
X171768137Y-84820744D01*
X171909370Y-84745253D01*
X171909373Y-84745252D01*
X172062624Y-84698764D01*
X172142253Y-84690921D01*
X172182066Y-84687000D01*
X172537934Y-84687000D01*
X172577747Y-84690921D01*
X172577747Y-84690921D01*
G37*
G36*
X202311591Y-85065085D02*
G01*
X202345569Y-85075393D01*
X202376890Y-85092134D01*
X202404339Y-85114661D01*
X202426866Y-85142110D01*
X202443607Y-85173431D01*
X202453915Y-85207409D01*
X202458000Y-85248890D01*
X202458000Y-85925110D01*
X202453915Y-85966591D01*
X202443607Y-86000569D01*
X202426866Y-86031890D01*
X202404339Y-86059339D01*
X202376890Y-86081866D01*
X202345569Y-86098607D01*
X202311591Y-86108915D01*
X202270110Y-86113000D01*
X201668890Y-86113000D01*
X201627409Y-86108915D01*
X201593431Y-86098607D01*
X201562110Y-86081866D01*
X201534661Y-86059339D01*
X201512134Y-86031890D01*
X201495393Y-86000569D01*
X201485085Y-85966591D01*
X201481000Y-85925110D01*
X201481000Y-85248890D01*
X201485085Y-85207409D01*
X201495393Y-85173431D01*
X201512134Y-85142110D01*
X201534661Y-85114661D01*
X201562110Y-85092134D01*
X201593431Y-85075393D01*
X201627409Y-85065085D01*
X201668890Y-85061000D01*
X202270110Y-85061000D01*
X202311591Y-85065085D01*
X202311591Y-85065085D01*
G37*
G36*
X200736591Y-85065085D02*
G01*
X200770569Y-85075393D01*
X200801890Y-85092134D01*
X200829339Y-85114661D01*
X200851866Y-85142110D01*
X200868607Y-85173431D01*
X200878915Y-85207409D01*
X200883000Y-85248890D01*
X200883000Y-85925110D01*
X200878915Y-85966591D01*
X200868607Y-86000569D01*
X200851866Y-86031890D01*
X200829339Y-86059339D01*
X200801890Y-86081866D01*
X200770569Y-86098607D01*
X200736591Y-86108915D01*
X200695110Y-86113000D01*
X200093890Y-86113000D01*
X200052409Y-86108915D01*
X200018431Y-86098607D01*
X199987110Y-86081866D01*
X199959661Y-86059339D01*
X199937134Y-86031890D01*
X199920393Y-86000569D01*
X199910085Y-85966591D01*
X199906000Y-85925110D01*
X199906000Y-85248890D01*
X199910085Y-85207409D01*
X199920393Y-85173431D01*
X199937134Y-85142110D01*
X199959661Y-85114661D01*
X199987110Y-85092134D01*
X200018431Y-85075393D01*
X200052409Y-85065085D01*
X200093890Y-85061000D01*
X200695110Y-85061000D01*
X200736591Y-85065085D01*
X200736591Y-85065085D01*
G37*
G36*
X153286468Y-83933565D02*
G01*
X153325138Y-83945296D01*
X153360777Y-83964346D01*
X153392017Y-83989983D01*
X153417654Y-84021223D01*
X153436704Y-84056862D01*
X153448435Y-84095532D01*
X153453000Y-84141888D01*
X153453000Y-85218112D01*
X153448435Y-85264468D01*
X153436704Y-85303138D01*
X153417654Y-85338777D01*
X153392017Y-85370017D01*
X153360777Y-85395654D01*
X153325138Y-85414704D01*
X153286468Y-85426435D01*
X153240112Y-85431000D01*
X152588888Y-85431000D01*
X152542532Y-85426435D01*
X152503862Y-85414704D01*
X152468223Y-85395654D01*
X152436983Y-85370017D01*
X152411346Y-85338777D01*
X152392296Y-85303138D01*
X152380565Y-85264468D01*
X152376000Y-85218112D01*
X152376000Y-84141888D01*
X152380565Y-84095532D01*
X152392296Y-84056862D01*
X152411346Y-84021223D01*
X152436983Y-83989983D01*
X152468223Y-83964346D01*
X152503862Y-83945296D01*
X152542532Y-83933565D01*
X152588888Y-83929000D01*
X153240112Y-83929000D01*
X153286468Y-83933565D01*
X153286468Y-83933565D01*
G37*
G36*
X155161468Y-83933565D02*
G01*
X155200138Y-83945296D01*
X155235777Y-83964346D01*
X155267017Y-83989983D01*
X155292654Y-84021223D01*
X155311704Y-84056862D01*
X155323435Y-84095532D01*
X155328000Y-84141888D01*
X155328000Y-85218112D01*
X155323435Y-85264468D01*
X155311704Y-85303138D01*
X155292654Y-85338777D01*
X155267017Y-85370017D01*
X155235777Y-85395654D01*
X155200138Y-85414704D01*
X155161468Y-85426435D01*
X155115112Y-85431000D01*
X154463888Y-85431000D01*
X154417532Y-85426435D01*
X154378862Y-85414704D01*
X154343223Y-85395654D01*
X154311983Y-85370017D01*
X154286346Y-85338777D01*
X154267296Y-85303138D01*
X154255565Y-85264468D01*
X154251000Y-85218112D01*
X154251000Y-84141888D01*
X154255565Y-84095532D01*
X154267296Y-84056862D01*
X154286346Y-84021223D01*
X154311983Y-83989983D01*
X154343223Y-83964346D01*
X154378862Y-83945296D01*
X154417532Y-83933565D01*
X154463888Y-83929000D01*
X155115112Y-83929000D01*
X155161468Y-83933565D01*
X155161468Y-83933565D01*
G37*
G36*
X198669928Y-84466764D02*
G01*
X198691009Y-84473160D01*
X198710445Y-84483548D01*
X198727476Y-84497524D01*
X198741452Y-84514555D01*
X198751840Y-84533991D01*
X198758236Y-84555072D01*
X198761000Y-84583140D01*
X198761000Y-85046860D01*
X198758236Y-85074928D01*
X198751840Y-85096009D01*
X198741452Y-85115445D01*
X198727476Y-85132476D01*
X198710445Y-85146452D01*
X198691009Y-85156840D01*
X198669928Y-85163236D01*
X198641860Y-85166000D01*
X197028140Y-85166000D01*
X197000072Y-85163236D01*
X196978991Y-85156840D01*
X196959555Y-85146452D01*
X196942524Y-85132476D01*
X196928548Y-85115445D01*
X196918160Y-85096009D01*
X196911764Y-85074928D01*
X196909000Y-85046860D01*
X196909000Y-84583140D01*
X196911764Y-84555072D01*
X196918160Y-84533991D01*
X196928548Y-84514555D01*
X196942524Y-84497524D01*
X196959555Y-84483548D01*
X196978991Y-84473160D01*
X197000072Y-84466764D01*
X197028140Y-84464000D01*
X198641860Y-84464000D01*
X198669928Y-84466764D01*
X198669928Y-84466764D01*
G37*
G36*
X193519928Y-84466764D02*
G01*
X193541009Y-84473160D01*
X193560445Y-84483548D01*
X193577476Y-84497524D01*
X193591452Y-84514555D01*
X193601840Y-84533991D01*
X193608236Y-84555072D01*
X193611000Y-84583140D01*
X193611000Y-85046860D01*
X193608236Y-85074928D01*
X193601840Y-85096009D01*
X193591452Y-85115445D01*
X193577476Y-85132476D01*
X193560445Y-85146452D01*
X193541009Y-85156840D01*
X193519928Y-85163236D01*
X193491860Y-85166000D01*
X191878140Y-85166000D01*
X191850072Y-85163236D01*
X191828991Y-85156840D01*
X191809555Y-85146452D01*
X191792524Y-85132476D01*
X191778548Y-85115445D01*
X191768160Y-85096009D01*
X191761764Y-85074928D01*
X191759000Y-85046860D01*
X191759000Y-84583140D01*
X191761764Y-84555072D01*
X191768160Y-84533991D01*
X191778548Y-84514555D01*
X191792524Y-84497524D01*
X191809555Y-84483548D01*
X191828991Y-84473160D01*
X191850072Y-84466764D01*
X191878140Y-84464000D01*
X193491860Y-84464000D01*
X193519928Y-84466764D01*
X193519928Y-84466764D01*
G37*
G36*
X164676000Y-85026000D02*
G01*
X163924000Y-85026000D01*
X163924000Y-83874000D01*
X164676000Y-83874000D01*
X164676000Y-85026000D01*
X164676000Y-85026000D01*
G37*
G36*
X162526000Y-85026000D02*
G01*
X161774000Y-85026000D01*
X161774000Y-83874000D01*
X162526000Y-83874000D01*
X162526000Y-85026000D01*
X162526000Y-85026000D01*
G37*
G36*
X151549591Y-83938085D02*
G01*
X151583569Y-83948393D01*
X151614890Y-83965134D01*
X151642339Y-83987661D01*
X151664866Y-84015110D01*
X151681607Y-84046431D01*
X151691915Y-84080409D01*
X151696000Y-84121890D01*
X151696000Y-84723110D01*
X151691915Y-84764591D01*
X151681607Y-84798569D01*
X151664866Y-84829890D01*
X151642339Y-84857339D01*
X151614890Y-84879866D01*
X151583569Y-84896607D01*
X151549591Y-84906915D01*
X151508110Y-84911000D01*
X150831890Y-84911000D01*
X150790409Y-84906915D01*
X150756431Y-84896607D01*
X150725110Y-84879866D01*
X150697661Y-84857339D01*
X150675134Y-84829890D01*
X150658393Y-84798569D01*
X150648085Y-84764591D01*
X150644000Y-84723110D01*
X150644000Y-84121890D01*
X150648085Y-84080409D01*
X150658393Y-84046431D01*
X150675134Y-84015110D01*
X150697661Y-83987661D01*
X150725110Y-83965134D01*
X150756431Y-83948393D01*
X150790409Y-83938085D01*
X150831890Y-83934000D01*
X151508110Y-83934000D01*
X151549591Y-83938085D01*
X151549591Y-83938085D01*
G37*
G36*
X139162517Y-83333781D02*
G01*
X139289946Y-83372436D01*
X139407383Y-83435208D01*
X139510317Y-83519683D01*
X139594792Y-83622617D01*
X139657564Y-83740054D01*
X139696219Y-83867483D01*
X139709270Y-84000000D01*
X139696219Y-84132517D01*
X139657564Y-84259946D01*
X139594792Y-84377383D01*
X139510317Y-84480317D01*
X139407383Y-84564792D01*
X139289946Y-84627564D01*
X139162517Y-84666219D01*
X139063205Y-84676000D01*
X138996795Y-84676000D01*
X138897483Y-84666219D01*
X138770054Y-84627564D01*
X138652617Y-84564792D01*
X138549683Y-84480317D01*
X138465208Y-84377383D01*
X138402436Y-84259946D01*
X138363781Y-84132517D01*
X138350730Y-84000000D01*
X138363781Y-83867483D01*
X138402436Y-83740054D01*
X138465208Y-83622617D01*
X138549683Y-83519683D01*
X138652617Y-83435208D01*
X138770054Y-83372436D01*
X138897483Y-83333781D01*
X138996795Y-83324000D01*
X139063205Y-83324000D01*
X139162517Y-83333781D01*
X139162517Y-83333781D01*
G37*
G36*
X200736591Y-83478085D02*
G01*
X200770569Y-83488393D01*
X200801890Y-83505134D01*
X200829339Y-83527661D01*
X200851866Y-83555110D01*
X200868607Y-83586431D01*
X200878915Y-83620409D01*
X200883000Y-83661890D01*
X200883000Y-84338110D01*
X200878915Y-84379591D01*
X200868607Y-84413569D01*
X200851866Y-84444890D01*
X200829339Y-84472339D01*
X200801890Y-84494866D01*
X200770569Y-84511607D01*
X200736591Y-84521915D01*
X200695110Y-84526000D01*
X200093890Y-84526000D01*
X200052409Y-84521915D01*
X200018431Y-84511607D01*
X199987110Y-84494866D01*
X199959661Y-84472339D01*
X199937134Y-84444890D01*
X199920393Y-84413569D01*
X199910085Y-84379591D01*
X199906000Y-84338110D01*
X199906000Y-83661890D01*
X199910085Y-83620409D01*
X199920393Y-83586431D01*
X199937134Y-83555110D01*
X199959661Y-83527661D01*
X199987110Y-83505134D01*
X200018431Y-83488393D01*
X200052409Y-83478085D01*
X200093890Y-83474000D01*
X200695110Y-83474000D01*
X200736591Y-83478085D01*
X200736591Y-83478085D01*
G37*
G36*
X202311591Y-83478085D02*
G01*
X202345569Y-83488393D01*
X202376890Y-83505134D01*
X202404339Y-83527661D01*
X202426866Y-83555110D01*
X202443607Y-83586431D01*
X202453915Y-83620409D01*
X202458000Y-83661890D01*
X202458000Y-84338110D01*
X202453915Y-84379591D01*
X202443607Y-84413569D01*
X202426866Y-84444890D01*
X202404339Y-84472339D01*
X202376890Y-84494866D01*
X202345569Y-84511607D01*
X202311591Y-84521915D01*
X202270110Y-84526000D01*
X201668890Y-84526000D01*
X201627409Y-84521915D01*
X201593431Y-84511607D01*
X201562110Y-84494866D01*
X201534661Y-84472339D01*
X201512134Y-84444890D01*
X201495393Y-84413569D01*
X201485085Y-84379591D01*
X201481000Y-84338110D01*
X201481000Y-83661890D01*
X201485085Y-83620409D01*
X201495393Y-83586431D01*
X201512134Y-83555110D01*
X201534661Y-83527661D01*
X201562110Y-83505134D01*
X201593431Y-83488393D01*
X201627409Y-83478085D01*
X201668890Y-83474000D01*
X202270110Y-83474000D01*
X202311591Y-83478085D01*
X202311591Y-83478085D01*
G37*
G36*
X142347747Y-82810921D02*
G01*
X142427376Y-82818764D01*
X142580627Y-82865252D01*
X142580630Y-82865253D01*
X142721863Y-82940744D01*
X142845659Y-83042341D01*
X142947256Y-83166137D01*
X143022747Y-83307370D01*
X143022748Y-83307373D01*
X143069236Y-83460624D01*
X143084933Y-83620000D01*
X143069236Y-83779376D01*
X143042509Y-83867483D01*
X143022747Y-83932630D01*
X142947256Y-84073863D01*
X142845659Y-84197659D01*
X142721863Y-84299256D01*
X142580630Y-84374747D01*
X142580627Y-84374748D01*
X142427376Y-84421236D01*
X142347747Y-84429079D01*
X142307934Y-84433000D01*
X141952066Y-84433000D01*
X141912253Y-84429079D01*
X141832624Y-84421236D01*
X141679373Y-84374748D01*
X141679370Y-84374747D01*
X141538137Y-84299256D01*
X141414341Y-84197659D01*
X141312744Y-84073863D01*
X141237253Y-83932630D01*
X141217491Y-83867483D01*
X141190764Y-83779376D01*
X141175067Y-83620000D01*
X141190764Y-83460624D01*
X141237252Y-83307373D01*
X141237253Y-83307370D01*
X141312744Y-83166137D01*
X141414341Y-83042341D01*
X141538137Y-82940744D01*
X141679370Y-82865253D01*
X141679373Y-82865252D01*
X141832624Y-82818764D01*
X141912253Y-82810921D01*
X141952066Y-82807000D01*
X142307934Y-82807000D01*
X142347747Y-82810921D01*
X142347747Y-82810921D01*
G37*
G36*
X172577747Y-82690921D02*
G01*
X172657376Y-82698764D01*
X172795492Y-82740661D01*
X172810630Y-82745253D01*
X172951863Y-82820744D01*
X173075659Y-82922341D01*
X173177256Y-83046137D01*
X173252747Y-83187370D01*
X173252748Y-83187373D01*
X173299236Y-83340624D01*
X173314933Y-83500000D01*
X173299236Y-83659376D01*
X173252748Y-83812627D01*
X173252747Y-83812630D01*
X173177256Y-83953863D01*
X173075659Y-84077659D01*
X172951863Y-84179256D01*
X172810630Y-84254747D01*
X172810627Y-84254748D01*
X172657376Y-84301236D01*
X172577747Y-84309079D01*
X172537934Y-84313000D01*
X172182066Y-84313000D01*
X172142253Y-84309079D01*
X172062624Y-84301236D01*
X171909373Y-84254748D01*
X171909370Y-84254747D01*
X171768137Y-84179256D01*
X171644341Y-84077659D01*
X171542744Y-83953863D01*
X171467253Y-83812630D01*
X171467252Y-83812627D01*
X171420764Y-83659376D01*
X171405067Y-83500000D01*
X171420764Y-83340624D01*
X171467252Y-83187373D01*
X171467253Y-83187370D01*
X171542744Y-83046137D01*
X171644341Y-82922341D01*
X171768137Y-82820744D01*
X171909370Y-82745253D01*
X171924508Y-82740661D01*
X172062624Y-82698764D01*
X172142253Y-82690921D01*
X172182066Y-82687000D01*
X172537934Y-82687000D01*
X172577747Y-82690921D01*
X172577747Y-82690921D01*
G37*
G36*
X168301000Y-83961000D02*
G01*
X166499000Y-83961000D01*
X166499000Y-82159000D01*
X168301000Y-82159000D01*
X168301000Y-83961000D01*
X168301000Y-83961000D01*
G37*
G36*
X136431248Y-82179976D02*
G01*
X136491924Y-82185952D01*
X136647626Y-82233184D01*
X136647628Y-82233185D01*
X136791121Y-82309883D01*
X136916896Y-82413104D01*
X137020117Y-82538879D01*
X137096639Y-82682042D01*
X137096816Y-82682374D01*
X137144048Y-82838076D01*
X137159996Y-83000000D01*
X137144048Y-83161924D01*
X137136328Y-83187373D01*
X137096815Y-83317628D01*
X137020117Y-83461121D01*
X136916896Y-83586896D01*
X136791121Y-83690117D01*
X136647628Y-83766815D01*
X136647626Y-83766816D01*
X136491924Y-83814048D01*
X136431248Y-83820024D01*
X136370574Y-83826000D01*
X136289426Y-83826000D01*
X136228752Y-83820024D01*
X136168076Y-83814048D01*
X136012374Y-83766816D01*
X136012372Y-83766815D01*
X135868879Y-83690117D01*
X135743104Y-83586896D01*
X135639883Y-83461121D01*
X135563185Y-83317628D01*
X135523672Y-83187373D01*
X135515952Y-83161924D01*
X135500004Y-83000000D01*
X135515952Y-82838076D01*
X135563184Y-82682374D01*
X135563361Y-82682042D01*
X135639883Y-82538879D01*
X135743104Y-82413104D01*
X135868879Y-82309883D01*
X136012372Y-82233185D01*
X136012374Y-82233184D01*
X136168076Y-82185952D01*
X136228752Y-82179976D01*
X136289426Y-82174000D01*
X136370574Y-82174000D01*
X136431248Y-82179976D01*
X136431248Y-82179976D01*
G37*
G36*
X158559591Y-82711085D02*
G01*
X158593569Y-82721393D01*
X158624890Y-82738134D01*
X158652339Y-82760661D01*
X158674866Y-82788110D01*
X158691607Y-82819431D01*
X158701915Y-82853409D01*
X158706000Y-82894890D01*
X158706000Y-83496110D01*
X158701915Y-83537591D01*
X158691607Y-83571569D01*
X158674866Y-83602890D01*
X158652339Y-83630339D01*
X158624890Y-83652866D01*
X158593569Y-83669607D01*
X158559591Y-83679915D01*
X158518110Y-83684000D01*
X157841890Y-83684000D01*
X157800409Y-83679915D01*
X157766431Y-83669607D01*
X157735110Y-83652866D01*
X157707661Y-83630339D01*
X157685134Y-83602890D01*
X157668393Y-83571569D01*
X157658085Y-83537591D01*
X157654000Y-83496110D01*
X157654000Y-82894890D01*
X157658085Y-82853409D01*
X157668393Y-82819431D01*
X157685134Y-82788110D01*
X157707661Y-82760661D01*
X157735110Y-82738134D01*
X157766431Y-82721393D01*
X157800409Y-82711085D01*
X157841890Y-82707000D01*
X158518110Y-82707000D01*
X158559591Y-82711085D01*
X158559591Y-82711085D01*
G37*
G36*
X160239591Y-82691085D02*
G01*
X160273569Y-82701393D01*
X160304890Y-82718134D01*
X160332339Y-82740661D01*
X160354866Y-82768110D01*
X160371607Y-82799431D01*
X160381915Y-82833409D01*
X160386000Y-82874890D01*
X160386000Y-83476110D01*
X160381915Y-83517591D01*
X160371607Y-83551569D01*
X160354866Y-83582890D01*
X160332339Y-83610339D01*
X160304890Y-83632866D01*
X160273569Y-83649607D01*
X160239591Y-83659915D01*
X160198110Y-83664000D01*
X159521890Y-83664000D01*
X159480409Y-83659915D01*
X159446431Y-83649607D01*
X159415110Y-83632866D01*
X159387661Y-83610339D01*
X159365134Y-83582890D01*
X159348393Y-83551569D01*
X159338085Y-83517591D01*
X159334000Y-83476110D01*
X159334000Y-82874890D01*
X159338085Y-82833409D01*
X159348393Y-82799431D01*
X159365134Y-82768110D01*
X159387661Y-82740661D01*
X159415110Y-82718134D01*
X159446431Y-82701393D01*
X159480409Y-82691085D01*
X159521890Y-82687000D01*
X160198110Y-82687000D01*
X160239591Y-82691085D01*
X160239591Y-82691085D01*
G37*
G36*
X147375256Y-80291298D02*
G01*
X147481579Y-80312447D01*
X147782042Y-80436903D01*
X148052451Y-80617585D01*
X148282415Y-80847549D01*
X148463097Y-81117958D01*
X148463098Y-81117960D01*
X148477520Y-81152778D01*
X148538916Y-81301000D01*
X148587553Y-81418422D01*
X148651000Y-81737389D01*
X148651000Y-82062611D01*
X148631827Y-82159000D01*
X148587553Y-82381579D01*
X148463097Y-82682042D01*
X148282415Y-82952451D01*
X148052451Y-83182415D01*
X147782042Y-83363097D01*
X147481579Y-83487553D01*
X147393193Y-83505134D01*
X147162611Y-83551000D01*
X146837389Y-83551000D01*
X146606807Y-83505134D01*
X146518421Y-83487553D01*
X146217958Y-83363097D01*
X145947549Y-83182415D01*
X145717585Y-82952451D01*
X145536903Y-82682042D01*
X145412447Y-82381579D01*
X145368173Y-82159000D01*
X145349000Y-82062611D01*
X145349000Y-81737389D01*
X145412447Y-81418422D01*
X145461085Y-81301000D01*
X145522480Y-81152778D01*
X145536902Y-81117960D01*
X145536903Y-81117958D01*
X145717585Y-80847549D01*
X145947549Y-80617585D01*
X146217958Y-80436903D01*
X146518421Y-80312447D01*
X146624744Y-80291298D01*
X146837389Y-80249000D01*
X147162611Y-80249000D01*
X147375256Y-80291298D01*
X147375256Y-80291298D01*
G37*
G36*
X207375256Y-80291298D02*
G01*
X207481579Y-80312447D01*
X207782042Y-80436903D01*
X208052451Y-80617585D01*
X208282415Y-80847549D01*
X208463097Y-81117958D01*
X208463098Y-81117960D01*
X208477520Y-81152778D01*
X208538916Y-81301000D01*
X208587553Y-81418422D01*
X208651000Y-81737389D01*
X208651000Y-82062611D01*
X208631827Y-82159000D01*
X208587553Y-82381579D01*
X208463097Y-82682042D01*
X208282415Y-82952451D01*
X208052451Y-83182415D01*
X207782042Y-83363097D01*
X207481579Y-83487553D01*
X207393193Y-83505134D01*
X207162611Y-83551000D01*
X206837389Y-83551000D01*
X206606807Y-83505134D01*
X206518421Y-83487553D01*
X206217958Y-83363097D01*
X205947549Y-83182415D01*
X205717585Y-82952451D01*
X205536903Y-82682042D01*
X205412447Y-82381579D01*
X205368173Y-82159000D01*
X205349000Y-82062611D01*
X205349000Y-81737389D01*
X205412447Y-81418422D01*
X205461085Y-81301000D01*
X205522480Y-81152778D01*
X205536902Y-81117960D01*
X205536903Y-81117958D01*
X205717585Y-80847549D01*
X205947549Y-80617585D01*
X206217958Y-80436903D01*
X206518421Y-80312447D01*
X206624744Y-80291298D01*
X206837389Y-80249000D01*
X207162611Y-80249000D01*
X207375256Y-80291298D01*
X207375256Y-80291298D01*
G37*
G36*
X178179591Y-81615585D02*
G01*
X178213569Y-81625893D01*
X178244890Y-81642634D01*
X178272339Y-81665161D01*
X178294866Y-81692610D01*
X178311607Y-81723931D01*
X178321915Y-81757909D01*
X178326000Y-81799390D01*
X178326000Y-82400610D01*
X178321915Y-82442091D01*
X178311607Y-82476069D01*
X178294866Y-82507390D01*
X178272339Y-82534839D01*
X178244890Y-82557366D01*
X178213569Y-82574107D01*
X178179591Y-82584415D01*
X178138110Y-82588500D01*
X177461890Y-82588500D01*
X177420409Y-82584415D01*
X177386431Y-82574107D01*
X177355110Y-82557366D01*
X177327661Y-82534839D01*
X177305134Y-82507390D01*
X177288393Y-82476069D01*
X177278085Y-82442091D01*
X177274000Y-82400610D01*
X177274000Y-81799390D01*
X177278085Y-81757909D01*
X177288393Y-81723931D01*
X177305134Y-81692610D01*
X177327661Y-81665161D01*
X177355110Y-81642634D01*
X177386431Y-81625893D01*
X177420409Y-81615585D01*
X177461890Y-81611500D01*
X178138110Y-81611500D01*
X178179591Y-81615585D01*
X178179591Y-81615585D01*
G37*
G36*
X185079591Y-81515585D02*
G01*
X185113569Y-81525893D01*
X185144890Y-81542634D01*
X185172339Y-81565161D01*
X185194866Y-81592610D01*
X185211607Y-81623931D01*
X185221915Y-81657909D01*
X185226000Y-81699390D01*
X185226000Y-82300610D01*
X185221915Y-82342091D01*
X185211607Y-82376069D01*
X185194866Y-82407390D01*
X185172339Y-82434839D01*
X185144890Y-82457366D01*
X185113569Y-82474107D01*
X185079591Y-82484415D01*
X185038110Y-82488500D01*
X184361890Y-82488500D01*
X184320409Y-82484415D01*
X184286431Y-82474107D01*
X184255110Y-82457366D01*
X184227661Y-82434839D01*
X184205134Y-82407390D01*
X184188393Y-82376069D01*
X184178085Y-82342091D01*
X184174000Y-82300610D01*
X184174000Y-81699390D01*
X184178085Y-81657909D01*
X184188393Y-81623931D01*
X184205134Y-81592610D01*
X184227661Y-81565161D01*
X184255110Y-81542634D01*
X184286431Y-81525893D01*
X184320409Y-81515585D01*
X184361890Y-81511500D01*
X185038110Y-81511500D01*
X185079591Y-81515585D01*
X185079591Y-81515585D01*
G37*
G36*
X158559591Y-81136085D02*
G01*
X158593569Y-81146393D01*
X158624890Y-81163134D01*
X158652339Y-81185661D01*
X158674866Y-81213110D01*
X158691607Y-81244431D01*
X158701915Y-81278409D01*
X158706000Y-81319890D01*
X158706000Y-81921110D01*
X158701915Y-81962591D01*
X158691607Y-81996569D01*
X158674866Y-82027890D01*
X158652339Y-82055339D01*
X158624890Y-82077866D01*
X158593569Y-82094607D01*
X158559591Y-82104915D01*
X158518110Y-82109000D01*
X157841890Y-82109000D01*
X157800409Y-82104915D01*
X157766431Y-82094607D01*
X157735110Y-82077866D01*
X157707661Y-82055339D01*
X157685134Y-82027890D01*
X157668393Y-81996569D01*
X157658085Y-81962591D01*
X157654000Y-81921110D01*
X157654000Y-81319890D01*
X157658085Y-81278409D01*
X157668393Y-81244431D01*
X157685134Y-81213110D01*
X157707661Y-81185661D01*
X157735110Y-81163134D01*
X157766431Y-81146393D01*
X157800409Y-81136085D01*
X157841890Y-81132000D01*
X158518110Y-81132000D01*
X158559591Y-81136085D01*
X158559591Y-81136085D01*
G37*
G36*
X160239591Y-81116085D02*
G01*
X160273569Y-81126393D01*
X160304890Y-81143134D01*
X160332339Y-81165661D01*
X160354866Y-81193110D01*
X160371607Y-81224431D01*
X160381915Y-81258409D01*
X160386000Y-81299890D01*
X160386000Y-81901110D01*
X160381915Y-81942591D01*
X160371607Y-81976569D01*
X160354866Y-82007890D01*
X160332339Y-82035339D01*
X160304890Y-82057866D01*
X160273569Y-82074607D01*
X160239591Y-82084915D01*
X160198110Y-82089000D01*
X159521890Y-82089000D01*
X159480409Y-82084915D01*
X159446431Y-82074607D01*
X159415110Y-82057866D01*
X159387661Y-82035339D01*
X159365134Y-82007890D01*
X159348393Y-81976569D01*
X159338085Y-81942591D01*
X159334000Y-81901110D01*
X159334000Y-81299890D01*
X159338085Y-81258409D01*
X159348393Y-81224431D01*
X159365134Y-81193110D01*
X159387661Y-81165661D01*
X159415110Y-81143134D01*
X159446431Y-81126393D01*
X159480409Y-81116085D01*
X159521890Y-81112000D01*
X160198110Y-81112000D01*
X160239591Y-81116085D01*
X160239591Y-81116085D01*
G37*
G36*
X182401000Y-81926000D02*
G01*
X180799000Y-81926000D01*
X180799000Y-81474000D01*
X182401000Y-81474000D01*
X182401000Y-81926000D01*
X182401000Y-81926000D01*
G37*
G36*
X192801000Y-81301000D02*
G01*
X190999000Y-81301000D01*
X190999000Y-79499000D01*
X192801000Y-79499000D01*
X192801000Y-81301000D01*
X192801000Y-81301000D01*
G37*
G36*
X199630443Y-79505519D02*
G01*
X199696627Y-79512037D01*
X199866466Y-79563557D01*
X200022991Y-79647222D01*
X200058729Y-79676552D01*
X200160186Y-79759814D01*
X200243448Y-79861271D01*
X200272778Y-79897009D01*
X200356443Y-80053534D01*
X200407963Y-80223373D01*
X200425359Y-80400000D01*
X200407963Y-80576627D01*
X200356443Y-80746466D01*
X200272778Y-80902991D01*
X200248651Y-80932390D01*
X200160186Y-81040186D01*
X200065419Y-81117958D01*
X200022991Y-81152778D01*
X199866466Y-81236443D01*
X199696627Y-81287963D01*
X199630442Y-81294482D01*
X199564260Y-81301000D01*
X199475740Y-81301000D01*
X199409558Y-81294482D01*
X199343373Y-81287963D01*
X199173534Y-81236443D01*
X199017009Y-81152778D01*
X198974581Y-81117958D01*
X198879814Y-81040186D01*
X198791349Y-80932390D01*
X198767222Y-80902991D01*
X198683557Y-80746466D01*
X198632037Y-80576627D01*
X198614641Y-80400000D01*
X198632037Y-80223373D01*
X198683557Y-80053534D01*
X198767222Y-79897009D01*
X198796552Y-79861271D01*
X198879814Y-79759814D01*
X198981271Y-79676552D01*
X199017009Y-79647222D01*
X199173534Y-79563557D01*
X199343373Y-79512037D01*
X199409557Y-79505519D01*
X199475740Y-79499000D01*
X199564260Y-79499000D01*
X199630443Y-79505519D01*
X199630443Y-79505519D01*
G37*
G36*
X197090443Y-79505519D02*
G01*
X197156627Y-79512037D01*
X197326466Y-79563557D01*
X197482991Y-79647222D01*
X197518729Y-79676552D01*
X197620186Y-79759814D01*
X197703448Y-79861271D01*
X197732778Y-79897009D01*
X197816443Y-80053534D01*
X197867963Y-80223373D01*
X197885359Y-80400000D01*
X197867963Y-80576627D01*
X197816443Y-80746466D01*
X197732778Y-80902991D01*
X197708651Y-80932390D01*
X197620186Y-81040186D01*
X197525419Y-81117958D01*
X197482991Y-81152778D01*
X197326466Y-81236443D01*
X197156627Y-81287963D01*
X197090442Y-81294482D01*
X197024260Y-81301000D01*
X196935740Y-81301000D01*
X196869558Y-81294482D01*
X196803373Y-81287963D01*
X196633534Y-81236443D01*
X196477009Y-81152778D01*
X196434581Y-81117958D01*
X196339814Y-81040186D01*
X196251349Y-80932390D01*
X196227222Y-80902991D01*
X196143557Y-80746466D01*
X196092037Y-80576627D01*
X196074641Y-80400000D01*
X196092037Y-80223373D01*
X196143557Y-80053534D01*
X196227222Y-79897009D01*
X196256552Y-79861271D01*
X196339814Y-79759814D01*
X196441271Y-79676552D01*
X196477009Y-79647222D01*
X196633534Y-79563557D01*
X196803373Y-79512037D01*
X196869557Y-79505519D01*
X196935740Y-79499000D01*
X197024260Y-79499000D01*
X197090443Y-79505519D01*
X197090443Y-79505519D01*
G37*
G36*
X194550443Y-79505519D02*
G01*
X194616627Y-79512037D01*
X194786466Y-79563557D01*
X194942991Y-79647222D01*
X194978729Y-79676552D01*
X195080186Y-79759814D01*
X195163448Y-79861271D01*
X195192778Y-79897009D01*
X195276443Y-80053534D01*
X195327963Y-80223373D01*
X195345359Y-80400000D01*
X195327963Y-80576627D01*
X195276443Y-80746466D01*
X195192778Y-80902991D01*
X195168651Y-80932390D01*
X195080186Y-81040186D01*
X194985419Y-81117958D01*
X194942991Y-81152778D01*
X194786466Y-81236443D01*
X194616627Y-81287963D01*
X194550442Y-81294482D01*
X194484260Y-81301000D01*
X194395740Y-81301000D01*
X194329558Y-81294482D01*
X194263373Y-81287963D01*
X194093534Y-81236443D01*
X193937009Y-81152778D01*
X193894581Y-81117958D01*
X193799814Y-81040186D01*
X193711349Y-80932390D01*
X193687222Y-80902991D01*
X193603557Y-80746466D01*
X193552037Y-80576627D01*
X193534641Y-80400000D01*
X193552037Y-80223373D01*
X193603557Y-80053534D01*
X193687222Y-79897009D01*
X193716552Y-79861271D01*
X193799814Y-79759814D01*
X193901271Y-79676552D01*
X193937009Y-79647222D01*
X194093534Y-79563557D01*
X194263373Y-79512037D01*
X194329557Y-79505519D01*
X194395740Y-79499000D01*
X194484260Y-79499000D01*
X194550443Y-79505519D01*
X194550443Y-79505519D01*
G37*
G36*
X178179591Y-80040585D02*
G01*
X178213569Y-80050893D01*
X178244890Y-80067634D01*
X178272339Y-80090161D01*
X178294866Y-80117610D01*
X178311607Y-80148931D01*
X178321915Y-80182909D01*
X178326000Y-80224390D01*
X178326000Y-80825610D01*
X178321915Y-80867091D01*
X178311607Y-80901069D01*
X178294866Y-80932390D01*
X178272339Y-80959839D01*
X178244890Y-80982366D01*
X178213569Y-80999107D01*
X178179591Y-81009415D01*
X178138110Y-81013500D01*
X177461890Y-81013500D01*
X177420409Y-81009415D01*
X177386431Y-80999107D01*
X177355110Y-80982366D01*
X177327661Y-80959839D01*
X177305134Y-80932390D01*
X177288393Y-80901069D01*
X177278085Y-80867091D01*
X177274000Y-80825610D01*
X177274000Y-80224390D01*
X177278085Y-80182909D01*
X177288393Y-80148931D01*
X177305134Y-80117610D01*
X177327661Y-80090161D01*
X177355110Y-80067634D01*
X177386431Y-80050893D01*
X177420409Y-80040585D01*
X177461890Y-80036500D01*
X178138110Y-80036500D01*
X178179591Y-80040585D01*
X178179591Y-80040585D01*
G37*
G36*
X139004591Y-79888085D02*
G01*
X139038569Y-79898393D01*
X139069890Y-79915134D01*
X139097339Y-79937661D01*
X139119866Y-79965110D01*
X139136607Y-79996431D01*
X139146915Y-80030409D01*
X139151000Y-80071890D01*
X139151000Y-80748110D01*
X139146915Y-80789591D01*
X139136607Y-80823569D01*
X139119866Y-80854890D01*
X139097339Y-80882339D01*
X139069890Y-80904866D01*
X139038569Y-80921607D01*
X139004591Y-80931915D01*
X138963110Y-80936000D01*
X138361890Y-80936000D01*
X138320409Y-80931915D01*
X138286431Y-80921607D01*
X138255110Y-80904866D01*
X138227661Y-80882339D01*
X138205134Y-80854890D01*
X138188393Y-80823569D01*
X138178085Y-80789591D01*
X138174000Y-80748110D01*
X138174000Y-80071890D01*
X138178085Y-80030409D01*
X138188393Y-79996431D01*
X138205134Y-79965110D01*
X138227661Y-79937661D01*
X138255110Y-79915134D01*
X138286431Y-79898393D01*
X138320409Y-79888085D01*
X138361890Y-79884000D01*
X138963110Y-79884000D01*
X139004591Y-79888085D01*
X139004591Y-79888085D01*
G37*
G36*
X140579591Y-79888085D02*
G01*
X140613569Y-79898393D01*
X140644890Y-79915134D01*
X140672339Y-79937661D01*
X140694866Y-79965110D01*
X140711607Y-79996431D01*
X140721915Y-80030409D01*
X140726000Y-80071890D01*
X140726000Y-80748110D01*
X140721915Y-80789591D01*
X140711607Y-80823569D01*
X140694866Y-80854890D01*
X140672339Y-80882339D01*
X140644890Y-80904866D01*
X140613569Y-80921607D01*
X140579591Y-80931915D01*
X140538110Y-80936000D01*
X139936890Y-80936000D01*
X139895409Y-80931915D01*
X139861431Y-80921607D01*
X139830110Y-80904866D01*
X139802661Y-80882339D01*
X139780134Y-80854890D01*
X139763393Y-80823569D01*
X139753085Y-80789591D01*
X139749000Y-80748110D01*
X139749000Y-80071890D01*
X139753085Y-80030409D01*
X139763393Y-79996431D01*
X139780134Y-79965110D01*
X139802661Y-79937661D01*
X139830110Y-79915134D01*
X139861431Y-79898393D01*
X139895409Y-79888085D01*
X139936890Y-79884000D01*
X140538110Y-79884000D01*
X140579591Y-79888085D01*
X140579591Y-79888085D01*
G37*
G36*
X185079591Y-79940585D02*
G01*
X185113569Y-79950893D01*
X185144890Y-79967634D01*
X185172339Y-79990161D01*
X185194866Y-80017610D01*
X185211607Y-80048931D01*
X185221915Y-80082909D01*
X185226000Y-80124390D01*
X185226000Y-80725610D01*
X185221915Y-80767091D01*
X185211607Y-80801069D01*
X185194866Y-80832390D01*
X185172339Y-80859839D01*
X185144890Y-80882366D01*
X185113569Y-80899107D01*
X185079591Y-80909415D01*
X185038110Y-80913500D01*
X184361890Y-80913500D01*
X184320409Y-80909415D01*
X184286431Y-80899107D01*
X184255110Y-80882366D01*
X184227661Y-80859839D01*
X184205134Y-80832390D01*
X184188393Y-80801069D01*
X184178085Y-80767091D01*
X184174000Y-80725610D01*
X184174000Y-80124390D01*
X184178085Y-80082909D01*
X184188393Y-80048931D01*
X184205134Y-80017610D01*
X184227661Y-79990161D01*
X184255110Y-79967634D01*
X184286431Y-79950893D01*
X184320409Y-79940585D01*
X184361890Y-79936500D01*
X185038110Y-79936500D01*
X185079591Y-79940585D01*
X185079591Y-79940585D01*
G37*
G36*
X182401000Y-80676000D02*
G01*
X180799000Y-80676000D01*
X180799000Y-80224000D01*
X182401000Y-80224000D01*
X182401000Y-80676000D01*
X182401000Y-80676000D01*
G37*
M02*
