G04 #@! TF.GenerationSoftware,KiCad,Pcbnew,(5.1.2)-1*
G04 #@! TF.CreationDate,2021-06-02T21:36:33+09:00*
G04 #@! TF.ProjectId,es,65732e6b-6963-4616-945f-706362585858,v1.3*
G04 #@! TF.SameCoordinates,Original*
G04 #@! TF.FileFunction,Legend,Top*
G04 #@! TF.FilePolarity,Positive*
%FSLAX46Y46*%
G04 Gerber Fmt 4.6, Leading zero omitted, Abs format (unit mm)*
G04 Created by KiCad (PCBNEW (5.1.2)-1) date 2021-06-02 21:36:33*
%MOMM*%
%LPD*%
G04 APERTURE LIST*
%ADD10C,0.300000*%
%ADD11C,0.120000*%
%ADD12C,0.150000*%
%ADD13C,3.302000*%
%ADD14C,0.100000*%
%ADD15C,0.352000*%
%ADD16C,3.552000*%
%ADD17O,1.802000X1.802000*%
%ADD18R,1.802000X1.802000*%
%ADD19R,0.752000X1.162000*%
%ADD20O,1.902000X1.626000*%
%ADD21C,0.977000*%
%ADD22O,1.352000X1.352000*%
%ADD23O,1.652000X1.652000*%
%ADD24R,1.452000X0.502000*%
%ADD25R,0.752000X1.152000*%
%ADD26C,0.702000*%
%ADD27C,1.077000*%
%ADD28R,0.452000X0.452000*%
%ADD29R,0.402000X0.452000*%
G04 APERTURE END LIST*
D10*
X165657142Y-92342857D02*
X165885714Y-92342857D01*
X166000000Y-92400000D01*
X166114285Y-92514285D01*
X166171428Y-92742857D01*
X166171428Y-93142857D01*
X166114285Y-93371428D01*
X166000000Y-93485714D01*
X165885714Y-93542857D01*
X165657142Y-93542857D01*
X165542857Y-93485714D01*
X165428571Y-93371428D01*
X165371428Y-93142857D01*
X165371428Y-92742857D01*
X165428571Y-92514285D01*
X165542857Y-92400000D01*
X165657142Y-92342857D01*
X167257142Y-93542857D02*
X166685714Y-93542857D01*
X166685714Y-92342857D01*
X167657142Y-92914285D02*
X168057142Y-92914285D01*
X168228571Y-93542857D02*
X167657142Y-93542857D01*
X167657142Y-92342857D01*
X168228571Y-92342857D01*
X168742857Y-93542857D02*
X168742857Y-92342857D01*
X169028571Y-92342857D01*
X169200000Y-92400000D01*
X169314285Y-92514285D01*
X169371428Y-92628571D01*
X169428571Y-92857142D01*
X169428571Y-93028571D01*
X169371428Y-93257142D01*
X169314285Y-93371428D01*
X169200000Y-93485714D01*
X169028571Y-93542857D01*
X168742857Y-93542857D01*
D11*
X179890000Y-89435000D02*
X179890000Y-89910000D01*
X185110000Y-84690000D02*
X184635000Y-84690000D01*
X185110000Y-85165000D02*
X185110000Y-84690000D01*
X185110000Y-89910000D02*
X184635000Y-89910000D01*
X185110000Y-89435000D02*
X185110000Y-89910000D01*
X179890000Y-84690000D02*
X180365000Y-84690000D01*
X179890000Y-85165000D02*
X179890000Y-84690000D01*
X190570000Y-81730000D02*
X190570000Y-80400000D01*
X191900000Y-81730000D02*
X190570000Y-81730000D01*
X193170000Y-81730000D02*
X193170000Y-79070000D01*
X193170000Y-79070000D02*
X200850000Y-79070000D01*
X193170000Y-81730000D02*
X200850000Y-81730000D01*
X200850000Y-81730000D02*
X200850000Y-79070000D01*
X155510000Y-88690000D02*
X155510000Y-86240000D01*
X152290000Y-86890000D02*
X152290000Y-88690000D01*
X151680000Y-85372779D02*
X151680000Y-85047221D01*
X150660000Y-85372779D02*
X150660000Y-85047221D01*
X183749221Y-93160000D02*
X184074779Y-93160000D01*
X183749221Y-92140000D02*
X184074779Y-92140000D01*
X184190000Y-81375279D02*
X184190000Y-81049721D01*
X185210000Y-81375279D02*
X185210000Y-81049721D01*
X186825221Y-93160000D02*
X187150779Y-93160000D01*
X186825221Y-92140000D02*
X187150779Y-92140000D01*
X174240000Y-90005279D02*
X174240000Y-89679721D01*
X175260000Y-90005279D02*
X175260000Y-89679721D01*
X159125000Y-81588000D02*
X159125000Y-83873000D01*
X159125000Y-83873000D02*
X160595000Y-83873000D01*
X160595000Y-83873000D02*
X160595000Y-81588000D01*
X198370000Y-93830000D02*
X198370000Y-91170000D01*
X193230000Y-93830000D02*
X198370000Y-93830000D01*
X193230000Y-91170000D02*
X198370000Y-91170000D01*
X193230000Y-93830000D02*
X193230000Y-91170000D01*
X191960000Y-93830000D02*
X190630000Y-93830000D01*
X190630000Y-93830000D02*
X190630000Y-92500000D01*
X180625221Y-92140000D02*
X180950779Y-92140000D01*
X180625221Y-93160000D02*
X180950779Y-93160000D01*
X175250000Y-86872779D02*
X175250000Y-86547221D01*
X174230000Y-86872779D02*
X174230000Y-86547221D01*
X157670000Y-82570779D02*
X157670000Y-82245221D01*
X158690000Y-82570779D02*
X158690000Y-82245221D01*
X159125000Y-85922000D02*
X159125000Y-88207000D01*
X159125000Y-88207000D02*
X160595000Y-88207000D01*
X160595000Y-88207000D02*
X160595000Y-85922000D01*
X160595000Y-92093000D02*
X160595000Y-89808000D01*
X159125000Y-92093000D02*
X160595000Y-92093000D01*
X159125000Y-89808000D02*
X159125000Y-92093000D01*
X158690000Y-86904779D02*
X158690000Y-86579221D01*
X157670000Y-86904779D02*
X157670000Y-86579221D01*
X157670000Y-90814779D02*
X157670000Y-90489221D01*
X158690000Y-90814779D02*
X158690000Y-90489221D01*
X201019221Y-86097000D02*
X201344779Y-86097000D01*
X201019221Y-85077000D02*
X201344779Y-85077000D01*
X201019221Y-83490000D02*
X201344779Y-83490000D01*
X201019221Y-84510000D02*
X201344779Y-84510000D01*
X163462779Y-91010000D02*
X163137221Y-91010000D01*
X163462779Y-89990000D02*
X163137221Y-89990000D01*
X139612779Y-80920000D02*
X139287221Y-80920000D01*
X139612779Y-79900000D02*
X139287221Y-79900000D01*
D10*
X140330000Y-91000000D02*
X135330000Y-91000000D01*
X140330000Y-82000000D02*
X140330000Y-91000000D01*
X139830000Y-82000000D02*
X140330000Y-82000000D01*
X135330000Y-82000000D02*
X139830000Y-82000000D01*
D12*
X140830000Y-84750000D02*
X140830000Y-85500000D01*
D11*
X201344779Y-87683000D02*
X201019221Y-87683000D01*
X201344779Y-86663000D02*
X201019221Y-86663000D01*
X201344779Y-88250000D02*
X201019221Y-88250000D01*
X201344779Y-89270000D02*
X201019221Y-89270000D01*
X189600000Y-87720779D02*
X189600000Y-87395221D01*
X190620000Y-87720779D02*
X190620000Y-87395221D01*
X195260000Y-89280000D02*
X197210000Y-89280000D01*
X195260000Y-89280000D02*
X193310000Y-89280000D01*
X195260000Y-84160000D02*
X197210000Y-84160000D01*
X195260000Y-84160000D02*
X191810000Y-84160000D01*
X166070000Y-92010000D02*
X168730000Y-92010000D01*
X166070000Y-84330000D02*
X166070000Y-92010000D01*
X168730000Y-84330000D02*
X168730000Y-92010000D01*
X166070000Y-84330000D02*
X168730000Y-84330000D01*
X166070000Y-83060000D02*
X166070000Y-81730000D01*
X166070000Y-81730000D02*
X167400000Y-81730000D01*
X154110578Y-83970000D02*
X153593422Y-83970000D01*
X154110578Y-85390000D02*
X153593422Y-85390000D01*
X154198578Y-91570000D02*
X153681422Y-91570000D01*
X154198578Y-90150000D02*
X153681422Y-90150000D01*
X178310000Y-81149721D02*
X178310000Y-81475279D01*
X177290000Y-81149721D02*
X177290000Y-81475279D01*
D12*
X178132380Y-88061904D02*
X178941904Y-88061904D01*
X179037142Y-88014285D01*
X179084761Y-87966666D01*
X179132380Y-87871428D01*
X179132380Y-87680952D01*
X179084761Y-87585714D01*
X179037142Y-87538095D01*
X178941904Y-87490476D01*
X178132380Y-87490476D01*
X178227619Y-87061904D02*
X178180000Y-87014285D01*
X178132380Y-86919047D01*
X178132380Y-86680952D01*
X178180000Y-86585714D01*
X178227619Y-86538095D01*
X178322857Y-86490476D01*
X178418095Y-86490476D01*
X178560952Y-86538095D01*
X179132380Y-87109523D01*
X179132380Y-86490476D01*
X189022380Y-80733333D02*
X189736666Y-80733333D01*
X189879523Y-80780952D01*
X189974761Y-80876190D01*
X190022380Y-81019047D01*
X190022380Y-81114285D01*
X189117619Y-80304761D02*
X189070000Y-80257142D01*
X189022380Y-80161904D01*
X189022380Y-79923809D01*
X189070000Y-79828571D01*
X189117619Y-79780952D01*
X189212857Y-79733333D01*
X189308095Y-79733333D01*
X189450952Y-79780952D01*
X190022380Y-80352380D01*
X190022380Y-79733333D01*
X150852380Y-89461904D02*
X151661904Y-89461904D01*
X151757142Y-89414285D01*
X151804761Y-89366666D01*
X151852380Y-89271428D01*
X151852380Y-89080952D01*
X151804761Y-88985714D01*
X151757142Y-88938095D01*
X151661904Y-88890476D01*
X150852380Y-88890476D01*
X151852380Y-87890476D02*
X151852380Y-88461904D01*
X151852380Y-88176190D02*
X150852380Y-88176190D01*
X150995238Y-88271428D01*
X151090476Y-88366666D01*
X151138095Y-88461904D01*
X151497142Y-82824166D02*
X151544761Y-82871785D01*
X151592380Y-83014642D01*
X151592380Y-83109880D01*
X151544761Y-83252738D01*
X151449523Y-83347976D01*
X151354285Y-83395595D01*
X151163809Y-83443214D01*
X151020952Y-83443214D01*
X150830476Y-83395595D01*
X150735238Y-83347976D01*
X150640000Y-83252738D01*
X150592380Y-83109880D01*
X150592380Y-83014642D01*
X150640000Y-82871785D01*
X150687619Y-82824166D01*
X150592380Y-82490833D02*
X150592380Y-81871785D01*
X150973333Y-82205119D01*
X150973333Y-82062261D01*
X151020952Y-81967023D01*
X151068571Y-81919404D01*
X151163809Y-81871785D01*
X151401904Y-81871785D01*
X151497142Y-81919404D01*
X151544761Y-81967023D01*
X151592380Y-82062261D01*
X151592380Y-82347976D01*
X151544761Y-82443214D01*
X151497142Y-82490833D01*
X185172833Y-91597142D02*
X185125214Y-91644761D01*
X184982357Y-91692380D01*
X184887119Y-91692380D01*
X184744261Y-91644761D01*
X184649023Y-91549523D01*
X184601404Y-91454285D01*
X184553785Y-91263809D01*
X184553785Y-91120952D01*
X184601404Y-90930476D01*
X184649023Y-90835238D01*
X184744261Y-90740000D01*
X184887119Y-90692380D01*
X184982357Y-90692380D01*
X185125214Y-90740000D01*
X185172833Y-90787619D01*
X185553785Y-90787619D02*
X185601404Y-90740000D01*
X185696642Y-90692380D01*
X185934738Y-90692380D01*
X186029976Y-90740000D01*
X186077595Y-90787619D01*
X186125214Y-90882857D01*
X186125214Y-90978095D01*
X186077595Y-91120952D01*
X185506166Y-91692380D01*
X186125214Y-91692380D01*
X186557142Y-81479166D02*
X186604761Y-81526785D01*
X186652380Y-81669642D01*
X186652380Y-81764880D01*
X186604761Y-81907738D01*
X186509523Y-82002976D01*
X186414285Y-82050595D01*
X186223809Y-82098214D01*
X186080952Y-82098214D01*
X185890476Y-82050595D01*
X185795238Y-82002976D01*
X185700000Y-81907738D01*
X185652380Y-81764880D01*
X185652380Y-81669642D01*
X185700000Y-81526785D01*
X185747619Y-81479166D01*
X185652380Y-80574404D02*
X185652380Y-81050595D01*
X186128571Y-81098214D01*
X186080952Y-81050595D01*
X186033333Y-80955357D01*
X186033333Y-80717261D01*
X186080952Y-80622023D01*
X186128571Y-80574404D01*
X186223809Y-80526785D01*
X186461904Y-80526785D01*
X186557142Y-80574404D01*
X186604761Y-80622023D01*
X186652380Y-80717261D01*
X186652380Y-80955357D01*
X186604761Y-81050595D01*
X186557142Y-81098214D01*
X187633833Y-91657142D02*
X187586214Y-91704761D01*
X187443357Y-91752380D01*
X187348119Y-91752380D01*
X187205261Y-91704761D01*
X187110023Y-91609523D01*
X187062404Y-91514285D01*
X187014785Y-91323809D01*
X187014785Y-91180952D01*
X187062404Y-90990476D01*
X187110023Y-90895238D01*
X187205261Y-90800000D01*
X187348119Y-90752380D01*
X187443357Y-90752380D01*
X187586214Y-90800000D01*
X187633833Y-90847619D01*
X188490976Y-90752380D02*
X188300500Y-90752380D01*
X188205261Y-90800000D01*
X188157642Y-90847619D01*
X188062404Y-90990476D01*
X188014785Y-91180952D01*
X188014785Y-91561904D01*
X188062404Y-91657142D01*
X188110023Y-91704761D01*
X188205261Y-91752380D01*
X188395738Y-91752380D01*
X188490976Y-91704761D01*
X188538595Y-91657142D01*
X188586214Y-91561904D01*
X188586214Y-91323809D01*
X188538595Y-91228571D01*
X188490976Y-91180952D01*
X188395738Y-91133333D01*
X188205261Y-91133333D01*
X188110023Y-91180952D01*
X188062404Y-91228571D01*
X188014785Y-91323809D01*
X176497142Y-89956666D02*
X176544761Y-90004285D01*
X176592380Y-90147142D01*
X176592380Y-90242380D01*
X176544761Y-90385238D01*
X176449523Y-90480476D01*
X176354285Y-90528095D01*
X176163809Y-90575714D01*
X176020952Y-90575714D01*
X175830476Y-90528095D01*
X175735238Y-90480476D01*
X175640000Y-90385238D01*
X175592380Y-90242380D01*
X175592380Y-90147142D01*
X175640000Y-90004285D01*
X175687619Y-89956666D01*
X175592380Y-89623333D02*
X175592380Y-88956666D01*
X176592380Y-89385238D01*
X161712380Y-83308095D02*
X160712380Y-83308095D01*
X160712380Y-83070000D01*
X160760000Y-82927142D01*
X160855238Y-82831904D01*
X160950476Y-82784285D01*
X161140952Y-82736666D01*
X161283809Y-82736666D01*
X161474285Y-82784285D01*
X161569523Y-82831904D01*
X161664761Y-82927142D01*
X161712380Y-83070000D01*
X161712380Y-83308095D01*
X161712380Y-81784285D02*
X161712380Y-82355714D01*
X161712380Y-82070000D02*
X160712380Y-82070000D01*
X160855238Y-82165238D01*
X160950476Y-82260476D01*
X160998095Y-82355714D01*
X189082380Y-92833333D02*
X189796666Y-92833333D01*
X189939523Y-92880952D01*
X190034761Y-92976190D01*
X190082380Y-93119047D01*
X190082380Y-93214285D01*
X189415714Y-91928571D02*
X190082380Y-91928571D01*
X189034761Y-92166666D02*
X189749047Y-92404761D01*
X189749047Y-91785714D01*
X178233333Y-93052380D02*
X177900000Y-92576190D01*
X177661904Y-93052380D02*
X177661904Y-92052380D01*
X178042857Y-92052380D01*
X178138095Y-92100000D01*
X178185714Y-92147619D01*
X178233333Y-92242857D01*
X178233333Y-92385714D01*
X178185714Y-92480952D01*
X178138095Y-92528571D01*
X178042857Y-92576190D01*
X177661904Y-92576190D01*
X179185714Y-93052380D02*
X178614285Y-93052380D01*
X178900000Y-93052380D02*
X178900000Y-92052380D01*
X178804761Y-92195238D01*
X178709523Y-92290476D01*
X178614285Y-92338095D01*
X176622380Y-86866666D02*
X176146190Y-87200000D01*
X176622380Y-87438095D02*
X175622380Y-87438095D01*
X175622380Y-87057142D01*
X175670000Y-86961904D01*
X175717619Y-86914285D01*
X175812857Y-86866666D01*
X175955714Y-86866666D01*
X176050952Y-86914285D01*
X176098571Y-86961904D01*
X176146190Y-87057142D01*
X176146190Y-87438095D01*
X175717619Y-86485714D02*
X175670000Y-86438095D01*
X175622380Y-86342857D01*
X175622380Y-86104761D01*
X175670000Y-86009523D01*
X175717619Y-85961904D01*
X175812857Y-85914285D01*
X175908095Y-85914285D01*
X176050952Y-85961904D01*
X176622380Y-86533333D01*
X176622380Y-85914285D01*
X157312380Y-82676666D02*
X156836190Y-83010000D01*
X157312380Y-83248095D02*
X156312380Y-83248095D01*
X156312380Y-82867142D01*
X156360000Y-82771904D01*
X156407619Y-82724285D01*
X156502857Y-82676666D01*
X156645714Y-82676666D01*
X156740952Y-82724285D01*
X156788571Y-82771904D01*
X156836190Y-82867142D01*
X156836190Y-83248095D01*
X156312380Y-82343333D02*
X156312380Y-81724285D01*
X156693333Y-82057619D01*
X156693333Y-81914761D01*
X156740952Y-81819523D01*
X156788571Y-81771904D01*
X156883809Y-81724285D01*
X157121904Y-81724285D01*
X157217142Y-81771904D01*
X157264761Y-81819523D01*
X157312380Y-81914761D01*
X157312380Y-82200476D01*
X157264761Y-82295714D01*
X157217142Y-82343333D01*
X161712380Y-87418095D02*
X160712380Y-87418095D01*
X160712380Y-87180000D01*
X160760000Y-87037142D01*
X160855238Y-86941904D01*
X160950476Y-86894285D01*
X161140952Y-86846666D01*
X161283809Y-86846666D01*
X161474285Y-86894285D01*
X161569523Y-86941904D01*
X161664761Y-87037142D01*
X161712380Y-87180000D01*
X161712380Y-87418095D01*
X160807619Y-86465714D02*
X160760000Y-86418095D01*
X160712380Y-86322857D01*
X160712380Y-86084761D01*
X160760000Y-85989523D01*
X160807619Y-85941904D01*
X160902857Y-85894285D01*
X160998095Y-85894285D01*
X161140952Y-85941904D01*
X161712380Y-86513333D01*
X161712380Y-85894285D01*
X161742380Y-91438095D02*
X160742380Y-91438095D01*
X160742380Y-91200000D01*
X160790000Y-91057142D01*
X160885238Y-90961904D01*
X160980476Y-90914285D01*
X161170952Y-90866666D01*
X161313809Y-90866666D01*
X161504285Y-90914285D01*
X161599523Y-90961904D01*
X161694761Y-91057142D01*
X161742380Y-91200000D01*
X161742380Y-91438095D01*
X160742380Y-90533333D02*
X160742380Y-89914285D01*
X161123333Y-90247619D01*
X161123333Y-90104761D01*
X161170952Y-90009523D01*
X161218571Y-89961904D01*
X161313809Y-89914285D01*
X161551904Y-89914285D01*
X161647142Y-89961904D01*
X161694761Y-90009523D01*
X161742380Y-90104761D01*
X161742380Y-90390476D01*
X161694761Y-90485714D01*
X161647142Y-90533333D01*
X157232380Y-86966666D02*
X156756190Y-87300000D01*
X157232380Y-87538095D02*
X156232380Y-87538095D01*
X156232380Y-87157142D01*
X156280000Y-87061904D01*
X156327619Y-87014285D01*
X156422857Y-86966666D01*
X156565714Y-86966666D01*
X156660952Y-87014285D01*
X156708571Y-87061904D01*
X156756190Y-87157142D01*
X156756190Y-87538095D01*
X156565714Y-86109523D02*
X157232380Y-86109523D01*
X156184761Y-86347619D02*
X156899047Y-86585714D01*
X156899047Y-85966666D01*
X157232380Y-89466666D02*
X156756190Y-89800000D01*
X157232380Y-90038095D02*
X156232380Y-90038095D01*
X156232380Y-89657142D01*
X156280000Y-89561904D01*
X156327619Y-89514285D01*
X156422857Y-89466666D01*
X156565714Y-89466666D01*
X156660952Y-89514285D01*
X156708571Y-89561904D01*
X156756190Y-89657142D01*
X156756190Y-90038095D01*
X156232380Y-88561904D02*
X156232380Y-89038095D01*
X156708571Y-89085714D01*
X156660952Y-89038095D01*
X156613333Y-88942857D01*
X156613333Y-88704761D01*
X156660952Y-88609523D01*
X156708571Y-88561904D01*
X156803809Y-88514285D01*
X157041904Y-88514285D01*
X157137142Y-88561904D01*
X157184761Y-88609523D01*
X157232380Y-88704761D01*
X157232380Y-88942857D01*
X157184761Y-89038095D01*
X157137142Y-89085714D01*
X203432833Y-85857142D02*
X203385214Y-85904761D01*
X203242357Y-85952380D01*
X203147119Y-85952380D01*
X203004261Y-85904761D01*
X202909023Y-85809523D01*
X202861404Y-85714285D01*
X202813785Y-85523809D01*
X202813785Y-85380952D01*
X202861404Y-85190476D01*
X202909023Y-85095238D01*
X203004261Y-85000000D01*
X203147119Y-84952380D01*
X203242357Y-84952380D01*
X203385214Y-85000000D01*
X203432833Y-85047619D01*
X204004261Y-85380952D02*
X203909023Y-85333333D01*
X203861404Y-85285714D01*
X203813785Y-85190476D01*
X203813785Y-85142857D01*
X203861404Y-85047619D01*
X203909023Y-85000000D01*
X204004261Y-84952380D01*
X204194738Y-84952380D01*
X204289976Y-85000000D01*
X204337595Y-85047619D01*
X204385214Y-85142857D01*
X204385214Y-85190476D01*
X204337595Y-85285714D01*
X204289976Y-85333333D01*
X204194738Y-85380952D01*
X204004261Y-85380952D01*
X203909023Y-85428571D01*
X203861404Y-85476190D01*
X203813785Y-85571428D01*
X203813785Y-85761904D01*
X203861404Y-85857142D01*
X203909023Y-85904761D01*
X204004261Y-85952380D01*
X204194738Y-85952380D01*
X204289976Y-85904761D01*
X204337595Y-85857142D01*
X204385214Y-85761904D01*
X204385214Y-85571428D01*
X204337595Y-85476190D01*
X204289976Y-85428571D01*
X204194738Y-85380952D01*
X203432833Y-84357142D02*
X203385214Y-84404761D01*
X203242357Y-84452380D01*
X203147119Y-84452380D01*
X203004261Y-84404761D01*
X202909023Y-84309523D01*
X202861404Y-84214285D01*
X202813785Y-84023809D01*
X202813785Y-83880952D01*
X202861404Y-83690476D01*
X202909023Y-83595238D01*
X203004261Y-83500000D01*
X203147119Y-83452380D01*
X203242357Y-83452380D01*
X203385214Y-83500000D01*
X203432833Y-83547619D01*
X203909023Y-84452380D02*
X204099500Y-84452380D01*
X204194738Y-84404761D01*
X204242357Y-84357142D01*
X204337595Y-84214285D01*
X204385214Y-84023809D01*
X204385214Y-83642857D01*
X204337595Y-83547619D01*
X204289976Y-83500000D01*
X204194738Y-83452380D01*
X204004261Y-83452380D01*
X203909023Y-83500000D01*
X203861404Y-83547619D01*
X203813785Y-83642857D01*
X203813785Y-83880952D01*
X203861404Y-83976190D01*
X203909023Y-84023809D01*
X204004261Y-84071428D01*
X204194738Y-84071428D01*
X204289976Y-84023809D01*
X204337595Y-83976190D01*
X204385214Y-83880952D01*
X162657142Y-92287142D02*
X162609523Y-92334761D01*
X162466666Y-92382380D01*
X162371428Y-92382380D01*
X162228571Y-92334761D01*
X162133333Y-92239523D01*
X162085714Y-92144285D01*
X162038095Y-91953809D01*
X162038095Y-91810952D01*
X162085714Y-91620476D01*
X162133333Y-91525238D01*
X162228571Y-91430000D01*
X162371428Y-91382380D01*
X162466666Y-91382380D01*
X162609523Y-91430000D01*
X162657142Y-91477619D01*
X163609523Y-92382380D02*
X163038095Y-92382380D01*
X163323809Y-92382380D02*
X163323809Y-91382380D01*
X163228571Y-91525238D01*
X163133333Y-91620476D01*
X163038095Y-91668095D01*
X164228571Y-91382380D02*
X164323809Y-91382380D01*
X164419047Y-91430000D01*
X164466666Y-91477619D01*
X164514285Y-91572857D01*
X164561904Y-91763333D01*
X164561904Y-92001428D01*
X164514285Y-92191904D01*
X164466666Y-92287142D01*
X164419047Y-92334761D01*
X164323809Y-92382380D01*
X164228571Y-92382380D01*
X164133333Y-92334761D01*
X164085714Y-92287142D01*
X164038095Y-92191904D01*
X163990476Y-92001428D01*
X163990476Y-91763333D01*
X164038095Y-91572857D01*
X164085714Y-91477619D01*
X164133333Y-91430000D01*
X164228571Y-91382380D01*
X136716666Y-80408571D02*
X136383333Y-80408571D01*
X136383333Y-80932380D02*
X136383333Y-79932380D01*
X136859523Y-79932380D01*
X137764285Y-80932380D02*
X137192857Y-80932380D01*
X137478571Y-80932380D02*
X137478571Y-79932380D01*
X137383333Y-80075238D01*
X137288095Y-80170476D01*
X137192857Y-80218095D01*
X136691904Y-87147619D02*
X135891904Y-87147619D01*
X136463333Y-86880952D01*
X135891904Y-86614285D01*
X136691904Y-86614285D01*
X136691904Y-85814285D02*
X136691904Y-86271428D01*
X136691904Y-86042857D02*
X135891904Y-86042857D01*
X136006190Y-86119047D01*
X136082380Y-86195238D01*
X136120476Y-86271428D01*
X203432833Y-87652380D02*
X203099500Y-87176190D01*
X202861404Y-87652380D02*
X202861404Y-86652380D01*
X203242357Y-86652380D01*
X203337595Y-86700000D01*
X203385214Y-86747619D01*
X203432833Y-86842857D01*
X203432833Y-86985714D01*
X203385214Y-87080952D01*
X203337595Y-87128571D01*
X203242357Y-87176190D01*
X202861404Y-87176190D01*
X204289976Y-86652380D02*
X204099500Y-86652380D01*
X204004261Y-86700000D01*
X203956642Y-86747619D01*
X203861404Y-86890476D01*
X203813785Y-87080952D01*
X203813785Y-87461904D01*
X203861404Y-87557142D01*
X203909023Y-87604761D01*
X204004261Y-87652380D01*
X204194738Y-87652380D01*
X204289976Y-87604761D01*
X204337595Y-87557142D01*
X204385214Y-87461904D01*
X204385214Y-87223809D01*
X204337595Y-87128571D01*
X204289976Y-87080952D01*
X204194738Y-87033333D01*
X204004261Y-87033333D01*
X203909023Y-87080952D01*
X203861404Y-87128571D01*
X203813785Y-87223809D01*
X203432833Y-89252380D02*
X203099500Y-88776190D01*
X202861404Y-89252380D02*
X202861404Y-88252380D01*
X203242357Y-88252380D01*
X203337595Y-88300000D01*
X203385214Y-88347619D01*
X203432833Y-88442857D01*
X203432833Y-88585714D01*
X203385214Y-88680952D01*
X203337595Y-88728571D01*
X203242357Y-88776190D01*
X202861404Y-88776190D01*
X203766166Y-88252380D02*
X204432833Y-88252380D01*
X204004261Y-89252380D01*
X190532380Y-85277166D02*
X190056190Y-85610500D01*
X190532380Y-85848595D02*
X189532380Y-85848595D01*
X189532380Y-85467642D01*
X189580000Y-85372404D01*
X189627619Y-85324785D01*
X189722857Y-85277166D01*
X189865714Y-85277166D01*
X189960952Y-85324785D01*
X190008571Y-85372404D01*
X190056190Y-85467642D01*
X190056190Y-85848595D01*
X189960952Y-84705738D02*
X189913333Y-84800976D01*
X189865714Y-84848595D01*
X189770476Y-84896214D01*
X189722857Y-84896214D01*
X189627619Y-84848595D01*
X189580000Y-84800976D01*
X189532380Y-84705738D01*
X189532380Y-84515261D01*
X189580000Y-84420023D01*
X189627619Y-84372404D01*
X189722857Y-84324785D01*
X189770476Y-84324785D01*
X189865714Y-84372404D01*
X189913333Y-84420023D01*
X189960952Y-84515261D01*
X189960952Y-84705738D01*
X190008571Y-84800976D01*
X190056190Y-84848595D01*
X190151428Y-84896214D01*
X190341904Y-84896214D01*
X190437142Y-84848595D01*
X190484761Y-84800976D01*
X190532380Y-84705738D01*
X190532380Y-84515261D01*
X190484761Y-84420023D01*
X190437142Y-84372404D01*
X190341904Y-84324785D01*
X190151428Y-84324785D01*
X190056190Y-84372404D01*
X190008571Y-84420023D01*
X189960952Y-84515261D01*
X165704761Y-87723333D02*
X165752380Y-87580476D01*
X165752380Y-87342380D01*
X165704761Y-87247142D01*
X165657142Y-87199523D01*
X165561904Y-87151904D01*
X165466666Y-87151904D01*
X165371428Y-87199523D01*
X165323809Y-87247142D01*
X165276190Y-87342380D01*
X165228571Y-87532857D01*
X165180952Y-87628095D01*
X165133333Y-87675714D01*
X165038095Y-87723333D01*
X164942857Y-87723333D01*
X164847619Y-87675714D01*
X164800000Y-87628095D01*
X164752380Y-87532857D01*
X164752380Y-87294761D01*
X164800000Y-87151904D01*
X164752380Y-86818571D02*
X165752380Y-86580476D01*
X165038095Y-86390000D01*
X165752380Y-86199523D01*
X164752380Y-85961428D01*
X165752380Y-85056666D02*
X165752380Y-85628095D01*
X165752380Y-85342380D02*
X164752380Y-85342380D01*
X164895238Y-85437619D01*
X164990476Y-85532857D01*
X165038095Y-85628095D01*
X194538095Y-89552380D02*
X194538095Y-90361904D01*
X194585714Y-90457142D01*
X194633333Y-90504761D01*
X194728571Y-90552380D01*
X194919047Y-90552380D01*
X195014285Y-90504761D01*
X195061904Y-90457142D01*
X195109523Y-90361904D01*
X195109523Y-89552380D01*
X195490476Y-89552380D02*
X196109523Y-89552380D01*
X195776190Y-89933333D01*
X195919047Y-89933333D01*
X196014285Y-89980952D01*
X196061904Y-90028571D01*
X196109523Y-90123809D01*
X196109523Y-90361904D01*
X196061904Y-90457142D01*
X196014285Y-90504761D01*
X195919047Y-90552380D01*
X195633333Y-90552380D01*
X195538095Y-90504761D01*
X195490476Y-90457142D01*
X167066666Y-80182380D02*
X167066666Y-80896666D01*
X167019047Y-81039523D01*
X166923809Y-81134761D01*
X166780952Y-81182380D01*
X166685714Y-81182380D01*
X168019047Y-80182380D02*
X167542857Y-80182380D01*
X167495238Y-80658571D01*
X167542857Y-80610952D01*
X167638095Y-80563333D01*
X167876190Y-80563333D01*
X167971428Y-80610952D01*
X168019047Y-80658571D01*
X168066666Y-80753809D01*
X168066666Y-80991904D01*
X168019047Y-81087142D01*
X167971428Y-81134761D01*
X167876190Y-81182380D01*
X167638095Y-81182380D01*
X167542857Y-81134761D01*
X167495238Y-81087142D01*
X153862833Y-83487142D02*
X153815214Y-83534761D01*
X153672357Y-83582380D01*
X153577119Y-83582380D01*
X153434261Y-83534761D01*
X153339023Y-83439523D01*
X153291404Y-83344285D01*
X153243785Y-83153809D01*
X153243785Y-83010952D01*
X153291404Y-82820476D01*
X153339023Y-82725238D01*
X153434261Y-82630000D01*
X153577119Y-82582380D01*
X153672357Y-82582380D01*
X153815214Y-82630000D01*
X153862833Y-82677619D01*
X154815214Y-83582380D02*
X154243785Y-83582380D01*
X154529500Y-83582380D02*
X154529500Y-82582380D01*
X154434261Y-82725238D01*
X154339023Y-82820476D01*
X154243785Y-82868095D01*
X151937142Y-91026666D02*
X151984761Y-91074285D01*
X152032380Y-91217142D01*
X152032380Y-91312380D01*
X151984761Y-91455238D01*
X151889523Y-91550476D01*
X151794285Y-91598095D01*
X151603809Y-91645714D01*
X151460952Y-91645714D01*
X151270476Y-91598095D01*
X151175238Y-91550476D01*
X151080000Y-91455238D01*
X151032380Y-91312380D01*
X151032380Y-91217142D01*
X151080000Y-91074285D01*
X151127619Y-91026666D01*
X151365714Y-90169523D02*
X152032380Y-90169523D01*
X150984761Y-90407619D02*
X151699047Y-90645714D01*
X151699047Y-90026666D01*
X176852380Y-81466666D02*
X176376190Y-81800000D01*
X176852380Y-82038095D02*
X175852380Y-82038095D01*
X175852380Y-81657142D01*
X175900000Y-81561904D01*
X175947619Y-81514285D01*
X176042857Y-81466666D01*
X176185714Y-81466666D01*
X176280952Y-81514285D01*
X176328571Y-81561904D01*
X176376190Y-81657142D01*
X176376190Y-82038095D01*
X176852380Y-80990476D02*
X176852380Y-80800000D01*
X176804761Y-80704761D01*
X176757142Y-80657142D01*
X176614285Y-80561904D01*
X176423809Y-80514285D01*
X176042857Y-80514285D01*
X175947619Y-80561904D01*
X175900000Y-80609523D01*
X175852380Y-80704761D01*
X175852380Y-80895238D01*
X175900000Y-80990476D01*
X175947619Y-81038095D01*
X176042857Y-81085714D01*
X176280952Y-81085714D01*
X176376190Y-81038095D01*
X176423809Y-80990476D01*
X176471428Y-80895238D01*
X176471428Y-80704761D01*
X176423809Y-80609523D01*
X176376190Y-80561904D01*
X176280952Y-80514285D01*
X182752380Y-81761904D02*
X183561904Y-81761904D01*
X183657142Y-81714285D01*
X183704761Y-81666666D01*
X183752380Y-81571428D01*
X183752380Y-81380952D01*
X183704761Y-81285714D01*
X183657142Y-81238095D01*
X183561904Y-81190476D01*
X182752380Y-81190476D01*
X183085714Y-80285714D02*
X183752380Y-80285714D01*
X182704761Y-80523809D02*
X183419047Y-80761904D01*
X183419047Y-80142857D01*
X180947142Y-82140000D02*
X180994761Y-82092380D01*
X181042380Y-82140000D01*
X180994761Y-82187619D01*
X180947142Y-82140000D01*
X181042380Y-82140000D01*
%LPC*%
D13*
X207000000Y-91000000D03*
X207000000Y-81900000D03*
D14*
G36*
X180471626Y-88874424D02*
G01*
X180480168Y-88875691D01*
X180488545Y-88877789D01*
X180496676Y-88880699D01*
X180504483Y-88884391D01*
X180511890Y-88888831D01*
X180518827Y-88893975D01*
X180525225Y-88899775D01*
X180531025Y-88906173D01*
X180536169Y-88913110D01*
X180540609Y-88920517D01*
X180544301Y-88928324D01*
X180547211Y-88936455D01*
X180549309Y-88944832D01*
X180550576Y-88953374D01*
X180551000Y-88962000D01*
X180551000Y-89138000D01*
X180550576Y-89146626D01*
X180549309Y-89155168D01*
X180547211Y-89163545D01*
X180544301Y-89171676D01*
X180540609Y-89179483D01*
X180536169Y-89186890D01*
X180531025Y-89193827D01*
X180525225Y-89200225D01*
X180518827Y-89206025D01*
X180511890Y-89211169D01*
X180504483Y-89215609D01*
X180496676Y-89219301D01*
X180488545Y-89222211D01*
X180480168Y-89224309D01*
X180471626Y-89225576D01*
X180463000Y-89226000D01*
X179662000Y-89226000D01*
X179653374Y-89225576D01*
X179644832Y-89224309D01*
X179636455Y-89222211D01*
X179628324Y-89219301D01*
X179620517Y-89215609D01*
X179613110Y-89211169D01*
X179606173Y-89206025D01*
X179599775Y-89200225D01*
X179593975Y-89193827D01*
X179588831Y-89186890D01*
X179584391Y-89179483D01*
X179580699Y-89171676D01*
X179577789Y-89163545D01*
X179575691Y-89155168D01*
X179574424Y-89146626D01*
X179574000Y-89138000D01*
X179574000Y-88962000D01*
X179574424Y-88953374D01*
X179575691Y-88944832D01*
X179577789Y-88936455D01*
X179580699Y-88928324D01*
X179584391Y-88920517D01*
X179588831Y-88913110D01*
X179593975Y-88906173D01*
X179599775Y-88899775D01*
X179606173Y-88893975D01*
X179613110Y-88888831D01*
X179620517Y-88884391D01*
X179628324Y-88880699D01*
X179636455Y-88877789D01*
X179644832Y-88875691D01*
X179653374Y-88874424D01*
X179662000Y-88874000D01*
X180463000Y-88874000D01*
X180471626Y-88874424D01*
X180471626Y-88874424D01*
G37*
D15*
X180062500Y-89050000D03*
D14*
G36*
X180471626Y-88374424D02*
G01*
X180480168Y-88375691D01*
X180488545Y-88377789D01*
X180496676Y-88380699D01*
X180504483Y-88384391D01*
X180511890Y-88388831D01*
X180518827Y-88393975D01*
X180525225Y-88399775D01*
X180531025Y-88406173D01*
X180536169Y-88413110D01*
X180540609Y-88420517D01*
X180544301Y-88428324D01*
X180547211Y-88436455D01*
X180549309Y-88444832D01*
X180550576Y-88453374D01*
X180551000Y-88462000D01*
X180551000Y-88638000D01*
X180550576Y-88646626D01*
X180549309Y-88655168D01*
X180547211Y-88663545D01*
X180544301Y-88671676D01*
X180540609Y-88679483D01*
X180536169Y-88686890D01*
X180531025Y-88693827D01*
X180525225Y-88700225D01*
X180518827Y-88706025D01*
X180511890Y-88711169D01*
X180504483Y-88715609D01*
X180496676Y-88719301D01*
X180488545Y-88722211D01*
X180480168Y-88724309D01*
X180471626Y-88725576D01*
X180463000Y-88726000D01*
X179662000Y-88726000D01*
X179653374Y-88725576D01*
X179644832Y-88724309D01*
X179636455Y-88722211D01*
X179628324Y-88719301D01*
X179620517Y-88715609D01*
X179613110Y-88711169D01*
X179606173Y-88706025D01*
X179599775Y-88700225D01*
X179593975Y-88693827D01*
X179588831Y-88686890D01*
X179584391Y-88679483D01*
X179580699Y-88671676D01*
X179577789Y-88663545D01*
X179575691Y-88655168D01*
X179574424Y-88646626D01*
X179574000Y-88638000D01*
X179574000Y-88462000D01*
X179574424Y-88453374D01*
X179575691Y-88444832D01*
X179577789Y-88436455D01*
X179580699Y-88428324D01*
X179584391Y-88420517D01*
X179588831Y-88413110D01*
X179593975Y-88406173D01*
X179599775Y-88399775D01*
X179606173Y-88393975D01*
X179613110Y-88388831D01*
X179620517Y-88384391D01*
X179628324Y-88380699D01*
X179636455Y-88377789D01*
X179644832Y-88375691D01*
X179653374Y-88374424D01*
X179662000Y-88374000D01*
X180463000Y-88374000D01*
X180471626Y-88374424D01*
X180471626Y-88374424D01*
G37*
D15*
X180062500Y-88550000D03*
D14*
G36*
X180471626Y-87874424D02*
G01*
X180480168Y-87875691D01*
X180488545Y-87877789D01*
X180496676Y-87880699D01*
X180504483Y-87884391D01*
X180511890Y-87888831D01*
X180518827Y-87893975D01*
X180525225Y-87899775D01*
X180531025Y-87906173D01*
X180536169Y-87913110D01*
X180540609Y-87920517D01*
X180544301Y-87928324D01*
X180547211Y-87936455D01*
X180549309Y-87944832D01*
X180550576Y-87953374D01*
X180551000Y-87962000D01*
X180551000Y-88138000D01*
X180550576Y-88146626D01*
X180549309Y-88155168D01*
X180547211Y-88163545D01*
X180544301Y-88171676D01*
X180540609Y-88179483D01*
X180536169Y-88186890D01*
X180531025Y-88193827D01*
X180525225Y-88200225D01*
X180518827Y-88206025D01*
X180511890Y-88211169D01*
X180504483Y-88215609D01*
X180496676Y-88219301D01*
X180488545Y-88222211D01*
X180480168Y-88224309D01*
X180471626Y-88225576D01*
X180463000Y-88226000D01*
X179662000Y-88226000D01*
X179653374Y-88225576D01*
X179644832Y-88224309D01*
X179636455Y-88222211D01*
X179628324Y-88219301D01*
X179620517Y-88215609D01*
X179613110Y-88211169D01*
X179606173Y-88206025D01*
X179599775Y-88200225D01*
X179593975Y-88193827D01*
X179588831Y-88186890D01*
X179584391Y-88179483D01*
X179580699Y-88171676D01*
X179577789Y-88163545D01*
X179575691Y-88155168D01*
X179574424Y-88146626D01*
X179574000Y-88138000D01*
X179574000Y-87962000D01*
X179574424Y-87953374D01*
X179575691Y-87944832D01*
X179577789Y-87936455D01*
X179580699Y-87928324D01*
X179584391Y-87920517D01*
X179588831Y-87913110D01*
X179593975Y-87906173D01*
X179599775Y-87899775D01*
X179606173Y-87893975D01*
X179613110Y-87888831D01*
X179620517Y-87884391D01*
X179628324Y-87880699D01*
X179636455Y-87877789D01*
X179644832Y-87875691D01*
X179653374Y-87874424D01*
X179662000Y-87874000D01*
X180463000Y-87874000D01*
X180471626Y-87874424D01*
X180471626Y-87874424D01*
G37*
D15*
X180062500Y-88050000D03*
D14*
G36*
X180471626Y-87374424D02*
G01*
X180480168Y-87375691D01*
X180488545Y-87377789D01*
X180496676Y-87380699D01*
X180504483Y-87384391D01*
X180511890Y-87388831D01*
X180518827Y-87393975D01*
X180525225Y-87399775D01*
X180531025Y-87406173D01*
X180536169Y-87413110D01*
X180540609Y-87420517D01*
X180544301Y-87428324D01*
X180547211Y-87436455D01*
X180549309Y-87444832D01*
X180550576Y-87453374D01*
X180551000Y-87462000D01*
X180551000Y-87638000D01*
X180550576Y-87646626D01*
X180549309Y-87655168D01*
X180547211Y-87663545D01*
X180544301Y-87671676D01*
X180540609Y-87679483D01*
X180536169Y-87686890D01*
X180531025Y-87693827D01*
X180525225Y-87700225D01*
X180518827Y-87706025D01*
X180511890Y-87711169D01*
X180504483Y-87715609D01*
X180496676Y-87719301D01*
X180488545Y-87722211D01*
X180480168Y-87724309D01*
X180471626Y-87725576D01*
X180463000Y-87726000D01*
X179662000Y-87726000D01*
X179653374Y-87725576D01*
X179644832Y-87724309D01*
X179636455Y-87722211D01*
X179628324Y-87719301D01*
X179620517Y-87715609D01*
X179613110Y-87711169D01*
X179606173Y-87706025D01*
X179599775Y-87700225D01*
X179593975Y-87693827D01*
X179588831Y-87686890D01*
X179584391Y-87679483D01*
X179580699Y-87671676D01*
X179577789Y-87663545D01*
X179575691Y-87655168D01*
X179574424Y-87646626D01*
X179574000Y-87638000D01*
X179574000Y-87462000D01*
X179574424Y-87453374D01*
X179575691Y-87444832D01*
X179577789Y-87436455D01*
X179580699Y-87428324D01*
X179584391Y-87420517D01*
X179588831Y-87413110D01*
X179593975Y-87406173D01*
X179599775Y-87399775D01*
X179606173Y-87393975D01*
X179613110Y-87388831D01*
X179620517Y-87384391D01*
X179628324Y-87380699D01*
X179636455Y-87377789D01*
X179644832Y-87375691D01*
X179653374Y-87374424D01*
X179662000Y-87374000D01*
X180463000Y-87374000D01*
X180471626Y-87374424D01*
X180471626Y-87374424D01*
G37*
D15*
X180062500Y-87550000D03*
D14*
G36*
X180471626Y-86874424D02*
G01*
X180480168Y-86875691D01*
X180488545Y-86877789D01*
X180496676Y-86880699D01*
X180504483Y-86884391D01*
X180511890Y-86888831D01*
X180518827Y-86893975D01*
X180525225Y-86899775D01*
X180531025Y-86906173D01*
X180536169Y-86913110D01*
X180540609Y-86920517D01*
X180544301Y-86928324D01*
X180547211Y-86936455D01*
X180549309Y-86944832D01*
X180550576Y-86953374D01*
X180551000Y-86962000D01*
X180551000Y-87138000D01*
X180550576Y-87146626D01*
X180549309Y-87155168D01*
X180547211Y-87163545D01*
X180544301Y-87171676D01*
X180540609Y-87179483D01*
X180536169Y-87186890D01*
X180531025Y-87193827D01*
X180525225Y-87200225D01*
X180518827Y-87206025D01*
X180511890Y-87211169D01*
X180504483Y-87215609D01*
X180496676Y-87219301D01*
X180488545Y-87222211D01*
X180480168Y-87224309D01*
X180471626Y-87225576D01*
X180463000Y-87226000D01*
X179662000Y-87226000D01*
X179653374Y-87225576D01*
X179644832Y-87224309D01*
X179636455Y-87222211D01*
X179628324Y-87219301D01*
X179620517Y-87215609D01*
X179613110Y-87211169D01*
X179606173Y-87206025D01*
X179599775Y-87200225D01*
X179593975Y-87193827D01*
X179588831Y-87186890D01*
X179584391Y-87179483D01*
X179580699Y-87171676D01*
X179577789Y-87163545D01*
X179575691Y-87155168D01*
X179574424Y-87146626D01*
X179574000Y-87138000D01*
X179574000Y-86962000D01*
X179574424Y-86953374D01*
X179575691Y-86944832D01*
X179577789Y-86936455D01*
X179580699Y-86928324D01*
X179584391Y-86920517D01*
X179588831Y-86913110D01*
X179593975Y-86906173D01*
X179599775Y-86899775D01*
X179606173Y-86893975D01*
X179613110Y-86888831D01*
X179620517Y-86884391D01*
X179628324Y-86880699D01*
X179636455Y-86877789D01*
X179644832Y-86875691D01*
X179653374Y-86874424D01*
X179662000Y-86874000D01*
X180463000Y-86874000D01*
X180471626Y-86874424D01*
X180471626Y-86874424D01*
G37*
D15*
X180062500Y-87050000D03*
D14*
G36*
X180471626Y-86374424D02*
G01*
X180480168Y-86375691D01*
X180488545Y-86377789D01*
X180496676Y-86380699D01*
X180504483Y-86384391D01*
X180511890Y-86388831D01*
X180518827Y-86393975D01*
X180525225Y-86399775D01*
X180531025Y-86406173D01*
X180536169Y-86413110D01*
X180540609Y-86420517D01*
X180544301Y-86428324D01*
X180547211Y-86436455D01*
X180549309Y-86444832D01*
X180550576Y-86453374D01*
X180551000Y-86462000D01*
X180551000Y-86638000D01*
X180550576Y-86646626D01*
X180549309Y-86655168D01*
X180547211Y-86663545D01*
X180544301Y-86671676D01*
X180540609Y-86679483D01*
X180536169Y-86686890D01*
X180531025Y-86693827D01*
X180525225Y-86700225D01*
X180518827Y-86706025D01*
X180511890Y-86711169D01*
X180504483Y-86715609D01*
X180496676Y-86719301D01*
X180488545Y-86722211D01*
X180480168Y-86724309D01*
X180471626Y-86725576D01*
X180463000Y-86726000D01*
X179662000Y-86726000D01*
X179653374Y-86725576D01*
X179644832Y-86724309D01*
X179636455Y-86722211D01*
X179628324Y-86719301D01*
X179620517Y-86715609D01*
X179613110Y-86711169D01*
X179606173Y-86706025D01*
X179599775Y-86700225D01*
X179593975Y-86693827D01*
X179588831Y-86686890D01*
X179584391Y-86679483D01*
X179580699Y-86671676D01*
X179577789Y-86663545D01*
X179575691Y-86655168D01*
X179574424Y-86646626D01*
X179574000Y-86638000D01*
X179574000Y-86462000D01*
X179574424Y-86453374D01*
X179575691Y-86444832D01*
X179577789Y-86436455D01*
X179580699Y-86428324D01*
X179584391Y-86420517D01*
X179588831Y-86413110D01*
X179593975Y-86406173D01*
X179599775Y-86399775D01*
X179606173Y-86393975D01*
X179613110Y-86388831D01*
X179620517Y-86384391D01*
X179628324Y-86380699D01*
X179636455Y-86377789D01*
X179644832Y-86375691D01*
X179653374Y-86374424D01*
X179662000Y-86374000D01*
X180463000Y-86374000D01*
X180471626Y-86374424D01*
X180471626Y-86374424D01*
G37*
D15*
X180062500Y-86550000D03*
D14*
G36*
X180471626Y-85874424D02*
G01*
X180480168Y-85875691D01*
X180488545Y-85877789D01*
X180496676Y-85880699D01*
X180504483Y-85884391D01*
X180511890Y-85888831D01*
X180518827Y-85893975D01*
X180525225Y-85899775D01*
X180531025Y-85906173D01*
X180536169Y-85913110D01*
X180540609Y-85920517D01*
X180544301Y-85928324D01*
X180547211Y-85936455D01*
X180549309Y-85944832D01*
X180550576Y-85953374D01*
X180551000Y-85962000D01*
X180551000Y-86138000D01*
X180550576Y-86146626D01*
X180549309Y-86155168D01*
X180547211Y-86163545D01*
X180544301Y-86171676D01*
X180540609Y-86179483D01*
X180536169Y-86186890D01*
X180531025Y-86193827D01*
X180525225Y-86200225D01*
X180518827Y-86206025D01*
X180511890Y-86211169D01*
X180504483Y-86215609D01*
X180496676Y-86219301D01*
X180488545Y-86222211D01*
X180480168Y-86224309D01*
X180471626Y-86225576D01*
X180463000Y-86226000D01*
X179662000Y-86226000D01*
X179653374Y-86225576D01*
X179644832Y-86224309D01*
X179636455Y-86222211D01*
X179628324Y-86219301D01*
X179620517Y-86215609D01*
X179613110Y-86211169D01*
X179606173Y-86206025D01*
X179599775Y-86200225D01*
X179593975Y-86193827D01*
X179588831Y-86186890D01*
X179584391Y-86179483D01*
X179580699Y-86171676D01*
X179577789Y-86163545D01*
X179575691Y-86155168D01*
X179574424Y-86146626D01*
X179574000Y-86138000D01*
X179574000Y-85962000D01*
X179574424Y-85953374D01*
X179575691Y-85944832D01*
X179577789Y-85936455D01*
X179580699Y-85928324D01*
X179584391Y-85920517D01*
X179588831Y-85913110D01*
X179593975Y-85906173D01*
X179599775Y-85899775D01*
X179606173Y-85893975D01*
X179613110Y-85888831D01*
X179620517Y-85884391D01*
X179628324Y-85880699D01*
X179636455Y-85877789D01*
X179644832Y-85875691D01*
X179653374Y-85874424D01*
X179662000Y-85874000D01*
X180463000Y-85874000D01*
X180471626Y-85874424D01*
X180471626Y-85874424D01*
G37*
D15*
X180062500Y-86050000D03*
D14*
G36*
X180471626Y-85374424D02*
G01*
X180480168Y-85375691D01*
X180488545Y-85377789D01*
X180496676Y-85380699D01*
X180504483Y-85384391D01*
X180511890Y-85388831D01*
X180518827Y-85393975D01*
X180525225Y-85399775D01*
X180531025Y-85406173D01*
X180536169Y-85413110D01*
X180540609Y-85420517D01*
X180544301Y-85428324D01*
X180547211Y-85436455D01*
X180549309Y-85444832D01*
X180550576Y-85453374D01*
X180551000Y-85462000D01*
X180551000Y-85638000D01*
X180550576Y-85646626D01*
X180549309Y-85655168D01*
X180547211Y-85663545D01*
X180544301Y-85671676D01*
X180540609Y-85679483D01*
X180536169Y-85686890D01*
X180531025Y-85693827D01*
X180525225Y-85700225D01*
X180518827Y-85706025D01*
X180511890Y-85711169D01*
X180504483Y-85715609D01*
X180496676Y-85719301D01*
X180488545Y-85722211D01*
X180480168Y-85724309D01*
X180471626Y-85725576D01*
X180463000Y-85726000D01*
X179662000Y-85726000D01*
X179653374Y-85725576D01*
X179644832Y-85724309D01*
X179636455Y-85722211D01*
X179628324Y-85719301D01*
X179620517Y-85715609D01*
X179613110Y-85711169D01*
X179606173Y-85706025D01*
X179599775Y-85700225D01*
X179593975Y-85693827D01*
X179588831Y-85686890D01*
X179584391Y-85679483D01*
X179580699Y-85671676D01*
X179577789Y-85663545D01*
X179575691Y-85655168D01*
X179574424Y-85646626D01*
X179574000Y-85638000D01*
X179574000Y-85462000D01*
X179574424Y-85453374D01*
X179575691Y-85444832D01*
X179577789Y-85436455D01*
X179580699Y-85428324D01*
X179584391Y-85420517D01*
X179588831Y-85413110D01*
X179593975Y-85406173D01*
X179599775Y-85399775D01*
X179606173Y-85393975D01*
X179613110Y-85388831D01*
X179620517Y-85384391D01*
X179628324Y-85380699D01*
X179636455Y-85377789D01*
X179644832Y-85375691D01*
X179653374Y-85374424D01*
X179662000Y-85374000D01*
X180463000Y-85374000D01*
X180471626Y-85374424D01*
X180471626Y-85374424D01*
G37*
D15*
X180062500Y-85550000D03*
D14*
G36*
X180846626Y-84374424D02*
G01*
X180855168Y-84375691D01*
X180863545Y-84377789D01*
X180871676Y-84380699D01*
X180879483Y-84384391D01*
X180886890Y-84388831D01*
X180893827Y-84393975D01*
X180900225Y-84399775D01*
X180906025Y-84406173D01*
X180911169Y-84413110D01*
X180915609Y-84420517D01*
X180919301Y-84428324D01*
X180922211Y-84436455D01*
X180924309Y-84444832D01*
X180925576Y-84453374D01*
X180926000Y-84462000D01*
X180926000Y-85263000D01*
X180925576Y-85271626D01*
X180924309Y-85280168D01*
X180922211Y-85288545D01*
X180919301Y-85296676D01*
X180915609Y-85304483D01*
X180911169Y-85311890D01*
X180906025Y-85318827D01*
X180900225Y-85325225D01*
X180893827Y-85331025D01*
X180886890Y-85336169D01*
X180879483Y-85340609D01*
X180871676Y-85344301D01*
X180863545Y-85347211D01*
X180855168Y-85349309D01*
X180846626Y-85350576D01*
X180838000Y-85351000D01*
X180662000Y-85351000D01*
X180653374Y-85350576D01*
X180644832Y-85349309D01*
X180636455Y-85347211D01*
X180628324Y-85344301D01*
X180620517Y-85340609D01*
X180613110Y-85336169D01*
X180606173Y-85331025D01*
X180599775Y-85325225D01*
X180593975Y-85318827D01*
X180588831Y-85311890D01*
X180584391Y-85304483D01*
X180580699Y-85296676D01*
X180577789Y-85288545D01*
X180575691Y-85280168D01*
X180574424Y-85271626D01*
X180574000Y-85263000D01*
X180574000Y-84462000D01*
X180574424Y-84453374D01*
X180575691Y-84444832D01*
X180577789Y-84436455D01*
X180580699Y-84428324D01*
X180584391Y-84420517D01*
X180588831Y-84413110D01*
X180593975Y-84406173D01*
X180599775Y-84399775D01*
X180606173Y-84393975D01*
X180613110Y-84388831D01*
X180620517Y-84384391D01*
X180628324Y-84380699D01*
X180636455Y-84377789D01*
X180644832Y-84375691D01*
X180653374Y-84374424D01*
X180662000Y-84374000D01*
X180838000Y-84374000D01*
X180846626Y-84374424D01*
X180846626Y-84374424D01*
G37*
D15*
X180750000Y-84862500D03*
D14*
G36*
X181346626Y-84374424D02*
G01*
X181355168Y-84375691D01*
X181363545Y-84377789D01*
X181371676Y-84380699D01*
X181379483Y-84384391D01*
X181386890Y-84388831D01*
X181393827Y-84393975D01*
X181400225Y-84399775D01*
X181406025Y-84406173D01*
X181411169Y-84413110D01*
X181415609Y-84420517D01*
X181419301Y-84428324D01*
X181422211Y-84436455D01*
X181424309Y-84444832D01*
X181425576Y-84453374D01*
X181426000Y-84462000D01*
X181426000Y-85263000D01*
X181425576Y-85271626D01*
X181424309Y-85280168D01*
X181422211Y-85288545D01*
X181419301Y-85296676D01*
X181415609Y-85304483D01*
X181411169Y-85311890D01*
X181406025Y-85318827D01*
X181400225Y-85325225D01*
X181393827Y-85331025D01*
X181386890Y-85336169D01*
X181379483Y-85340609D01*
X181371676Y-85344301D01*
X181363545Y-85347211D01*
X181355168Y-85349309D01*
X181346626Y-85350576D01*
X181338000Y-85351000D01*
X181162000Y-85351000D01*
X181153374Y-85350576D01*
X181144832Y-85349309D01*
X181136455Y-85347211D01*
X181128324Y-85344301D01*
X181120517Y-85340609D01*
X181113110Y-85336169D01*
X181106173Y-85331025D01*
X181099775Y-85325225D01*
X181093975Y-85318827D01*
X181088831Y-85311890D01*
X181084391Y-85304483D01*
X181080699Y-85296676D01*
X181077789Y-85288545D01*
X181075691Y-85280168D01*
X181074424Y-85271626D01*
X181074000Y-85263000D01*
X181074000Y-84462000D01*
X181074424Y-84453374D01*
X181075691Y-84444832D01*
X181077789Y-84436455D01*
X181080699Y-84428324D01*
X181084391Y-84420517D01*
X181088831Y-84413110D01*
X181093975Y-84406173D01*
X181099775Y-84399775D01*
X181106173Y-84393975D01*
X181113110Y-84388831D01*
X181120517Y-84384391D01*
X181128324Y-84380699D01*
X181136455Y-84377789D01*
X181144832Y-84375691D01*
X181153374Y-84374424D01*
X181162000Y-84374000D01*
X181338000Y-84374000D01*
X181346626Y-84374424D01*
X181346626Y-84374424D01*
G37*
D15*
X181250000Y-84862500D03*
D14*
G36*
X181846626Y-84374424D02*
G01*
X181855168Y-84375691D01*
X181863545Y-84377789D01*
X181871676Y-84380699D01*
X181879483Y-84384391D01*
X181886890Y-84388831D01*
X181893827Y-84393975D01*
X181900225Y-84399775D01*
X181906025Y-84406173D01*
X181911169Y-84413110D01*
X181915609Y-84420517D01*
X181919301Y-84428324D01*
X181922211Y-84436455D01*
X181924309Y-84444832D01*
X181925576Y-84453374D01*
X181926000Y-84462000D01*
X181926000Y-85263000D01*
X181925576Y-85271626D01*
X181924309Y-85280168D01*
X181922211Y-85288545D01*
X181919301Y-85296676D01*
X181915609Y-85304483D01*
X181911169Y-85311890D01*
X181906025Y-85318827D01*
X181900225Y-85325225D01*
X181893827Y-85331025D01*
X181886890Y-85336169D01*
X181879483Y-85340609D01*
X181871676Y-85344301D01*
X181863545Y-85347211D01*
X181855168Y-85349309D01*
X181846626Y-85350576D01*
X181838000Y-85351000D01*
X181662000Y-85351000D01*
X181653374Y-85350576D01*
X181644832Y-85349309D01*
X181636455Y-85347211D01*
X181628324Y-85344301D01*
X181620517Y-85340609D01*
X181613110Y-85336169D01*
X181606173Y-85331025D01*
X181599775Y-85325225D01*
X181593975Y-85318827D01*
X181588831Y-85311890D01*
X181584391Y-85304483D01*
X181580699Y-85296676D01*
X181577789Y-85288545D01*
X181575691Y-85280168D01*
X181574424Y-85271626D01*
X181574000Y-85263000D01*
X181574000Y-84462000D01*
X181574424Y-84453374D01*
X181575691Y-84444832D01*
X181577789Y-84436455D01*
X181580699Y-84428324D01*
X181584391Y-84420517D01*
X181588831Y-84413110D01*
X181593975Y-84406173D01*
X181599775Y-84399775D01*
X181606173Y-84393975D01*
X181613110Y-84388831D01*
X181620517Y-84384391D01*
X181628324Y-84380699D01*
X181636455Y-84377789D01*
X181644832Y-84375691D01*
X181653374Y-84374424D01*
X181662000Y-84374000D01*
X181838000Y-84374000D01*
X181846626Y-84374424D01*
X181846626Y-84374424D01*
G37*
D15*
X181750000Y-84862500D03*
D14*
G36*
X182346626Y-84374424D02*
G01*
X182355168Y-84375691D01*
X182363545Y-84377789D01*
X182371676Y-84380699D01*
X182379483Y-84384391D01*
X182386890Y-84388831D01*
X182393827Y-84393975D01*
X182400225Y-84399775D01*
X182406025Y-84406173D01*
X182411169Y-84413110D01*
X182415609Y-84420517D01*
X182419301Y-84428324D01*
X182422211Y-84436455D01*
X182424309Y-84444832D01*
X182425576Y-84453374D01*
X182426000Y-84462000D01*
X182426000Y-85263000D01*
X182425576Y-85271626D01*
X182424309Y-85280168D01*
X182422211Y-85288545D01*
X182419301Y-85296676D01*
X182415609Y-85304483D01*
X182411169Y-85311890D01*
X182406025Y-85318827D01*
X182400225Y-85325225D01*
X182393827Y-85331025D01*
X182386890Y-85336169D01*
X182379483Y-85340609D01*
X182371676Y-85344301D01*
X182363545Y-85347211D01*
X182355168Y-85349309D01*
X182346626Y-85350576D01*
X182338000Y-85351000D01*
X182162000Y-85351000D01*
X182153374Y-85350576D01*
X182144832Y-85349309D01*
X182136455Y-85347211D01*
X182128324Y-85344301D01*
X182120517Y-85340609D01*
X182113110Y-85336169D01*
X182106173Y-85331025D01*
X182099775Y-85325225D01*
X182093975Y-85318827D01*
X182088831Y-85311890D01*
X182084391Y-85304483D01*
X182080699Y-85296676D01*
X182077789Y-85288545D01*
X182075691Y-85280168D01*
X182074424Y-85271626D01*
X182074000Y-85263000D01*
X182074000Y-84462000D01*
X182074424Y-84453374D01*
X182075691Y-84444832D01*
X182077789Y-84436455D01*
X182080699Y-84428324D01*
X182084391Y-84420517D01*
X182088831Y-84413110D01*
X182093975Y-84406173D01*
X182099775Y-84399775D01*
X182106173Y-84393975D01*
X182113110Y-84388831D01*
X182120517Y-84384391D01*
X182128324Y-84380699D01*
X182136455Y-84377789D01*
X182144832Y-84375691D01*
X182153374Y-84374424D01*
X182162000Y-84374000D01*
X182338000Y-84374000D01*
X182346626Y-84374424D01*
X182346626Y-84374424D01*
G37*
D15*
X182250000Y-84862500D03*
D14*
G36*
X182846626Y-84374424D02*
G01*
X182855168Y-84375691D01*
X182863545Y-84377789D01*
X182871676Y-84380699D01*
X182879483Y-84384391D01*
X182886890Y-84388831D01*
X182893827Y-84393975D01*
X182900225Y-84399775D01*
X182906025Y-84406173D01*
X182911169Y-84413110D01*
X182915609Y-84420517D01*
X182919301Y-84428324D01*
X182922211Y-84436455D01*
X182924309Y-84444832D01*
X182925576Y-84453374D01*
X182926000Y-84462000D01*
X182926000Y-85263000D01*
X182925576Y-85271626D01*
X182924309Y-85280168D01*
X182922211Y-85288545D01*
X182919301Y-85296676D01*
X182915609Y-85304483D01*
X182911169Y-85311890D01*
X182906025Y-85318827D01*
X182900225Y-85325225D01*
X182893827Y-85331025D01*
X182886890Y-85336169D01*
X182879483Y-85340609D01*
X182871676Y-85344301D01*
X182863545Y-85347211D01*
X182855168Y-85349309D01*
X182846626Y-85350576D01*
X182838000Y-85351000D01*
X182662000Y-85351000D01*
X182653374Y-85350576D01*
X182644832Y-85349309D01*
X182636455Y-85347211D01*
X182628324Y-85344301D01*
X182620517Y-85340609D01*
X182613110Y-85336169D01*
X182606173Y-85331025D01*
X182599775Y-85325225D01*
X182593975Y-85318827D01*
X182588831Y-85311890D01*
X182584391Y-85304483D01*
X182580699Y-85296676D01*
X182577789Y-85288545D01*
X182575691Y-85280168D01*
X182574424Y-85271626D01*
X182574000Y-85263000D01*
X182574000Y-84462000D01*
X182574424Y-84453374D01*
X182575691Y-84444832D01*
X182577789Y-84436455D01*
X182580699Y-84428324D01*
X182584391Y-84420517D01*
X182588831Y-84413110D01*
X182593975Y-84406173D01*
X182599775Y-84399775D01*
X182606173Y-84393975D01*
X182613110Y-84388831D01*
X182620517Y-84384391D01*
X182628324Y-84380699D01*
X182636455Y-84377789D01*
X182644832Y-84375691D01*
X182653374Y-84374424D01*
X182662000Y-84374000D01*
X182838000Y-84374000D01*
X182846626Y-84374424D01*
X182846626Y-84374424D01*
G37*
D15*
X182750000Y-84862500D03*
D14*
G36*
X183346626Y-84374424D02*
G01*
X183355168Y-84375691D01*
X183363545Y-84377789D01*
X183371676Y-84380699D01*
X183379483Y-84384391D01*
X183386890Y-84388831D01*
X183393827Y-84393975D01*
X183400225Y-84399775D01*
X183406025Y-84406173D01*
X183411169Y-84413110D01*
X183415609Y-84420517D01*
X183419301Y-84428324D01*
X183422211Y-84436455D01*
X183424309Y-84444832D01*
X183425576Y-84453374D01*
X183426000Y-84462000D01*
X183426000Y-85263000D01*
X183425576Y-85271626D01*
X183424309Y-85280168D01*
X183422211Y-85288545D01*
X183419301Y-85296676D01*
X183415609Y-85304483D01*
X183411169Y-85311890D01*
X183406025Y-85318827D01*
X183400225Y-85325225D01*
X183393827Y-85331025D01*
X183386890Y-85336169D01*
X183379483Y-85340609D01*
X183371676Y-85344301D01*
X183363545Y-85347211D01*
X183355168Y-85349309D01*
X183346626Y-85350576D01*
X183338000Y-85351000D01*
X183162000Y-85351000D01*
X183153374Y-85350576D01*
X183144832Y-85349309D01*
X183136455Y-85347211D01*
X183128324Y-85344301D01*
X183120517Y-85340609D01*
X183113110Y-85336169D01*
X183106173Y-85331025D01*
X183099775Y-85325225D01*
X183093975Y-85318827D01*
X183088831Y-85311890D01*
X183084391Y-85304483D01*
X183080699Y-85296676D01*
X183077789Y-85288545D01*
X183075691Y-85280168D01*
X183074424Y-85271626D01*
X183074000Y-85263000D01*
X183074000Y-84462000D01*
X183074424Y-84453374D01*
X183075691Y-84444832D01*
X183077789Y-84436455D01*
X183080699Y-84428324D01*
X183084391Y-84420517D01*
X183088831Y-84413110D01*
X183093975Y-84406173D01*
X183099775Y-84399775D01*
X183106173Y-84393975D01*
X183113110Y-84388831D01*
X183120517Y-84384391D01*
X183128324Y-84380699D01*
X183136455Y-84377789D01*
X183144832Y-84375691D01*
X183153374Y-84374424D01*
X183162000Y-84374000D01*
X183338000Y-84374000D01*
X183346626Y-84374424D01*
X183346626Y-84374424D01*
G37*
D15*
X183250000Y-84862500D03*
D14*
G36*
X183846626Y-84374424D02*
G01*
X183855168Y-84375691D01*
X183863545Y-84377789D01*
X183871676Y-84380699D01*
X183879483Y-84384391D01*
X183886890Y-84388831D01*
X183893827Y-84393975D01*
X183900225Y-84399775D01*
X183906025Y-84406173D01*
X183911169Y-84413110D01*
X183915609Y-84420517D01*
X183919301Y-84428324D01*
X183922211Y-84436455D01*
X183924309Y-84444832D01*
X183925576Y-84453374D01*
X183926000Y-84462000D01*
X183926000Y-85263000D01*
X183925576Y-85271626D01*
X183924309Y-85280168D01*
X183922211Y-85288545D01*
X183919301Y-85296676D01*
X183915609Y-85304483D01*
X183911169Y-85311890D01*
X183906025Y-85318827D01*
X183900225Y-85325225D01*
X183893827Y-85331025D01*
X183886890Y-85336169D01*
X183879483Y-85340609D01*
X183871676Y-85344301D01*
X183863545Y-85347211D01*
X183855168Y-85349309D01*
X183846626Y-85350576D01*
X183838000Y-85351000D01*
X183662000Y-85351000D01*
X183653374Y-85350576D01*
X183644832Y-85349309D01*
X183636455Y-85347211D01*
X183628324Y-85344301D01*
X183620517Y-85340609D01*
X183613110Y-85336169D01*
X183606173Y-85331025D01*
X183599775Y-85325225D01*
X183593975Y-85318827D01*
X183588831Y-85311890D01*
X183584391Y-85304483D01*
X183580699Y-85296676D01*
X183577789Y-85288545D01*
X183575691Y-85280168D01*
X183574424Y-85271626D01*
X183574000Y-85263000D01*
X183574000Y-84462000D01*
X183574424Y-84453374D01*
X183575691Y-84444832D01*
X183577789Y-84436455D01*
X183580699Y-84428324D01*
X183584391Y-84420517D01*
X183588831Y-84413110D01*
X183593975Y-84406173D01*
X183599775Y-84399775D01*
X183606173Y-84393975D01*
X183613110Y-84388831D01*
X183620517Y-84384391D01*
X183628324Y-84380699D01*
X183636455Y-84377789D01*
X183644832Y-84375691D01*
X183653374Y-84374424D01*
X183662000Y-84374000D01*
X183838000Y-84374000D01*
X183846626Y-84374424D01*
X183846626Y-84374424D01*
G37*
D15*
X183750000Y-84862500D03*
D14*
G36*
X184346626Y-84374424D02*
G01*
X184355168Y-84375691D01*
X184363545Y-84377789D01*
X184371676Y-84380699D01*
X184379483Y-84384391D01*
X184386890Y-84388831D01*
X184393827Y-84393975D01*
X184400225Y-84399775D01*
X184406025Y-84406173D01*
X184411169Y-84413110D01*
X184415609Y-84420517D01*
X184419301Y-84428324D01*
X184422211Y-84436455D01*
X184424309Y-84444832D01*
X184425576Y-84453374D01*
X184426000Y-84462000D01*
X184426000Y-85263000D01*
X184425576Y-85271626D01*
X184424309Y-85280168D01*
X184422211Y-85288545D01*
X184419301Y-85296676D01*
X184415609Y-85304483D01*
X184411169Y-85311890D01*
X184406025Y-85318827D01*
X184400225Y-85325225D01*
X184393827Y-85331025D01*
X184386890Y-85336169D01*
X184379483Y-85340609D01*
X184371676Y-85344301D01*
X184363545Y-85347211D01*
X184355168Y-85349309D01*
X184346626Y-85350576D01*
X184338000Y-85351000D01*
X184162000Y-85351000D01*
X184153374Y-85350576D01*
X184144832Y-85349309D01*
X184136455Y-85347211D01*
X184128324Y-85344301D01*
X184120517Y-85340609D01*
X184113110Y-85336169D01*
X184106173Y-85331025D01*
X184099775Y-85325225D01*
X184093975Y-85318827D01*
X184088831Y-85311890D01*
X184084391Y-85304483D01*
X184080699Y-85296676D01*
X184077789Y-85288545D01*
X184075691Y-85280168D01*
X184074424Y-85271626D01*
X184074000Y-85263000D01*
X184074000Y-84462000D01*
X184074424Y-84453374D01*
X184075691Y-84444832D01*
X184077789Y-84436455D01*
X184080699Y-84428324D01*
X184084391Y-84420517D01*
X184088831Y-84413110D01*
X184093975Y-84406173D01*
X184099775Y-84399775D01*
X184106173Y-84393975D01*
X184113110Y-84388831D01*
X184120517Y-84384391D01*
X184128324Y-84380699D01*
X184136455Y-84377789D01*
X184144832Y-84375691D01*
X184153374Y-84374424D01*
X184162000Y-84374000D01*
X184338000Y-84374000D01*
X184346626Y-84374424D01*
X184346626Y-84374424D01*
G37*
D15*
X184250000Y-84862500D03*
D14*
G36*
X185346626Y-85374424D02*
G01*
X185355168Y-85375691D01*
X185363545Y-85377789D01*
X185371676Y-85380699D01*
X185379483Y-85384391D01*
X185386890Y-85388831D01*
X185393827Y-85393975D01*
X185400225Y-85399775D01*
X185406025Y-85406173D01*
X185411169Y-85413110D01*
X185415609Y-85420517D01*
X185419301Y-85428324D01*
X185422211Y-85436455D01*
X185424309Y-85444832D01*
X185425576Y-85453374D01*
X185426000Y-85462000D01*
X185426000Y-85638000D01*
X185425576Y-85646626D01*
X185424309Y-85655168D01*
X185422211Y-85663545D01*
X185419301Y-85671676D01*
X185415609Y-85679483D01*
X185411169Y-85686890D01*
X185406025Y-85693827D01*
X185400225Y-85700225D01*
X185393827Y-85706025D01*
X185386890Y-85711169D01*
X185379483Y-85715609D01*
X185371676Y-85719301D01*
X185363545Y-85722211D01*
X185355168Y-85724309D01*
X185346626Y-85725576D01*
X185338000Y-85726000D01*
X184537000Y-85726000D01*
X184528374Y-85725576D01*
X184519832Y-85724309D01*
X184511455Y-85722211D01*
X184503324Y-85719301D01*
X184495517Y-85715609D01*
X184488110Y-85711169D01*
X184481173Y-85706025D01*
X184474775Y-85700225D01*
X184468975Y-85693827D01*
X184463831Y-85686890D01*
X184459391Y-85679483D01*
X184455699Y-85671676D01*
X184452789Y-85663545D01*
X184450691Y-85655168D01*
X184449424Y-85646626D01*
X184449000Y-85638000D01*
X184449000Y-85462000D01*
X184449424Y-85453374D01*
X184450691Y-85444832D01*
X184452789Y-85436455D01*
X184455699Y-85428324D01*
X184459391Y-85420517D01*
X184463831Y-85413110D01*
X184468975Y-85406173D01*
X184474775Y-85399775D01*
X184481173Y-85393975D01*
X184488110Y-85388831D01*
X184495517Y-85384391D01*
X184503324Y-85380699D01*
X184511455Y-85377789D01*
X184519832Y-85375691D01*
X184528374Y-85374424D01*
X184537000Y-85374000D01*
X185338000Y-85374000D01*
X185346626Y-85374424D01*
X185346626Y-85374424D01*
G37*
D15*
X184937500Y-85550000D03*
D14*
G36*
X185346626Y-85874424D02*
G01*
X185355168Y-85875691D01*
X185363545Y-85877789D01*
X185371676Y-85880699D01*
X185379483Y-85884391D01*
X185386890Y-85888831D01*
X185393827Y-85893975D01*
X185400225Y-85899775D01*
X185406025Y-85906173D01*
X185411169Y-85913110D01*
X185415609Y-85920517D01*
X185419301Y-85928324D01*
X185422211Y-85936455D01*
X185424309Y-85944832D01*
X185425576Y-85953374D01*
X185426000Y-85962000D01*
X185426000Y-86138000D01*
X185425576Y-86146626D01*
X185424309Y-86155168D01*
X185422211Y-86163545D01*
X185419301Y-86171676D01*
X185415609Y-86179483D01*
X185411169Y-86186890D01*
X185406025Y-86193827D01*
X185400225Y-86200225D01*
X185393827Y-86206025D01*
X185386890Y-86211169D01*
X185379483Y-86215609D01*
X185371676Y-86219301D01*
X185363545Y-86222211D01*
X185355168Y-86224309D01*
X185346626Y-86225576D01*
X185338000Y-86226000D01*
X184537000Y-86226000D01*
X184528374Y-86225576D01*
X184519832Y-86224309D01*
X184511455Y-86222211D01*
X184503324Y-86219301D01*
X184495517Y-86215609D01*
X184488110Y-86211169D01*
X184481173Y-86206025D01*
X184474775Y-86200225D01*
X184468975Y-86193827D01*
X184463831Y-86186890D01*
X184459391Y-86179483D01*
X184455699Y-86171676D01*
X184452789Y-86163545D01*
X184450691Y-86155168D01*
X184449424Y-86146626D01*
X184449000Y-86138000D01*
X184449000Y-85962000D01*
X184449424Y-85953374D01*
X184450691Y-85944832D01*
X184452789Y-85936455D01*
X184455699Y-85928324D01*
X184459391Y-85920517D01*
X184463831Y-85913110D01*
X184468975Y-85906173D01*
X184474775Y-85899775D01*
X184481173Y-85893975D01*
X184488110Y-85888831D01*
X184495517Y-85884391D01*
X184503324Y-85880699D01*
X184511455Y-85877789D01*
X184519832Y-85875691D01*
X184528374Y-85874424D01*
X184537000Y-85874000D01*
X185338000Y-85874000D01*
X185346626Y-85874424D01*
X185346626Y-85874424D01*
G37*
D15*
X184937500Y-86050000D03*
D14*
G36*
X185346626Y-86374424D02*
G01*
X185355168Y-86375691D01*
X185363545Y-86377789D01*
X185371676Y-86380699D01*
X185379483Y-86384391D01*
X185386890Y-86388831D01*
X185393827Y-86393975D01*
X185400225Y-86399775D01*
X185406025Y-86406173D01*
X185411169Y-86413110D01*
X185415609Y-86420517D01*
X185419301Y-86428324D01*
X185422211Y-86436455D01*
X185424309Y-86444832D01*
X185425576Y-86453374D01*
X185426000Y-86462000D01*
X185426000Y-86638000D01*
X185425576Y-86646626D01*
X185424309Y-86655168D01*
X185422211Y-86663545D01*
X185419301Y-86671676D01*
X185415609Y-86679483D01*
X185411169Y-86686890D01*
X185406025Y-86693827D01*
X185400225Y-86700225D01*
X185393827Y-86706025D01*
X185386890Y-86711169D01*
X185379483Y-86715609D01*
X185371676Y-86719301D01*
X185363545Y-86722211D01*
X185355168Y-86724309D01*
X185346626Y-86725576D01*
X185338000Y-86726000D01*
X184537000Y-86726000D01*
X184528374Y-86725576D01*
X184519832Y-86724309D01*
X184511455Y-86722211D01*
X184503324Y-86719301D01*
X184495517Y-86715609D01*
X184488110Y-86711169D01*
X184481173Y-86706025D01*
X184474775Y-86700225D01*
X184468975Y-86693827D01*
X184463831Y-86686890D01*
X184459391Y-86679483D01*
X184455699Y-86671676D01*
X184452789Y-86663545D01*
X184450691Y-86655168D01*
X184449424Y-86646626D01*
X184449000Y-86638000D01*
X184449000Y-86462000D01*
X184449424Y-86453374D01*
X184450691Y-86444832D01*
X184452789Y-86436455D01*
X184455699Y-86428324D01*
X184459391Y-86420517D01*
X184463831Y-86413110D01*
X184468975Y-86406173D01*
X184474775Y-86399775D01*
X184481173Y-86393975D01*
X184488110Y-86388831D01*
X184495517Y-86384391D01*
X184503324Y-86380699D01*
X184511455Y-86377789D01*
X184519832Y-86375691D01*
X184528374Y-86374424D01*
X184537000Y-86374000D01*
X185338000Y-86374000D01*
X185346626Y-86374424D01*
X185346626Y-86374424D01*
G37*
D15*
X184937500Y-86550000D03*
D14*
G36*
X185346626Y-86874424D02*
G01*
X185355168Y-86875691D01*
X185363545Y-86877789D01*
X185371676Y-86880699D01*
X185379483Y-86884391D01*
X185386890Y-86888831D01*
X185393827Y-86893975D01*
X185400225Y-86899775D01*
X185406025Y-86906173D01*
X185411169Y-86913110D01*
X185415609Y-86920517D01*
X185419301Y-86928324D01*
X185422211Y-86936455D01*
X185424309Y-86944832D01*
X185425576Y-86953374D01*
X185426000Y-86962000D01*
X185426000Y-87138000D01*
X185425576Y-87146626D01*
X185424309Y-87155168D01*
X185422211Y-87163545D01*
X185419301Y-87171676D01*
X185415609Y-87179483D01*
X185411169Y-87186890D01*
X185406025Y-87193827D01*
X185400225Y-87200225D01*
X185393827Y-87206025D01*
X185386890Y-87211169D01*
X185379483Y-87215609D01*
X185371676Y-87219301D01*
X185363545Y-87222211D01*
X185355168Y-87224309D01*
X185346626Y-87225576D01*
X185338000Y-87226000D01*
X184537000Y-87226000D01*
X184528374Y-87225576D01*
X184519832Y-87224309D01*
X184511455Y-87222211D01*
X184503324Y-87219301D01*
X184495517Y-87215609D01*
X184488110Y-87211169D01*
X184481173Y-87206025D01*
X184474775Y-87200225D01*
X184468975Y-87193827D01*
X184463831Y-87186890D01*
X184459391Y-87179483D01*
X184455699Y-87171676D01*
X184452789Y-87163545D01*
X184450691Y-87155168D01*
X184449424Y-87146626D01*
X184449000Y-87138000D01*
X184449000Y-86962000D01*
X184449424Y-86953374D01*
X184450691Y-86944832D01*
X184452789Y-86936455D01*
X184455699Y-86928324D01*
X184459391Y-86920517D01*
X184463831Y-86913110D01*
X184468975Y-86906173D01*
X184474775Y-86899775D01*
X184481173Y-86893975D01*
X184488110Y-86888831D01*
X184495517Y-86884391D01*
X184503324Y-86880699D01*
X184511455Y-86877789D01*
X184519832Y-86875691D01*
X184528374Y-86874424D01*
X184537000Y-86874000D01*
X185338000Y-86874000D01*
X185346626Y-86874424D01*
X185346626Y-86874424D01*
G37*
D15*
X184937500Y-87050000D03*
D14*
G36*
X185346626Y-87374424D02*
G01*
X185355168Y-87375691D01*
X185363545Y-87377789D01*
X185371676Y-87380699D01*
X185379483Y-87384391D01*
X185386890Y-87388831D01*
X185393827Y-87393975D01*
X185400225Y-87399775D01*
X185406025Y-87406173D01*
X185411169Y-87413110D01*
X185415609Y-87420517D01*
X185419301Y-87428324D01*
X185422211Y-87436455D01*
X185424309Y-87444832D01*
X185425576Y-87453374D01*
X185426000Y-87462000D01*
X185426000Y-87638000D01*
X185425576Y-87646626D01*
X185424309Y-87655168D01*
X185422211Y-87663545D01*
X185419301Y-87671676D01*
X185415609Y-87679483D01*
X185411169Y-87686890D01*
X185406025Y-87693827D01*
X185400225Y-87700225D01*
X185393827Y-87706025D01*
X185386890Y-87711169D01*
X185379483Y-87715609D01*
X185371676Y-87719301D01*
X185363545Y-87722211D01*
X185355168Y-87724309D01*
X185346626Y-87725576D01*
X185338000Y-87726000D01*
X184537000Y-87726000D01*
X184528374Y-87725576D01*
X184519832Y-87724309D01*
X184511455Y-87722211D01*
X184503324Y-87719301D01*
X184495517Y-87715609D01*
X184488110Y-87711169D01*
X184481173Y-87706025D01*
X184474775Y-87700225D01*
X184468975Y-87693827D01*
X184463831Y-87686890D01*
X184459391Y-87679483D01*
X184455699Y-87671676D01*
X184452789Y-87663545D01*
X184450691Y-87655168D01*
X184449424Y-87646626D01*
X184449000Y-87638000D01*
X184449000Y-87462000D01*
X184449424Y-87453374D01*
X184450691Y-87444832D01*
X184452789Y-87436455D01*
X184455699Y-87428324D01*
X184459391Y-87420517D01*
X184463831Y-87413110D01*
X184468975Y-87406173D01*
X184474775Y-87399775D01*
X184481173Y-87393975D01*
X184488110Y-87388831D01*
X184495517Y-87384391D01*
X184503324Y-87380699D01*
X184511455Y-87377789D01*
X184519832Y-87375691D01*
X184528374Y-87374424D01*
X184537000Y-87374000D01*
X185338000Y-87374000D01*
X185346626Y-87374424D01*
X185346626Y-87374424D01*
G37*
D15*
X184937500Y-87550000D03*
D14*
G36*
X185346626Y-87874424D02*
G01*
X185355168Y-87875691D01*
X185363545Y-87877789D01*
X185371676Y-87880699D01*
X185379483Y-87884391D01*
X185386890Y-87888831D01*
X185393827Y-87893975D01*
X185400225Y-87899775D01*
X185406025Y-87906173D01*
X185411169Y-87913110D01*
X185415609Y-87920517D01*
X185419301Y-87928324D01*
X185422211Y-87936455D01*
X185424309Y-87944832D01*
X185425576Y-87953374D01*
X185426000Y-87962000D01*
X185426000Y-88138000D01*
X185425576Y-88146626D01*
X185424309Y-88155168D01*
X185422211Y-88163545D01*
X185419301Y-88171676D01*
X185415609Y-88179483D01*
X185411169Y-88186890D01*
X185406025Y-88193827D01*
X185400225Y-88200225D01*
X185393827Y-88206025D01*
X185386890Y-88211169D01*
X185379483Y-88215609D01*
X185371676Y-88219301D01*
X185363545Y-88222211D01*
X185355168Y-88224309D01*
X185346626Y-88225576D01*
X185338000Y-88226000D01*
X184537000Y-88226000D01*
X184528374Y-88225576D01*
X184519832Y-88224309D01*
X184511455Y-88222211D01*
X184503324Y-88219301D01*
X184495517Y-88215609D01*
X184488110Y-88211169D01*
X184481173Y-88206025D01*
X184474775Y-88200225D01*
X184468975Y-88193827D01*
X184463831Y-88186890D01*
X184459391Y-88179483D01*
X184455699Y-88171676D01*
X184452789Y-88163545D01*
X184450691Y-88155168D01*
X184449424Y-88146626D01*
X184449000Y-88138000D01*
X184449000Y-87962000D01*
X184449424Y-87953374D01*
X184450691Y-87944832D01*
X184452789Y-87936455D01*
X184455699Y-87928324D01*
X184459391Y-87920517D01*
X184463831Y-87913110D01*
X184468975Y-87906173D01*
X184474775Y-87899775D01*
X184481173Y-87893975D01*
X184488110Y-87888831D01*
X184495517Y-87884391D01*
X184503324Y-87880699D01*
X184511455Y-87877789D01*
X184519832Y-87875691D01*
X184528374Y-87874424D01*
X184537000Y-87874000D01*
X185338000Y-87874000D01*
X185346626Y-87874424D01*
X185346626Y-87874424D01*
G37*
D15*
X184937500Y-88050000D03*
D14*
G36*
X185346626Y-88374424D02*
G01*
X185355168Y-88375691D01*
X185363545Y-88377789D01*
X185371676Y-88380699D01*
X185379483Y-88384391D01*
X185386890Y-88388831D01*
X185393827Y-88393975D01*
X185400225Y-88399775D01*
X185406025Y-88406173D01*
X185411169Y-88413110D01*
X185415609Y-88420517D01*
X185419301Y-88428324D01*
X185422211Y-88436455D01*
X185424309Y-88444832D01*
X185425576Y-88453374D01*
X185426000Y-88462000D01*
X185426000Y-88638000D01*
X185425576Y-88646626D01*
X185424309Y-88655168D01*
X185422211Y-88663545D01*
X185419301Y-88671676D01*
X185415609Y-88679483D01*
X185411169Y-88686890D01*
X185406025Y-88693827D01*
X185400225Y-88700225D01*
X185393827Y-88706025D01*
X185386890Y-88711169D01*
X185379483Y-88715609D01*
X185371676Y-88719301D01*
X185363545Y-88722211D01*
X185355168Y-88724309D01*
X185346626Y-88725576D01*
X185338000Y-88726000D01*
X184537000Y-88726000D01*
X184528374Y-88725576D01*
X184519832Y-88724309D01*
X184511455Y-88722211D01*
X184503324Y-88719301D01*
X184495517Y-88715609D01*
X184488110Y-88711169D01*
X184481173Y-88706025D01*
X184474775Y-88700225D01*
X184468975Y-88693827D01*
X184463831Y-88686890D01*
X184459391Y-88679483D01*
X184455699Y-88671676D01*
X184452789Y-88663545D01*
X184450691Y-88655168D01*
X184449424Y-88646626D01*
X184449000Y-88638000D01*
X184449000Y-88462000D01*
X184449424Y-88453374D01*
X184450691Y-88444832D01*
X184452789Y-88436455D01*
X184455699Y-88428324D01*
X184459391Y-88420517D01*
X184463831Y-88413110D01*
X184468975Y-88406173D01*
X184474775Y-88399775D01*
X184481173Y-88393975D01*
X184488110Y-88388831D01*
X184495517Y-88384391D01*
X184503324Y-88380699D01*
X184511455Y-88377789D01*
X184519832Y-88375691D01*
X184528374Y-88374424D01*
X184537000Y-88374000D01*
X185338000Y-88374000D01*
X185346626Y-88374424D01*
X185346626Y-88374424D01*
G37*
D15*
X184937500Y-88550000D03*
D14*
G36*
X185346626Y-88874424D02*
G01*
X185355168Y-88875691D01*
X185363545Y-88877789D01*
X185371676Y-88880699D01*
X185379483Y-88884391D01*
X185386890Y-88888831D01*
X185393827Y-88893975D01*
X185400225Y-88899775D01*
X185406025Y-88906173D01*
X185411169Y-88913110D01*
X185415609Y-88920517D01*
X185419301Y-88928324D01*
X185422211Y-88936455D01*
X185424309Y-88944832D01*
X185425576Y-88953374D01*
X185426000Y-88962000D01*
X185426000Y-89138000D01*
X185425576Y-89146626D01*
X185424309Y-89155168D01*
X185422211Y-89163545D01*
X185419301Y-89171676D01*
X185415609Y-89179483D01*
X185411169Y-89186890D01*
X185406025Y-89193827D01*
X185400225Y-89200225D01*
X185393827Y-89206025D01*
X185386890Y-89211169D01*
X185379483Y-89215609D01*
X185371676Y-89219301D01*
X185363545Y-89222211D01*
X185355168Y-89224309D01*
X185346626Y-89225576D01*
X185338000Y-89226000D01*
X184537000Y-89226000D01*
X184528374Y-89225576D01*
X184519832Y-89224309D01*
X184511455Y-89222211D01*
X184503324Y-89219301D01*
X184495517Y-89215609D01*
X184488110Y-89211169D01*
X184481173Y-89206025D01*
X184474775Y-89200225D01*
X184468975Y-89193827D01*
X184463831Y-89186890D01*
X184459391Y-89179483D01*
X184455699Y-89171676D01*
X184452789Y-89163545D01*
X184450691Y-89155168D01*
X184449424Y-89146626D01*
X184449000Y-89138000D01*
X184449000Y-88962000D01*
X184449424Y-88953374D01*
X184450691Y-88944832D01*
X184452789Y-88936455D01*
X184455699Y-88928324D01*
X184459391Y-88920517D01*
X184463831Y-88913110D01*
X184468975Y-88906173D01*
X184474775Y-88899775D01*
X184481173Y-88893975D01*
X184488110Y-88888831D01*
X184495517Y-88884391D01*
X184503324Y-88880699D01*
X184511455Y-88877789D01*
X184519832Y-88875691D01*
X184528374Y-88874424D01*
X184537000Y-88874000D01*
X185338000Y-88874000D01*
X185346626Y-88874424D01*
X185346626Y-88874424D01*
G37*
D15*
X184937500Y-89050000D03*
D14*
G36*
X184346626Y-89249424D02*
G01*
X184355168Y-89250691D01*
X184363545Y-89252789D01*
X184371676Y-89255699D01*
X184379483Y-89259391D01*
X184386890Y-89263831D01*
X184393827Y-89268975D01*
X184400225Y-89274775D01*
X184406025Y-89281173D01*
X184411169Y-89288110D01*
X184415609Y-89295517D01*
X184419301Y-89303324D01*
X184422211Y-89311455D01*
X184424309Y-89319832D01*
X184425576Y-89328374D01*
X184426000Y-89337000D01*
X184426000Y-90138000D01*
X184425576Y-90146626D01*
X184424309Y-90155168D01*
X184422211Y-90163545D01*
X184419301Y-90171676D01*
X184415609Y-90179483D01*
X184411169Y-90186890D01*
X184406025Y-90193827D01*
X184400225Y-90200225D01*
X184393827Y-90206025D01*
X184386890Y-90211169D01*
X184379483Y-90215609D01*
X184371676Y-90219301D01*
X184363545Y-90222211D01*
X184355168Y-90224309D01*
X184346626Y-90225576D01*
X184338000Y-90226000D01*
X184162000Y-90226000D01*
X184153374Y-90225576D01*
X184144832Y-90224309D01*
X184136455Y-90222211D01*
X184128324Y-90219301D01*
X184120517Y-90215609D01*
X184113110Y-90211169D01*
X184106173Y-90206025D01*
X184099775Y-90200225D01*
X184093975Y-90193827D01*
X184088831Y-90186890D01*
X184084391Y-90179483D01*
X184080699Y-90171676D01*
X184077789Y-90163545D01*
X184075691Y-90155168D01*
X184074424Y-90146626D01*
X184074000Y-90138000D01*
X184074000Y-89337000D01*
X184074424Y-89328374D01*
X184075691Y-89319832D01*
X184077789Y-89311455D01*
X184080699Y-89303324D01*
X184084391Y-89295517D01*
X184088831Y-89288110D01*
X184093975Y-89281173D01*
X184099775Y-89274775D01*
X184106173Y-89268975D01*
X184113110Y-89263831D01*
X184120517Y-89259391D01*
X184128324Y-89255699D01*
X184136455Y-89252789D01*
X184144832Y-89250691D01*
X184153374Y-89249424D01*
X184162000Y-89249000D01*
X184338000Y-89249000D01*
X184346626Y-89249424D01*
X184346626Y-89249424D01*
G37*
D15*
X184250000Y-89737500D03*
D14*
G36*
X183846626Y-89249424D02*
G01*
X183855168Y-89250691D01*
X183863545Y-89252789D01*
X183871676Y-89255699D01*
X183879483Y-89259391D01*
X183886890Y-89263831D01*
X183893827Y-89268975D01*
X183900225Y-89274775D01*
X183906025Y-89281173D01*
X183911169Y-89288110D01*
X183915609Y-89295517D01*
X183919301Y-89303324D01*
X183922211Y-89311455D01*
X183924309Y-89319832D01*
X183925576Y-89328374D01*
X183926000Y-89337000D01*
X183926000Y-90138000D01*
X183925576Y-90146626D01*
X183924309Y-90155168D01*
X183922211Y-90163545D01*
X183919301Y-90171676D01*
X183915609Y-90179483D01*
X183911169Y-90186890D01*
X183906025Y-90193827D01*
X183900225Y-90200225D01*
X183893827Y-90206025D01*
X183886890Y-90211169D01*
X183879483Y-90215609D01*
X183871676Y-90219301D01*
X183863545Y-90222211D01*
X183855168Y-90224309D01*
X183846626Y-90225576D01*
X183838000Y-90226000D01*
X183662000Y-90226000D01*
X183653374Y-90225576D01*
X183644832Y-90224309D01*
X183636455Y-90222211D01*
X183628324Y-90219301D01*
X183620517Y-90215609D01*
X183613110Y-90211169D01*
X183606173Y-90206025D01*
X183599775Y-90200225D01*
X183593975Y-90193827D01*
X183588831Y-90186890D01*
X183584391Y-90179483D01*
X183580699Y-90171676D01*
X183577789Y-90163545D01*
X183575691Y-90155168D01*
X183574424Y-90146626D01*
X183574000Y-90138000D01*
X183574000Y-89337000D01*
X183574424Y-89328374D01*
X183575691Y-89319832D01*
X183577789Y-89311455D01*
X183580699Y-89303324D01*
X183584391Y-89295517D01*
X183588831Y-89288110D01*
X183593975Y-89281173D01*
X183599775Y-89274775D01*
X183606173Y-89268975D01*
X183613110Y-89263831D01*
X183620517Y-89259391D01*
X183628324Y-89255699D01*
X183636455Y-89252789D01*
X183644832Y-89250691D01*
X183653374Y-89249424D01*
X183662000Y-89249000D01*
X183838000Y-89249000D01*
X183846626Y-89249424D01*
X183846626Y-89249424D01*
G37*
D15*
X183750000Y-89737500D03*
D14*
G36*
X183346626Y-89249424D02*
G01*
X183355168Y-89250691D01*
X183363545Y-89252789D01*
X183371676Y-89255699D01*
X183379483Y-89259391D01*
X183386890Y-89263831D01*
X183393827Y-89268975D01*
X183400225Y-89274775D01*
X183406025Y-89281173D01*
X183411169Y-89288110D01*
X183415609Y-89295517D01*
X183419301Y-89303324D01*
X183422211Y-89311455D01*
X183424309Y-89319832D01*
X183425576Y-89328374D01*
X183426000Y-89337000D01*
X183426000Y-90138000D01*
X183425576Y-90146626D01*
X183424309Y-90155168D01*
X183422211Y-90163545D01*
X183419301Y-90171676D01*
X183415609Y-90179483D01*
X183411169Y-90186890D01*
X183406025Y-90193827D01*
X183400225Y-90200225D01*
X183393827Y-90206025D01*
X183386890Y-90211169D01*
X183379483Y-90215609D01*
X183371676Y-90219301D01*
X183363545Y-90222211D01*
X183355168Y-90224309D01*
X183346626Y-90225576D01*
X183338000Y-90226000D01*
X183162000Y-90226000D01*
X183153374Y-90225576D01*
X183144832Y-90224309D01*
X183136455Y-90222211D01*
X183128324Y-90219301D01*
X183120517Y-90215609D01*
X183113110Y-90211169D01*
X183106173Y-90206025D01*
X183099775Y-90200225D01*
X183093975Y-90193827D01*
X183088831Y-90186890D01*
X183084391Y-90179483D01*
X183080699Y-90171676D01*
X183077789Y-90163545D01*
X183075691Y-90155168D01*
X183074424Y-90146626D01*
X183074000Y-90138000D01*
X183074000Y-89337000D01*
X183074424Y-89328374D01*
X183075691Y-89319832D01*
X183077789Y-89311455D01*
X183080699Y-89303324D01*
X183084391Y-89295517D01*
X183088831Y-89288110D01*
X183093975Y-89281173D01*
X183099775Y-89274775D01*
X183106173Y-89268975D01*
X183113110Y-89263831D01*
X183120517Y-89259391D01*
X183128324Y-89255699D01*
X183136455Y-89252789D01*
X183144832Y-89250691D01*
X183153374Y-89249424D01*
X183162000Y-89249000D01*
X183338000Y-89249000D01*
X183346626Y-89249424D01*
X183346626Y-89249424D01*
G37*
D15*
X183250000Y-89737500D03*
D14*
G36*
X182846626Y-89249424D02*
G01*
X182855168Y-89250691D01*
X182863545Y-89252789D01*
X182871676Y-89255699D01*
X182879483Y-89259391D01*
X182886890Y-89263831D01*
X182893827Y-89268975D01*
X182900225Y-89274775D01*
X182906025Y-89281173D01*
X182911169Y-89288110D01*
X182915609Y-89295517D01*
X182919301Y-89303324D01*
X182922211Y-89311455D01*
X182924309Y-89319832D01*
X182925576Y-89328374D01*
X182926000Y-89337000D01*
X182926000Y-90138000D01*
X182925576Y-90146626D01*
X182924309Y-90155168D01*
X182922211Y-90163545D01*
X182919301Y-90171676D01*
X182915609Y-90179483D01*
X182911169Y-90186890D01*
X182906025Y-90193827D01*
X182900225Y-90200225D01*
X182893827Y-90206025D01*
X182886890Y-90211169D01*
X182879483Y-90215609D01*
X182871676Y-90219301D01*
X182863545Y-90222211D01*
X182855168Y-90224309D01*
X182846626Y-90225576D01*
X182838000Y-90226000D01*
X182662000Y-90226000D01*
X182653374Y-90225576D01*
X182644832Y-90224309D01*
X182636455Y-90222211D01*
X182628324Y-90219301D01*
X182620517Y-90215609D01*
X182613110Y-90211169D01*
X182606173Y-90206025D01*
X182599775Y-90200225D01*
X182593975Y-90193827D01*
X182588831Y-90186890D01*
X182584391Y-90179483D01*
X182580699Y-90171676D01*
X182577789Y-90163545D01*
X182575691Y-90155168D01*
X182574424Y-90146626D01*
X182574000Y-90138000D01*
X182574000Y-89337000D01*
X182574424Y-89328374D01*
X182575691Y-89319832D01*
X182577789Y-89311455D01*
X182580699Y-89303324D01*
X182584391Y-89295517D01*
X182588831Y-89288110D01*
X182593975Y-89281173D01*
X182599775Y-89274775D01*
X182606173Y-89268975D01*
X182613110Y-89263831D01*
X182620517Y-89259391D01*
X182628324Y-89255699D01*
X182636455Y-89252789D01*
X182644832Y-89250691D01*
X182653374Y-89249424D01*
X182662000Y-89249000D01*
X182838000Y-89249000D01*
X182846626Y-89249424D01*
X182846626Y-89249424D01*
G37*
D15*
X182750000Y-89737500D03*
D14*
G36*
X182346626Y-89249424D02*
G01*
X182355168Y-89250691D01*
X182363545Y-89252789D01*
X182371676Y-89255699D01*
X182379483Y-89259391D01*
X182386890Y-89263831D01*
X182393827Y-89268975D01*
X182400225Y-89274775D01*
X182406025Y-89281173D01*
X182411169Y-89288110D01*
X182415609Y-89295517D01*
X182419301Y-89303324D01*
X182422211Y-89311455D01*
X182424309Y-89319832D01*
X182425576Y-89328374D01*
X182426000Y-89337000D01*
X182426000Y-90138000D01*
X182425576Y-90146626D01*
X182424309Y-90155168D01*
X182422211Y-90163545D01*
X182419301Y-90171676D01*
X182415609Y-90179483D01*
X182411169Y-90186890D01*
X182406025Y-90193827D01*
X182400225Y-90200225D01*
X182393827Y-90206025D01*
X182386890Y-90211169D01*
X182379483Y-90215609D01*
X182371676Y-90219301D01*
X182363545Y-90222211D01*
X182355168Y-90224309D01*
X182346626Y-90225576D01*
X182338000Y-90226000D01*
X182162000Y-90226000D01*
X182153374Y-90225576D01*
X182144832Y-90224309D01*
X182136455Y-90222211D01*
X182128324Y-90219301D01*
X182120517Y-90215609D01*
X182113110Y-90211169D01*
X182106173Y-90206025D01*
X182099775Y-90200225D01*
X182093975Y-90193827D01*
X182088831Y-90186890D01*
X182084391Y-90179483D01*
X182080699Y-90171676D01*
X182077789Y-90163545D01*
X182075691Y-90155168D01*
X182074424Y-90146626D01*
X182074000Y-90138000D01*
X182074000Y-89337000D01*
X182074424Y-89328374D01*
X182075691Y-89319832D01*
X182077789Y-89311455D01*
X182080699Y-89303324D01*
X182084391Y-89295517D01*
X182088831Y-89288110D01*
X182093975Y-89281173D01*
X182099775Y-89274775D01*
X182106173Y-89268975D01*
X182113110Y-89263831D01*
X182120517Y-89259391D01*
X182128324Y-89255699D01*
X182136455Y-89252789D01*
X182144832Y-89250691D01*
X182153374Y-89249424D01*
X182162000Y-89249000D01*
X182338000Y-89249000D01*
X182346626Y-89249424D01*
X182346626Y-89249424D01*
G37*
D15*
X182250000Y-89737500D03*
D14*
G36*
X181846626Y-89249424D02*
G01*
X181855168Y-89250691D01*
X181863545Y-89252789D01*
X181871676Y-89255699D01*
X181879483Y-89259391D01*
X181886890Y-89263831D01*
X181893827Y-89268975D01*
X181900225Y-89274775D01*
X181906025Y-89281173D01*
X181911169Y-89288110D01*
X181915609Y-89295517D01*
X181919301Y-89303324D01*
X181922211Y-89311455D01*
X181924309Y-89319832D01*
X181925576Y-89328374D01*
X181926000Y-89337000D01*
X181926000Y-90138000D01*
X181925576Y-90146626D01*
X181924309Y-90155168D01*
X181922211Y-90163545D01*
X181919301Y-90171676D01*
X181915609Y-90179483D01*
X181911169Y-90186890D01*
X181906025Y-90193827D01*
X181900225Y-90200225D01*
X181893827Y-90206025D01*
X181886890Y-90211169D01*
X181879483Y-90215609D01*
X181871676Y-90219301D01*
X181863545Y-90222211D01*
X181855168Y-90224309D01*
X181846626Y-90225576D01*
X181838000Y-90226000D01*
X181662000Y-90226000D01*
X181653374Y-90225576D01*
X181644832Y-90224309D01*
X181636455Y-90222211D01*
X181628324Y-90219301D01*
X181620517Y-90215609D01*
X181613110Y-90211169D01*
X181606173Y-90206025D01*
X181599775Y-90200225D01*
X181593975Y-90193827D01*
X181588831Y-90186890D01*
X181584391Y-90179483D01*
X181580699Y-90171676D01*
X181577789Y-90163545D01*
X181575691Y-90155168D01*
X181574424Y-90146626D01*
X181574000Y-90138000D01*
X181574000Y-89337000D01*
X181574424Y-89328374D01*
X181575691Y-89319832D01*
X181577789Y-89311455D01*
X181580699Y-89303324D01*
X181584391Y-89295517D01*
X181588831Y-89288110D01*
X181593975Y-89281173D01*
X181599775Y-89274775D01*
X181606173Y-89268975D01*
X181613110Y-89263831D01*
X181620517Y-89259391D01*
X181628324Y-89255699D01*
X181636455Y-89252789D01*
X181644832Y-89250691D01*
X181653374Y-89249424D01*
X181662000Y-89249000D01*
X181838000Y-89249000D01*
X181846626Y-89249424D01*
X181846626Y-89249424D01*
G37*
D15*
X181750000Y-89737500D03*
D14*
G36*
X181346626Y-89249424D02*
G01*
X181355168Y-89250691D01*
X181363545Y-89252789D01*
X181371676Y-89255699D01*
X181379483Y-89259391D01*
X181386890Y-89263831D01*
X181393827Y-89268975D01*
X181400225Y-89274775D01*
X181406025Y-89281173D01*
X181411169Y-89288110D01*
X181415609Y-89295517D01*
X181419301Y-89303324D01*
X181422211Y-89311455D01*
X181424309Y-89319832D01*
X181425576Y-89328374D01*
X181426000Y-89337000D01*
X181426000Y-90138000D01*
X181425576Y-90146626D01*
X181424309Y-90155168D01*
X181422211Y-90163545D01*
X181419301Y-90171676D01*
X181415609Y-90179483D01*
X181411169Y-90186890D01*
X181406025Y-90193827D01*
X181400225Y-90200225D01*
X181393827Y-90206025D01*
X181386890Y-90211169D01*
X181379483Y-90215609D01*
X181371676Y-90219301D01*
X181363545Y-90222211D01*
X181355168Y-90224309D01*
X181346626Y-90225576D01*
X181338000Y-90226000D01*
X181162000Y-90226000D01*
X181153374Y-90225576D01*
X181144832Y-90224309D01*
X181136455Y-90222211D01*
X181128324Y-90219301D01*
X181120517Y-90215609D01*
X181113110Y-90211169D01*
X181106173Y-90206025D01*
X181099775Y-90200225D01*
X181093975Y-90193827D01*
X181088831Y-90186890D01*
X181084391Y-90179483D01*
X181080699Y-90171676D01*
X181077789Y-90163545D01*
X181075691Y-90155168D01*
X181074424Y-90146626D01*
X181074000Y-90138000D01*
X181074000Y-89337000D01*
X181074424Y-89328374D01*
X181075691Y-89319832D01*
X181077789Y-89311455D01*
X181080699Y-89303324D01*
X181084391Y-89295517D01*
X181088831Y-89288110D01*
X181093975Y-89281173D01*
X181099775Y-89274775D01*
X181106173Y-89268975D01*
X181113110Y-89263831D01*
X181120517Y-89259391D01*
X181128324Y-89255699D01*
X181136455Y-89252789D01*
X181144832Y-89250691D01*
X181153374Y-89249424D01*
X181162000Y-89249000D01*
X181338000Y-89249000D01*
X181346626Y-89249424D01*
X181346626Y-89249424D01*
G37*
D15*
X181250000Y-89737500D03*
D14*
G36*
X180846626Y-89249424D02*
G01*
X180855168Y-89250691D01*
X180863545Y-89252789D01*
X180871676Y-89255699D01*
X180879483Y-89259391D01*
X180886890Y-89263831D01*
X180893827Y-89268975D01*
X180900225Y-89274775D01*
X180906025Y-89281173D01*
X180911169Y-89288110D01*
X180915609Y-89295517D01*
X180919301Y-89303324D01*
X180922211Y-89311455D01*
X180924309Y-89319832D01*
X180925576Y-89328374D01*
X180926000Y-89337000D01*
X180926000Y-90138000D01*
X180925576Y-90146626D01*
X180924309Y-90155168D01*
X180922211Y-90163545D01*
X180919301Y-90171676D01*
X180915609Y-90179483D01*
X180911169Y-90186890D01*
X180906025Y-90193827D01*
X180900225Y-90200225D01*
X180893827Y-90206025D01*
X180886890Y-90211169D01*
X180879483Y-90215609D01*
X180871676Y-90219301D01*
X180863545Y-90222211D01*
X180855168Y-90224309D01*
X180846626Y-90225576D01*
X180838000Y-90226000D01*
X180662000Y-90226000D01*
X180653374Y-90225576D01*
X180644832Y-90224309D01*
X180636455Y-90222211D01*
X180628324Y-90219301D01*
X180620517Y-90215609D01*
X180613110Y-90211169D01*
X180606173Y-90206025D01*
X180599775Y-90200225D01*
X180593975Y-90193827D01*
X180588831Y-90186890D01*
X180584391Y-90179483D01*
X180580699Y-90171676D01*
X180577789Y-90163545D01*
X180575691Y-90155168D01*
X180574424Y-90146626D01*
X180574000Y-90138000D01*
X180574000Y-89337000D01*
X180574424Y-89328374D01*
X180575691Y-89319832D01*
X180577789Y-89311455D01*
X180580699Y-89303324D01*
X180584391Y-89295517D01*
X180588831Y-89288110D01*
X180593975Y-89281173D01*
X180599775Y-89274775D01*
X180606173Y-89268975D01*
X180613110Y-89263831D01*
X180620517Y-89259391D01*
X180628324Y-89255699D01*
X180636455Y-89252789D01*
X180644832Y-89250691D01*
X180653374Y-89249424D01*
X180662000Y-89249000D01*
X180838000Y-89249000D01*
X180846626Y-89249424D01*
X180846626Y-89249424D01*
G37*
D15*
X180750000Y-89737500D03*
D14*
G36*
X184043837Y-85525239D02*
G01*
X184068823Y-85528946D01*
X184093325Y-85535083D01*
X184117108Y-85543593D01*
X184139942Y-85554393D01*
X184161607Y-85567378D01*
X184181896Y-85582425D01*
X184200612Y-85599388D01*
X184217575Y-85618104D01*
X184232622Y-85638393D01*
X184245607Y-85660058D01*
X184256407Y-85682892D01*
X184264917Y-85706675D01*
X184271054Y-85731177D01*
X184274761Y-85756163D01*
X184276000Y-85781392D01*
X184276000Y-88818608D01*
X184274761Y-88843837D01*
X184271054Y-88868823D01*
X184264917Y-88893325D01*
X184256407Y-88917108D01*
X184245607Y-88939942D01*
X184232622Y-88961607D01*
X184217575Y-88981896D01*
X184200612Y-89000612D01*
X184181896Y-89017575D01*
X184161607Y-89032622D01*
X184139942Y-89045607D01*
X184117108Y-89056407D01*
X184093325Y-89064917D01*
X184068823Y-89071054D01*
X184043837Y-89074761D01*
X184018608Y-89076000D01*
X180981392Y-89076000D01*
X180956163Y-89074761D01*
X180931177Y-89071054D01*
X180906675Y-89064917D01*
X180882892Y-89056407D01*
X180860058Y-89045607D01*
X180838393Y-89032622D01*
X180818104Y-89017575D01*
X180799388Y-89000612D01*
X180782425Y-88981896D01*
X180767378Y-88961607D01*
X180754393Y-88939942D01*
X180743593Y-88917108D01*
X180735083Y-88893325D01*
X180728946Y-88868823D01*
X180725239Y-88843837D01*
X180724000Y-88818608D01*
X180724000Y-85781392D01*
X180725239Y-85756163D01*
X180728946Y-85731177D01*
X180735083Y-85706675D01*
X180743593Y-85682892D01*
X180754393Y-85660058D01*
X180767378Y-85638393D01*
X180782425Y-85618104D01*
X180799388Y-85599388D01*
X180818104Y-85582425D01*
X180838393Y-85567378D01*
X180860058Y-85554393D01*
X180882892Y-85543593D01*
X180906675Y-85535083D01*
X180931177Y-85528946D01*
X180956163Y-85525239D01*
X180981392Y-85524000D01*
X184018608Y-85524000D01*
X184043837Y-85525239D01*
X184043837Y-85525239D01*
G37*
D16*
X182500000Y-87300000D03*
D13*
X147000000Y-91000000D03*
X147000000Y-81900000D03*
D17*
X199520000Y-80400000D03*
X196980000Y-80400000D03*
X194440000Y-80400000D03*
D18*
X191900000Y-80400000D03*
D19*
X154850000Y-88890000D03*
X152950000Y-88890000D03*
X152950000Y-86690000D03*
X153900000Y-86690000D03*
X154850000Y-86690000D03*
D20*
X172360000Y-89500000D03*
X172360000Y-87500000D03*
X172360000Y-85500000D03*
X172360000Y-83500000D03*
D14*
G36*
X151475691Y-83935176D02*
G01*
X151499401Y-83938693D01*
X151522652Y-83944517D01*
X151545220Y-83952592D01*
X151566889Y-83962841D01*
X151587448Y-83975164D01*
X151606701Y-83989442D01*
X151624461Y-84005539D01*
X151640558Y-84023299D01*
X151654836Y-84042552D01*
X151667159Y-84063111D01*
X151677408Y-84084780D01*
X151685483Y-84107348D01*
X151691307Y-84130599D01*
X151694824Y-84154309D01*
X151696000Y-84178250D01*
X151696000Y-84666750D01*
X151694824Y-84690691D01*
X151691307Y-84714401D01*
X151685483Y-84737652D01*
X151677408Y-84760220D01*
X151667159Y-84781889D01*
X151654836Y-84802448D01*
X151640558Y-84821701D01*
X151624461Y-84839461D01*
X151606701Y-84855558D01*
X151587448Y-84869836D01*
X151566889Y-84882159D01*
X151545220Y-84892408D01*
X151522652Y-84900483D01*
X151499401Y-84906307D01*
X151475691Y-84909824D01*
X151451750Y-84911000D01*
X150888250Y-84911000D01*
X150864309Y-84909824D01*
X150840599Y-84906307D01*
X150817348Y-84900483D01*
X150794780Y-84892408D01*
X150773111Y-84882159D01*
X150752552Y-84869836D01*
X150733299Y-84855558D01*
X150715539Y-84839461D01*
X150699442Y-84821701D01*
X150685164Y-84802448D01*
X150672841Y-84781889D01*
X150662592Y-84760220D01*
X150654517Y-84737652D01*
X150648693Y-84714401D01*
X150645176Y-84690691D01*
X150644000Y-84666750D01*
X150644000Y-84178250D01*
X150645176Y-84154309D01*
X150648693Y-84130599D01*
X150654517Y-84107348D01*
X150662592Y-84084780D01*
X150672841Y-84063111D01*
X150685164Y-84042552D01*
X150699442Y-84023299D01*
X150715539Y-84005539D01*
X150733299Y-83989442D01*
X150752552Y-83975164D01*
X150773111Y-83962841D01*
X150794780Y-83952592D01*
X150817348Y-83944517D01*
X150840599Y-83938693D01*
X150864309Y-83935176D01*
X150888250Y-83934000D01*
X151451750Y-83934000D01*
X151475691Y-83935176D01*
X151475691Y-83935176D01*
G37*
D21*
X151170000Y-84422500D03*
D14*
G36*
X151475691Y-85510176D02*
G01*
X151499401Y-85513693D01*
X151522652Y-85519517D01*
X151545220Y-85527592D01*
X151566889Y-85537841D01*
X151587448Y-85550164D01*
X151606701Y-85564442D01*
X151624461Y-85580539D01*
X151640558Y-85598299D01*
X151654836Y-85617552D01*
X151667159Y-85638111D01*
X151677408Y-85659780D01*
X151685483Y-85682348D01*
X151691307Y-85705599D01*
X151694824Y-85729309D01*
X151696000Y-85753250D01*
X151696000Y-86241750D01*
X151694824Y-86265691D01*
X151691307Y-86289401D01*
X151685483Y-86312652D01*
X151677408Y-86335220D01*
X151667159Y-86356889D01*
X151654836Y-86377448D01*
X151640558Y-86396701D01*
X151624461Y-86414461D01*
X151606701Y-86430558D01*
X151587448Y-86444836D01*
X151566889Y-86457159D01*
X151545220Y-86467408D01*
X151522652Y-86475483D01*
X151499401Y-86481307D01*
X151475691Y-86484824D01*
X151451750Y-86486000D01*
X150888250Y-86486000D01*
X150864309Y-86484824D01*
X150840599Y-86481307D01*
X150817348Y-86475483D01*
X150794780Y-86467408D01*
X150773111Y-86457159D01*
X150752552Y-86444836D01*
X150733299Y-86430558D01*
X150715539Y-86414461D01*
X150699442Y-86396701D01*
X150685164Y-86377448D01*
X150672841Y-86356889D01*
X150662592Y-86335220D01*
X150654517Y-86312652D01*
X150648693Y-86289401D01*
X150645176Y-86265691D01*
X150644000Y-86241750D01*
X150644000Y-85753250D01*
X150645176Y-85729309D01*
X150648693Y-85705599D01*
X150654517Y-85682348D01*
X150662592Y-85659780D01*
X150672841Y-85638111D01*
X150685164Y-85617552D01*
X150699442Y-85598299D01*
X150715539Y-85580539D01*
X150733299Y-85564442D01*
X150752552Y-85550164D01*
X150773111Y-85537841D01*
X150794780Y-85527592D01*
X150817348Y-85519517D01*
X150840599Y-85513693D01*
X150864309Y-85510176D01*
X150888250Y-85509000D01*
X151451750Y-85509000D01*
X151475691Y-85510176D01*
X151475691Y-85510176D01*
G37*
D21*
X151170000Y-85997500D03*
D14*
G36*
X184967691Y-92125176D02*
G01*
X184991401Y-92128693D01*
X185014652Y-92134517D01*
X185037220Y-92142592D01*
X185058889Y-92152841D01*
X185079448Y-92165164D01*
X185098701Y-92179442D01*
X185116461Y-92195539D01*
X185132558Y-92213299D01*
X185146836Y-92232552D01*
X185159159Y-92253111D01*
X185169408Y-92274780D01*
X185177483Y-92297348D01*
X185183307Y-92320599D01*
X185186824Y-92344309D01*
X185188000Y-92368250D01*
X185188000Y-92931750D01*
X185186824Y-92955691D01*
X185183307Y-92979401D01*
X185177483Y-93002652D01*
X185169408Y-93025220D01*
X185159159Y-93046889D01*
X185146836Y-93067448D01*
X185132558Y-93086701D01*
X185116461Y-93104461D01*
X185098701Y-93120558D01*
X185079448Y-93134836D01*
X185058889Y-93147159D01*
X185037220Y-93157408D01*
X185014652Y-93165483D01*
X184991401Y-93171307D01*
X184967691Y-93174824D01*
X184943750Y-93176000D01*
X184455250Y-93176000D01*
X184431309Y-93174824D01*
X184407599Y-93171307D01*
X184384348Y-93165483D01*
X184361780Y-93157408D01*
X184340111Y-93147159D01*
X184319552Y-93134836D01*
X184300299Y-93120558D01*
X184282539Y-93104461D01*
X184266442Y-93086701D01*
X184252164Y-93067448D01*
X184239841Y-93046889D01*
X184229592Y-93025220D01*
X184221517Y-93002652D01*
X184215693Y-92979401D01*
X184212176Y-92955691D01*
X184211000Y-92931750D01*
X184211000Y-92368250D01*
X184212176Y-92344309D01*
X184215693Y-92320599D01*
X184221517Y-92297348D01*
X184229592Y-92274780D01*
X184239841Y-92253111D01*
X184252164Y-92232552D01*
X184266442Y-92213299D01*
X184282539Y-92195539D01*
X184300299Y-92179442D01*
X184319552Y-92165164D01*
X184340111Y-92152841D01*
X184361780Y-92142592D01*
X184384348Y-92134517D01*
X184407599Y-92128693D01*
X184431309Y-92125176D01*
X184455250Y-92124000D01*
X184943750Y-92124000D01*
X184967691Y-92125176D01*
X184967691Y-92125176D01*
G37*
D21*
X184699500Y-92650000D03*
D14*
G36*
X183392691Y-92125176D02*
G01*
X183416401Y-92128693D01*
X183439652Y-92134517D01*
X183462220Y-92142592D01*
X183483889Y-92152841D01*
X183504448Y-92165164D01*
X183523701Y-92179442D01*
X183541461Y-92195539D01*
X183557558Y-92213299D01*
X183571836Y-92232552D01*
X183584159Y-92253111D01*
X183594408Y-92274780D01*
X183602483Y-92297348D01*
X183608307Y-92320599D01*
X183611824Y-92344309D01*
X183613000Y-92368250D01*
X183613000Y-92931750D01*
X183611824Y-92955691D01*
X183608307Y-92979401D01*
X183602483Y-93002652D01*
X183594408Y-93025220D01*
X183584159Y-93046889D01*
X183571836Y-93067448D01*
X183557558Y-93086701D01*
X183541461Y-93104461D01*
X183523701Y-93120558D01*
X183504448Y-93134836D01*
X183483889Y-93147159D01*
X183462220Y-93157408D01*
X183439652Y-93165483D01*
X183416401Y-93171307D01*
X183392691Y-93174824D01*
X183368750Y-93176000D01*
X182880250Y-93176000D01*
X182856309Y-93174824D01*
X182832599Y-93171307D01*
X182809348Y-93165483D01*
X182786780Y-93157408D01*
X182765111Y-93147159D01*
X182744552Y-93134836D01*
X182725299Y-93120558D01*
X182707539Y-93104461D01*
X182691442Y-93086701D01*
X182677164Y-93067448D01*
X182664841Y-93046889D01*
X182654592Y-93025220D01*
X182646517Y-93002652D01*
X182640693Y-92979401D01*
X182637176Y-92955691D01*
X182636000Y-92931750D01*
X182636000Y-92368250D01*
X182637176Y-92344309D01*
X182640693Y-92320599D01*
X182646517Y-92297348D01*
X182654592Y-92274780D01*
X182664841Y-92253111D01*
X182677164Y-92232552D01*
X182691442Y-92213299D01*
X182707539Y-92195539D01*
X182725299Y-92179442D01*
X182744552Y-92165164D01*
X182765111Y-92152841D01*
X182786780Y-92142592D01*
X182809348Y-92134517D01*
X182832599Y-92128693D01*
X182856309Y-92125176D01*
X182880250Y-92124000D01*
X183368750Y-92124000D01*
X183392691Y-92125176D01*
X183392691Y-92125176D01*
G37*
D21*
X183124500Y-92650000D03*
D14*
G36*
X185005691Y-81512676D02*
G01*
X185029401Y-81516193D01*
X185052652Y-81522017D01*
X185075220Y-81530092D01*
X185096889Y-81540341D01*
X185117448Y-81552664D01*
X185136701Y-81566942D01*
X185154461Y-81583039D01*
X185170558Y-81600799D01*
X185184836Y-81620052D01*
X185197159Y-81640611D01*
X185207408Y-81662280D01*
X185215483Y-81684848D01*
X185221307Y-81708099D01*
X185224824Y-81731809D01*
X185226000Y-81755750D01*
X185226000Y-82244250D01*
X185224824Y-82268191D01*
X185221307Y-82291901D01*
X185215483Y-82315152D01*
X185207408Y-82337720D01*
X185197159Y-82359389D01*
X185184836Y-82379948D01*
X185170558Y-82399201D01*
X185154461Y-82416961D01*
X185136701Y-82433058D01*
X185117448Y-82447336D01*
X185096889Y-82459659D01*
X185075220Y-82469908D01*
X185052652Y-82477983D01*
X185029401Y-82483807D01*
X185005691Y-82487324D01*
X184981750Y-82488500D01*
X184418250Y-82488500D01*
X184394309Y-82487324D01*
X184370599Y-82483807D01*
X184347348Y-82477983D01*
X184324780Y-82469908D01*
X184303111Y-82459659D01*
X184282552Y-82447336D01*
X184263299Y-82433058D01*
X184245539Y-82416961D01*
X184229442Y-82399201D01*
X184215164Y-82379948D01*
X184202841Y-82359389D01*
X184192592Y-82337720D01*
X184184517Y-82315152D01*
X184178693Y-82291901D01*
X184175176Y-82268191D01*
X184174000Y-82244250D01*
X184174000Y-81755750D01*
X184175176Y-81731809D01*
X184178693Y-81708099D01*
X184184517Y-81684848D01*
X184192592Y-81662280D01*
X184202841Y-81640611D01*
X184215164Y-81620052D01*
X184229442Y-81600799D01*
X184245539Y-81583039D01*
X184263299Y-81566942D01*
X184282552Y-81552664D01*
X184303111Y-81540341D01*
X184324780Y-81530092D01*
X184347348Y-81522017D01*
X184370599Y-81516193D01*
X184394309Y-81512676D01*
X184418250Y-81511500D01*
X184981750Y-81511500D01*
X185005691Y-81512676D01*
X185005691Y-81512676D01*
G37*
D21*
X184700000Y-82000000D03*
D14*
G36*
X185005691Y-79937676D02*
G01*
X185029401Y-79941193D01*
X185052652Y-79947017D01*
X185075220Y-79955092D01*
X185096889Y-79965341D01*
X185117448Y-79977664D01*
X185136701Y-79991942D01*
X185154461Y-80008039D01*
X185170558Y-80025799D01*
X185184836Y-80045052D01*
X185197159Y-80065611D01*
X185207408Y-80087280D01*
X185215483Y-80109848D01*
X185221307Y-80133099D01*
X185224824Y-80156809D01*
X185226000Y-80180750D01*
X185226000Y-80669250D01*
X185224824Y-80693191D01*
X185221307Y-80716901D01*
X185215483Y-80740152D01*
X185207408Y-80762720D01*
X185197159Y-80784389D01*
X185184836Y-80804948D01*
X185170558Y-80824201D01*
X185154461Y-80841961D01*
X185136701Y-80858058D01*
X185117448Y-80872336D01*
X185096889Y-80884659D01*
X185075220Y-80894908D01*
X185052652Y-80902983D01*
X185029401Y-80908807D01*
X185005691Y-80912324D01*
X184981750Y-80913500D01*
X184418250Y-80913500D01*
X184394309Y-80912324D01*
X184370599Y-80908807D01*
X184347348Y-80902983D01*
X184324780Y-80894908D01*
X184303111Y-80884659D01*
X184282552Y-80872336D01*
X184263299Y-80858058D01*
X184245539Y-80841961D01*
X184229442Y-80824201D01*
X184215164Y-80804948D01*
X184202841Y-80784389D01*
X184192592Y-80762720D01*
X184184517Y-80740152D01*
X184178693Y-80716901D01*
X184175176Y-80693191D01*
X184174000Y-80669250D01*
X184174000Y-80180750D01*
X184175176Y-80156809D01*
X184178693Y-80133099D01*
X184184517Y-80109848D01*
X184192592Y-80087280D01*
X184202841Y-80065611D01*
X184215164Y-80045052D01*
X184229442Y-80025799D01*
X184245539Y-80008039D01*
X184263299Y-79991942D01*
X184282552Y-79977664D01*
X184303111Y-79965341D01*
X184324780Y-79955092D01*
X184347348Y-79947017D01*
X184370599Y-79941193D01*
X184394309Y-79937676D01*
X184418250Y-79936500D01*
X184981750Y-79936500D01*
X185005691Y-79937676D01*
X185005691Y-79937676D01*
G37*
D21*
X184700000Y-80425000D03*
D14*
G36*
X188043691Y-92125176D02*
G01*
X188067401Y-92128693D01*
X188090652Y-92134517D01*
X188113220Y-92142592D01*
X188134889Y-92152841D01*
X188155448Y-92165164D01*
X188174701Y-92179442D01*
X188192461Y-92195539D01*
X188208558Y-92213299D01*
X188222836Y-92232552D01*
X188235159Y-92253111D01*
X188245408Y-92274780D01*
X188253483Y-92297348D01*
X188259307Y-92320599D01*
X188262824Y-92344309D01*
X188264000Y-92368250D01*
X188264000Y-92931750D01*
X188262824Y-92955691D01*
X188259307Y-92979401D01*
X188253483Y-93002652D01*
X188245408Y-93025220D01*
X188235159Y-93046889D01*
X188222836Y-93067448D01*
X188208558Y-93086701D01*
X188192461Y-93104461D01*
X188174701Y-93120558D01*
X188155448Y-93134836D01*
X188134889Y-93147159D01*
X188113220Y-93157408D01*
X188090652Y-93165483D01*
X188067401Y-93171307D01*
X188043691Y-93174824D01*
X188019750Y-93176000D01*
X187531250Y-93176000D01*
X187507309Y-93174824D01*
X187483599Y-93171307D01*
X187460348Y-93165483D01*
X187437780Y-93157408D01*
X187416111Y-93147159D01*
X187395552Y-93134836D01*
X187376299Y-93120558D01*
X187358539Y-93104461D01*
X187342442Y-93086701D01*
X187328164Y-93067448D01*
X187315841Y-93046889D01*
X187305592Y-93025220D01*
X187297517Y-93002652D01*
X187291693Y-92979401D01*
X187288176Y-92955691D01*
X187287000Y-92931750D01*
X187287000Y-92368250D01*
X187288176Y-92344309D01*
X187291693Y-92320599D01*
X187297517Y-92297348D01*
X187305592Y-92274780D01*
X187315841Y-92253111D01*
X187328164Y-92232552D01*
X187342442Y-92213299D01*
X187358539Y-92195539D01*
X187376299Y-92179442D01*
X187395552Y-92165164D01*
X187416111Y-92152841D01*
X187437780Y-92142592D01*
X187460348Y-92134517D01*
X187483599Y-92128693D01*
X187507309Y-92125176D01*
X187531250Y-92124000D01*
X188019750Y-92124000D01*
X188043691Y-92125176D01*
X188043691Y-92125176D01*
G37*
D21*
X187775500Y-92650000D03*
D14*
G36*
X186468691Y-92125176D02*
G01*
X186492401Y-92128693D01*
X186515652Y-92134517D01*
X186538220Y-92142592D01*
X186559889Y-92152841D01*
X186580448Y-92165164D01*
X186599701Y-92179442D01*
X186617461Y-92195539D01*
X186633558Y-92213299D01*
X186647836Y-92232552D01*
X186660159Y-92253111D01*
X186670408Y-92274780D01*
X186678483Y-92297348D01*
X186684307Y-92320599D01*
X186687824Y-92344309D01*
X186689000Y-92368250D01*
X186689000Y-92931750D01*
X186687824Y-92955691D01*
X186684307Y-92979401D01*
X186678483Y-93002652D01*
X186670408Y-93025220D01*
X186660159Y-93046889D01*
X186647836Y-93067448D01*
X186633558Y-93086701D01*
X186617461Y-93104461D01*
X186599701Y-93120558D01*
X186580448Y-93134836D01*
X186559889Y-93147159D01*
X186538220Y-93157408D01*
X186515652Y-93165483D01*
X186492401Y-93171307D01*
X186468691Y-93174824D01*
X186444750Y-93176000D01*
X185956250Y-93176000D01*
X185932309Y-93174824D01*
X185908599Y-93171307D01*
X185885348Y-93165483D01*
X185862780Y-93157408D01*
X185841111Y-93147159D01*
X185820552Y-93134836D01*
X185801299Y-93120558D01*
X185783539Y-93104461D01*
X185767442Y-93086701D01*
X185753164Y-93067448D01*
X185740841Y-93046889D01*
X185730592Y-93025220D01*
X185722517Y-93002652D01*
X185716693Y-92979401D01*
X185713176Y-92955691D01*
X185712000Y-92931750D01*
X185712000Y-92368250D01*
X185713176Y-92344309D01*
X185716693Y-92320599D01*
X185722517Y-92297348D01*
X185730592Y-92274780D01*
X185740841Y-92253111D01*
X185753164Y-92232552D01*
X185767442Y-92213299D01*
X185783539Y-92195539D01*
X185801299Y-92179442D01*
X185820552Y-92165164D01*
X185841111Y-92152841D01*
X185862780Y-92142592D01*
X185885348Y-92134517D01*
X185908599Y-92128693D01*
X185932309Y-92125176D01*
X185956250Y-92124000D01*
X186444750Y-92124000D01*
X186468691Y-92125176D01*
X186468691Y-92125176D01*
G37*
D21*
X186200500Y-92650000D03*
D14*
G36*
X175055691Y-90142676D02*
G01*
X175079401Y-90146193D01*
X175102652Y-90152017D01*
X175125220Y-90160092D01*
X175146889Y-90170341D01*
X175167448Y-90182664D01*
X175186701Y-90196942D01*
X175204461Y-90213039D01*
X175220558Y-90230799D01*
X175234836Y-90250052D01*
X175247159Y-90270611D01*
X175257408Y-90292280D01*
X175265483Y-90314848D01*
X175271307Y-90338099D01*
X175274824Y-90361809D01*
X175276000Y-90385750D01*
X175276000Y-90874250D01*
X175274824Y-90898191D01*
X175271307Y-90921901D01*
X175265483Y-90945152D01*
X175257408Y-90967720D01*
X175247159Y-90989389D01*
X175234836Y-91009948D01*
X175220558Y-91029201D01*
X175204461Y-91046961D01*
X175186701Y-91063058D01*
X175167448Y-91077336D01*
X175146889Y-91089659D01*
X175125220Y-91099908D01*
X175102652Y-91107983D01*
X175079401Y-91113807D01*
X175055691Y-91117324D01*
X175031750Y-91118500D01*
X174468250Y-91118500D01*
X174444309Y-91117324D01*
X174420599Y-91113807D01*
X174397348Y-91107983D01*
X174374780Y-91099908D01*
X174353111Y-91089659D01*
X174332552Y-91077336D01*
X174313299Y-91063058D01*
X174295539Y-91046961D01*
X174279442Y-91029201D01*
X174265164Y-91009948D01*
X174252841Y-90989389D01*
X174242592Y-90967720D01*
X174234517Y-90945152D01*
X174228693Y-90921901D01*
X174225176Y-90898191D01*
X174224000Y-90874250D01*
X174224000Y-90385750D01*
X174225176Y-90361809D01*
X174228693Y-90338099D01*
X174234517Y-90314848D01*
X174242592Y-90292280D01*
X174252841Y-90270611D01*
X174265164Y-90250052D01*
X174279442Y-90230799D01*
X174295539Y-90213039D01*
X174313299Y-90196942D01*
X174332552Y-90182664D01*
X174353111Y-90170341D01*
X174374780Y-90160092D01*
X174397348Y-90152017D01*
X174420599Y-90146193D01*
X174444309Y-90142676D01*
X174468250Y-90141500D01*
X175031750Y-90141500D01*
X175055691Y-90142676D01*
X175055691Y-90142676D01*
G37*
D21*
X174750000Y-90630000D03*
D14*
G36*
X175055691Y-88567676D02*
G01*
X175079401Y-88571193D01*
X175102652Y-88577017D01*
X175125220Y-88585092D01*
X175146889Y-88595341D01*
X175167448Y-88607664D01*
X175186701Y-88621942D01*
X175204461Y-88638039D01*
X175220558Y-88655799D01*
X175234836Y-88675052D01*
X175247159Y-88695611D01*
X175257408Y-88717280D01*
X175265483Y-88739848D01*
X175271307Y-88763099D01*
X175274824Y-88786809D01*
X175276000Y-88810750D01*
X175276000Y-89299250D01*
X175274824Y-89323191D01*
X175271307Y-89346901D01*
X175265483Y-89370152D01*
X175257408Y-89392720D01*
X175247159Y-89414389D01*
X175234836Y-89434948D01*
X175220558Y-89454201D01*
X175204461Y-89471961D01*
X175186701Y-89488058D01*
X175167448Y-89502336D01*
X175146889Y-89514659D01*
X175125220Y-89524908D01*
X175102652Y-89532983D01*
X175079401Y-89538807D01*
X175055691Y-89542324D01*
X175031750Y-89543500D01*
X174468250Y-89543500D01*
X174444309Y-89542324D01*
X174420599Y-89538807D01*
X174397348Y-89532983D01*
X174374780Y-89524908D01*
X174353111Y-89514659D01*
X174332552Y-89502336D01*
X174313299Y-89488058D01*
X174295539Y-89471961D01*
X174279442Y-89454201D01*
X174265164Y-89434948D01*
X174252841Y-89414389D01*
X174242592Y-89392720D01*
X174234517Y-89370152D01*
X174228693Y-89346901D01*
X174225176Y-89323191D01*
X174224000Y-89299250D01*
X174224000Y-88810750D01*
X174225176Y-88786809D01*
X174228693Y-88763099D01*
X174234517Y-88739848D01*
X174242592Y-88717280D01*
X174252841Y-88695611D01*
X174265164Y-88675052D01*
X174279442Y-88655799D01*
X174295539Y-88638039D01*
X174313299Y-88621942D01*
X174332552Y-88607664D01*
X174353111Y-88595341D01*
X174374780Y-88585092D01*
X174397348Y-88577017D01*
X174420599Y-88571193D01*
X174444309Y-88567676D01*
X174468250Y-88566500D01*
X175031750Y-88566500D01*
X175055691Y-88567676D01*
X175055691Y-88567676D01*
G37*
D21*
X174750000Y-89055000D03*
D14*
G36*
X160165691Y-82688176D02*
G01*
X160189401Y-82691693D01*
X160212652Y-82697517D01*
X160235220Y-82705592D01*
X160256889Y-82715841D01*
X160277448Y-82728164D01*
X160296701Y-82742442D01*
X160314461Y-82758539D01*
X160330558Y-82776299D01*
X160344836Y-82795552D01*
X160357159Y-82816111D01*
X160367408Y-82837780D01*
X160375483Y-82860348D01*
X160381307Y-82883599D01*
X160384824Y-82907309D01*
X160386000Y-82931250D01*
X160386000Y-83419750D01*
X160384824Y-83443691D01*
X160381307Y-83467401D01*
X160375483Y-83490652D01*
X160367408Y-83513220D01*
X160357159Y-83534889D01*
X160344836Y-83555448D01*
X160330558Y-83574701D01*
X160314461Y-83592461D01*
X160296701Y-83608558D01*
X160277448Y-83622836D01*
X160256889Y-83635159D01*
X160235220Y-83645408D01*
X160212652Y-83653483D01*
X160189401Y-83659307D01*
X160165691Y-83662824D01*
X160141750Y-83664000D01*
X159578250Y-83664000D01*
X159554309Y-83662824D01*
X159530599Y-83659307D01*
X159507348Y-83653483D01*
X159484780Y-83645408D01*
X159463111Y-83635159D01*
X159442552Y-83622836D01*
X159423299Y-83608558D01*
X159405539Y-83592461D01*
X159389442Y-83574701D01*
X159375164Y-83555448D01*
X159362841Y-83534889D01*
X159352592Y-83513220D01*
X159344517Y-83490652D01*
X159338693Y-83467401D01*
X159335176Y-83443691D01*
X159334000Y-83419750D01*
X159334000Y-82931250D01*
X159335176Y-82907309D01*
X159338693Y-82883599D01*
X159344517Y-82860348D01*
X159352592Y-82837780D01*
X159362841Y-82816111D01*
X159375164Y-82795552D01*
X159389442Y-82776299D01*
X159405539Y-82758539D01*
X159423299Y-82742442D01*
X159442552Y-82728164D01*
X159463111Y-82715841D01*
X159484780Y-82705592D01*
X159507348Y-82697517D01*
X159530599Y-82691693D01*
X159554309Y-82688176D01*
X159578250Y-82687000D01*
X160141750Y-82687000D01*
X160165691Y-82688176D01*
X160165691Y-82688176D01*
G37*
D21*
X159860000Y-83175500D03*
D14*
G36*
X160165691Y-81113176D02*
G01*
X160189401Y-81116693D01*
X160212652Y-81122517D01*
X160235220Y-81130592D01*
X160256889Y-81140841D01*
X160277448Y-81153164D01*
X160296701Y-81167442D01*
X160314461Y-81183539D01*
X160330558Y-81201299D01*
X160344836Y-81220552D01*
X160357159Y-81241111D01*
X160367408Y-81262780D01*
X160375483Y-81285348D01*
X160381307Y-81308599D01*
X160384824Y-81332309D01*
X160386000Y-81356250D01*
X160386000Y-81844750D01*
X160384824Y-81868691D01*
X160381307Y-81892401D01*
X160375483Y-81915652D01*
X160367408Y-81938220D01*
X160357159Y-81959889D01*
X160344836Y-81980448D01*
X160330558Y-81999701D01*
X160314461Y-82017461D01*
X160296701Y-82033558D01*
X160277448Y-82047836D01*
X160256889Y-82060159D01*
X160235220Y-82070408D01*
X160212652Y-82078483D01*
X160189401Y-82084307D01*
X160165691Y-82087824D01*
X160141750Y-82089000D01*
X159578250Y-82089000D01*
X159554309Y-82087824D01*
X159530599Y-82084307D01*
X159507348Y-82078483D01*
X159484780Y-82070408D01*
X159463111Y-82060159D01*
X159442552Y-82047836D01*
X159423299Y-82033558D01*
X159405539Y-82017461D01*
X159389442Y-81999701D01*
X159375164Y-81980448D01*
X159362841Y-81959889D01*
X159352592Y-81938220D01*
X159344517Y-81915652D01*
X159338693Y-81892401D01*
X159335176Y-81868691D01*
X159334000Y-81844750D01*
X159334000Y-81356250D01*
X159335176Y-81332309D01*
X159338693Y-81308599D01*
X159344517Y-81285348D01*
X159352592Y-81262780D01*
X159362841Y-81241111D01*
X159375164Y-81220552D01*
X159389442Y-81201299D01*
X159405539Y-81183539D01*
X159423299Y-81167442D01*
X159442552Y-81153164D01*
X159463111Y-81140841D01*
X159484780Y-81130592D01*
X159507348Y-81122517D01*
X159530599Y-81116693D01*
X159554309Y-81113176D01*
X159578250Y-81112000D01*
X160141750Y-81112000D01*
X160165691Y-81113176D01*
X160165691Y-81113176D01*
G37*
D21*
X159860000Y-81600500D03*
D18*
X191960000Y-92500000D03*
D17*
X194500000Y-92500000D03*
X197040000Y-92500000D03*
D14*
G36*
X180268691Y-92125176D02*
G01*
X180292401Y-92128693D01*
X180315652Y-92134517D01*
X180338220Y-92142592D01*
X180359889Y-92152841D01*
X180380448Y-92165164D01*
X180399701Y-92179442D01*
X180417461Y-92195539D01*
X180433558Y-92213299D01*
X180447836Y-92232552D01*
X180460159Y-92253111D01*
X180470408Y-92274780D01*
X180478483Y-92297348D01*
X180484307Y-92320599D01*
X180487824Y-92344309D01*
X180489000Y-92368250D01*
X180489000Y-92931750D01*
X180487824Y-92955691D01*
X180484307Y-92979401D01*
X180478483Y-93002652D01*
X180470408Y-93025220D01*
X180460159Y-93046889D01*
X180447836Y-93067448D01*
X180433558Y-93086701D01*
X180417461Y-93104461D01*
X180399701Y-93120558D01*
X180380448Y-93134836D01*
X180359889Y-93147159D01*
X180338220Y-93157408D01*
X180315652Y-93165483D01*
X180292401Y-93171307D01*
X180268691Y-93174824D01*
X180244750Y-93176000D01*
X179756250Y-93176000D01*
X179732309Y-93174824D01*
X179708599Y-93171307D01*
X179685348Y-93165483D01*
X179662780Y-93157408D01*
X179641111Y-93147159D01*
X179620552Y-93134836D01*
X179601299Y-93120558D01*
X179583539Y-93104461D01*
X179567442Y-93086701D01*
X179553164Y-93067448D01*
X179540841Y-93046889D01*
X179530592Y-93025220D01*
X179522517Y-93002652D01*
X179516693Y-92979401D01*
X179513176Y-92955691D01*
X179512000Y-92931750D01*
X179512000Y-92368250D01*
X179513176Y-92344309D01*
X179516693Y-92320599D01*
X179522517Y-92297348D01*
X179530592Y-92274780D01*
X179540841Y-92253111D01*
X179553164Y-92232552D01*
X179567442Y-92213299D01*
X179583539Y-92195539D01*
X179601299Y-92179442D01*
X179620552Y-92165164D01*
X179641111Y-92152841D01*
X179662780Y-92142592D01*
X179685348Y-92134517D01*
X179708599Y-92128693D01*
X179732309Y-92125176D01*
X179756250Y-92124000D01*
X180244750Y-92124000D01*
X180268691Y-92125176D01*
X180268691Y-92125176D01*
G37*
D21*
X180000500Y-92650000D03*
D14*
G36*
X181843691Y-92125176D02*
G01*
X181867401Y-92128693D01*
X181890652Y-92134517D01*
X181913220Y-92142592D01*
X181934889Y-92152841D01*
X181955448Y-92165164D01*
X181974701Y-92179442D01*
X181992461Y-92195539D01*
X182008558Y-92213299D01*
X182022836Y-92232552D01*
X182035159Y-92253111D01*
X182045408Y-92274780D01*
X182053483Y-92297348D01*
X182059307Y-92320599D01*
X182062824Y-92344309D01*
X182064000Y-92368250D01*
X182064000Y-92931750D01*
X182062824Y-92955691D01*
X182059307Y-92979401D01*
X182053483Y-93002652D01*
X182045408Y-93025220D01*
X182035159Y-93046889D01*
X182022836Y-93067448D01*
X182008558Y-93086701D01*
X181992461Y-93104461D01*
X181974701Y-93120558D01*
X181955448Y-93134836D01*
X181934889Y-93147159D01*
X181913220Y-93157408D01*
X181890652Y-93165483D01*
X181867401Y-93171307D01*
X181843691Y-93174824D01*
X181819750Y-93176000D01*
X181331250Y-93176000D01*
X181307309Y-93174824D01*
X181283599Y-93171307D01*
X181260348Y-93165483D01*
X181237780Y-93157408D01*
X181216111Y-93147159D01*
X181195552Y-93134836D01*
X181176299Y-93120558D01*
X181158539Y-93104461D01*
X181142442Y-93086701D01*
X181128164Y-93067448D01*
X181115841Y-93046889D01*
X181105592Y-93025220D01*
X181097517Y-93002652D01*
X181091693Y-92979401D01*
X181088176Y-92955691D01*
X181087000Y-92931750D01*
X181087000Y-92368250D01*
X181088176Y-92344309D01*
X181091693Y-92320599D01*
X181097517Y-92297348D01*
X181105592Y-92274780D01*
X181115841Y-92253111D01*
X181128164Y-92232552D01*
X181142442Y-92213299D01*
X181158539Y-92195539D01*
X181176299Y-92179442D01*
X181195552Y-92165164D01*
X181216111Y-92152841D01*
X181237780Y-92142592D01*
X181260348Y-92134517D01*
X181283599Y-92128693D01*
X181307309Y-92125176D01*
X181331250Y-92124000D01*
X181819750Y-92124000D01*
X181843691Y-92125176D01*
X181843691Y-92125176D01*
G37*
D21*
X181575500Y-92650000D03*
D14*
G36*
X175045691Y-85435176D02*
G01*
X175069401Y-85438693D01*
X175092652Y-85444517D01*
X175115220Y-85452592D01*
X175136889Y-85462841D01*
X175157448Y-85475164D01*
X175176701Y-85489442D01*
X175194461Y-85505539D01*
X175210558Y-85523299D01*
X175224836Y-85542552D01*
X175237159Y-85563111D01*
X175247408Y-85584780D01*
X175255483Y-85607348D01*
X175261307Y-85630599D01*
X175264824Y-85654309D01*
X175266000Y-85678250D01*
X175266000Y-86166750D01*
X175264824Y-86190691D01*
X175261307Y-86214401D01*
X175255483Y-86237652D01*
X175247408Y-86260220D01*
X175237159Y-86281889D01*
X175224836Y-86302448D01*
X175210558Y-86321701D01*
X175194461Y-86339461D01*
X175176701Y-86355558D01*
X175157448Y-86369836D01*
X175136889Y-86382159D01*
X175115220Y-86392408D01*
X175092652Y-86400483D01*
X175069401Y-86406307D01*
X175045691Y-86409824D01*
X175021750Y-86411000D01*
X174458250Y-86411000D01*
X174434309Y-86409824D01*
X174410599Y-86406307D01*
X174387348Y-86400483D01*
X174364780Y-86392408D01*
X174343111Y-86382159D01*
X174322552Y-86369836D01*
X174303299Y-86355558D01*
X174285539Y-86339461D01*
X174269442Y-86321701D01*
X174255164Y-86302448D01*
X174242841Y-86281889D01*
X174232592Y-86260220D01*
X174224517Y-86237652D01*
X174218693Y-86214401D01*
X174215176Y-86190691D01*
X174214000Y-86166750D01*
X174214000Y-85678250D01*
X174215176Y-85654309D01*
X174218693Y-85630599D01*
X174224517Y-85607348D01*
X174232592Y-85584780D01*
X174242841Y-85563111D01*
X174255164Y-85542552D01*
X174269442Y-85523299D01*
X174285539Y-85505539D01*
X174303299Y-85489442D01*
X174322552Y-85475164D01*
X174343111Y-85462841D01*
X174364780Y-85452592D01*
X174387348Y-85444517D01*
X174410599Y-85438693D01*
X174434309Y-85435176D01*
X174458250Y-85434000D01*
X175021750Y-85434000D01*
X175045691Y-85435176D01*
X175045691Y-85435176D01*
G37*
D21*
X174740000Y-85922500D03*
D14*
G36*
X175045691Y-87010176D02*
G01*
X175069401Y-87013693D01*
X175092652Y-87019517D01*
X175115220Y-87027592D01*
X175136889Y-87037841D01*
X175157448Y-87050164D01*
X175176701Y-87064442D01*
X175194461Y-87080539D01*
X175210558Y-87098299D01*
X175224836Y-87117552D01*
X175237159Y-87138111D01*
X175247408Y-87159780D01*
X175255483Y-87182348D01*
X175261307Y-87205599D01*
X175264824Y-87229309D01*
X175266000Y-87253250D01*
X175266000Y-87741750D01*
X175264824Y-87765691D01*
X175261307Y-87789401D01*
X175255483Y-87812652D01*
X175247408Y-87835220D01*
X175237159Y-87856889D01*
X175224836Y-87877448D01*
X175210558Y-87896701D01*
X175194461Y-87914461D01*
X175176701Y-87930558D01*
X175157448Y-87944836D01*
X175136889Y-87957159D01*
X175115220Y-87967408D01*
X175092652Y-87975483D01*
X175069401Y-87981307D01*
X175045691Y-87984824D01*
X175021750Y-87986000D01*
X174458250Y-87986000D01*
X174434309Y-87984824D01*
X174410599Y-87981307D01*
X174387348Y-87975483D01*
X174364780Y-87967408D01*
X174343111Y-87957159D01*
X174322552Y-87944836D01*
X174303299Y-87930558D01*
X174285539Y-87914461D01*
X174269442Y-87896701D01*
X174255164Y-87877448D01*
X174242841Y-87856889D01*
X174232592Y-87835220D01*
X174224517Y-87812652D01*
X174218693Y-87789401D01*
X174215176Y-87765691D01*
X174214000Y-87741750D01*
X174214000Y-87253250D01*
X174215176Y-87229309D01*
X174218693Y-87205599D01*
X174224517Y-87182348D01*
X174232592Y-87159780D01*
X174242841Y-87138111D01*
X174255164Y-87117552D01*
X174269442Y-87098299D01*
X174285539Y-87080539D01*
X174303299Y-87064442D01*
X174322552Y-87050164D01*
X174343111Y-87037841D01*
X174364780Y-87027592D01*
X174387348Y-87019517D01*
X174410599Y-87013693D01*
X174434309Y-87010176D01*
X174458250Y-87009000D01*
X175021750Y-87009000D01*
X175045691Y-87010176D01*
X175045691Y-87010176D01*
G37*
D21*
X174740000Y-87497500D03*
D14*
G36*
X158485691Y-82708176D02*
G01*
X158509401Y-82711693D01*
X158532652Y-82717517D01*
X158555220Y-82725592D01*
X158576889Y-82735841D01*
X158597448Y-82748164D01*
X158616701Y-82762442D01*
X158634461Y-82778539D01*
X158650558Y-82796299D01*
X158664836Y-82815552D01*
X158677159Y-82836111D01*
X158687408Y-82857780D01*
X158695483Y-82880348D01*
X158701307Y-82903599D01*
X158704824Y-82927309D01*
X158706000Y-82951250D01*
X158706000Y-83439750D01*
X158704824Y-83463691D01*
X158701307Y-83487401D01*
X158695483Y-83510652D01*
X158687408Y-83533220D01*
X158677159Y-83554889D01*
X158664836Y-83575448D01*
X158650558Y-83594701D01*
X158634461Y-83612461D01*
X158616701Y-83628558D01*
X158597448Y-83642836D01*
X158576889Y-83655159D01*
X158555220Y-83665408D01*
X158532652Y-83673483D01*
X158509401Y-83679307D01*
X158485691Y-83682824D01*
X158461750Y-83684000D01*
X157898250Y-83684000D01*
X157874309Y-83682824D01*
X157850599Y-83679307D01*
X157827348Y-83673483D01*
X157804780Y-83665408D01*
X157783111Y-83655159D01*
X157762552Y-83642836D01*
X157743299Y-83628558D01*
X157725539Y-83612461D01*
X157709442Y-83594701D01*
X157695164Y-83575448D01*
X157682841Y-83554889D01*
X157672592Y-83533220D01*
X157664517Y-83510652D01*
X157658693Y-83487401D01*
X157655176Y-83463691D01*
X157654000Y-83439750D01*
X157654000Y-82951250D01*
X157655176Y-82927309D01*
X157658693Y-82903599D01*
X157664517Y-82880348D01*
X157672592Y-82857780D01*
X157682841Y-82836111D01*
X157695164Y-82815552D01*
X157709442Y-82796299D01*
X157725539Y-82778539D01*
X157743299Y-82762442D01*
X157762552Y-82748164D01*
X157783111Y-82735841D01*
X157804780Y-82725592D01*
X157827348Y-82717517D01*
X157850599Y-82711693D01*
X157874309Y-82708176D01*
X157898250Y-82707000D01*
X158461750Y-82707000D01*
X158485691Y-82708176D01*
X158485691Y-82708176D01*
G37*
D21*
X158180000Y-83195500D03*
D14*
G36*
X158485691Y-81133176D02*
G01*
X158509401Y-81136693D01*
X158532652Y-81142517D01*
X158555220Y-81150592D01*
X158576889Y-81160841D01*
X158597448Y-81173164D01*
X158616701Y-81187442D01*
X158634461Y-81203539D01*
X158650558Y-81221299D01*
X158664836Y-81240552D01*
X158677159Y-81261111D01*
X158687408Y-81282780D01*
X158695483Y-81305348D01*
X158701307Y-81328599D01*
X158704824Y-81352309D01*
X158706000Y-81376250D01*
X158706000Y-81864750D01*
X158704824Y-81888691D01*
X158701307Y-81912401D01*
X158695483Y-81935652D01*
X158687408Y-81958220D01*
X158677159Y-81979889D01*
X158664836Y-82000448D01*
X158650558Y-82019701D01*
X158634461Y-82037461D01*
X158616701Y-82053558D01*
X158597448Y-82067836D01*
X158576889Y-82080159D01*
X158555220Y-82090408D01*
X158532652Y-82098483D01*
X158509401Y-82104307D01*
X158485691Y-82107824D01*
X158461750Y-82109000D01*
X157898250Y-82109000D01*
X157874309Y-82107824D01*
X157850599Y-82104307D01*
X157827348Y-82098483D01*
X157804780Y-82090408D01*
X157783111Y-82080159D01*
X157762552Y-82067836D01*
X157743299Y-82053558D01*
X157725539Y-82037461D01*
X157709442Y-82019701D01*
X157695164Y-82000448D01*
X157682841Y-81979889D01*
X157672592Y-81958220D01*
X157664517Y-81935652D01*
X157658693Y-81912401D01*
X157655176Y-81888691D01*
X157654000Y-81864750D01*
X157654000Y-81376250D01*
X157655176Y-81352309D01*
X157658693Y-81328599D01*
X157664517Y-81305348D01*
X157672592Y-81282780D01*
X157682841Y-81261111D01*
X157695164Y-81240552D01*
X157709442Y-81221299D01*
X157725539Y-81203539D01*
X157743299Y-81187442D01*
X157762552Y-81173164D01*
X157783111Y-81160841D01*
X157804780Y-81150592D01*
X157827348Y-81142517D01*
X157850599Y-81136693D01*
X157874309Y-81133176D01*
X157898250Y-81132000D01*
X158461750Y-81132000D01*
X158485691Y-81133176D01*
X158485691Y-81133176D01*
G37*
D21*
X158180000Y-81620500D03*
D14*
G36*
X160165691Y-87022176D02*
G01*
X160189401Y-87025693D01*
X160212652Y-87031517D01*
X160235220Y-87039592D01*
X160256889Y-87049841D01*
X160277448Y-87062164D01*
X160296701Y-87076442D01*
X160314461Y-87092539D01*
X160330558Y-87110299D01*
X160344836Y-87129552D01*
X160357159Y-87150111D01*
X160367408Y-87171780D01*
X160375483Y-87194348D01*
X160381307Y-87217599D01*
X160384824Y-87241309D01*
X160386000Y-87265250D01*
X160386000Y-87753750D01*
X160384824Y-87777691D01*
X160381307Y-87801401D01*
X160375483Y-87824652D01*
X160367408Y-87847220D01*
X160357159Y-87868889D01*
X160344836Y-87889448D01*
X160330558Y-87908701D01*
X160314461Y-87926461D01*
X160296701Y-87942558D01*
X160277448Y-87956836D01*
X160256889Y-87969159D01*
X160235220Y-87979408D01*
X160212652Y-87987483D01*
X160189401Y-87993307D01*
X160165691Y-87996824D01*
X160141750Y-87998000D01*
X159578250Y-87998000D01*
X159554309Y-87996824D01*
X159530599Y-87993307D01*
X159507348Y-87987483D01*
X159484780Y-87979408D01*
X159463111Y-87969159D01*
X159442552Y-87956836D01*
X159423299Y-87942558D01*
X159405539Y-87926461D01*
X159389442Y-87908701D01*
X159375164Y-87889448D01*
X159362841Y-87868889D01*
X159352592Y-87847220D01*
X159344517Y-87824652D01*
X159338693Y-87801401D01*
X159335176Y-87777691D01*
X159334000Y-87753750D01*
X159334000Y-87265250D01*
X159335176Y-87241309D01*
X159338693Y-87217599D01*
X159344517Y-87194348D01*
X159352592Y-87171780D01*
X159362841Y-87150111D01*
X159375164Y-87129552D01*
X159389442Y-87110299D01*
X159405539Y-87092539D01*
X159423299Y-87076442D01*
X159442552Y-87062164D01*
X159463111Y-87049841D01*
X159484780Y-87039592D01*
X159507348Y-87031517D01*
X159530599Y-87025693D01*
X159554309Y-87022176D01*
X159578250Y-87021000D01*
X160141750Y-87021000D01*
X160165691Y-87022176D01*
X160165691Y-87022176D01*
G37*
D21*
X159860000Y-87509500D03*
D14*
G36*
X160165691Y-85447176D02*
G01*
X160189401Y-85450693D01*
X160212652Y-85456517D01*
X160235220Y-85464592D01*
X160256889Y-85474841D01*
X160277448Y-85487164D01*
X160296701Y-85501442D01*
X160314461Y-85517539D01*
X160330558Y-85535299D01*
X160344836Y-85554552D01*
X160357159Y-85575111D01*
X160367408Y-85596780D01*
X160375483Y-85619348D01*
X160381307Y-85642599D01*
X160384824Y-85666309D01*
X160386000Y-85690250D01*
X160386000Y-86178750D01*
X160384824Y-86202691D01*
X160381307Y-86226401D01*
X160375483Y-86249652D01*
X160367408Y-86272220D01*
X160357159Y-86293889D01*
X160344836Y-86314448D01*
X160330558Y-86333701D01*
X160314461Y-86351461D01*
X160296701Y-86367558D01*
X160277448Y-86381836D01*
X160256889Y-86394159D01*
X160235220Y-86404408D01*
X160212652Y-86412483D01*
X160189401Y-86418307D01*
X160165691Y-86421824D01*
X160141750Y-86423000D01*
X159578250Y-86423000D01*
X159554309Y-86421824D01*
X159530599Y-86418307D01*
X159507348Y-86412483D01*
X159484780Y-86404408D01*
X159463111Y-86394159D01*
X159442552Y-86381836D01*
X159423299Y-86367558D01*
X159405539Y-86351461D01*
X159389442Y-86333701D01*
X159375164Y-86314448D01*
X159362841Y-86293889D01*
X159352592Y-86272220D01*
X159344517Y-86249652D01*
X159338693Y-86226401D01*
X159335176Y-86202691D01*
X159334000Y-86178750D01*
X159334000Y-85690250D01*
X159335176Y-85666309D01*
X159338693Y-85642599D01*
X159344517Y-85619348D01*
X159352592Y-85596780D01*
X159362841Y-85575111D01*
X159375164Y-85554552D01*
X159389442Y-85535299D01*
X159405539Y-85517539D01*
X159423299Y-85501442D01*
X159442552Y-85487164D01*
X159463111Y-85474841D01*
X159484780Y-85464592D01*
X159507348Y-85456517D01*
X159530599Y-85450693D01*
X159554309Y-85447176D01*
X159578250Y-85446000D01*
X160141750Y-85446000D01*
X160165691Y-85447176D01*
X160165691Y-85447176D01*
G37*
D21*
X159860000Y-85934500D03*
D14*
G36*
X160165691Y-89333176D02*
G01*
X160189401Y-89336693D01*
X160212652Y-89342517D01*
X160235220Y-89350592D01*
X160256889Y-89360841D01*
X160277448Y-89373164D01*
X160296701Y-89387442D01*
X160314461Y-89403539D01*
X160330558Y-89421299D01*
X160344836Y-89440552D01*
X160357159Y-89461111D01*
X160367408Y-89482780D01*
X160375483Y-89505348D01*
X160381307Y-89528599D01*
X160384824Y-89552309D01*
X160386000Y-89576250D01*
X160386000Y-90064750D01*
X160384824Y-90088691D01*
X160381307Y-90112401D01*
X160375483Y-90135652D01*
X160367408Y-90158220D01*
X160357159Y-90179889D01*
X160344836Y-90200448D01*
X160330558Y-90219701D01*
X160314461Y-90237461D01*
X160296701Y-90253558D01*
X160277448Y-90267836D01*
X160256889Y-90280159D01*
X160235220Y-90290408D01*
X160212652Y-90298483D01*
X160189401Y-90304307D01*
X160165691Y-90307824D01*
X160141750Y-90309000D01*
X159578250Y-90309000D01*
X159554309Y-90307824D01*
X159530599Y-90304307D01*
X159507348Y-90298483D01*
X159484780Y-90290408D01*
X159463111Y-90280159D01*
X159442552Y-90267836D01*
X159423299Y-90253558D01*
X159405539Y-90237461D01*
X159389442Y-90219701D01*
X159375164Y-90200448D01*
X159362841Y-90179889D01*
X159352592Y-90158220D01*
X159344517Y-90135652D01*
X159338693Y-90112401D01*
X159335176Y-90088691D01*
X159334000Y-90064750D01*
X159334000Y-89576250D01*
X159335176Y-89552309D01*
X159338693Y-89528599D01*
X159344517Y-89505348D01*
X159352592Y-89482780D01*
X159362841Y-89461111D01*
X159375164Y-89440552D01*
X159389442Y-89421299D01*
X159405539Y-89403539D01*
X159423299Y-89387442D01*
X159442552Y-89373164D01*
X159463111Y-89360841D01*
X159484780Y-89350592D01*
X159507348Y-89342517D01*
X159530599Y-89336693D01*
X159554309Y-89333176D01*
X159578250Y-89332000D01*
X160141750Y-89332000D01*
X160165691Y-89333176D01*
X160165691Y-89333176D01*
G37*
D21*
X159860000Y-89820500D03*
D14*
G36*
X160165691Y-90908176D02*
G01*
X160189401Y-90911693D01*
X160212652Y-90917517D01*
X160235220Y-90925592D01*
X160256889Y-90935841D01*
X160277448Y-90948164D01*
X160296701Y-90962442D01*
X160314461Y-90978539D01*
X160330558Y-90996299D01*
X160344836Y-91015552D01*
X160357159Y-91036111D01*
X160367408Y-91057780D01*
X160375483Y-91080348D01*
X160381307Y-91103599D01*
X160384824Y-91127309D01*
X160386000Y-91151250D01*
X160386000Y-91639750D01*
X160384824Y-91663691D01*
X160381307Y-91687401D01*
X160375483Y-91710652D01*
X160367408Y-91733220D01*
X160357159Y-91754889D01*
X160344836Y-91775448D01*
X160330558Y-91794701D01*
X160314461Y-91812461D01*
X160296701Y-91828558D01*
X160277448Y-91842836D01*
X160256889Y-91855159D01*
X160235220Y-91865408D01*
X160212652Y-91873483D01*
X160189401Y-91879307D01*
X160165691Y-91882824D01*
X160141750Y-91884000D01*
X159578250Y-91884000D01*
X159554309Y-91882824D01*
X159530599Y-91879307D01*
X159507348Y-91873483D01*
X159484780Y-91865408D01*
X159463111Y-91855159D01*
X159442552Y-91842836D01*
X159423299Y-91828558D01*
X159405539Y-91812461D01*
X159389442Y-91794701D01*
X159375164Y-91775448D01*
X159362841Y-91754889D01*
X159352592Y-91733220D01*
X159344517Y-91710652D01*
X159338693Y-91687401D01*
X159335176Y-91663691D01*
X159334000Y-91639750D01*
X159334000Y-91151250D01*
X159335176Y-91127309D01*
X159338693Y-91103599D01*
X159344517Y-91080348D01*
X159352592Y-91057780D01*
X159362841Y-91036111D01*
X159375164Y-91015552D01*
X159389442Y-90996299D01*
X159405539Y-90978539D01*
X159423299Y-90962442D01*
X159442552Y-90948164D01*
X159463111Y-90935841D01*
X159484780Y-90925592D01*
X159507348Y-90917517D01*
X159530599Y-90911693D01*
X159554309Y-90908176D01*
X159578250Y-90907000D01*
X160141750Y-90907000D01*
X160165691Y-90908176D01*
X160165691Y-90908176D01*
G37*
D21*
X159860000Y-91395500D03*
D14*
G36*
X158485691Y-85467176D02*
G01*
X158509401Y-85470693D01*
X158532652Y-85476517D01*
X158555220Y-85484592D01*
X158576889Y-85494841D01*
X158597448Y-85507164D01*
X158616701Y-85521442D01*
X158634461Y-85537539D01*
X158650558Y-85555299D01*
X158664836Y-85574552D01*
X158677159Y-85595111D01*
X158687408Y-85616780D01*
X158695483Y-85639348D01*
X158701307Y-85662599D01*
X158704824Y-85686309D01*
X158706000Y-85710250D01*
X158706000Y-86198750D01*
X158704824Y-86222691D01*
X158701307Y-86246401D01*
X158695483Y-86269652D01*
X158687408Y-86292220D01*
X158677159Y-86313889D01*
X158664836Y-86334448D01*
X158650558Y-86353701D01*
X158634461Y-86371461D01*
X158616701Y-86387558D01*
X158597448Y-86401836D01*
X158576889Y-86414159D01*
X158555220Y-86424408D01*
X158532652Y-86432483D01*
X158509401Y-86438307D01*
X158485691Y-86441824D01*
X158461750Y-86443000D01*
X157898250Y-86443000D01*
X157874309Y-86441824D01*
X157850599Y-86438307D01*
X157827348Y-86432483D01*
X157804780Y-86424408D01*
X157783111Y-86414159D01*
X157762552Y-86401836D01*
X157743299Y-86387558D01*
X157725539Y-86371461D01*
X157709442Y-86353701D01*
X157695164Y-86334448D01*
X157682841Y-86313889D01*
X157672592Y-86292220D01*
X157664517Y-86269652D01*
X157658693Y-86246401D01*
X157655176Y-86222691D01*
X157654000Y-86198750D01*
X157654000Y-85710250D01*
X157655176Y-85686309D01*
X157658693Y-85662599D01*
X157664517Y-85639348D01*
X157672592Y-85616780D01*
X157682841Y-85595111D01*
X157695164Y-85574552D01*
X157709442Y-85555299D01*
X157725539Y-85537539D01*
X157743299Y-85521442D01*
X157762552Y-85507164D01*
X157783111Y-85494841D01*
X157804780Y-85484592D01*
X157827348Y-85476517D01*
X157850599Y-85470693D01*
X157874309Y-85467176D01*
X157898250Y-85466000D01*
X158461750Y-85466000D01*
X158485691Y-85467176D01*
X158485691Y-85467176D01*
G37*
D21*
X158180000Y-85954500D03*
D14*
G36*
X158485691Y-87042176D02*
G01*
X158509401Y-87045693D01*
X158532652Y-87051517D01*
X158555220Y-87059592D01*
X158576889Y-87069841D01*
X158597448Y-87082164D01*
X158616701Y-87096442D01*
X158634461Y-87112539D01*
X158650558Y-87130299D01*
X158664836Y-87149552D01*
X158677159Y-87170111D01*
X158687408Y-87191780D01*
X158695483Y-87214348D01*
X158701307Y-87237599D01*
X158704824Y-87261309D01*
X158706000Y-87285250D01*
X158706000Y-87773750D01*
X158704824Y-87797691D01*
X158701307Y-87821401D01*
X158695483Y-87844652D01*
X158687408Y-87867220D01*
X158677159Y-87888889D01*
X158664836Y-87909448D01*
X158650558Y-87928701D01*
X158634461Y-87946461D01*
X158616701Y-87962558D01*
X158597448Y-87976836D01*
X158576889Y-87989159D01*
X158555220Y-87999408D01*
X158532652Y-88007483D01*
X158509401Y-88013307D01*
X158485691Y-88016824D01*
X158461750Y-88018000D01*
X157898250Y-88018000D01*
X157874309Y-88016824D01*
X157850599Y-88013307D01*
X157827348Y-88007483D01*
X157804780Y-87999408D01*
X157783111Y-87989159D01*
X157762552Y-87976836D01*
X157743299Y-87962558D01*
X157725539Y-87946461D01*
X157709442Y-87928701D01*
X157695164Y-87909448D01*
X157682841Y-87888889D01*
X157672592Y-87867220D01*
X157664517Y-87844652D01*
X157658693Y-87821401D01*
X157655176Y-87797691D01*
X157654000Y-87773750D01*
X157654000Y-87285250D01*
X157655176Y-87261309D01*
X157658693Y-87237599D01*
X157664517Y-87214348D01*
X157672592Y-87191780D01*
X157682841Y-87170111D01*
X157695164Y-87149552D01*
X157709442Y-87130299D01*
X157725539Y-87112539D01*
X157743299Y-87096442D01*
X157762552Y-87082164D01*
X157783111Y-87069841D01*
X157804780Y-87059592D01*
X157827348Y-87051517D01*
X157850599Y-87045693D01*
X157874309Y-87042176D01*
X157898250Y-87041000D01*
X158461750Y-87041000D01*
X158485691Y-87042176D01*
X158485691Y-87042176D01*
G37*
D21*
X158180000Y-87529500D03*
D14*
G36*
X158485691Y-90952176D02*
G01*
X158509401Y-90955693D01*
X158532652Y-90961517D01*
X158555220Y-90969592D01*
X158576889Y-90979841D01*
X158597448Y-90992164D01*
X158616701Y-91006442D01*
X158634461Y-91022539D01*
X158650558Y-91040299D01*
X158664836Y-91059552D01*
X158677159Y-91080111D01*
X158687408Y-91101780D01*
X158695483Y-91124348D01*
X158701307Y-91147599D01*
X158704824Y-91171309D01*
X158706000Y-91195250D01*
X158706000Y-91683750D01*
X158704824Y-91707691D01*
X158701307Y-91731401D01*
X158695483Y-91754652D01*
X158687408Y-91777220D01*
X158677159Y-91798889D01*
X158664836Y-91819448D01*
X158650558Y-91838701D01*
X158634461Y-91856461D01*
X158616701Y-91872558D01*
X158597448Y-91886836D01*
X158576889Y-91899159D01*
X158555220Y-91909408D01*
X158532652Y-91917483D01*
X158509401Y-91923307D01*
X158485691Y-91926824D01*
X158461750Y-91928000D01*
X157898250Y-91928000D01*
X157874309Y-91926824D01*
X157850599Y-91923307D01*
X157827348Y-91917483D01*
X157804780Y-91909408D01*
X157783111Y-91899159D01*
X157762552Y-91886836D01*
X157743299Y-91872558D01*
X157725539Y-91856461D01*
X157709442Y-91838701D01*
X157695164Y-91819448D01*
X157682841Y-91798889D01*
X157672592Y-91777220D01*
X157664517Y-91754652D01*
X157658693Y-91731401D01*
X157655176Y-91707691D01*
X157654000Y-91683750D01*
X157654000Y-91195250D01*
X157655176Y-91171309D01*
X157658693Y-91147599D01*
X157664517Y-91124348D01*
X157672592Y-91101780D01*
X157682841Y-91080111D01*
X157695164Y-91059552D01*
X157709442Y-91040299D01*
X157725539Y-91022539D01*
X157743299Y-91006442D01*
X157762552Y-90992164D01*
X157783111Y-90979841D01*
X157804780Y-90969592D01*
X157827348Y-90961517D01*
X157850599Y-90955693D01*
X157874309Y-90952176D01*
X157898250Y-90951000D01*
X158461750Y-90951000D01*
X158485691Y-90952176D01*
X158485691Y-90952176D01*
G37*
D21*
X158180000Y-91439500D03*
D14*
G36*
X158485691Y-89377176D02*
G01*
X158509401Y-89380693D01*
X158532652Y-89386517D01*
X158555220Y-89394592D01*
X158576889Y-89404841D01*
X158597448Y-89417164D01*
X158616701Y-89431442D01*
X158634461Y-89447539D01*
X158650558Y-89465299D01*
X158664836Y-89484552D01*
X158677159Y-89505111D01*
X158687408Y-89526780D01*
X158695483Y-89549348D01*
X158701307Y-89572599D01*
X158704824Y-89596309D01*
X158706000Y-89620250D01*
X158706000Y-90108750D01*
X158704824Y-90132691D01*
X158701307Y-90156401D01*
X158695483Y-90179652D01*
X158687408Y-90202220D01*
X158677159Y-90223889D01*
X158664836Y-90244448D01*
X158650558Y-90263701D01*
X158634461Y-90281461D01*
X158616701Y-90297558D01*
X158597448Y-90311836D01*
X158576889Y-90324159D01*
X158555220Y-90334408D01*
X158532652Y-90342483D01*
X158509401Y-90348307D01*
X158485691Y-90351824D01*
X158461750Y-90353000D01*
X157898250Y-90353000D01*
X157874309Y-90351824D01*
X157850599Y-90348307D01*
X157827348Y-90342483D01*
X157804780Y-90334408D01*
X157783111Y-90324159D01*
X157762552Y-90311836D01*
X157743299Y-90297558D01*
X157725539Y-90281461D01*
X157709442Y-90263701D01*
X157695164Y-90244448D01*
X157682841Y-90223889D01*
X157672592Y-90202220D01*
X157664517Y-90179652D01*
X157658693Y-90156401D01*
X157655176Y-90132691D01*
X157654000Y-90108750D01*
X157654000Y-89620250D01*
X157655176Y-89596309D01*
X157658693Y-89572599D01*
X157664517Y-89549348D01*
X157672592Y-89526780D01*
X157682841Y-89505111D01*
X157695164Y-89484552D01*
X157709442Y-89465299D01*
X157725539Y-89447539D01*
X157743299Y-89431442D01*
X157762552Y-89417164D01*
X157783111Y-89404841D01*
X157804780Y-89394592D01*
X157827348Y-89386517D01*
X157850599Y-89380693D01*
X157874309Y-89377176D01*
X157898250Y-89376000D01*
X158461750Y-89376000D01*
X158485691Y-89377176D01*
X158485691Y-89377176D01*
G37*
D21*
X158180000Y-89864500D03*
D14*
G36*
X202237691Y-85062176D02*
G01*
X202261401Y-85065693D01*
X202284652Y-85071517D01*
X202307220Y-85079592D01*
X202328889Y-85089841D01*
X202349448Y-85102164D01*
X202368701Y-85116442D01*
X202386461Y-85132539D01*
X202402558Y-85150299D01*
X202416836Y-85169552D01*
X202429159Y-85190111D01*
X202439408Y-85211780D01*
X202447483Y-85234348D01*
X202453307Y-85257599D01*
X202456824Y-85281309D01*
X202458000Y-85305250D01*
X202458000Y-85868750D01*
X202456824Y-85892691D01*
X202453307Y-85916401D01*
X202447483Y-85939652D01*
X202439408Y-85962220D01*
X202429159Y-85983889D01*
X202416836Y-86004448D01*
X202402558Y-86023701D01*
X202386461Y-86041461D01*
X202368701Y-86057558D01*
X202349448Y-86071836D01*
X202328889Y-86084159D01*
X202307220Y-86094408D01*
X202284652Y-86102483D01*
X202261401Y-86108307D01*
X202237691Y-86111824D01*
X202213750Y-86113000D01*
X201725250Y-86113000D01*
X201701309Y-86111824D01*
X201677599Y-86108307D01*
X201654348Y-86102483D01*
X201631780Y-86094408D01*
X201610111Y-86084159D01*
X201589552Y-86071836D01*
X201570299Y-86057558D01*
X201552539Y-86041461D01*
X201536442Y-86023701D01*
X201522164Y-86004448D01*
X201509841Y-85983889D01*
X201499592Y-85962220D01*
X201491517Y-85939652D01*
X201485693Y-85916401D01*
X201482176Y-85892691D01*
X201481000Y-85868750D01*
X201481000Y-85305250D01*
X201482176Y-85281309D01*
X201485693Y-85257599D01*
X201491517Y-85234348D01*
X201499592Y-85211780D01*
X201509841Y-85190111D01*
X201522164Y-85169552D01*
X201536442Y-85150299D01*
X201552539Y-85132539D01*
X201570299Y-85116442D01*
X201589552Y-85102164D01*
X201610111Y-85089841D01*
X201631780Y-85079592D01*
X201654348Y-85071517D01*
X201677599Y-85065693D01*
X201701309Y-85062176D01*
X201725250Y-85061000D01*
X202213750Y-85061000D01*
X202237691Y-85062176D01*
X202237691Y-85062176D01*
G37*
D21*
X201969500Y-85587000D03*
D14*
G36*
X200662691Y-85062176D02*
G01*
X200686401Y-85065693D01*
X200709652Y-85071517D01*
X200732220Y-85079592D01*
X200753889Y-85089841D01*
X200774448Y-85102164D01*
X200793701Y-85116442D01*
X200811461Y-85132539D01*
X200827558Y-85150299D01*
X200841836Y-85169552D01*
X200854159Y-85190111D01*
X200864408Y-85211780D01*
X200872483Y-85234348D01*
X200878307Y-85257599D01*
X200881824Y-85281309D01*
X200883000Y-85305250D01*
X200883000Y-85868750D01*
X200881824Y-85892691D01*
X200878307Y-85916401D01*
X200872483Y-85939652D01*
X200864408Y-85962220D01*
X200854159Y-85983889D01*
X200841836Y-86004448D01*
X200827558Y-86023701D01*
X200811461Y-86041461D01*
X200793701Y-86057558D01*
X200774448Y-86071836D01*
X200753889Y-86084159D01*
X200732220Y-86094408D01*
X200709652Y-86102483D01*
X200686401Y-86108307D01*
X200662691Y-86111824D01*
X200638750Y-86113000D01*
X200150250Y-86113000D01*
X200126309Y-86111824D01*
X200102599Y-86108307D01*
X200079348Y-86102483D01*
X200056780Y-86094408D01*
X200035111Y-86084159D01*
X200014552Y-86071836D01*
X199995299Y-86057558D01*
X199977539Y-86041461D01*
X199961442Y-86023701D01*
X199947164Y-86004448D01*
X199934841Y-85983889D01*
X199924592Y-85962220D01*
X199916517Y-85939652D01*
X199910693Y-85916401D01*
X199907176Y-85892691D01*
X199906000Y-85868750D01*
X199906000Y-85305250D01*
X199907176Y-85281309D01*
X199910693Y-85257599D01*
X199916517Y-85234348D01*
X199924592Y-85211780D01*
X199934841Y-85190111D01*
X199947164Y-85169552D01*
X199961442Y-85150299D01*
X199977539Y-85132539D01*
X199995299Y-85116442D01*
X200014552Y-85102164D01*
X200035111Y-85089841D01*
X200056780Y-85079592D01*
X200079348Y-85071517D01*
X200102599Y-85065693D01*
X200126309Y-85062176D01*
X200150250Y-85061000D01*
X200638750Y-85061000D01*
X200662691Y-85062176D01*
X200662691Y-85062176D01*
G37*
D21*
X200394500Y-85587000D03*
D14*
G36*
X200662691Y-83475176D02*
G01*
X200686401Y-83478693D01*
X200709652Y-83484517D01*
X200732220Y-83492592D01*
X200753889Y-83502841D01*
X200774448Y-83515164D01*
X200793701Y-83529442D01*
X200811461Y-83545539D01*
X200827558Y-83563299D01*
X200841836Y-83582552D01*
X200854159Y-83603111D01*
X200864408Y-83624780D01*
X200872483Y-83647348D01*
X200878307Y-83670599D01*
X200881824Y-83694309D01*
X200883000Y-83718250D01*
X200883000Y-84281750D01*
X200881824Y-84305691D01*
X200878307Y-84329401D01*
X200872483Y-84352652D01*
X200864408Y-84375220D01*
X200854159Y-84396889D01*
X200841836Y-84417448D01*
X200827558Y-84436701D01*
X200811461Y-84454461D01*
X200793701Y-84470558D01*
X200774448Y-84484836D01*
X200753889Y-84497159D01*
X200732220Y-84507408D01*
X200709652Y-84515483D01*
X200686401Y-84521307D01*
X200662691Y-84524824D01*
X200638750Y-84526000D01*
X200150250Y-84526000D01*
X200126309Y-84524824D01*
X200102599Y-84521307D01*
X200079348Y-84515483D01*
X200056780Y-84507408D01*
X200035111Y-84497159D01*
X200014552Y-84484836D01*
X199995299Y-84470558D01*
X199977539Y-84454461D01*
X199961442Y-84436701D01*
X199947164Y-84417448D01*
X199934841Y-84396889D01*
X199924592Y-84375220D01*
X199916517Y-84352652D01*
X199910693Y-84329401D01*
X199907176Y-84305691D01*
X199906000Y-84281750D01*
X199906000Y-83718250D01*
X199907176Y-83694309D01*
X199910693Y-83670599D01*
X199916517Y-83647348D01*
X199924592Y-83624780D01*
X199934841Y-83603111D01*
X199947164Y-83582552D01*
X199961442Y-83563299D01*
X199977539Y-83545539D01*
X199995299Y-83529442D01*
X200014552Y-83515164D01*
X200035111Y-83502841D01*
X200056780Y-83492592D01*
X200079348Y-83484517D01*
X200102599Y-83478693D01*
X200126309Y-83475176D01*
X200150250Y-83474000D01*
X200638750Y-83474000D01*
X200662691Y-83475176D01*
X200662691Y-83475176D01*
G37*
D21*
X200394500Y-84000000D03*
D14*
G36*
X202237691Y-83475176D02*
G01*
X202261401Y-83478693D01*
X202284652Y-83484517D01*
X202307220Y-83492592D01*
X202328889Y-83502841D01*
X202349448Y-83515164D01*
X202368701Y-83529442D01*
X202386461Y-83545539D01*
X202402558Y-83563299D01*
X202416836Y-83582552D01*
X202429159Y-83603111D01*
X202439408Y-83624780D01*
X202447483Y-83647348D01*
X202453307Y-83670599D01*
X202456824Y-83694309D01*
X202458000Y-83718250D01*
X202458000Y-84281750D01*
X202456824Y-84305691D01*
X202453307Y-84329401D01*
X202447483Y-84352652D01*
X202439408Y-84375220D01*
X202429159Y-84396889D01*
X202416836Y-84417448D01*
X202402558Y-84436701D01*
X202386461Y-84454461D01*
X202368701Y-84470558D01*
X202349448Y-84484836D01*
X202328889Y-84497159D01*
X202307220Y-84507408D01*
X202284652Y-84515483D01*
X202261401Y-84521307D01*
X202237691Y-84524824D01*
X202213750Y-84526000D01*
X201725250Y-84526000D01*
X201701309Y-84524824D01*
X201677599Y-84521307D01*
X201654348Y-84515483D01*
X201631780Y-84507408D01*
X201610111Y-84497159D01*
X201589552Y-84484836D01*
X201570299Y-84470558D01*
X201552539Y-84454461D01*
X201536442Y-84436701D01*
X201522164Y-84417448D01*
X201509841Y-84396889D01*
X201499592Y-84375220D01*
X201491517Y-84352652D01*
X201485693Y-84329401D01*
X201482176Y-84305691D01*
X201481000Y-84281750D01*
X201481000Y-83718250D01*
X201482176Y-83694309D01*
X201485693Y-83670599D01*
X201491517Y-83647348D01*
X201499592Y-83624780D01*
X201509841Y-83603111D01*
X201522164Y-83582552D01*
X201536442Y-83563299D01*
X201552539Y-83545539D01*
X201570299Y-83529442D01*
X201589552Y-83515164D01*
X201610111Y-83502841D01*
X201631780Y-83492592D01*
X201654348Y-83484517D01*
X201677599Y-83478693D01*
X201701309Y-83475176D01*
X201725250Y-83474000D01*
X202213750Y-83474000D01*
X202237691Y-83475176D01*
X202237691Y-83475176D01*
G37*
D21*
X201969500Y-84000000D03*
D14*
G36*
X164355691Y-89975176D02*
G01*
X164379401Y-89978693D01*
X164402652Y-89984517D01*
X164425220Y-89992592D01*
X164446889Y-90002841D01*
X164467448Y-90015164D01*
X164486701Y-90029442D01*
X164504461Y-90045539D01*
X164520558Y-90063299D01*
X164534836Y-90082552D01*
X164547159Y-90103111D01*
X164557408Y-90124780D01*
X164565483Y-90147348D01*
X164571307Y-90170599D01*
X164574824Y-90194309D01*
X164576000Y-90218250D01*
X164576000Y-90781750D01*
X164574824Y-90805691D01*
X164571307Y-90829401D01*
X164565483Y-90852652D01*
X164557408Y-90875220D01*
X164547159Y-90896889D01*
X164534836Y-90917448D01*
X164520558Y-90936701D01*
X164504461Y-90954461D01*
X164486701Y-90970558D01*
X164467448Y-90984836D01*
X164446889Y-90997159D01*
X164425220Y-91007408D01*
X164402652Y-91015483D01*
X164379401Y-91021307D01*
X164355691Y-91024824D01*
X164331750Y-91026000D01*
X163843250Y-91026000D01*
X163819309Y-91024824D01*
X163795599Y-91021307D01*
X163772348Y-91015483D01*
X163749780Y-91007408D01*
X163728111Y-90997159D01*
X163707552Y-90984836D01*
X163688299Y-90970558D01*
X163670539Y-90954461D01*
X163654442Y-90936701D01*
X163640164Y-90917448D01*
X163627841Y-90896889D01*
X163617592Y-90875220D01*
X163609517Y-90852652D01*
X163603693Y-90829401D01*
X163600176Y-90805691D01*
X163599000Y-90781750D01*
X163599000Y-90218250D01*
X163600176Y-90194309D01*
X163603693Y-90170599D01*
X163609517Y-90147348D01*
X163617592Y-90124780D01*
X163627841Y-90103111D01*
X163640164Y-90082552D01*
X163654442Y-90063299D01*
X163670539Y-90045539D01*
X163688299Y-90029442D01*
X163707552Y-90015164D01*
X163728111Y-90002841D01*
X163749780Y-89992592D01*
X163772348Y-89984517D01*
X163795599Y-89978693D01*
X163819309Y-89975176D01*
X163843250Y-89974000D01*
X164331750Y-89974000D01*
X164355691Y-89975176D01*
X164355691Y-89975176D01*
G37*
D21*
X164087500Y-90500000D03*
D14*
G36*
X162780691Y-89975176D02*
G01*
X162804401Y-89978693D01*
X162827652Y-89984517D01*
X162850220Y-89992592D01*
X162871889Y-90002841D01*
X162892448Y-90015164D01*
X162911701Y-90029442D01*
X162929461Y-90045539D01*
X162945558Y-90063299D01*
X162959836Y-90082552D01*
X162972159Y-90103111D01*
X162982408Y-90124780D01*
X162990483Y-90147348D01*
X162996307Y-90170599D01*
X162999824Y-90194309D01*
X163001000Y-90218250D01*
X163001000Y-90781750D01*
X162999824Y-90805691D01*
X162996307Y-90829401D01*
X162990483Y-90852652D01*
X162982408Y-90875220D01*
X162972159Y-90896889D01*
X162959836Y-90917448D01*
X162945558Y-90936701D01*
X162929461Y-90954461D01*
X162911701Y-90970558D01*
X162892448Y-90984836D01*
X162871889Y-90997159D01*
X162850220Y-91007408D01*
X162827652Y-91015483D01*
X162804401Y-91021307D01*
X162780691Y-91024824D01*
X162756750Y-91026000D01*
X162268250Y-91026000D01*
X162244309Y-91024824D01*
X162220599Y-91021307D01*
X162197348Y-91015483D01*
X162174780Y-91007408D01*
X162153111Y-90997159D01*
X162132552Y-90984836D01*
X162113299Y-90970558D01*
X162095539Y-90954461D01*
X162079442Y-90936701D01*
X162065164Y-90917448D01*
X162052841Y-90896889D01*
X162042592Y-90875220D01*
X162034517Y-90852652D01*
X162028693Y-90829401D01*
X162025176Y-90805691D01*
X162024000Y-90781750D01*
X162024000Y-90218250D01*
X162025176Y-90194309D01*
X162028693Y-90170599D01*
X162034517Y-90147348D01*
X162042592Y-90124780D01*
X162052841Y-90103111D01*
X162065164Y-90082552D01*
X162079442Y-90063299D01*
X162095539Y-90045539D01*
X162113299Y-90029442D01*
X162132552Y-90015164D01*
X162153111Y-90002841D01*
X162174780Y-89992592D01*
X162197348Y-89984517D01*
X162220599Y-89978693D01*
X162244309Y-89975176D01*
X162268250Y-89974000D01*
X162756750Y-89974000D01*
X162780691Y-89975176D01*
X162780691Y-89975176D01*
G37*
D21*
X162512500Y-90500000D03*
D14*
G36*
X140505691Y-79885176D02*
G01*
X140529401Y-79888693D01*
X140552652Y-79894517D01*
X140575220Y-79902592D01*
X140596889Y-79912841D01*
X140617448Y-79925164D01*
X140636701Y-79939442D01*
X140654461Y-79955539D01*
X140670558Y-79973299D01*
X140684836Y-79992552D01*
X140697159Y-80013111D01*
X140707408Y-80034780D01*
X140715483Y-80057348D01*
X140721307Y-80080599D01*
X140724824Y-80104309D01*
X140726000Y-80128250D01*
X140726000Y-80691750D01*
X140724824Y-80715691D01*
X140721307Y-80739401D01*
X140715483Y-80762652D01*
X140707408Y-80785220D01*
X140697159Y-80806889D01*
X140684836Y-80827448D01*
X140670558Y-80846701D01*
X140654461Y-80864461D01*
X140636701Y-80880558D01*
X140617448Y-80894836D01*
X140596889Y-80907159D01*
X140575220Y-80917408D01*
X140552652Y-80925483D01*
X140529401Y-80931307D01*
X140505691Y-80934824D01*
X140481750Y-80936000D01*
X139993250Y-80936000D01*
X139969309Y-80934824D01*
X139945599Y-80931307D01*
X139922348Y-80925483D01*
X139899780Y-80917408D01*
X139878111Y-80907159D01*
X139857552Y-80894836D01*
X139838299Y-80880558D01*
X139820539Y-80864461D01*
X139804442Y-80846701D01*
X139790164Y-80827448D01*
X139777841Y-80806889D01*
X139767592Y-80785220D01*
X139759517Y-80762652D01*
X139753693Y-80739401D01*
X139750176Y-80715691D01*
X139749000Y-80691750D01*
X139749000Y-80128250D01*
X139750176Y-80104309D01*
X139753693Y-80080599D01*
X139759517Y-80057348D01*
X139767592Y-80034780D01*
X139777841Y-80013111D01*
X139790164Y-79992552D01*
X139804442Y-79973299D01*
X139820539Y-79955539D01*
X139838299Y-79939442D01*
X139857552Y-79925164D01*
X139878111Y-79912841D01*
X139899780Y-79902592D01*
X139922348Y-79894517D01*
X139945599Y-79888693D01*
X139969309Y-79885176D01*
X139993250Y-79884000D01*
X140481750Y-79884000D01*
X140505691Y-79885176D01*
X140505691Y-79885176D01*
G37*
D21*
X140237500Y-80410000D03*
D14*
G36*
X138930691Y-79885176D02*
G01*
X138954401Y-79888693D01*
X138977652Y-79894517D01*
X139000220Y-79902592D01*
X139021889Y-79912841D01*
X139042448Y-79925164D01*
X139061701Y-79939442D01*
X139079461Y-79955539D01*
X139095558Y-79973299D01*
X139109836Y-79992552D01*
X139122159Y-80013111D01*
X139132408Y-80034780D01*
X139140483Y-80057348D01*
X139146307Y-80080599D01*
X139149824Y-80104309D01*
X139151000Y-80128250D01*
X139151000Y-80691750D01*
X139149824Y-80715691D01*
X139146307Y-80739401D01*
X139140483Y-80762652D01*
X139132408Y-80785220D01*
X139122159Y-80806889D01*
X139109836Y-80827448D01*
X139095558Y-80846701D01*
X139079461Y-80864461D01*
X139061701Y-80880558D01*
X139042448Y-80894836D01*
X139021889Y-80907159D01*
X139000220Y-80917408D01*
X138977652Y-80925483D01*
X138954401Y-80931307D01*
X138930691Y-80934824D01*
X138906750Y-80936000D01*
X138418250Y-80936000D01*
X138394309Y-80934824D01*
X138370599Y-80931307D01*
X138347348Y-80925483D01*
X138324780Y-80917408D01*
X138303111Y-80907159D01*
X138282552Y-80894836D01*
X138263299Y-80880558D01*
X138245539Y-80864461D01*
X138229442Y-80846701D01*
X138215164Y-80827448D01*
X138202841Y-80806889D01*
X138192592Y-80785220D01*
X138184517Y-80762652D01*
X138178693Y-80739401D01*
X138175176Y-80715691D01*
X138174000Y-80691750D01*
X138174000Y-80128250D01*
X138175176Y-80104309D01*
X138178693Y-80080599D01*
X138184517Y-80057348D01*
X138192592Y-80034780D01*
X138202841Y-80013111D01*
X138215164Y-79992552D01*
X138229442Y-79973299D01*
X138245539Y-79955539D01*
X138263299Y-79939442D01*
X138282552Y-79925164D01*
X138303111Y-79912841D01*
X138324780Y-79902592D01*
X138347348Y-79894517D01*
X138370599Y-79888693D01*
X138394309Y-79885176D01*
X138418250Y-79884000D01*
X138906750Y-79884000D01*
X138930691Y-79885176D01*
X138930691Y-79885176D01*
G37*
D21*
X138662500Y-80410000D03*
D20*
X142130000Y-83620000D03*
X142130000Y-85620000D03*
X142130000Y-87620000D03*
X142130000Y-89620000D03*
D22*
X139030000Y-89000000D03*
X139030000Y-84000000D03*
D23*
X136330000Y-90000000D03*
X136330000Y-83000000D03*
D24*
X139030000Y-87800000D03*
X139030000Y-87150000D03*
X139030000Y-86500000D03*
X139030000Y-85850000D03*
X139030000Y-85200000D03*
D14*
G36*
X202237691Y-86648176D02*
G01*
X202261401Y-86651693D01*
X202284652Y-86657517D01*
X202307220Y-86665592D01*
X202328889Y-86675841D01*
X202349448Y-86688164D01*
X202368701Y-86702442D01*
X202386461Y-86718539D01*
X202402558Y-86736299D01*
X202416836Y-86755552D01*
X202429159Y-86776111D01*
X202439408Y-86797780D01*
X202447483Y-86820348D01*
X202453307Y-86843599D01*
X202456824Y-86867309D01*
X202458000Y-86891250D01*
X202458000Y-87454750D01*
X202456824Y-87478691D01*
X202453307Y-87502401D01*
X202447483Y-87525652D01*
X202439408Y-87548220D01*
X202429159Y-87569889D01*
X202416836Y-87590448D01*
X202402558Y-87609701D01*
X202386461Y-87627461D01*
X202368701Y-87643558D01*
X202349448Y-87657836D01*
X202328889Y-87670159D01*
X202307220Y-87680408D01*
X202284652Y-87688483D01*
X202261401Y-87694307D01*
X202237691Y-87697824D01*
X202213750Y-87699000D01*
X201725250Y-87699000D01*
X201701309Y-87697824D01*
X201677599Y-87694307D01*
X201654348Y-87688483D01*
X201631780Y-87680408D01*
X201610111Y-87670159D01*
X201589552Y-87657836D01*
X201570299Y-87643558D01*
X201552539Y-87627461D01*
X201536442Y-87609701D01*
X201522164Y-87590448D01*
X201509841Y-87569889D01*
X201499592Y-87548220D01*
X201491517Y-87525652D01*
X201485693Y-87502401D01*
X201482176Y-87478691D01*
X201481000Y-87454750D01*
X201481000Y-86891250D01*
X201482176Y-86867309D01*
X201485693Y-86843599D01*
X201491517Y-86820348D01*
X201499592Y-86797780D01*
X201509841Y-86776111D01*
X201522164Y-86755552D01*
X201536442Y-86736299D01*
X201552539Y-86718539D01*
X201570299Y-86702442D01*
X201589552Y-86688164D01*
X201610111Y-86675841D01*
X201631780Y-86665592D01*
X201654348Y-86657517D01*
X201677599Y-86651693D01*
X201701309Y-86648176D01*
X201725250Y-86647000D01*
X202213750Y-86647000D01*
X202237691Y-86648176D01*
X202237691Y-86648176D01*
G37*
D21*
X201969500Y-87173000D03*
D14*
G36*
X200662691Y-86648176D02*
G01*
X200686401Y-86651693D01*
X200709652Y-86657517D01*
X200732220Y-86665592D01*
X200753889Y-86675841D01*
X200774448Y-86688164D01*
X200793701Y-86702442D01*
X200811461Y-86718539D01*
X200827558Y-86736299D01*
X200841836Y-86755552D01*
X200854159Y-86776111D01*
X200864408Y-86797780D01*
X200872483Y-86820348D01*
X200878307Y-86843599D01*
X200881824Y-86867309D01*
X200883000Y-86891250D01*
X200883000Y-87454750D01*
X200881824Y-87478691D01*
X200878307Y-87502401D01*
X200872483Y-87525652D01*
X200864408Y-87548220D01*
X200854159Y-87569889D01*
X200841836Y-87590448D01*
X200827558Y-87609701D01*
X200811461Y-87627461D01*
X200793701Y-87643558D01*
X200774448Y-87657836D01*
X200753889Y-87670159D01*
X200732220Y-87680408D01*
X200709652Y-87688483D01*
X200686401Y-87694307D01*
X200662691Y-87697824D01*
X200638750Y-87699000D01*
X200150250Y-87699000D01*
X200126309Y-87697824D01*
X200102599Y-87694307D01*
X200079348Y-87688483D01*
X200056780Y-87680408D01*
X200035111Y-87670159D01*
X200014552Y-87657836D01*
X199995299Y-87643558D01*
X199977539Y-87627461D01*
X199961442Y-87609701D01*
X199947164Y-87590448D01*
X199934841Y-87569889D01*
X199924592Y-87548220D01*
X199916517Y-87525652D01*
X199910693Y-87502401D01*
X199907176Y-87478691D01*
X199906000Y-87454750D01*
X199906000Y-86891250D01*
X199907176Y-86867309D01*
X199910693Y-86843599D01*
X199916517Y-86820348D01*
X199924592Y-86797780D01*
X199934841Y-86776111D01*
X199947164Y-86755552D01*
X199961442Y-86736299D01*
X199977539Y-86718539D01*
X199995299Y-86702442D01*
X200014552Y-86688164D01*
X200035111Y-86675841D01*
X200056780Y-86665592D01*
X200079348Y-86657517D01*
X200102599Y-86651693D01*
X200126309Y-86648176D01*
X200150250Y-86647000D01*
X200638750Y-86647000D01*
X200662691Y-86648176D01*
X200662691Y-86648176D01*
G37*
D21*
X200394500Y-87173000D03*
D14*
G36*
X200662691Y-88235176D02*
G01*
X200686401Y-88238693D01*
X200709652Y-88244517D01*
X200732220Y-88252592D01*
X200753889Y-88262841D01*
X200774448Y-88275164D01*
X200793701Y-88289442D01*
X200811461Y-88305539D01*
X200827558Y-88323299D01*
X200841836Y-88342552D01*
X200854159Y-88363111D01*
X200864408Y-88384780D01*
X200872483Y-88407348D01*
X200878307Y-88430599D01*
X200881824Y-88454309D01*
X200883000Y-88478250D01*
X200883000Y-89041750D01*
X200881824Y-89065691D01*
X200878307Y-89089401D01*
X200872483Y-89112652D01*
X200864408Y-89135220D01*
X200854159Y-89156889D01*
X200841836Y-89177448D01*
X200827558Y-89196701D01*
X200811461Y-89214461D01*
X200793701Y-89230558D01*
X200774448Y-89244836D01*
X200753889Y-89257159D01*
X200732220Y-89267408D01*
X200709652Y-89275483D01*
X200686401Y-89281307D01*
X200662691Y-89284824D01*
X200638750Y-89286000D01*
X200150250Y-89286000D01*
X200126309Y-89284824D01*
X200102599Y-89281307D01*
X200079348Y-89275483D01*
X200056780Y-89267408D01*
X200035111Y-89257159D01*
X200014552Y-89244836D01*
X199995299Y-89230558D01*
X199977539Y-89214461D01*
X199961442Y-89196701D01*
X199947164Y-89177448D01*
X199934841Y-89156889D01*
X199924592Y-89135220D01*
X199916517Y-89112652D01*
X199910693Y-89089401D01*
X199907176Y-89065691D01*
X199906000Y-89041750D01*
X199906000Y-88478250D01*
X199907176Y-88454309D01*
X199910693Y-88430599D01*
X199916517Y-88407348D01*
X199924592Y-88384780D01*
X199934841Y-88363111D01*
X199947164Y-88342552D01*
X199961442Y-88323299D01*
X199977539Y-88305539D01*
X199995299Y-88289442D01*
X200014552Y-88275164D01*
X200035111Y-88262841D01*
X200056780Y-88252592D01*
X200079348Y-88244517D01*
X200102599Y-88238693D01*
X200126309Y-88235176D01*
X200150250Y-88234000D01*
X200638750Y-88234000D01*
X200662691Y-88235176D01*
X200662691Y-88235176D01*
G37*
D21*
X200394500Y-88760000D03*
D14*
G36*
X202237691Y-88235176D02*
G01*
X202261401Y-88238693D01*
X202284652Y-88244517D01*
X202307220Y-88252592D01*
X202328889Y-88262841D01*
X202349448Y-88275164D01*
X202368701Y-88289442D01*
X202386461Y-88305539D01*
X202402558Y-88323299D01*
X202416836Y-88342552D01*
X202429159Y-88363111D01*
X202439408Y-88384780D01*
X202447483Y-88407348D01*
X202453307Y-88430599D01*
X202456824Y-88454309D01*
X202458000Y-88478250D01*
X202458000Y-89041750D01*
X202456824Y-89065691D01*
X202453307Y-89089401D01*
X202447483Y-89112652D01*
X202439408Y-89135220D01*
X202429159Y-89156889D01*
X202416836Y-89177448D01*
X202402558Y-89196701D01*
X202386461Y-89214461D01*
X202368701Y-89230558D01*
X202349448Y-89244836D01*
X202328889Y-89257159D01*
X202307220Y-89267408D01*
X202284652Y-89275483D01*
X202261401Y-89281307D01*
X202237691Y-89284824D01*
X202213750Y-89286000D01*
X201725250Y-89286000D01*
X201701309Y-89284824D01*
X201677599Y-89281307D01*
X201654348Y-89275483D01*
X201631780Y-89267408D01*
X201610111Y-89257159D01*
X201589552Y-89244836D01*
X201570299Y-89230558D01*
X201552539Y-89214461D01*
X201536442Y-89196701D01*
X201522164Y-89177448D01*
X201509841Y-89156889D01*
X201499592Y-89135220D01*
X201491517Y-89112652D01*
X201485693Y-89089401D01*
X201482176Y-89065691D01*
X201481000Y-89041750D01*
X201481000Y-88478250D01*
X201482176Y-88454309D01*
X201485693Y-88430599D01*
X201491517Y-88407348D01*
X201499592Y-88384780D01*
X201509841Y-88363111D01*
X201522164Y-88342552D01*
X201536442Y-88323299D01*
X201552539Y-88305539D01*
X201570299Y-88289442D01*
X201589552Y-88275164D01*
X201610111Y-88262841D01*
X201631780Y-88252592D01*
X201654348Y-88244517D01*
X201677599Y-88238693D01*
X201701309Y-88235176D01*
X201725250Y-88234000D01*
X202213750Y-88234000D01*
X202237691Y-88235176D01*
X202237691Y-88235176D01*
G37*
D21*
X201969500Y-88760000D03*
D14*
G36*
X190415691Y-87858176D02*
G01*
X190439401Y-87861693D01*
X190462652Y-87867517D01*
X190485220Y-87875592D01*
X190506889Y-87885841D01*
X190527448Y-87898164D01*
X190546701Y-87912442D01*
X190564461Y-87928539D01*
X190580558Y-87946299D01*
X190594836Y-87965552D01*
X190607159Y-87986111D01*
X190617408Y-88007780D01*
X190625483Y-88030348D01*
X190631307Y-88053599D01*
X190634824Y-88077309D01*
X190636000Y-88101250D01*
X190636000Y-88589750D01*
X190634824Y-88613691D01*
X190631307Y-88637401D01*
X190625483Y-88660652D01*
X190617408Y-88683220D01*
X190607159Y-88704889D01*
X190594836Y-88725448D01*
X190580558Y-88744701D01*
X190564461Y-88762461D01*
X190546701Y-88778558D01*
X190527448Y-88792836D01*
X190506889Y-88805159D01*
X190485220Y-88815408D01*
X190462652Y-88823483D01*
X190439401Y-88829307D01*
X190415691Y-88832824D01*
X190391750Y-88834000D01*
X189828250Y-88834000D01*
X189804309Y-88832824D01*
X189780599Y-88829307D01*
X189757348Y-88823483D01*
X189734780Y-88815408D01*
X189713111Y-88805159D01*
X189692552Y-88792836D01*
X189673299Y-88778558D01*
X189655539Y-88762461D01*
X189639442Y-88744701D01*
X189625164Y-88725448D01*
X189612841Y-88704889D01*
X189602592Y-88683220D01*
X189594517Y-88660652D01*
X189588693Y-88637401D01*
X189585176Y-88613691D01*
X189584000Y-88589750D01*
X189584000Y-88101250D01*
X189585176Y-88077309D01*
X189588693Y-88053599D01*
X189594517Y-88030348D01*
X189602592Y-88007780D01*
X189612841Y-87986111D01*
X189625164Y-87965552D01*
X189639442Y-87946299D01*
X189655539Y-87928539D01*
X189673299Y-87912442D01*
X189692552Y-87898164D01*
X189713111Y-87885841D01*
X189734780Y-87875592D01*
X189757348Y-87867517D01*
X189780599Y-87861693D01*
X189804309Y-87858176D01*
X189828250Y-87857000D01*
X190391750Y-87857000D01*
X190415691Y-87858176D01*
X190415691Y-87858176D01*
G37*
D21*
X190110000Y-88345500D03*
D14*
G36*
X190415691Y-86283176D02*
G01*
X190439401Y-86286693D01*
X190462652Y-86292517D01*
X190485220Y-86300592D01*
X190506889Y-86310841D01*
X190527448Y-86323164D01*
X190546701Y-86337442D01*
X190564461Y-86353539D01*
X190580558Y-86371299D01*
X190594836Y-86390552D01*
X190607159Y-86411111D01*
X190617408Y-86432780D01*
X190625483Y-86455348D01*
X190631307Y-86478599D01*
X190634824Y-86502309D01*
X190636000Y-86526250D01*
X190636000Y-87014750D01*
X190634824Y-87038691D01*
X190631307Y-87062401D01*
X190625483Y-87085652D01*
X190617408Y-87108220D01*
X190607159Y-87129889D01*
X190594836Y-87150448D01*
X190580558Y-87169701D01*
X190564461Y-87187461D01*
X190546701Y-87203558D01*
X190527448Y-87217836D01*
X190506889Y-87230159D01*
X190485220Y-87240408D01*
X190462652Y-87248483D01*
X190439401Y-87254307D01*
X190415691Y-87257824D01*
X190391750Y-87259000D01*
X189828250Y-87259000D01*
X189804309Y-87257824D01*
X189780599Y-87254307D01*
X189757348Y-87248483D01*
X189734780Y-87240408D01*
X189713111Y-87230159D01*
X189692552Y-87217836D01*
X189673299Y-87203558D01*
X189655539Y-87187461D01*
X189639442Y-87169701D01*
X189625164Y-87150448D01*
X189612841Y-87129889D01*
X189602592Y-87108220D01*
X189594517Y-87085652D01*
X189588693Y-87062401D01*
X189585176Y-87038691D01*
X189584000Y-87014750D01*
X189584000Y-86526250D01*
X189585176Y-86502309D01*
X189588693Y-86478599D01*
X189594517Y-86455348D01*
X189602592Y-86432780D01*
X189612841Y-86411111D01*
X189625164Y-86390552D01*
X189639442Y-86371299D01*
X189655539Y-86353539D01*
X189673299Y-86337442D01*
X189692552Y-86323164D01*
X189713111Y-86310841D01*
X189734780Y-86300592D01*
X189757348Y-86292517D01*
X189780599Y-86286693D01*
X189804309Y-86283176D01*
X189828250Y-86282000D01*
X190391750Y-86282000D01*
X190415691Y-86283176D01*
X190415691Y-86283176D01*
G37*
D21*
X190110000Y-86770500D03*
D25*
X164300000Y-84450000D03*
X164300000Y-88600000D03*
X162150000Y-84450000D03*
X162150000Y-88600000D03*
D14*
G36*
X193452702Y-84464845D02*
G01*
X193469738Y-84467372D01*
X193486445Y-84471557D01*
X193502661Y-84477359D01*
X193518230Y-84484723D01*
X193533003Y-84493577D01*
X193546836Y-84503837D01*
X193559597Y-84515403D01*
X193571163Y-84528164D01*
X193581423Y-84541997D01*
X193590277Y-84556770D01*
X193597641Y-84572339D01*
X193603443Y-84588555D01*
X193607628Y-84605262D01*
X193610155Y-84622298D01*
X193611000Y-84639500D01*
X193611000Y-84990500D01*
X193610155Y-85007702D01*
X193607628Y-85024738D01*
X193603443Y-85041445D01*
X193597641Y-85057661D01*
X193590277Y-85073230D01*
X193581423Y-85088003D01*
X193571163Y-85101836D01*
X193559597Y-85114597D01*
X193546836Y-85126163D01*
X193533003Y-85136423D01*
X193518230Y-85145277D01*
X193502661Y-85152641D01*
X193486445Y-85158443D01*
X193469738Y-85162628D01*
X193452702Y-85165155D01*
X193435500Y-85166000D01*
X191934500Y-85166000D01*
X191917298Y-85165155D01*
X191900262Y-85162628D01*
X191883555Y-85158443D01*
X191867339Y-85152641D01*
X191851770Y-85145277D01*
X191836997Y-85136423D01*
X191823164Y-85126163D01*
X191810403Y-85114597D01*
X191798837Y-85101836D01*
X191788577Y-85088003D01*
X191779723Y-85073230D01*
X191772359Y-85057661D01*
X191766557Y-85041445D01*
X191762372Y-85024738D01*
X191759845Y-85007702D01*
X191759000Y-84990500D01*
X191759000Y-84639500D01*
X191759845Y-84622298D01*
X191762372Y-84605262D01*
X191766557Y-84588555D01*
X191772359Y-84572339D01*
X191779723Y-84556770D01*
X191788577Y-84541997D01*
X191798837Y-84528164D01*
X191810403Y-84515403D01*
X191823164Y-84503837D01*
X191836997Y-84493577D01*
X191851770Y-84484723D01*
X191867339Y-84477359D01*
X191883555Y-84471557D01*
X191900262Y-84467372D01*
X191917298Y-84464845D01*
X191934500Y-84464000D01*
X193435500Y-84464000D01*
X193452702Y-84464845D01*
X193452702Y-84464845D01*
G37*
D26*
X192685000Y-84815000D03*
D14*
G36*
X193452702Y-85734845D02*
G01*
X193469738Y-85737372D01*
X193486445Y-85741557D01*
X193502661Y-85747359D01*
X193518230Y-85754723D01*
X193533003Y-85763577D01*
X193546836Y-85773837D01*
X193559597Y-85785403D01*
X193571163Y-85798164D01*
X193581423Y-85811997D01*
X193590277Y-85826770D01*
X193597641Y-85842339D01*
X193603443Y-85858555D01*
X193607628Y-85875262D01*
X193610155Y-85892298D01*
X193611000Y-85909500D01*
X193611000Y-86260500D01*
X193610155Y-86277702D01*
X193607628Y-86294738D01*
X193603443Y-86311445D01*
X193597641Y-86327661D01*
X193590277Y-86343230D01*
X193581423Y-86358003D01*
X193571163Y-86371836D01*
X193559597Y-86384597D01*
X193546836Y-86396163D01*
X193533003Y-86406423D01*
X193518230Y-86415277D01*
X193502661Y-86422641D01*
X193486445Y-86428443D01*
X193469738Y-86432628D01*
X193452702Y-86435155D01*
X193435500Y-86436000D01*
X191934500Y-86436000D01*
X191917298Y-86435155D01*
X191900262Y-86432628D01*
X191883555Y-86428443D01*
X191867339Y-86422641D01*
X191851770Y-86415277D01*
X191836997Y-86406423D01*
X191823164Y-86396163D01*
X191810403Y-86384597D01*
X191798837Y-86371836D01*
X191788577Y-86358003D01*
X191779723Y-86343230D01*
X191772359Y-86327661D01*
X191766557Y-86311445D01*
X191762372Y-86294738D01*
X191759845Y-86277702D01*
X191759000Y-86260500D01*
X191759000Y-85909500D01*
X191759845Y-85892298D01*
X191762372Y-85875262D01*
X191766557Y-85858555D01*
X191772359Y-85842339D01*
X191779723Y-85826770D01*
X191788577Y-85811997D01*
X191798837Y-85798164D01*
X191810403Y-85785403D01*
X191823164Y-85773837D01*
X191836997Y-85763577D01*
X191851770Y-85754723D01*
X191867339Y-85747359D01*
X191883555Y-85741557D01*
X191900262Y-85737372D01*
X191917298Y-85734845D01*
X191934500Y-85734000D01*
X193435500Y-85734000D01*
X193452702Y-85734845D01*
X193452702Y-85734845D01*
G37*
D26*
X192685000Y-86085000D03*
D14*
G36*
X193452702Y-87004845D02*
G01*
X193469738Y-87007372D01*
X193486445Y-87011557D01*
X193502661Y-87017359D01*
X193518230Y-87024723D01*
X193533003Y-87033577D01*
X193546836Y-87043837D01*
X193559597Y-87055403D01*
X193571163Y-87068164D01*
X193581423Y-87081997D01*
X193590277Y-87096770D01*
X193597641Y-87112339D01*
X193603443Y-87128555D01*
X193607628Y-87145262D01*
X193610155Y-87162298D01*
X193611000Y-87179500D01*
X193611000Y-87530500D01*
X193610155Y-87547702D01*
X193607628Y-87564738D01*
X193603443Y-87581445D01*
X193597641Y-87597661D01*
X193590277Y-87613230D01*
X193581423Y-87628003D01*
X193571163Y-87641836D01*
X193559597Y-87654597D01*
X193546836Y-87666163D01*
X193533003Y-87676423D01*
X193518230Y-87685277D01*
X193502661Y-87692641D01*
X193486445Y-87698443D01*
X193469738Y-87702628D01*
X193452702Y-87705155D01*
X193435500Y-87706000D01*
X191934500Y-87706000D01*
X191917298Y-87705155D01*
X191900262Y-87702628D01*
X191883555Y-87698443D01*
X191867339Y-87692641D01*
X191851770Y-87685277D01*
X191836997Y-87676423D01*
X191823164Y-87666163D01*
X191810403Y-87654597D01*
X191798837Y-87641836D01*
X191788577Y-87628003D01*
X191779723Y-87613230D01*
X191772359Y-87597661D01*
X191766557Y-87581445D01*
X191762372Y-87564738D01*
X191759845Y-87547702D01*
X191759000Y-87530500D01*
X191759000Y-87179500D01*
X191759845Y-87162298D01*
X191762372Y-87145262D01*
X191766557Y-87128555D01*
X191772359Y-87112339D01*
X191779723Y-87096770D01*
X191788577Y-87081997D01*
X191798837Y-87068164D01*
X191810403Y-87055403D01*
X191823164Y-87043837D01*
X191836997Y-87033577D01*
X191851770Y-87024723D01*
X191867339Y-87017359D01*
X191883555Y-87011557D01*
X191900262Y-87007372D01*
X191917298Y-87004845D01*
X191934500Y-87004000D01*
X193435500Y-87004000D01*
X193452702Y-87004845D01*
X193452702Y-87004845D01*
G37*
D26*
X192685000Y-87355000D03*
D14*
G36*
X193452702Y-88274845D02*
G01*
X193469738Y-88277372D01*
X193486445Y-88281557D01*
X193502661Y-88287359D01*
X193518230Y-88294723D01*
X193533003Y-88303577D01*
X193546836Y-88313837D01*
X193559597Y-88325403D01*
X193571163Y-88338164D01*
X193581423Y-88351997D01*
X193590277Y-88366770D01*
X193597641Y-88382339D01*
X193603443Y-88398555D01*
X193607628Y-88415262D01*
X193610155Y-88432298D01*
X193611000Y-88449500D01*
X193611000Y-88800500D01*
X193610155Y-88817702D01*
X193607628Y-88834738D01*
X193603443Y-88851445D01*
X193597641Y-88867661D01*
X193590277Y-88883230D01*
X193581423Y-88898003D01*
X193571163Y-88911836D01*
X193559597Y-88924597D01*
X193546836Y-88936163D01*
X193533003Y-88946423D01*
X193518230Y-88955277D01*
X193502661Y-88962641D01*
X193486445Y-88968443D01*
X193469738Y-88972628D01*
X193452702Y-88975155D01*
X193435500Y-88976000D01*
X191934500Y-88976000D01*
X191917298Y-88975155D01*
X191900262Y-88972628D01*
X191883555Y-88968443D01*
X191867339Y-88962641D01*
X191851770Y-88955277D01*
X191836997Y-88946423D01*
X191823164Y-88936163D01*
X191810403Y-88924597D01*
X191798837Y-88911836D01*
X191788577Y-88898003D01*
X191779723Y-88883230D01*
X191772359Y-88867661D01*
X191766557Y-88851445D01*
X191762372Y-88834738D01*
X191759845Y-88817702D01*
X191759000Y-88800500D01*
X191759000Y-88449500D01*
X191759845Y-88432298D01*
X191762372Y-88415262D01*
X191766557Y-88398555D01*
X191772359Y-88382339D01*
X191779723Y-88366770D01*
X191788577Y-88351997D01*
X191798837Y-88338164D01*
X191810403Y-88325403D01*
X191823164Y-88313837D01*
X191836997Y-88303577D01*
X191851770Y-88294723D01*
X191867339Y-88287359D01*
X191883555Y-88281557D01*
X191900262Y-88277372D01*
X191917298Y-88274845D01*
X191934500Y-88274000D01*
X193435500Y-88274000D01*
X193452702Y-88274845D01*
X193452702Y-88274845D01*
G37*
D26*
X192685000Y-88625000D03*
D14*
G36*
X198602702Y-88274845D02*
G01*
X198619738Y-88277372D01*
X198636445Y-88281557D01*
X198652661Y-88287359D01*
X198668230Y-88294723D01*
X198683003Y-88303577D01*
X198696836Y-88313837D01*
X198709597Y-88325403D01*
X198721163Y-88338164D01*
X198731423Y-88351997D01*
X198740277Y-88366770D01*
X198747641Y-88382339D01*
X198753443Y-88398555D01*
X198757628Y-88415262D01*
X198760155Y-88432298D01*
X198761000Y-88449500D01*
X198761000Y-88800500D01*
X198760155Y-88817702D01*
X198757628Y-88834738D01*
X198753443Y-88851445D01*
X198747641Y-88867661D01*
X198740277Y-88883230D01*
X198731423Y-88898003D01*
X198721163Y-88911836D01*
X198709597Y-88924597D01*
X198696836Y-88936163D01*
X198683003Y-88946423D01*
X198668230Y-88955277D01*
X198652661Y-88962641D01*
X198636445Y-88968443D01*
X198619738Y-88972628D01*
X198602702Y-88975155D01*
X198585500Y-88976000D01*
X197084500Y-88976000D01*
X197067298Y-88975155D01*
X197050262Y-88972628D01*
X197033555Y-88968443D01*
X197017339Y-88962641D01*
X197001770Y-88955277D01*
X196986997Y-88946423D01*
X196973164Y-88936163D01*
X196960403Y-88924597D01*
X196948837Y-88911836D01*
X196938577Y-88898003D01*
X196929723Y-88883230D01*
X196922359Y-88867661D01*
X196916557Y-88851445D01*
X196912372Y-88834738D01*
X196909845Y-88817702D01*
X196909000Y-88800500D01*
X196909000Y-88449500D01*
X196909845Y-88432298D01*
X196912372Y-88415262D01*
X196916557Y-88398555D01*
X196922359Y-88382339D01*
X196929723Y-88366770D01*
X196938577Y-88351997D01*
X196948837Y-88338164D01*
X196960403Y-88325403D01*
X196973164Y-88313837D01*
X196986997Y-88303577D01*
X197001770Y-88294723D01*
X197017339Y-88287359D01*
X197033555Y-88281557D01*
X197050262Y-88277372D01*
X197067298Y-88274845D01*
X197084500Y-88274000D01*
X198585500Y-88274000D01*
X198602702Y-88274845D01*
X198602702Y-88274845D01*
G37*
D26*
X197835000Y-88625000D03*
D14*
G36*
X198602702Y-87004845D02*
G01*
X198619738Y-87007372D01*
X198636445Y-87011557D01*
X198652661Y-87017359D01*
X198668230Y-87024723D01*
X198683003Y-87033577D01*
X198696836Y-87043837D01*
X198709597Y-87055403D01*
X198721163Y-87068164D01*
X198731423Y-87081997D01*
X198740277Y-87096770D01*
X198747641Y-87112339D01*
X198753443Y-87128555D01*
X198757628Y-87145262D01*
X198760155Y-87162298D01*
X198761000Y-87179500D01*
X198761000Y-87530500D01*
X198760155Y-87547702D01*
X198757628Y-87564738D01*
X198753443Y-87581445D01*
X198747641Y-87597661D01*
X198740277Y-87613230D01*
X198731423Y-87628003D01*
X198721163Y-87641836D01*
X198709597Y-87654597D01*
X198696836Y-87666163D01*
X198683003Y-87676423D01*
X198668230Y-87685277D01*
X198652661Y-87692641D01*
X198636445Y-87698443D01*
X198619738Y-87702628D01*
X198602702Y-87705155D01*
X198585500Y-87706000D01*
X197084500Y-87706000D01*
X197067298Y-87705155D01*
X197050262Y-87702628D01*
X197033555Y-87698443D01*
X197017339Y-87692641D01*
X197001770Y-87685277D01*
X196986997Y-87676423D01*
X196973164Y-87666163D01*
X196960403Y-87654597D01*
X196948837Y-87641836D01*
X196938577Y-87628003D01*
X196929723Y-87613230D01*
X196922359Y-87597661D01*
X196916557Y-87581445D01*
X196912372Y-87564738D01*
X196909845Y-87547702D01*
X196909000Y-87530500D01*
X196909000Y-87179500D01*
X196909845Y-87162298D01*
X196912372Y-87145262D01*
X196916557Y-87128555D01*
X196922359Y-87112339D01*
X196929723Y-87096770D01*
X196938577Y-87081997D01*
X196948837Y-87068164D01*
X196960403Y-87055403D01*
X196973164Y-87043837D01*
X196986997Y-87033577D01*
X197001770Y-87024723D01*
X197017339Y-87017359D01*
X197033555Y-87011557D01*
X197050262Y-87007372D01*
X197067298Y-87004845D01*
X197084500Y-87004000D01*
X198585500Y-87004000D01*
X198602702Y-87004845D01*
X198602702Y-87004845D01*
G37*
D26*
X197835000Y-87355000D03*
D14*
G36*
X198602702Y-85734845D02*
G01*
X198619738Y-85737372D01*
X198636445Y-85741557D01*
X198652661Y-85747359D01*
X198668230Y-85754723D01*
X198683003Y-85763577D01*
X198696836Y-85773837D01*
X198709597Y-85785403D01*
X198721163Y-85798164D01*
X198731423Y-85811997D01*
X198740277Y-85826770D01*
X198747641Y-85842339D01*
X198753443Y-85858555D01*
X198757628Y-85875262D01*
X198760155Y-85892298D01*
X198761000Y-85909500D01*
X198761000Y-86260500D01*
X198760155Y-86277702D01*
X198757628Y-86294738D01*
X198753443Y-86311445D01*
X198747641Y-86327661D01*
X198740277Y-86343230D01*
X198731423Y-86358003D01*
X198721163Y-86371836D01*
X198709597Y-86384597D01*
X198696836Y-86396163D01*
X198683003Y-86406423D01*
X198668230Y-86415277D01*
X198652661Y-86422641D01*
X198636445Y-86428443D01*
X198619738Y-86432628D01*
X198602702Y-86435155D01*
X198585500Y-86436000D01*
X197084500Y-86436000D01*
X197067298Y-86435155D01*
X197050262Y-86432628D01*
X197033555Y-86428443D01*
X197017339Y-86422641D01*
X197001770Y-86415277D01*
X196986997Y-86406423D01*
X196973164Y-86396163D01*
X196960403Y-86384597D01*
X196948837Y-86371836D01*
X196938577Y-86358003D01*
X196929723Y-86343230D01*
X196922359Y-86327661D01*
X196916557Y-86311445D01*
X196912372Y-86294738D01*
X196909845Y-86277702D01*
X196909000Y-86260500D01*
X196909000Y-85909500D01*
X196909845Y-85892298D01*
X196912372Y-85875262D01*
X196916557Y-85858555D01*
X196922359Y-85842339D01*
X196929723Y-85826770D01*
X196938577Y-85811997D01*
X196948837Y-85798164D01*
X196960403Y-85785403D01*
X196973164Y-85773837D01*
X196986997Y-85763577D01*
X197001770Y-85754723D01*
X197017339Y-85747359D01*
X197033555Y-85741557D01*
X197050262Y-85737372D01*
X197067298Y-85734845D01*
X197084500Y-85734000D01*
X198585500Y-85734000D01*
X198602702Y-85734845D01*
X198602702Y-85734845D01*
G37*
D26*
X197835000Y-86085000D03*
D14*
G36*
X198602702Y-84464845D02*
G01*
X198619738Y-84467372D01*
X198636445Y-84471557D01*
X198652661Y-84477359D01*
X198668230Y-84484723D01*
X198683003Y-84493577D01*
X198696836Y-84503837D01*
X198709597Y-84515403D01*
X198721163Y-84528164D01*
X198731423Y-84541997D01*
X198740277Y-84556770D01*
X198747641Y-84572339D01*
X198753443Y-84588555D01*
X198757628Y-84605262D01*
X198760155Y-84622298D01*
X198761000Y-84639500D01*
X198761000Y-84990500D01*
X198760155Y-85007702D01*
X198757628Y-85024738D01*
X198753443Y-85041445D01*
X198747641Y-85057661D01*
X198740277Y-85073230D01*
X198731423Y-85088003D01*
X198721163Y-85101836D01*
X198709597Y-85114597D01*
X198696836Y-85126163D01*
X198683003Y-85136423D01*
X198668230Y-85145277D01*
X198652661Y-85152641D01*
X198636445Y-85158443D01*
X198619738Y-85162628D01*
X198602702Y-85165155D01*
X198585500Y-85166000D01*
X197084500Y-85166000D01*
X197067298Y-85165155D01*
X197050262Y-85162628D01*
X197033555Y-85158443D01*
X197017339Y-85152641D01*
X197001770Y-85145277D01*
X196986997Y-85136423D01*
X196973164Y-85126163D01*
X196960403Y-85114597D01*
X196948837Y-85101836D01*
X196938577Y-85088003D01*
X196929723Y-85073230D01*
X196922359Y-85057661D01*
X196916557Y-85041445D01*
X196912372Y-85024738D01*
X196909845Y-85007702D01*
X196909000Y-84990500D01*
X196909000Y-84639500D01*
X196909845Y-84622298D01*
X196912372Y-84605262D01*
X196916557Y-84588555D01*
X196922359Y-84572339D01*
X196929723Y-84556770D01*
X196938577Y-84541997D01*
X196948837Y-84528164D01*
X196960403Y-84515403D01*
X196973164Y-84503837D01*
X196986997Y-84493577D01*
X197001770Y-84484723D01*
X197017339Y-84477359D01*
X197033555Y-84471557D01*
X197050262Y-84467372D01*
X197067298Y-84464845D01*
X197084500Y-84464000D01*
X198585500Y-84464000D01*
X198602702Y-84464845D01*
X198602702Y-84464845D01*
G37*
D26*
X197835000Y-84815000D03*
D18*
X167400000Y-83060000D03*
D17*
X167400000Y-85600000D03*
X167400000Y-88140000D03*
X167400000Y-90680000D03*
D14*
G36*
X153210141Y-83930297D02*
G01*
X153236278Y-83934174D01*
X153261909Y-83940594D01*
X153286788Y-83949495D01*
X153310674Y-83960793D01*
X153333337Y-83974377D01*
X153354560Y-83990117D01*
X153374139Y-84007861D01*
X153391883Y-84027440D01*
X153407623Y-84048663D01*
X153421207Y-84071326D01*
X153432505Y-84095212D01*
X153441406Y-84120091D01*
X153447826Y-84145722D01*
X153451703Y-84171859D01*
X153453000Y-84198250D01*
X153453000Y-85161750D01*
X153451703Y-85188141D01*
X153447826Y-85214278D01*
X153441406Y-85239909D01*
X153432505Y-85264788D01*
X153421207Y-85288674D01*
X153407623Y-85311337D01*
X153391883Y-85332560D01*
X153374139Y-85352139D01*
X153354560Y-85369883D01*
X153333337Y-85385623D01*
X153310674Y-85399207D01*
X153286788Y-85410505D01*
X153261909Y-85419406D01*
X153236278Y-85425826D01*
X153210141Y-85429703D01*
X153183750Y-85431000D01*
X152645250Y-85431000D01*
X152618859Y-85429703D01*
X152592722Y-85425826D01*
X152567091Y-85419406D01*
X152542212Y-85410505D01*
X152518326Y-85399207D01*
X152495663Y-85385623D01*
X152474440Y-85369883D01*
X152454861Y-85352139D01*
X152437117Y-85332560D01*
X152421377Y-85311337D01*
X152407793Y-85288674D01*
X152396495Y-85264788D01*
X152387594Y-85239909D01*
X152381174Y-85214278D01*
X152377297Y-85188141D01*
X152376000Y-85161750D01*
X152376000Y-84198250D01*
X152377297Y-84171859D01*
X152381174Y-84145722D01*
X152387594Y-84120091D01*
X152396495Y-84095212D01*
X152407793Y-84071326D01*
X152421377Y-84048663D01*
X152437117Y-84027440D01*
X152454861Y-84007861D01*
X152474440Y-83990117D01*
X152495663Y-83974377D01*
X152518326Y-83960793D01*
X152542212Y-83949495D01*
X152567091Y-83940594D01*
X152592722Y-83934174D01*
X152618859Y-83930297D01*
X152645250Y-83929000D01*
X153183750Y-83929000D01*
X153210141Y-83930297D01*
X153210141Y-83930297D01*
G37*
D27*
X152914500Y-84680000D03*
D14*
G36*
X155085141Y-83930297D02*
G01*
X155111278Y-83934174D01*
X155136909Y-83940594D01*
X155161788Y-83949495D01*
X155185674Y-83960793D01*
X155208337Y-83974377D01*
X155229560Y-83990117D01*
X155249139Y-84007861D01*
X155266883Y-84027440D01*
X155282623Y-84048663D01*
X155296207Y-84071326D01*
X155307505Y-84095212D01*
X155316406Y-84120091D01*
X155322826Y-84145722D01*
X155326703Y-84171859D01*
X155328000Y-84198250D01*
X155328000Y-85161750D01*
X155326703Y-85188141D01*
X155322826Y-85214278D01*
X155316406Y-85239909D01*
X155307505Y-85264788D01*
X155296207Y-85288674D01*
X155282623Y-85311337D01*
X155266883Y-85332560D01*
X155249139Y-85352139D01*
X155229560Y-85369883D01*
X155208337Y-85385623D01*
X155185674Y-85399207D01*
X155161788Y-85410505D01*
X155136909Y-85419406D01*
X155111278Y-85425826D01*
X155085141Y-85429703D01*
X155058750Y-85431000D01*
X154520250Y-85431000D01*
X154493859Y-85429703D01*
X154467722Y-85425826D01*
X154442091Y-85419406D01*
X154417212Y-85410505D01*
X154393326Y-85399207D01*
X154370663Y-85385623D01*
X154349440Y-85369883D01*
X154329861Y-85352139D01*
X154312117Y-85332560D01*
X154296377Y-85311337D01*
X154282793Y-85288674D01*
X154271495Y-85264788D01*
X154262594Y-85239909D01*
X154256174Y-85214278D01*
X154252297Y-85188141D01*
X154251000Y-85161750D01*
X154251000Y-84198250D01*
X154252297Y-84171859D01*
X154256174Y-84145722D01*
X154262594Y-84120091D01*
X154271495Y-84095212D01*
X154282793Y-84071326D01*
X154296377Y-84048663D01*
X154312117Y-84027440D01*
X154329861Y-84007861D01*
X154349440Y-83990117D01*
X154370663Y-83974377D01*
X154393326Y-83960793D01*
X154417212Y-83949495D01*
X154442091Y-83940594D01*
X154467722Y-83934174D01*
X154493859Y-83930297D01*
X154520250Y-83929000D01*
X155058750Y-83929000D01*
X155085141Y-83930297D01*
X155085141Y-83930297D01*
G37*
D27*
X154789500Y-84680000D03*
D14*
G36*
X155173141Y-90110297D02*
G01*
X155199278Y-90114174D01*
X155224909Y-90120594D01*
X155249788Y-90129495D01*
X155273674Y-90140793D01*
X155296337Y-90154377D01*
X155317560Y-90170117D01*
X155337139Y-90187861D01*
X155354883Y-90207440D01*
X155370623Y-90228663D01*
X155384207Y-90251326D01*
X155395505Y-90275212D01*
X155404406Y-90300091D01*
X155410826Y-90325722D01*
X155414703Y-90351859D01*
X155416000Y-90378250D01*
X155416000Y-91341750D01*
X155414703Y-91368141D01*
X155410826Y-91394278D01*
X155404406Y-91419909D01*
X155395505Y-91444788D01*
X155384207Y-91468674D01*
X155370623Y-91491337D01*
X155354883Y-91512560D01*
X155337139Y-91532139D01*
X155317560Y-91549883D01*
X155296337Y-91565623D01*
X155273674Y-91579207D01*
X155249788Y-91590505D01*
X155224909Y-91599406D01*
X155199278Y-91605826D01*
X155173141Y-91609703D01*
X155146750Y-91611000D01*
X154608250Y-91611000D01*
X154581859Y-91609703D01*
X154555722Y-91605826D01*
X154530091Y-91599406D01*
X154505212Y-91590505D01*
X154481326Y-91579207D01*
X154458663Y-91565623D01*
X154437440Y-91549883D01*
X154417861Y-91532139D01*
X154400117Y-91512560D01*
X154384377Y-91491337D01*
X154370793Y-91468674D01*
X154359495Y-91444788D01*
X154350594Y-91419909D01*
X154344174Y-91394278D01*
X154340297Y-91368141D01*
X154339000Y-91341750D01*
X154339000Y-90378250D01*
X154340297Y-90351859D01*
X154344174Y-90325722D01*
X154350594Y-90300091D01*
X154359495Y-90275212D01*
X154370793Y-90251326D01*
X154384377Y-90228663D01*
X154400117Y-90207440D01*
X154417861Y-90187861D01*
X154437440Y-90170117D01*
X154458663Y-90154377D01*
X154481326Y-90140793D01*
X154505212Y-90129495D01*
X154530091Y-90120594D01*
X154555722Y-90114174D01*
X154581859Y-90110297D01*
X154608250Y-90109000D01*
X155146750Y-90109000D01*
X155173141Y-90110297D01*
X155173141Y-90110297D01*
G37*
D27*
X154877500Y-90860000D03*
D14*
G36*
X153298141Y-90110297D02*
G01*
X153324278Y-90114174D01*
X153349909Y-90120594D01*
X153374788Y-90129495D01*
X153398674Y-90140793D01*
X153421337Y-90154377D01*
X153442560Y-90170117D01*
X153462139Y-90187861D01*
X153479883Y-90207440D01*
X153495623Y-90228663D01*
X153509207Y-90251326D01*
X153520505Y-90275212D01*
X153529406Y-90300091D01*
X153535826Y-90325722D01*
X153539703Y-90351859D01*
X153541000Y-90378250D01*
X153541000Y-91341750D01*
X153539703Y-91368141D01*
X153535826Y-91394278D01*
X153529406Y-91419909D01*
X153520505Y-91444788D01*
X153509207Y-91468674D01*
X153495623Y-91491337D01*
X153479883Y-91512560D01*
X153462139Y-91532139D01*
X153442560Y-91549883D01*
X153421337Y-91565623D01*
X153398674Y-91579207D01*
X153374788Y-91590505D01*
X153349909Y-91599406D01*
X153324278Y-91605826D01*
X153298141Y-91609703D01*
X153271750Y-91611000D01*
X152733250Y-91611000D01*
X152706859Y-91609703D01*
X152680722Y-91605826D01*
X152655091Y-91599406D01*
X152630212Y-91590505D01*
X152606326Y-91579207D01*
X152583663Y-91565623D01*
X152562440Y-91549883D01*
X152542861Y-91532139D01*
X152525117Y-91512560D01*
X152509377Y-91491337D01*
X152495793Y-91468674D01*
X152484495Y-91444788D01*
X152475594Y-91419909D01*
X152469174Y-91394278D01*
X152465297Y-91368141D01*
X152464000Y-91341750D01*
X152464000Y-90378250D01*
X152465297Y-90351859D01*
X152469174Y-90325722D01*
X152475594Y-90300091D01*
X152484495Y-90275212D01*
X152495793Y-90251326D01*
X152509377Y-90228663D01*
X152525117Y-90207440D01*
X152542861Y-90187861D01*
X152562440Y-90170117D01*
X152583663Y-90154377D01*
X152606326Y-90140793D01*
X152630212Y-90129495D01*
X152655091Y-90120594D01*
X152680722Y-90114174D01*
X152706859Y-90110297D01*
X152733250Y-90109000D01*
X153271750Y-90109000D01*
X153298141Y-90110297D01*
X153298141Y-90110297D01*
G37*
D27*
X153002500Y-90860000D03*
D14*
G36*
X178105691Y-80037676D02*
G01*
X178129401Y-80041193D01*
X178152652Y-80047017D01*
X178175220Y-80055092D01*
X178196889Y-80065341D01*
X178217448Y-80077664D01*
X178236701Y-80091942D01*
X178254461Y-80108039D01*
X178270558Y-80125799D01*
X178284836Y-80145052D01*
X178297159Y-80165611D01*
X178307408Y-80187280D01*
X178315483Y-80209848D01*
X178321307Y-80233099D01*
X178324824Y-80256809D01*
X178326000Y-80280750D01*
X178326000Y-80769250D01*
X178324824Y-80793191D01*
X178321307Y-80816901D01*
X178315483Y-80840152D01*
X178307408Y-80862720D01*
X178297159Y-80884389D01*
X178284836Y-80904948D01*
X178270558Y-80924201D01*
X178254461Y-80941961D01*
X178236701Y-80958058D01*
X178217448Y-80972336D01*
X178196889Y-80984659D01*
X178175220Y-80994908D01*
X178152652Y-81002983D01*
X178129401Y-81008807D01*
X178105691Y-81012324D01*
X178081750Y-81013500D01*
X177518250Y-81013500D01*
X177494309Y-81012324D01*
X177470599Y-81008807D01*
X177447348Y-81002983D01*
X177424780Y-80994908D01*
X177403111Y-80984659D01*
X177382552Y-80972336D01*
X177363299Y-80958058D01*
X177345539Y-80941961D01*
X177329442Y-80924201D01*
X177315164Y-80904948D01*
X177302841Y-80884389D01*
X177292592Y-80862720D01*
X177284517Y-80840152D01*
X177278693Y-80816901D01*
X177275176Y-80793191D01*
X177274000Y-80769250D01*
X177274000Y-80280750D01*
X177275176Y-80256809D01*
X177278693Y-80233099D01*
X177284517Y-80209848D01*
X177292592Y-80187280D01*
X177302841Y-80165611D01*
X177315164Y-80145052D01*
X177329442Y-80125799D01*
X177345539Y-80108039D01*
X177363299Y-80091942D01*
X177382552Y-80077664D01*
X177403111Y-80065341D01*
X177424780Y-80055092D01*
X177447348Y-80047017D01*
X177470599Y-80041193D01*
X177494309Y-80037676D01*
X177518250Y-80036500D01*
X178081750Y-80036500D01*
X178105691Y-80037676D01*
X178105691Y-80037676D01*
G37*
D21*
X177800000Y-80525000D03*
D14*
G36*
X178105691Y-81612676D02*
G01*
X178129401Y-81616193D01*
X178152652Y-81622017D01*
X178175220Y-81630092D01*
X178196889Y-81640341D01*
X178217448Y-81652664D01*
X178236701Y-81666942D01*
X178254461Y-81683039D01*
X178270558Y-81700799D01*
X178284836Y-81720052D01*
X178297159Y-81740611D01*
X178307408Y-81762280D01*
X178315483Y-81784848D01*
X178321307Y-81808099D01*
X178324824Y-81831809D01*
X178326000Y-81855750D01*
X178326000Y-82344250D01*
X178324824Y-82368191D01*
X178321307Y-82391901D01*
X178315483Y-82415152D01*
X178307408Y-82437720D01*
X178297159Y-82459389D01*
X178284836Y-82479948D01*
X178270558Y-82499201D01*
X178254461Y-82516961D01*
X178236701Y-82533058D01*
X178217448Y-82547336D01*
X178196889Y-82559659D01*
X178175220Y-82569908D01*
X178152652Y-82577983D01*
X178129401Y-82583807D01*
X178105691Y-82587324D01*
X178081750Y-82588500D01*
X177518250Y-82588500D01*
X177494309Y-82587324D01*
X177470599Y-82583807D01*
X177447348Y-82577983D01*
X177424780Y-82569908D01*
X177403111Y-82559659D01*
X177382552Y-82547336D01*
X177363299Y-82533058D01*
X177345539Y-82516961D01*
X177329442Y-82499201D01*
X177315164Y-82479948D01*
X177302841Y-82459389D01*
X177292592Y-82437720D01*
X177284517Y-82415152D01*
X177278693Y-82391901D01*
X177275176Y-82368191D01*
X177274000Y-82344250D01*
X177274000Y-81855750D01*
X177275176Y-81831809D01*
X177278693Y-81808099D01*
X177284517Y-81784848D01*
X177292592Y-81762280D01*
X177302841Y-81740611D01*
X177315164Y-81720052D01*
X177329442Y-81700799D01*
X177345539Y-81683039D01*
X177363299Y-81666942D01*
X177382552Y-81652664D01*
X177403111Y-81640341D01*
X177424780Y-81630092D01*
X177447348Y-81622017D01*
X177470599Y-81616193D01*
X177494309Y-81612676D01*
X177518250Y-81611500D01*
X178081750Y-81611500D01*
X178105691Y-81612676D01*
X178105691Y-81612676D01*
G37*
D21*
X177800000Y-82100000D03*
D28*
X181025000Y-81700000D03*
D29*
X181600000Y-81700000D03*
D28*
X182175000Y-81700000D03*
X182175000Y-80450000D03*
D29*
X181600000Y-80450000D03*
D28*
X181025000Y-80450000D03*
M02*
