M48
; DRILL file {KiCad (5.1.2)-1} date 2021/06/02 21:36:35
; FORMAT={-:-/ absolute / metric / decimal}
; #@! TF.CreationDate,2021-06-02T21:36:35+09:00
; #@! TF.GenerationSoftware,Kicad,Pcbnew,(5.1.2)-1
FMAT,2
METRIC
T1C0.400
T2C0.500
T3C0.550
T4C0.762
T5C1.000
T6C3.200
%
G90
G05
T1
X137.242Y-85.85
X150.7Y-91.4
X165.119Y-90.5
X175.565Y-83.552
X176.387Y-84.968
X177.7Y-86.2
X178.9Y-84.75
X179.8Y-83.7
X179.845Y-81.38
X179.977Y-91.193
X181.589Y-90.896
X183.709Y-90.789
X185.4Y-90.25
X188.47Y-88.209
X190.3Y-91.25
X193.35Y-90.2
X194.244Y-85.812
X194.614Y-87.966
X196.363Y-86.085
T4
X142.13Y-83.62
X142.13Y-85.62
X142.13Y-87.62
X142.13Y-89.62
X172.36Y-83.5
X172.36Y-85.5
X172.36Y-87.5
X172.36Y-89.5
T5
X167.4Y-83.06
X167.4Y-85.6
X167.4Y-88.14
X167.4Y-90.68
X191.96Y-92.5
X194.5Y-92.5
X197.04Y-92.5
X191.9Y-80.4
X194.44Y-80.4
X196.98Y-80.4
X199.52Y-80.4
T6
X207.0Y-81.9
X207.0Y-91.0
X147.0Y-91.0
X147.0Y-81.9
T2
G00X136.655Y-83.0
M15
G01X136.005Y-83.0
M16
G05
G00X136.655Y-90.0
M15
G01X136.005Y-90.0
M16
G05
T3
G00X139.03Y-83.85
M15
G01X139.03Y-84.15
M16
G05
G00X139.03Y-88.85
M15
G01X139.03Y-89.15
M16
G05
T0
M30
